%TF.GenerationSoftware,KiCad,Pcbnew,7.0.5*%
%TF.CreationDate,2023-07-07T08:41:41+03:00*%
%TF.ProjectId,carrier_board_v1,63617272-6965-4725-9f62-6f6172645f76,v01*%
%TF.SameCoordinates,Original*%
%TF.FileFunction,Soldermask,Top*%
%TF.FilePolarity,Negative*%
%FSLAX46Y46*%
G04 Gerber Fmt 4.6, Leading zero omitted, Abs format (unit mm)*
G04 Created by KiCad (PCBNEW 7.0.5) date 2023-07-07 08:41:41*
%MOMM*%
%LPD*%
G01*
G04 APERTURE LIST*
%ADD10R,1.700000X1.700000*%
%ADD11O,1.700000X1.700000*%
%ADD12C,6.100000*%
%ADD13R,0.700000X0.200000*%
%ADD14C,0.499999*%
%ADD15C,1.168400*%
%ADD16C,0.650000*%
%ADD17O,1.050000X2.100000*%
%ADD18O,1.000000X2.000000*%
G04 APERTURE END LIST*
D10*
%TO.C,J7*%
X136075000Y-117200000D03*
D11*
X138615000Y-117200000D03*
X141155000Y-117200000D03*
X143695000Y-117200000D03*
X146235000Y-117200000D03*
X148775000Y-117200000D03*
X151315000Y-117200000D03*
X153855000Y-117200000D03*
X156395000Y-117200000D03*
X158935000Y-117200000D03*
X161475000Y-117200000D03*
X164015000Y-117200000D03*
%TD*%
D12*
%TO.C,V1*%
X163000000Y-130000000D03*
X163000000Y-82000000D03*
X130000000Y-130000000D03*
X130000000Y-82000000D03*
D13*
X165000000Y-113300000D03*
X161920000Y-113300000D03*
X165000000Y-112900000D03*
X161920000Y-112900000D03*
X165000000Y-112500000D03*
X161920000Y-112500000D03*
X165000000Y-112100000D03*
X161920000Y-112100000D03*
X165000000Y-111700000D03*
X161920000Y-111700000D03*
X165000000Y-111300000D03*
X161920000Y-111300000D03*
X165000000Y-110900000D03*
X161920000Y-110900000D03*
X165000000Y-110500000D03*
X161920000Y-110500000D03*
X165000000Y-110100000D03*
X161920000Y-110100000D03*
X165000000Y-109700000D03*
X161920000Y-109700000D03*
X165000000Y-109300000D03*
X161920000Y-109300000D03*
X165000000Y-108900000D03*
X161920000Y-108900000D03*
X165000000Y-108500000D03*
X161920000Y-108500000D03*
X165000000Y-108100000D03*
X161920000Y-108100000D03*
X165000000Y-107700000D03*
X161920000Y-107700000D03*
X165000000Y-107300000D03*
X161920000Y-107300000D03*
X165000000Y-106900000D03*
X161920000Y-106900000D03*
X165000000Y-106500000D03*
X161920000Y-106500000D03*
X165000000Y-106100000D03*
X161920000Y-106100000D03*
X165000000Y-105700000D03*
X161920000Y-105700000D03*
X165000000Y-105300000D03*
X161920000Y-105300000D03*
X165000000Y-104900000D03*
X161920000Y-104900000D03*
X165000000Y-104500000D03*
X161920000Y-104500000D03*
X165000000Y-104100000D03*
X161920000Y-104100000D03*
X165000000Y-103700000D03*
X161920000Y-103700000D03*
X165000000Y-103300000D03*
X161920000Y-103300000D03*
X165000000Y-102900000D03*
X161920000Y-102900000D03*
X165000000Y-102500000D03*
X161920000Y-102500000D03*
X165000000Y-102100000D03*
X161920000Y-102100000D03*
X165000000Y-101700000D03*
X161920000Y-101700000D03*
X165000000Y-101300000D03*
X161920000Y-101300000D03*
X165000000Y-100900000D03*
X161920000Y-100900000D03*
X165000000Y-100500000D03*
X161920000Y-100500000D03*
X165000000Y-100100000D03*
X161920000Y-100100000D03*
X165000000Y-99700000D03*
X161920000Y-99700000D03*
X165000000Y-99300000D03*
X161920000Y-99300000D03*
X165000000Y-98900000D03*
X161920000Y-98900000D03*
X165000000Y-98500000D03*
X161920000Y-98500000D03*
X165000000Y-98100000D03*
X161920000Y-98100000D03*
X165000000Y-97700000D03*
X161920000Y-97700000D03*
X165000000Y-97300000D03*
X161920000Y-97300000D03*
X165000000Y-96900000D03*
X161920000Y-96900000D03*
X165000000Y-96500000D03*
X161920000Y-96500000D03*
X165000000Y-96100000D03*
X161920000Y-96100000D03*
X165000000Y-95700000D03*
X161920000Y-95700000D03*
X165000000Y-95300000D03*
X161920000Y-95300000D03*
X165000000Y-94900000D03*
X161920000Y-94900000D03*
X165000000Y-94500000D03*
X161920000Y-94500000D03*
X165000000Y-94100000D03*
X161920000Y-94100000D03*
X165000000Y-93700000D03*
X161920000Y-93700000D03*
X131080000Y-113300000D03*
X128000000Y-113300000D03*
X131080000Y-112900000D03*
X128000000Y-112900000D03*
X131080000Y-112500000D03*
X128000000Y-112500000D03*
X131080000Y-112100000D03*
X128000000Y-112100000D03*
X131080000Y-111700000D03*
X128000000Y-111700000D03*
X131080000Y-111300000D03*
X128000000Y-111300000D03*
X131080000Y-110900000D03*
X128000000Y-110900000D03*
X131080000Y-110500000D03*
X128000000Y-110500000D03*
X131080000Y-110100000D03*
X128000000Y-110100000D03*
X131080000Y-109700000D03*
X128000000Y-109700000D03*
X131080000Y-109300000D03*
X128000000Y-109300000D03*
X131080000Y-108900000D03*
X128000000Y-108900000D03*
X131080000Y-108500000D03*
X128000000Y-108500000D03*
X131080000Y-108100000D03*
X128000000Y-108100000D03*
X131080000Y-107700000D03*
X128000000Y-107700000D03*
X131080000Y-107300000D03*
X128000000Y-107300000D03*
X131080000Y-106900000D03*
X128000000Y-106900000D03*
X131080000Y-106500000D03*
X128000000Y-106500000D03*
X131080000Y-106100000D03*
X128000000Y-106100000D03*
X131080000Y-105700000D03*
X128000000Y-105700000D03*
X131080000Y-105300000D03*
X128000000Y-105300000D03*
X131080000Y-104900000D03*
X128000000Y-104900000D03*
X131080000Y-104500000D03*
X128000000Y-104500000D03*
X131080000Y-104100000D03*
X128000000Y-104100000D03*
X131080000Y-103700000D03*
X128000000Y-103700000D03*
X131080000Y-103300000D03*
X128000000Y-103300000D03*
X131080000Y-102900000D03*
X128000000Y-102900000D03*
X131080000Y-102500000D03*
X128000000Y-102500000D03*
X131080000Y-102100000D03*
X128000000Y-102100000D03*
X131080000Y-101700000D03*
X128000000Y-101700000D03*
X131080000Y-101300000D03*
X128000000Y-101300000D03*
X131080000Y-100900000D03*
X128000000Y-100900000D03*
X131080000Y-100500000D03*
X128000000Y-100500000D03*
X131080000Y-100100000D03*
X128000000Y-100100000D03*
X131080000Y-99700000D03*
X128000000Y-99700000D03*
X131080000Y-99300000D03*
X128000000Y-99300000D03*
X131080000Y-98900000D03*
X128000000Y-98900000D03*
X131080000Y-98500000D03*
X128000000Y-98500000D03*
X131080000Y-98100000D03*
X128000000Y-98100000D03*
X131080000Y-97700000D03*
X128000000Y-97700000D03*
X131080000Y-97300000D03*
X128000000Y-97300000D03*
X131080000Y-96900000D03*
X128000000Y-96900000D03*
X131080000Y-96500000D03*
X128000000Y-96500000D03*
X131080000Y-96100000D03*
X128000000Y-96100000D03*
X131080000Y-95700000D03*
X128000000Y-95700000D03*
X131080000Y-95300000D03*
X128000000Y-95300000D03*
X131080000Y-94900000D03*
X128000000Y-94900000D03*
X131080000Y-94500000D03*
X128000000Y-94500000D03*
X131080000Y-94100000D03*
X128000000Y-94100000D03*
X131080000Y-93700000D03*
X128000000Y-93700000D03*
%TD*%
D14*
%TO.C,U1*%
X147964999Y-90314998D03*
X147964999Y-89135001D03*
X147375000Y-89725000D03*
X146785001Y-90314998D03*
X146785001Y-89135001D03*
%TD*%
D15*
%TO.C,C7*%
X162080000Y-89475000D03*
X164620000Y-89475000D03*
%TD*%
D16*
%TO.C,J4*%
X141377500Y-128125000D03*
X135597500Y-128125000D03*
D17*
X142807500Y-127625000D03*
D18*
X142807500Y-131805000D03*
X134167500Y-131805000D03*
D17*
X134167500Y-127625000D03*
%TD*%
D16*
%TO.C,J6*%
X135160000Y-84930000D03*
X140940000Y-84930000D03*
D17*
X133730000Y-85430000D03*
D18*
X133730000Y-81250000D03*
X142370000Y-81250000D03*
D17*
X142370000Y-85430000D03*
%TD*%
M02*
