%TF.GenerationSoftware,KiCad,Pcbnew,7.0.5*%
%TF.CreationDate,2023-07-07T08:41:41+03:00*%
%TF.ProjectId,carrier_board_v1,63617272-6965-4725-9f62-6f6172645f76,v01*%
%TF.SameCoordinates,Original*%
%TF.FileFunction,Copper,L2,Bot*%
%TF.FilePolarity,Positive*%
%FSLAX46Y46*%
G04 Gerber Fmt 4.6, Leading zero omitted, Abs format (unit mm)*
G04 Created by KiCad (PCBNEW 7.0.5) date 2023-07-07 08:41:41*
%MOMM*%
%LPD*%
G01*
G04 APERTURE LIST*
G04 Aperture macros list*
%AMRoundRect*
0 Rectangle with rounded corners*
0 $1 Rounding radius*
0 $2 $3 $4 $5 $6 $7 $8 $9 X,Y pos of 4 corners*
0 Add a 4 corners polygon primitive as box body*
4,1,4,$2,$3,$4,$5,$6,$7,$8,$9,$2,$3,0*
0 Add four circle primitives for the rounded corners*
1,1,$1+$1,$2,$3*
1,1,$1+$1,$4,$5*
1,1,$1+$1,$6,$7*
1,1,$1+$1,$8,$9*
0 Add four rect primitives between the rounded corners*
20,1,$1+$1,$2,$3,$4,$5,0*
20,1,$1+$1,$4,$5,$6,$7,0*
20,1,$1+$1,$6,$7,$8,$9,0*
20,1,$1+$1,$8,$9,$2,$3,0*%
%AMOutline4P*
0 Free polygon, 4 corners , with rotation*
0 The origin of the aperture is its center*
0 number of corners: always 4*
0 $1 to $8 corner X, Y*
0 $9 Rotation angle, in degrees counterclockwise*
0 create outline with 4 corners*
4,1,4,$1,$2,$3,$4,$5,$6,$7,$8,$1,$2,$9*%
%AMFreePoly0*
4,1,17,1.395000,0.765000,0.855000,0.765000,0.855000,0.535000,1.395000,0.535000,1.395000,0.115000,0.855000,0.115000,0.855000,-0.115000,1.395000,-0.115000,1.395000,-0.535000,0.855000,-0.535000,0.855000,-0.765000,1.395000,-0.765000,1.395000,-1.185000,-0.855000,-1.185000,-0.855000,1.185000,1.395000,1.185000,1.395000,0.765000,1.395000,0.765000,$1*%
G04 Aperture macros list end*
%TA.AperFunction,ComponentPad*%
%ADD10R,1.700000X1.700000*%
%TD*%
%TA.AperFunction,ComponentPad*%
%ADD11O,1.700000X1.700000*%
%TD*%
%TA.AperFunction,SMDPad,CuDef*%
%ADD12RoundRect,0.100000X0.100000X-0.130000X0.100000X0.130000X-0.100000X0.130000X-0.100000X-0.130000X0*%
%TD*%
%TA.AperFunction,SMDPad,CuDef*%
%ADD13RoundRect,0.150000X-0.587500X-0.150000X0.587500X-0.150000X0.587500X0.150000X-0.587500X0.150000X0*%
%TD*%
%TA.AperFunction,ComponentPad*%
%ADD14C,0.499999*%
%TD*%
%TA.AperFunction,SMDPad,CuDef*%
%ADD15R,1.679999X1.679999*%
%TD*%
%TA.AperFunction,SMDPad,CuDef*%
%ADD16R,0.240000X0.599999*%
%TD*%
%TA.AperFunction,SMDPad,CuDef*%
%ADD17R,0.599999X0.240000*%
%TD*%
%TA.AperFunction,ComponentPad*%
%ADD18C,1.168400*%
%TD*%
%TA.AperFunction,SMDPad,CuDef*%
%ADD19RoundRect,0.100000X-0.130000X-0.100000X0.130000X-0.100000X0.130000X0.100000X-0.130000X0.100000X0*%
%TD*%
%TA.AperFunction,SMDPad,CuDef*%
%ADD20RoundRect,0.100000X0.130000X0.100000X-0.130000X0.100000X-0.130000X-0.100000X0.130000X-0.100000X0*%
%TD*%
%TA.AperFunction,SMDPad,CuDef*%
%ADD21R,0.600000X1.150000*%
%TD*%
%TA.AperFunction,SMDPad,CuDef*%
%ADD22R,0.300000X1.150000*%
%TD*%
%TA.AperFunction,ComponentPad*%
%ADD23O,1.050000X2.100000*%
%TD*%
%TA.AperFunction,ComponentPad*%
%ADD24O,1.000000X2.000000*%
%TD*%
%TA.AperFunction,SMDPad,CuDef*%
%ADD25R,0.300000X0.300000*%
%TD*%
%TA.AperFunction,SMDPad,CuDef*%
%ADD26R,2.209800X2.260600*%
%TD*%
%TA.AperFunction,SMDPad,CuDef*%
%ADD27Outline4P,-0.800000X-1.500000X0.800000X-1.500000X0.800000X1.500000X-0.800000X1.500000X180.000000*%
%TD*%
%TA.AperFunction,SMDPad,CuDef*%
%ADD28Outline4P,-0.500000X-2.750000X0.500000X-2.750000X0.500000X2.750000X-0.500000X2.750000X180.000000*%
%TD*%
%TA.AperFunction,SMDPad,CuDef*%
%ADD29R,1.000000X0.300000*%
%TD*%
%TA.AperFunction,SMDPad,CuDef*%
%ADD30R,1.300000X1.650000*%
%TD*%
%TA.AperFunction,SMDPad,CuDef*%
%ADD31RoundRect,0.100000X-0.100000X0.130000X-0.100000X-0.130000X0.100000X-0.130000X0.100000X0.130000X0*%
%TD*%
%TA.AperFunction,SMDPad,CuDef*%
%ADD32RoundRect,0.250000X0.650000X-1.000000X0.650000X1.000000X-0.650000X1.000000X-0.650000X-1.000000X0*%
%TD*%
%TA.AperFunction,SMDPad,CuDef*%
%ADD33R,0.700000X0.420000*%
%TD*%
%TA.AperFunction,SMDPad,CuDef*%
%ADD34FreePoly0,0.000000*%
%TD*%
%TA.AperFunction,ViaPad*%
%ADD35C,0.600000*%
%TD*%
%TA.AperFunction,ViaPad*%
%ADD36C,0.590000*%
%TD*%
%TA.AperFunction,ViaPad*%
%ADD37C,0.508000*%
%TD*%
%TA.AperFunction,Conductor*%
%ADD38C,1.367030*%
%TD*%
%TA.AperFunction,Conductor*%
%ADD39C,0.200000*%
%TD*%
%TA.AperFunction,Conductor*%
%ADD40C,0.600000*%
%TD*%
%TA.AperFunction,Conductor*%
%ADD41C,0.400000*%
%TD*%
%TA.AperFunction,Conductor*%
%ADD42C,0.950000*%
%TD*%
%TA.AperFunction,Conductor*%
%ADD43C,1.000000*%
%TD*%
%TA.AperFunction,Conductor*%
%ADD44C,0.250000*%
%TD*%
G04 APERTURE END LIST*
D10*
%TO.P,J7,1,Pin_1*%
%TO.N,+3.3V*%
X136075000Y-117200000D03*
D11*
%TO.P,J7,2,Pin_2*%
%TO.N,GND*%
X138615000Y-117200000D03*
%TO.P,J7,3,Pin_3*%
%TO.N,/CM4 GPIO and power pins/GPIO14*%
X141155000Y-117200000D03*
%TO.P,J7,4,Pin_4*%
%TO.N,/CM4 GPIO and power pins/GPIO15*%
X143695000Y-117200000D03*
%TO.P,J7,5,Pin_5*%
%TO.N,/CM4 GPIO and power pins/GPIO10*%
X146235000Y-117200000D03*
%TO.P,J7,6,Pin_6*%
%TO.N,/CM4 GPIO and power pins/GPIO9*%
X148775000Y-117200000D03*
%TO.P,J7,7,Pin_7*%
%TO.N,/CM4 GPIO and power pins/GPIO11*%
X151315000Y-117200000D03*
%TO.P,J7,8,Pin_8*%
%TO.N,/CM4 GPIO and power pins/GPIO8*%
X153855000Y-117200000D03*
%TO.P,J7,9,Pin_9*%
%TO.N,/CM4 GPIO and power pins/GPIO7*%
X156395000Y-117200000D03*
%TO.P,J7,10,Pin_10*%
%TO.N,/CM4 GPIO and power pins/nRPIBOOT*%
X158935000Y-117200000D03*
%TO.P,J7,11,Pin_11*%
%TO.N,/CM4 GPIO and power pins/GPIO2*%
X161475000Y-117200000D03*
%TO.P,J7,12,Pin_12*%
%TO.N,/CM4 GPIO and power pins/GPIO3*%
X164015000Y-117200000D03*
%TD*%
D12*
%TO.P,L1,1*%
%TO.N,Net-(D2-A)*%
X147130000Y-105280000D03*
%TO.P,L1,2*%
%TO.N,/CM4 GPIO and power pins/PMID*%
X147130000Y-104640000D03*
%TD*%
%TO.P,R6,1*%
%TO.N,GND*%
X136800000Y-88040000D03*
%TO.P,R6,2*%
%TO.N,Net-(J6-CC1)*%
X136800000Y-87400000D03*
%TD*%
%TO.P,R2,1*%
%TO.N,/CM4 GPIO and power pins/TS*%
X158525000Y-88175000D03*
%TO.P,R2,2*%
%TO.N,GND*%
X158525000Y-87535000D03*
%TD*%
D13*
%TO.P,U5,1,VOUT*%
%TO.N,+5V*%
X147155000Y-110010000D03*
%TO.P,U5,2,SW*%
%TO.N,Net-(D2-A)*%
X147155000Y-108110000D03*
%TO.P,U5,3,GND*%
%TO.N,GND*%
X149030000Y-109060000D03*
%TD*%
D12*
%TO.P,R1,1*%
%TO.N,/CM4 GPIO and power pins/REGN*%
X158550000Y-91625000D03*
%TO.P,R1,2*%
%TO.N,/CM4 GPIO and power pins/TS*%
X158550000Y-90985000D03*
%TD*%
%TO.P,R5,1*%
%TO.N,GND*%
X141150000Y-101575000D03*
%TO.P,R5,2*%
%TO.N,Net-(D1-K)*%
X141150000Y-100935000D03*
%TD*%
D14*
%TO.P,U1,17,PAD*%
%TO.N,GND*%
X147964999Y-90314998D03*
X147964999Y-89135001D03*
D15*
X147375003Y-89725000D03*
D14*
X147375000Y-89725000D03*
X146785001Y-90314998D03*
X146785001Y-89135001D03*
D16*
%TO.P,U1,16,VBUS*%
%TO.N,+5V*%
X146625002Y-91124999D03*
%TO.P,U1,15,PMID*%
%TO.N,/CM4 GPIO and power pins/PMID*%
X147125000Y-91124999D03*
%TO.P,U1,14,BTST*%
%TO.N,Net-(U1-BTST)*%
X147625002Y-91124999D03*
%TO.P,U1,13,SW*%
%TO.N,Net-(U1-SW)*%
X148125001Y-91124999D03*
D17*
%TO.P,U1,12,GND*%
%TO.N,GND*%
X148775000Y-90475001D03*
%TO.P,U1,11,GND*%
X148775000Y-89975002D03*
%TO.P,U1,10,TS*%
%TO.N,/CM4 GPIO and power pins/TS*%
X148775000Y-89475000D03*
%TO.P,U1,9,NC*%
%TO.N,unconnected-(U1-NC-Pad9)*%
X148775000Y-88975001D03*
D16*
%TO.P,U1,8,NC*%
%TO.N,unconnected-(U1-NC-Pad8)*%
X148125001Y-88325000D03*
%TO.P,U1,7,NC*%
%TO.N,unconnected-(U1-NC-Pad7)*%
X147625002Y-88325000D03*
%TO.P,U1,6,BAT*%
%TO.N,Net-(Q1-D)*%
X147125000Y-88325000D03*
%TO.P,U1,5,NC*%
%TO.N,unconnected-(U1-NC-Pad5)*%
X146625002Y-88325000D03*
D17*
%TO.P,U1,4,VSET*%
%TO.N,GND*%
X145975000Y-88975001D03*
%TO.P,U1,3,STAT*%
X145975000Y-89475000D03*
%TO.P,U1,2,ICHG_EN*%
%TO.N,Net-(U1-ICHG_EN)*%
X145975000Y-89975002D03*
%TO.P,U1,1,REGN*%
%TO.N,/CM4 GPIO and power pins/REGN*%
X145975000Y-90475001D03*
%TD*%
D18*
%TO.P,C7,1*%
%TO.N,/CM4 GPIO and power pins/TS*%
X162080000Y-89475000D03*
%TO.P,C7,2*%
%TO.N,GND*%
X164620000Y-89475000D03*
%TD*%
D19*
%TO.P,C6,1*%
%TO.N,Net-(Q1-D)*%
X153960000Y-91125000D03*
%TO.P,C6,2*%
%TO.N,GND*%
X154600000Y-91125000D03*
%TD*%
D20*
%TO.P,C3,1*%
%TO.N,+5V*%
X141300000Y-95625000D03*
%TO.P,C3,2*%
%TO.N,GND*%
X140660000Y-95625000D03*
%TD*%
D21*
%TO.P,J4,A1_B12,GND*%
%TO.N,GND*%
X141687500Y-127050000D03*
%TO.P,J4,A4_B9,VBUS*%
%TO.N,+5V*%
X140887500Y-127050000D03*
D22*
%TO.P,J4,A5,CC1*%
%TO.N,Net-(J4-CC1)*%
X139737500Y-127050000D03*
%TO.P,J4,A6,DP1*%
%TO.N,/CM4 Camera pins/USB2_P*%
X138737500Y-127050000D03*
%TO.P,J4,A7,DN1*%
%TO.N,/CM4 Camera pins/USB2_N*%
X138237500Y-127050000D03*
%TO.P,J4,A8,SBU1*%
%TO.N,unconnected-(J4-SBU1-PadA8)*%
X137237500Y-127050000D03*
D21*
%TO.P,J4,B1_A12,GND*%
%TO.N,GND*%
X135287500Y-127050000D03*
%TO.P,J4,B4_A9,VBUS*%
%TO.N,+5V*%
X136087500Y-127050000D03*
D22*
%TO.P,J4,B5,CC2*%
%TO.N,Net-(J4-CC2)*%
X136737500Y-127050000D03*
%TO.P,J4,B6,DP2*%
%TO.N,/CM4 Camera pins/USB2_P*%
X137737500Y-127050000D03*
%TO.P,J4,B7,DN2*%
%TO.N,/CM4 Camera pins/USB2_N*%
X139237500Y-127050000D03*
%TO.P,J4,B8,SBU2*%
%TO.N,unconnected-(J4-SBU2-PadB8)*%
X140237500Y-127050000D03*
D23*
%TO.P,J4,S1,SHELL_GND*%
%TO.N,Net-(J4-SHELL_GND-PadS1)*%
X142807500Y-127625000D03*
D24*
%TO.P,J4,S2,SHELL_GND*%
X142807500Y-131805000D03*
%TO.P,J4,S3,SHELL_GND*%
X134167500Y-131805000D03*
D23*
%TO.P,J4,S4,SHELL_GND*%
X134167500Y-127625000D03*
%TD*%
D25*
%TO.P,U3,1,D+*%
%TO.N,/CM4 Camera pins/USB2_P*%
X137600000Y-124300000D03*
%TO.P,U3,2,D-*%
%TO.N,/CM4 Camera pins/USB2_N*%
X138300000Y-124300000D03*
%TO.P,U3,3,GND*%
%TO.N,GND*%
X137950000Y-125150000D03*
%TD*%
D20*
%TO.P,R3,1*%
%TO.N,+5V*%
X141190000Y-124600000D03*
%TO.P,R3,2*%
%TO.N,Net-(J4-CC1)*%
X140550000Y-124600000D03*
%TD*%
%TO.P,C1,1*%
%TO.N,+5V*%
X147190000Y-114525000D03*
%TO.P,C1,2*%
%TO.N,GND*%
X146550000Y-114525000D03*
%TD*%
%TO.P,C8,1*%
%TO.N,/CM4 GPIO and power pins/PMID*%
X145620000Y-103185000D03*
%TO.P,C8,2*%
%TO.N,GND*%
X144980000Y-103185000D03*
%TD*%
D21*
%TO.P,J6,A1_B12,GND*%
%TO.N,GND*%
X134850000Y-86005000D03*
%TO.P,J6,A4_B9,VBUS*%
%TO.N,+5V*%
X135650000Y-86005000D03*
D22*
%TO.P,J6,A5,CC1*%
%TO.N,Net-(J6-CC1)*%
X136800000Y-86005000D03*
%TO.P,J6,A6,DP1*%
%TO.N,unconnected-(J6-DP1-PadA6)*%
X137800000Y-86005000D03*
%TO.P,J6,A7,DN1*%
%TO.N,unconnected-(J6-DN1-PadA7)*%
X138300000Y-86005000D03*
%TO.P,J6,A8,SBU1*%
%TO.N,unconnected-(J6-SBU1-PadA8)*%
X139300000Y-86005000D03*
D21*
%TO.P,J6,B1_A12,GND*%
%TO.N,GND*%
X141250000Y-86005000D03*
%TO.P,J6,B4_A9,VBUS*%
%TO.N,+5V*%
X140450000Y-86005000D03*
D22*
%TO.P,J6,B5,CC2*%
%TO.N,Net-(J6-CC2)*%
X139800000Y-86005000D03*
%TO.P,J6,B6,DP2*%
%TO.N,unconnected-(J6-DP2-PadB6)*%
X138800000Y-86005000D03*
%TO.P,J6,B7,DN2*%
%TO.N,unconnected-(J6-DN2-PadB7)*%
X137300000Y-86005000D03*
%TO.P,J6,B8,SBU2*%
%TO.N,unconnected-(J6-SBU2-PadB8)*%
X136300000Y-86005000D03*
D23*
%TO.P,J6,S1,SHELL_GND*%
%TO.N,GND*%
X133730000Y-85430000D03*
D24*
%TO.P,J6,S2,SHELL_GND*%
X133730000Y-81250000D03*
%TO.P,J6,S3,SHELL_GND*%
X142370000Y-81250000D03*
D23*
%TO.P,J6,S4,SHELL_GND*%
X142370000Y-85430000D03*
%TD*%
D26*
%TO.P,CR1,1*%
%TO.N,+5V*%
X132239400Y-89575000D03*
%TO.P,CR1,2*%
%TO.N,GND*%
X128150000Y-89575000D03*
%TD*%
D19*
%TO.P,L2,1*%
%TO.N,Net-(U1-SW)*%
X150667500Y-93510000D03*
%TO.P,L2,2*%
%TO.N,Net-(Q1-D)*%
X151307500Y-93510000D03*
%TD*%
D12*
%TO.P,R9,1*%
%TO.N,GND*%
X138525000Y-88050000D03*
%TO.P,R9,2*%
%TO.N,Net-(J6-CC2)*%
X138525000Y-87410000D03*
%TD*%
D20*
%TO.P,C5,1*%
%TO.N,/CM4 GPIO and power pins/REGN*%
X143275000Y-91150000D03*
%TO.P,C5,2*%
%TO.N,GND*%
X142635000Y-91150000D03*
%TD*%
D27*
%TO.P,J1,*%
%TO.N,*%
X158200000Y-81300000D03*
X151200000Y-81300000D03*
D28*
%TO.P,J1,1*%
%TO.N,GND*%
X155800000Y-83550000D03*
%TO.P,J1,2*%
%TO.N,Net-(Q1-D)*%
X153800000Y-83550000D03*
%TD*%
D29*
%TO.P,J3,1,1*%
%TO.N,GND*%
X132252800Y-108102250D03*
%TO.P,J3,2,2*%
%TO.N,/CM4 Camera pins/CAM0_D0_N*%
X132252800Y-107602250D03*
%TO.P,J3,3,3*%
%TO.N,/CM4 Camera pins/CAM0_D0_P*%
X132252800Y-107102250D03*
%TO.P,J3,4,4*%
%TO.N,GND*%
X132252800Y-106602250D03*
%TO.P,J3,5,5*%
%TO.N,/CM4 Camera pins/CAM0_D1_N*%
X132252800Y-106102250D03*
%TO.P,J3,6,6*%
%TO.N,/CM4 Camera pins/CAM0_D1_P*%
X132252800Y-105602250D03*
%TO.P,J3,7,7*%
%TO.N,GND*%
X132252800Y-105102250D03*
%TO.P,J3,8,8*%
%TO.N,/CM4 Camera pins/CAM0_C_N*%
X132252800Y-104602250D03*
%TO.P,J3,9,9*%
%TO.N,/CM4 Camera pins/CAM0_C_P*%
X132252800Y-104102250D03*
%TO.P,J3,10,10*%
%TO.N,GND*%
X132252800Y-103602250D03*
%TO.P,J3,11,11*%
%TO.N,unconnected-(J3-Pad11)*%
X132252800Y-103102250D03*
%TO.P,J3,12,12*%
%TO.N,unconnected-(J3-Pad12)*%
X132252800Y-102602250D03*
%TO.P,J3,13,13*%
%TO.N,GND*%
X132252800Y-102102250D03*
%TO.P,J3,14,14*%
%TO.N,unconnected-(J3-Pad14)*%
X132252800Y-101602250D03*
%TO.P,J3,15,15*%
%TO.N,unconnected-(J3-Pad15)*%
X132252800Y-101102250D03*
%TO.P,J3,16,16*%
%TO.N,GND*%
X132252800Y-100602250D03*
%TO.P,J3,17,17*%
%TO.N,CAM_GPIO*%
X132252800Y-100102250D03*
%TO.P,J3,18,18*%
%TO.N,unconnected-(J3-Pad18)*%
X132252800Y-99602250D03*
%TO.P,J3,19,19*%
%TO.N,GND*%
X132252800Y-99102250D03*
%TO.P,J3,20,20*%
%TO.N,SCL0*%
X132252800Y-98602250D03*
%TO.P,J3,21,21*%
%TO.N,SDA0*%
X132252800Y-98102250D03*
%TO.P,J3,22,22*%
%TO.N,+3.3V*%
X132252800Y-97602250D03*
D30*
%TO.P,J3,SH1,SHIELD*%
%TO.N,unconnected-(J3-SHIELD-PadSH1)*%
X130352800Y-110377250D03*
%TO.P,J3,SH2,SHIELD*%
X130352800Y-95327250D03*
%TD*%
D19*
%TO.P,C4,1*%
%TO.N,Net-(U1-BTST)*%
X149817500Y-95435000D03*
%TO.P,C4,2*%
%TO.N,Net-(U1-SW)*%
X150457500Y-95435000D03*
%TD*%
D31*
%TO.P,C2,1*%
%TO.N,/CM4 GPIO and power pins/PMID*%
X145050000Y-99000000D03*
%TO.P,C2,2*%
%TO.N,GND*%
X145050000Y-99640000D03*
%TD*%
D19*
%TO.P,R4,1*%
%TO.N,+5V*%
X136160000Y-124625000D03*
%TO.P,R4,2*%
%TO.N,Net-(J4-CC2)*%
X136800000Y-124625000D03*
%TD*%
D32*
%TO.P,D2,1,K*%
%TO.N,+5V*%
X143605000Y-112785000D03*
%TO.P,D2,2,A*%
%TO.N,Net-(D2-A)*%
X143605000Y-108785000D03*
%TD*%
D33*
%TO.P,Q1,1,S*%
%TO.N,/CM4 GPIO and power pins/PMID*%
X149805000Y-101510000D03*
%TO.P,Q1,2,S*%
X149805000Y-100860000D03*
%TO.P,Q1,3,S*%
X149805000Y-100210000D03*
%TO.P,Q1,4,G*%
%TO.N,Net-(D1-K)*%
X149805000Y-99560000D03*
D34*
%TO.P,Q1,5,D*%
%TO.N,Net-(Q1-D)*%
X151760000Y-100535000D03*
%TD*%
D32*
%TO.P,D1,1,K*%
%TO.N,Net-(D1-K)*%
X138175000Y-99600000D03*
%TO.P,D1,2,A*%
%TO.N,+5V*%
X138175000Y-95600000D03*
%TD*%
D19*
%TO.P,R10,1*%
%TO.N,GND*%
X142610000Y-89975000D03*
%TO.P,R10,2*%
%TO.N,Net-(U1-ICHG_EN)*%
X143250000Y-89975000D03*
%TD*%
D35*
%TO.N,+5V*%
X163850000Y-96475000D03*
X140289750Y-123660250D03*
X163850000Y-97625000D03*
X141625010Y-105099986D03*
X151150000Y-105100000D03*
D36*
X135334750Y-123790250D03*
D35*
%TO.N,GND*%
X165150000Y-124350000D03*
X137375000Y-105675000D03*
X132750000Y-94075000D03*
X145725000Y-132425000D03*
X134250000Y-106900000D03*
X157850000Y-100275000D03*
X127825000Y-85675000D03*
X147575000Y-79600000D03*
X132050000Y-115900000D03*
X132075000Y-116850000D03*
X153075000Y-103275000D03*
X158300000Y-85675000D03*
X160775000Y-85675000D03*
X127800000Y-123075000D03*
X155000000Y-118925000D03*
X137375000Y-103200000D03*
X151175000Y-90850000D03*
X132475000Y-121000000D03*
X139650000Y-103250000D03*
X140925000Y-113275000D03*
X163925000Y-112225000D03*
X139175000Y-113325000D03*
X146275000Y-79600000D03*
X149975000Y-91650000D03*
X163925000Y-110100000D03*
X138500000Y-119975000D03*
X127775000Y-116325000D03*
X156250000Y-94000000D03*
X145275000Y-85525000D03*
X134950000Y-99900000D03*
X150850000Y-103275000D03*
X154675000Y-114500000D03*
X160850000Y-94100000D03*
X132750000Y-92700000D03*
X134225000Y-102975000D03*
X160150000Y-111425000D03*
X163850000Y-95325000D03*
X150725000Y-132450000D03*
X127825000Y-121350000D03*
X165175000Y-122700000D03*
X129575000Y-98475000D03*
X132475000Y-122325000D03*
X145300000Y-83875000D03*
X127800000Y-119850000D03*
X159300000Y-132400000D03*
X158625000Y-111825000D03*
X160000000Y-101225000D03*
X145775000Y-129600000D03*
X155650000Y-113675000D03*
X129625000Y-100600000D03*
X133175000Y-110725000D03*
X138375000Y-104325000D03*
X134250000Y-105075000D03*
X144650000Y-79625000D03*
X163150000Y-93275000D03*
X145350000Y-126000000D03*
X163950000Y-108200000D03*
X136725000Y-91350000D03*
X140800000Y-121400000D03*
X131900000Y-85600000D03*
X150000000Y-90850000D03*
X147650000Y-118450000D03*
X132450000Y-123800000D03*
X145262537Y-82059813D03*
X133175000Y-108925000D03*
X136450000Y-92925000D03*
X153875000Y-132450000D03*
X160300000Y-109475000D03*
X152425000Y-95300000D03*
X160875000Y-98875000D03*
X157550000Y-119000000D03*
X154675000Y-103325000D03*
X157350000Y-132425000D03*
X148975000Y-79600000D03*
X156200000Y-99325000D03*
X165150000Y-121125000D03*
X160800000Y-95325000D03*
X150325000Y-106825000D03*
X148775000Y-103275000D03*
X139975000Y-94200000D03*
X127800000Y-118075000D03*
X163425000Y-105550000D03*
X142525000Y-122875000D03*
X127100000Y-114750000D03*
X152325000Y-132450000D03*
X127775000Y-126200000D03*
X149175000Y-132450000D03*
X134625000Y-108975000D03*
X165025000Y-85750000D03*
X160775000Y-100500000D03*
X156825000Y-101275000D03*
X140825000Y-108200000D03*
X129200000Y-111700000D03*
X137950000Y-125750000D03*
X165100000Y-126200000D03*
X155675000Y-132425000D03*
X127775000Y-124725000D03*
X147475000Y-132450000D03*
X159075000Y-110675000D03*
X150050000Y-118525000D03*
X137475000Y-113300000D03*
X137475000Y-111825000D03*
%TO.N,/CM4 GPIO and power pins/REGN*%
X158575000Y-92525000D03*
X144950000Y-91950000D03*
%TO.N,/CM4 GPIO and power pins/TS*%
X156200000Y-89475000D03*
X150575000Y-89475000D03*
%TO.N,Net-(D1-K)*%
X141675000Y-99550000D03*
X148550000Y-99550000D03*
%TO.N,/CM4 Camera pins/CAM0_D0_N*%
X129863709Y-108974978D03*
%TO.N,/CM4 Camera pins/CAM0_D0_P*%
X129825000Y-107787740D03*
%TO.N,/CM4 Camera pins/CAM0_D1_N*%
X129850000Y-106725000D03*
%TO.N,/CM4 Camera pins/CAM0_D1_P*%
X129825000Y-105875000D03*
%TO.N,/CM4 Camera pins/CAM0_C_N*%
X129800000Y-104975000D03*
%TO.N,/CM4 Camera pins/CAM0_C_P*%
X129750000Y-104099998D03*
%TO.N,CAM_GPIO*%
X160125000Y-99650000D03*
X133724998Y-100102250D03*
X164082365Y-94452769D03*
%TO.N,SCL0*%
X134075000Y-98950000D03*
%TO.N,SDA0*%
X133450006Y-98102250D03*
D37*
%TO.N,/CM4 Camera pins/USB2_N*%
X130000000Y-113100000D03*
%TO.N,/CM4 Camera pins/USB2_P*%
X130000000Y-112300000D03*
D35*
%TO.N,+3.3V*%
X157875000Y-95124996D03*
X157825000Y-98775000D03*
X133675000Y-96500000D03*
%TO.N,/CM4 GPIO and power pins/GPIO15*%
X163975000Y-103800000D03*
X143700000Y-119350000D03*
%TO.N,/CM4 GPIO and power pins/GPIO3*%
X157025000Y-103375000D03*
X160025000Y-103075000D03*
%TD*%
D38*
%TO.N,+5V*%
X143675000Y-97275000D02*
X143675000Y-101725000D01*
X139412500Y-91262500D02*
X142662500Y-94512500D01*
D39*
X141300000Y-95625000D02*
X141550000Y-95625000D01*
D38*
X142662500Y-94512500D02*
X143400000Y-94512500D01*
D40*
X141264900Y-124214900D02*
X140710250Y-123660250D01*
D38*
X147400000Y-112875000D02*
X151900000Y-112875000D01*
D41*
X147200000Y-114525000D02*
X147200000Y-113075000D01*
D39*
X143500000Y-94612500D02*
X143400000Y-94512500D01*
X146625000Y-91000000D02*
X146625000Y-92375000D01*
D38*
X135400000Y-89650000D02*
X137800000Y-89650000D01*
D40*
X136095100Y-127245500D02*
X136095100Y-124550600D01*
D39*
X142412500Y-94512500D02*
X142662500Y-94512500D01*
D38*
X143600000Y-112875000D02*
X147400000Y-112875000D01*
D40*
X140475000Y-90200000D02*
X139412500Y-91262500D01*
X140894800Y-126044439D02*
X141264900Y-125674339D01*
X140475000Y-86025000D02*
X140475000Y-90200000D01*
D38*
X151900000Y-112875000D02*
X156525000Y-108250000D01*
D40*
X135650000Y-86025000D02*
X135650000Y-89400000D01*
D38*
X143400000Y-94512500D02*
X144487500Y-94512500D01*
D40*
X140894800Y-127271800D02*
X140894800Y-126044439D01*
D38*
X156525000Y-108250000D02*
X153375000Y-105100000D01*
D40*
X136094200Y-127246400D02*
X136095100Y-127245500D01*
D38*
X132050000Y-89650000D02*
X135400000Y-89650000D01*
D40*
X136095100Y-124550600D02*
X135334750Y-123790250D01*
D39*
X141550000Y-95625000D02*
X142662500Y-94512500D01*
D38*
X163450000Y-101325000D02*
X163450000Y-97850000D01*
X138225000Y-92450000D02*
X139412500Y-91262500D01*
D42*
X147175000Y-110050000D02*
X147175000Y-112650000D01*
D38*
X145725000Y-93275000D02*
X144487500Y-94512500D01*
D40*
X140710250Y-123660250D02*
X140289750Y-123660250D01*
D41*
X147200000Y-113075000D02*
X147400000Y-112875000D01*
D38*
X144487500Y-94512500D02*
X144487500Y-96462500D01*
D39*
X146625000Y-92375000D02*
X145725000Y-93275000D01*
D41*
X163450053Y-96500053D02*
X163450000Y-96500000D01*
D38*
X143675000Y-101725000D02*
X141625010Y-103774990D01*
X156525000Y-108250000D02*
X163450000Y-101325000D01*
D42*
X147175000Y-112650000D02*
X147400000Y-112875000D01*
D38*
X141625010Y-103774990D02*
X141625010Y-105099986D01*
D40*
X135650000Y-89400000D02*
X135400000Y-89650000D01*
D38*
X153375000Y-105100000D02*
X151150000Y-105100000D01*
X137800000Y-89650000D02*
X139412500Y-91262500D01*
X144487500Y-96462500D02*
X143675000Y-97275000D01*
X138225000Y-95650000D02*
X138225000Y-92450000D01*
D40*
X141264900Y-125674339D02*
X141264900Y-124214900D01*
D38*
X163450000Y-97200000D02*
X163450000Y-97850000D01*
X163450000Y-96500000D02*
X163450000Y-97200000D01*
D39*
%TO.N,GND*%
X145975000Y-89475000D02*
X147125000Y-89475000D01*
X148775000Y-90475001D02*
X148125004Y-90475001D01*
X146625004Y-88975001D02*
X147375003Y-89725000D01*
X148775000Y-89975002D02*
X147625005Y-89975002D01*
X145975000Y-88975001D02*
X146625004Y-88975001D01*
X148125004Y-90475001D02*
X147375003Y-89725000D01*
X147625005Y-89975002D02*
X147375003Y-89725000D01*
X147125000Y-89475000D02*
X147375000Y-89725000D01*
D41*
%TO.N,/CM4 GPIO and power pins/PMID*%
X146980000Y-103160000D02*
X147130000Y-103310000D01*
X149805000Y-100210000D02*
X147225000Y-100210000D01*
D39*
X147125000Y-90925000D02*
X147125000Y-94600000D01*
D38*
X147125000Y-97475000D02*
X147125000Y-94600000D01*
D41*
X147150000Y-100835000D02*
X147125000Y-100860000D01*
X149755000Y-101510000D02*
X147240000Y-101510000D01*
X147130000Y-101630000D02*
X147125000Y-101625000D01*
X149805000Y-100835000D02*
X147150000Y-100835000D01*
D38*
X147125000Y-100110000D02*
X147125000Y-100860000D01*
D41*
X147130000Y-103310000D02*
X147130000Y-101630000D01*
D38*
X147125000Y-97475000D02*
X147125000Y-100110000D01*
X147125000Y-100860000D02*
X147125000Y-101625000D01*
D41*
X147225000Y-100210000D02*
X147125000Y-100110000D01*
X145050000Y-98975000D02*
X145625000Y-98975000D01*
X145625000Y-98975000D02*
X147125000Y-97475000D01*
X147130000Y-104610000D02*
X147130000Y-103310000D01*
X147240000Y-101510000D02*
X147125000Y-101625000D01*
X145605000Y-103160000D02*
X146980000Y-103160000D01*
D39*
%TO.N,Net-(U1-BTST)*%
X148792500Y-94735000D02*
X149492500Y-95435000D01*
X148792500Y-93610000D02*
X148792500Y-94735000D01*
X147617500Y-91135000D02*
X147617500Y-92435000D01*
X149492500Y-95435000D02*
X149817500Y-95435000D01*
X147617500Y-92435000D02*
X148792500Y-93610000D01*
%TO.N,Net-(U1-SW)*%
X150442500Y-95410000D02*
X150442500Y-94385000D01*
X149542500Y-93485000D02*
X148117500Y-92060000D01*
X150442500Y-94385000D02*
X149542500Y-93485000D01*
X150667500Y-93485000D02*
X149542500Y-93485000D01*
X148117500Y-92060000D02*
X148117500Y-91110000D01*
%TO.N,/CM4 GPIO and power pins/REGN*%
X145250000Y-90450000D02*
X145975000Y-90450000D01*
X145250000Y-90450000D02*
X144550000Y-91150000D01*
D41*
X144950000Y-91950000D02*
X144950000Y-91550000D01*
D39*
X144550000Y-91150000D02*
X143250000Y-91150000D01*
D41*
X158575000Y-91625000D02*
X158575000Y-92525000D01*
X144950000Y-91550000D02*
X144550000Y-91150000D01*
D39*
X145975000Y-90450000D02*
X146000000Y-90475000D01*
%TO.N,Net-(Q1-D)*%
X151967500Y-93485000D02*
X152542500Y-92910000D01*
X152575000Y-91150000D02*
X152525000Y-91100000D01*
D38*
X151800000Y-100525000D02*
X154350000Y-100525000D01*
D39*
X147117500Y-88310000D02*
X147117500Y-86935000D01*
D43*
X152525000Y-89525000D02*
X152525000Y-91100000D01*
D39*
X153975000Y-91150000D02*
X152575000Y-91150000D01*
D43*
X152525000Y-91100000D02*
X152525000Y-92892500D01*
D38*
X154350000Y-100525000D02*
X154400000Y-100575000D01*
D41*
X148577500Y-85475000D02*
X153800000Y-85475000D01*
D39*
X152542500Y-89542500D02*
X152525000Y-89525000D01*
D43*
X153800000Y-88250000D02*
X152525000Y-89525000D01*
D38*
X154400000Y-94767500D02*
X154400000Y-100575000D01*
D43*
X153800000Y-83200000D02*
X153800000Y-88250000D01*
D38*
X152542500Y-92910000D02*
X154400000Y-94767500D01*
D41*
X147117500Y-86935000D02*
X148577500Y-85475000D01*
D39*
X151317500Y-93485000D02*
X151967500Y-93485000D01*
D43*
X152525000Y-92892500D02*
X152542500Y-92910000D01*
D40*
%TO.N,/CM4 GPIO and power pins/TS*%
X158600000Y-89475000D02*
X156200000Y-89475000D01*
X162100000Y-89475000D02*
X158600000Y-89475000D01*
D41*
X158550000Y-89525000D02*
X158600000Y-89475000D01*
D39*
X148800000Y-89475000D02*
X150575000Y-89475000D01*
D41*
X158550000Y-90950000D02*
X158550000Y-89525000D01*
X158550000Y-89425000D02*
X158600000Y-89475000D01*
X158550000Y-88175000D02*
X158550000Y-89425000D01*
%TO.N,Net-(D1-K)*%
X141150000Y-99725000D02*
X140975000Y-99550000D01*
D38*
X140975000Y-99550000D02*
X138250000Y-99550000D01*
D39*
X149850000Y-99550000D02*
X148550000Y-99550000D01*
D38*
X138250000Y-99550000D02*
X138225000Y-99525000D01*
X141675000Y-99550000D02*
X140975000Y-99550000D01*
D41*
X141150000Y-100950000D02*
X141150000Y-99725000D01*
%TO.N,Net-(D2-A)*%
X147130000Y-106435000D02*
X144930000Y-106435000D01*
X147130000Y-106435000D02*
X147130000Y-108010000D01*
D38*
X144930000Y-106435000D02*
X143555000Y-107810000D01*
X143555000Y-107810000D02*
X143555000Y-109035000D01*
D41*
X147130000Y-105335000D02*
X147130000Y-106435000D01*
D39*
%TO.N,unconnected-(J3-SHIELD-PadSH1)*%
X127975000Y-108849450D02*
X129502800Y-110377250D01*
X130352800Y-95327250D02*
X130352800Y-95502250D01*
X127975000Y-97880050D02*
X127975000Y-108849450D01*
X129502800Y-110377250D02*
X130352800Y-110377250D01*
X130352800Y-95502250D02*
X127975000Y-97880050D01*
%TO.N,/CM4 Camera pins/CAM0_D0_N*%
X132252800Y-107602250D02*
X131236437Y-107602250D01*
X131236437Y-107602250D02*
X129863709Y-108974978D01*
%TO.N,/CM4 Camera pins/CAM0_D0_P*%
X132252800Y-107102250D02*
X130510490Y-107102250D01*
X130510490Y-107102250D02*
X129825000Y-107787740D01*
%TO.N,/CM4 Camera pins/CAM0_D1_N*%
X132252800Y-106102250D02*
X130472750Y-106102250D01*
X130472750Y-106102250D02*
X129850000Y-106725000D01*
%TO.N,/CM4 Camera pins/CAM0_D1_P*%
X130097750Y-105602250D02*
X129825000Y-105875000D01*
X132252800Y-105602250D02*
X130097750Y-105602250D01*
%TO.N,/CM4 Camera pins/CAM0_C_N*%
X132252800Y-104602250D02*
X130172750Y-104602250D01*
X130172750Y-104602250D02*
X129800000Y-104975000D01*
%TO.N,/CM4 Camera pins/CAM0_C_P*%
X129752252Y-104102250D02*
X129750000Y-104099998D01*
X132252800Y-104102250D02*
X129752252Y-104102250D01*
%TO.N,CAM_GPIO*%
X160125000Y-97681212D02*
X163353443Y-94452769D01*
X160125000Y-99650000D02*
X160125000Y-97681212D01*
X132252800Y-100102250D02*
X133724998Y-100102250D01*
X163353443Y-94452769D02*
X164082365Y-94452769D01*
%TO.N,SCL0*%
X132252800Y-98602250D02*
X132952800Y-98602250D01*
X133300550Y-98950000D02*
X134075000Y-98950000D01*
X132952800Y-98602250D02*
X133300550Y-98950000D01*
%TO.N,SDA0*%
X132252800Y-98102250D02*
X133450006Y-98102250D01*
%TO.N,/CM4 Camera pins/USB2_N*%
X138650000Y-125850000D02*
X138650000Y-124581800D01*
X129825001Y-112925001D02*
X130000000Y-113100000D01*
X138250000Y-127037500D02*
X138237500Y-127050000D01*
X129275000Y-115206800D02*
X129275000Y-113043200D01*
X139237500Y-126275000D02*
X139062500Y-126100000D01*
X139237500Y-127050000D02*
X139237500Y-126275000D01*
X129393199Y-112925001D02*
X129825001Y-112925001D01*
X138412500Y-126100000D02*
X138237500Y-126275000D01*
X139062500Y-126100000D02*
X138412500Y-126100000D01*
X138237500Y-126262500D02*
X138650000Y-125850000D01*
X129275000Y-113043200D02*
X129393199Y-112925001D01*
X138237500Y-126275000D02*
X138237500Y-127050000D01*
X138237500Y-127050000D02*
X138237500Y-126262500D01*
X138650000Y-124581800D02*
X129275000Y-115206800D01*
%TO.N,/CM4 Camera pins/USB2_P*%
X137737500Y-127050000D02*
X137737500Y-127825000D01*
X137300000Y-124750000D02*
X137500000Y-124550000D01*
X128825000Y-115393200D02*
X128825000Y-112856800D01*
X138012500Y-128100000D02*
X138400000Y-128100000D01*
X137737500Y-126387500D02*
X137300000Y-125950000D01*
X129206801Y-112474999D02*
X129825001Y-112474999D01*
X137300000Y-125950000D02*
X137300000Y-124750000D01*
X137500000Y-124550000D02*
X137500000Y-124068200D01*
X137737500Y-127825000D02*
X138012500Y-128100000D01*
X138737500Y-127762500D02*
X138737500Y-127050000D01*
X129825001Y-112474999D02*
X130000000Y-112300000D01*
X137500000Y-124068200D02*
X128825000Y-115393200D01*
X128825000Y-112856800D02*
X129206801Y-112474999D01*
X137737500Y-127050000D02*
X137737500Y-126387500D01*
X138400000Y-128100000D02*
X138737500Y-127762500D01*
D44*
%TO.N,Net-(J4-CC2)*%
X136729200Y-127271800D02*
X136729200Y-124604800D01*
%TO.N,Net-(J4-CC1)*%
X139726400Y-127271800D02*
X139726400Y-126223600D01*
X140564600Y-125385400D02*
X140564600Y-124579400D01*
X139726400Y-126223600D02*
X140564600Y-125385400D01*
D39*
%TO.N,Net-(J6-CC2)*%
X139800000Y-86734800D02*
X139159800Y-87375000D01*
X139159800Y-87375000D02*
X138525000Y-87375000D01*
X139800000Y-85975000D02*
X139800000Y-86734800D01*
%TO.N,Net-(J6-CC1)*%
X136825000Y-85950000D02*
X136825000Y-87450000D01*
D40*
%TO.N,+3.3V*%
X133414713Y-96762500D02*
X136075000Y-99422787D01*
D39*
X157200000Y-98150000D02*
X157200000Y-95799996D01*
D40*
X136075000Y-99422787D02*
X136075000Y-117200000D01*
D39*
X157200000Y-95799996D02*
X157875000Y-95124996D01*
X157825000Y-98775000D02*
X157200000Y-98150000D01*
D40*
X132300000Y-97450000D02*
X132987500Y-96762500D01*
X132987500Y-96762500D02*
X133250000Y-96500000D01*
X133250000Y-96500000D02*
X133675000Y-96500000D01*
X132987500Y-96762500D02*
X133414713Y-96762500D01*
D39*
%TO.N,/CM4 GPIO and power pins/GPIO15*%
X143700000Y-119350000D02*
X151059230Y-119350000D01*
X151059230Y-119350000D02*
X152752600Y-117656630D01*
X152752600Y-115022400D02*
X163975000Y-103800000D01*
X152752600Y-117656630D02*
X152752600Y-115022400D01*
%TO.N,/CM4 GPIO and power pins/GPIO3*%
X157025000Y-103375000D02*
X159725000Y-103375000D01*
X159725000Y-103375000D02*
X160025000Y-103075000D01*
%TO.N,Net-(U1-ICHG_EN)*%
X146025000Y-89975000D02*
X143125000Y-89975000D01*
%TD*%
%TA.AperFunction,Conductor*%
%TO.N,GND*%
G36*
X138000034Y-124506221D02*
G01*
X138002552Y-124504539D01*
X138005971Y-124509657D01*
X138005972Y-124509658D01*
X138039766Y-124560234D01*
X138090342Y-124594028D01*
X138134943Y-124602900D01*
X138287556Y-124602899D01*
X138331750Y-124621205D01*
X138378794Y-124668249D01*
X138397100Y-124712443D01*
X138397100Y-125719356D01*
X138378794Y-125763550D01*
X138080637Y-126061706D01*
X138071169Y-126069477D01*
X138057578Y-126078559D01*
X138055169Y-126080169D01*
X138041059Y-126101285D01*
X138041058Y-126101287D01*
X138041057Y-126101289D01*
X138035633Y-126109406D01*
X137999272Y-126163822D01*
X137997783Y-126167420D01*
X137963960Y-126201246D01*
X137916124Y-126201247D01*
X137905315Y-126195469D01*
X137903829Y-126194476D01*
X137894360Y-126186705D01*
X137571206Y-125863550D01*
X137552900Y-125819356D01*
X137552900Y-125343296D01*
X137571206Y-125299102D01*
X137615400Y-125280796D01*
X137659594Y-125299102D01*
X137676699Y-125331103D01*
X137680368Y-125349552D01*
X137680369Y-125349554D01*
X137708438Y-125391561D01*
X137750446Y-125419630D01*
X137787493Y-125427000D01*
X137886500Y-125427000D01*
X137886500Y-125213500D01*
X138013500Y-125213500D01*
X138013500Y-125427000D01*
X138112507Y-125427000D01*
X138149553Y-125419630D01*
X138149554Y-125419630D01*
X138191561Y-125391561D01*
X138219630Y-125349554D01*
X138219630Y-125349553D01*
X138227000Y-125312507D01*
X138227000Y-125213500D01*
X138013500Y-125213500D01*
X137886500Y-125213500D01*
X137886500Y-124873000D01*
X138013500Y-124873000D01*
X138013500Y-125086500D01*
X138227000Y-125086500D01*
X138227000Y-124987492D01*
X138219630Y-124950446D01*
X138219630Y-124950445D01*
X138191561Y-124908438D01*
X138149553Y-124880369D01*
X138112507Y-124873000D01*
X138013500Y-124873000D01*
X137886500Y-124873000D01*
X137787493Y-124873000D01*
X137750446Y-124880369D01*
X137750445Y-124880369D01*
X137708438Y-124908438D01*
X137680369Y-124950445D01*
X137680369Y-124950446D01*
X137676699Y-124968897D01*
X137650123Y-125008670D01*
X137603206Y-125018002D01*
X137563433Y-124991426D01*
X137552900Y-124956703D01*
X137552900Y-124880641D01*
X137571205Y-124836448D01*
X137656860Y-124750792D01*
X137666328Y-124743023D01*
X137682331Y-124732331D01*
X137738227Y-124648677D01*
X137738455Y-124647529D01*
X137739104Y-124646557D01*
X137740581Y-124642992D01*
X137741290Y-124643285D01*
X137765028Y-124607756D01*
X137787555Y-124598423D01*
X137809658Y-124594028D01*
X137860234Y-124560234D01*
X137894028Y-124509658D01*
X137894028Y-124509656D01*
X137897448Y-124504539D01*
X137899968Y-124506223D01*
X137926072Y-124480112D01*
X137973908Y-124480103D01*
X138000034Y-124506221D01*
G37*
%TD.AperFunction*%
%TA.AperFunction,Conductor*%
G36*
X153128794Y-85846206D02*
G01*
X153147100Y-85890400D01*
X153147100Y-87953671D01*
X153128794Y-87997865D01*
X152119175Y-89007483D01*
X152108479Y-89016054D01*
X152105523Y-89017930D01*
X152105516Y-89017936D01*
X152056409Y-89070227D01*
X152055727Y-89070931D01*
X152034294Y-89092365D01*
X152034280Y-89092381D01*
X152028880Y-89099341D01*
X152026971Y-89101577D01*
X151992596Y-89138183D01*
X151992595Y-89138185D01*
X151979984Y-89161123D01*
X151974602Y-89169316D01*
X151958555Y-89190004D01*
X151958552Y-89190009D01*
X151938612Y-89236086D01*
X151937317Y-89238730D01*
X151913125Y-89282737D01*
X151906612Y-89308100D01*
X151903436Y-89317374D01*
X151893044Y-89341390D01*
X151893040Y-89341400D01*
X151885185Y-89390996D01*
X151884588Y-89393879D01*
X151872100Y-89442519D01*
X151872100Y-89468696D01*
X151871331Y-89478472D01*
X151867236Y-89504328D01*
X151871961Y-89554321D01*
X151872100Y-89557263D01*
X151872100Y-92381037D01*
X151860785Y-92416184D01*
X151860835Y-92416213D01*
X151860697Y-92416455D01*
X151860362Y-92417499D01*
X151859168Y-92419160D01*
X151828346Y-92473677D01*
X151769627Y-92577535D01*
X151757408Y-92617331D01*
X151716228Y-92751446D01*
X151716226Y-92751453D01*
X151701462Y-92932781D01*
X151726022Y-93113050D01*
X151738880Y-93148046D01*
X151736938Y-93195842D01*
X151701768Y-93228266D01*
X151680214Y-93232100D01*
X151645421Y-93232100D01*
X151610700Y-93221567D01*
X151536177Y-93171773D01*
X151536176Y-93171772D01*
X151462411Y-93157100D01*
X151152591Y-93157100D01*
X151152587Y-93157101D01*
X151078824Y-93171772D01*
X151078820Y-93171774D01*
X151022223Y-93209592D01*
X150975307Y-93218924D01*
X150952777Y-93209592D01*
X150896178Y-93171773D01*
X150896176Y-93171772D01*
X150822411Y-93157100D01*
X150512591Y-93157100D01*
X150512587Y-93157101D01*
X150438824Y-93171772D01*
X150438823Y-93171773D01*
X150364299Y-93221567D01*
X150329579Y-93232100D01*
X149673143Y-93232100D01*
X149628949Y-93213794D01*
X148388706Y-91973550D01*
X148370400Y-91929356D01*
X148370400Y-91531496D01*
X148380934Y-91496772D01*
X148382212Y-91494858D01*
X148389029Y-91484657D01*
X148397901Y-91440056D01*
X148397900Y-90809943D01*
X148395207Y-90796405D01*
X148404539Y-90749490D01*
X148444312Y-90722914D01*
X148459421Y-90722174D01*
X148459421Y-90722001D01*
X148711500Y-90722001D01*
X148711500Y-90538501D01*
X148838500Y-90538501D01*
X148838500Y-90722001D01*
X149087507Y-90722001D01*
X149124553Y-90714631D01*
X149124554Y-90714631D01*
X149166561Y-90686562D01*
X149194630Y-90644555D01*
X149194630Y-90644554D01*
X149202000Y-90607508D01*
X149202000Y-90538501D01*
X148838500Y-90538501D01*
X148711500Y-90538501D01*
X148711500Y-90411500D01*
X148838499Y-90411500D01*
X148838500Y-90411501D01*
X149202000Y-90411501D01*
X149202000Y-90342493D01*
X149194630Y-90305447D01*
X149194630Y-90305446D01*
X149164079Y-90259724D01*
X149154747Y-90212808D01*
X149164080Y-90190277D01*
X149194629Y-90144557D01*
X149194630Y-90144555D01*
X149202000Y-90107509D01*
X149202000Y-90038502D01*
X148838500Y-90038502D01*
X148838499Y-90411500D01*
X148711500Y-90411500D01*
X148711500Y-89974002D01*
X148729806Y-89929808D01*
X148774000Y-89911502D01*
X149202000Y-89911502D01*
X149202000Y-89842494D01*
X149194063Y-89802594D01*
X149203395Y-89755677D01*
X149243168Y-89729101D01*
X149255362Y-89727900D01*
X150166324Y-89727900D01*
X150210518Y-89746206D01*
X150213558Y-89749471D01*
X150272942Y-89818004D01*
X150275364Y-89820799D01*
X150384924Y-89891208D01*
X150384926Y-89891208D01*
X150384927Y-89891209D01*
X150509881Y-89927900D01*
X150509883Y-89927900D01*
X150640119Y-89927900D01*
X150736444Y-89899615D01*
X150765076Y-89891208D01*
X150874636Y-89820799D01*
X150959921Y-89722374D01*
X151014023Y-89603909D01*
X151032557Y-89475000D01*
X151014023Y-89346091D01*
X150959921Y-89227626D01*
X150874636Y-89129201D01*
X150765076Y-89058792D01*
X150765074Y-89058791D01*
X150765072Y-89058790D01*
X150640119Y-89022100D01*
X150640117Y-89022100D01*
X150509883Y-89022100D01*
X150509881Y-89022100D01*
X150384927Y-89058790D01*
X150275362Y-89129202D01*
X150213558Y-89200529D01*
X150170783Y-89221941D01*
X150166324Y-89222100D01*
X149281770Y-89222100D01*
X149237576Y-89203794D01*
X149219270Y-89159600D01*
X149220471Y-89147407D01*
X149224092Y-89129200D01*
X149227900Y-89110058D01*
X149227899Y-88839945D01*
X149219028Y-88795343D01*
X149185234Y-88744767D01*
X149134658Y-88710973D01*
X149134657Y-88710972D01*
X149098928Y-88703865D01*
X149090057Y-88702101D01*
X149090056Y-88702101D01*
X148460400Y-88702101D01*
X148416206Y-88683795D01*
X148397900Y-88639603D01*
X148397900Y-88009944D01*
X148389029Y-87965342D01*
X148355235Y-87914766D01*
X148304734Y-87881022D01*
X148304658Y-87880971D01*
X148268929Y-87873864D01*
X148260058Y-87872100D01*
X148260057Y-87872100D01*
X147989946Y-87872100D01*
X147989942Y-87872101D01*
X147945344Y-87880971D01*
X147945339Y-87880973D01*
X147909724Y-87904771D01*
X147862807Y-87914103D01*
X147840278Y-87904771D01*
X147804660Y-87880972D01*
X147789905Y-87878037D01*
X147760059Y-87872100D01*
X147760058Y-87872100D01*
X147489947Y-87872100D01*
X147489943Y-87872101D01*
X147445092Y-87881022D01*
X147398176Y-87871689D01*
X147371601Y-87831915D01*
X147370400Y-87819723D01*
X147370400Y-87207063D01*
X147388705Y-87162870D01*
X148705370Y-85846206D01*
X148749564Y-85827900D01*
X153084600Y-85827900D01*
X153128794Y-85846206D01*
G37*
%TD.AperFunction*%
%TA.AperFunction,Conductor*%
G36*
X139084724Y-86720274D02*
G01*
X139090342Y-86724028D01*
X139134943Y-86732900D01*
X139293358Y-86732899D01*
X139337551Y-86751205D01*
X139355857Y-86795399D01*
X139337551Y-86839593D01*
X139073351Y-87103794D01*
X139029157Y-87122100D01*
X138857062Y-87122100D01*
X138812868Y-87103794D01*
X138810180Y-87100518D01*
X138807328Y-87097666D01*
X138723678Y-87041773D01*
X138723676Y-87041772D01*
X138649911Y-87027100D01*
X138400091Y-87027100D01*
X138400087Y-87027101D01*
X138326324Y-87041772D01*
X138326320Y-87041774D01*
X138242669Y-87097669D01*
X138186773Y-87181321D01*
X138186772Y-87181323D01*
X138172100Y-87255088D01*
X138172100Y-87564908D01*
X138172101Y-87564912D01*
X138186772Y-87638675D01*
X138186774Y-87638679D01*
X138240167Y-87718586D01*
X138249499Y-87765502D01*
X138240167Y-87788032D01*
X138211171Y-87831427D01*
X138211170Y-87831429D01*
X138198000Y-87897643D01*
X138198000Y-87986500D01*
X138852000Y-87986500D01*
X138852000Y-87897644D01*
X138851999Y-87897643D01*
X138838829Y-87831429D01*
X138838828Y-87831427D01*
X138809833Y-87788032D01*
X138800501Y-87741115D01*
X138809833Y-87718586D01*
X138851868Y-87655675D01*
X138891641Y-87629101D01*
X138903834Y-87627900D01*
X139128734Y-87627900D01*
X139140927Y-87629101D01*
X139159799Y-87632855D01*
X139159800Y-87632855D01*
X139159801Y-87632855D01*
X139209138Y-87623041D01*
X139258477Y-87613227D01*
X139321013Y-87571442D01*
X139321013Y-87571441D01*
X139327782Y-87566919D01*
X139327784Y-87566916D01*
X139342131Y-87557331D01*
X139352826Y-87541322D01*
X139360590Y-87531863D01*
X139915406Y-86977046D01*
X139959600Y-86958741D01*
X140003794Y-86977047D01*
X140022100Y-87021241D01*
X140022100Y-89986513D01*
X140003794Y-90030707D01*
X139727879Y-90306622D01*
X139683685Y-90324928D01*
X139639491Y-90306622D01*
X138416378Y-89083509D01*
X138414657Y-89081643D01*
X138405558Y-89070931D01*
X138378594Y-89039186D01*
X138315524Y-88991242D01*
X138314882Y-88990740D01*
X138253123Y-88941096D01*
X138248184Y-88938646D01*
X138238147Y-88932420D01*
X138233760Y-88929086D01*
X138233755Y-88929083D01*
X138233753Y-88929082D01*
X138161886Y-88895833D01*
X138161123Y-88895467D01*
X138090141Y-88860263D01*
X138088096Y-88859754D01*
X138084787Y-88858931D01*
X138073639Y-88855006D01*
X138068648Y-88852697D01*
X138068643Y-88852695D01*
X137991311Y-88835672D01*
X137990488Y-88835479D01*
X137943577Y-88823813D01*
X137913582Y-88816354D01*
X137908075Y-88816204D01*
X137896337Y-88814767D01*
X137890967Y-88813585D01*
X137890966Y-88813585D01*
X137811773Y-88813585D01*
X137810965Y-88813574D01*
X137783676Y-88812835D01*
X137731719Y-88811427D01*
X137727534Y-88812230D01*
X137726312Y-88812465D01*
X137714535Y-88813585D01*
X136165400Y-88813585D01*
X136121206Y-88795279D01*
X136102900Y-88751085D01*
X136102900Y-88103500D01*
X136473000Y-88103500D01*
X136473000Y-88192356D01*
X136486170Y-88258570D01*
X136486171Y-88258572D01*
X136536342Y-88333657D01*
X136611427Y-88383828D01*
X136611429Y-88383829D01*
X136677643Y-88396999D01*
X136677644Y-88397000D01*
X136736500Y-88397000D01*
X136736500Y-88103500D01*
X136863500Y-88103500D01*
X136863500Y-88397000D01*
X136922356Y-88397000D01*
X136922356Y-88396999D01*
X136988570Y-88383829D01*
X136988572Y-88383828D01*
X137063657Y-88333657D01*
X137113828Y-88258572D01*
X137113829Y-88258570D01*
X137126999Y-88192356D01*
X137127000Y-88192356D01*
X137127000Y-88113500D01*
X138198000Y-88113500D01*
X138198000Y-88202356D01*
X138211170Y-88268570D01*
X138211171Y-88268572D01*
X138261342Y-88343657D01*
X138336427Y-88393828D01*
X138336429Y-88393829D01*
X138402643Y-88406999D01*
X138402644Y-88407000D01*
X138461500Y-88407000D01*
X138461500Y-88113500D01*
X138588500Y-88113500D01*
X138588500Y-88407000D01*
X138647356Y-88407000D01*
X138647356Y-88406999D01*
X138713570Y-88393829D01*
X138713572Y-88393828D01*
X138788657Y-88343657D01*
X138838828Y-88268572D01*
X138838829Y-88268570D01*
X138851999Y-88202356D01*
X138852000Y-88202356D01*
X138852000Y-88113500D01*
X138588500Y-88113500D01*
X138461500Y-88113500D01*
X138198000Y-88113500D01*
X137127000Y-88113500D01*
X137127000Y-88103500D01*
X136863500Y-88103500D01*
X136736500Y-88103500D01*
X136473000Y-88103500D01*
X136102900Y-88103500D01*
X136102900Y-86795399D01*
X136121206Y-86751205D01*
X136165397Y-86732899D01*
X136465056Y-86732899D01*
X136497408Y-86726464D01*
X136544323Y-86735796D01*
X136570899Y-86775570D01*
X136572100Y-86787763D01*
X136572100Y-87017891D01*
X136553794Y-87062085D01*
X136544324Y-87069857D01*
X136517673Y-87087665D01*
X136517668Y-87087669D01*
X136461773Y-87171321D01*
X136461772Y-87171323D01*
X136447100Y-87245088D01*
X136447100Y-87554908D01*
X136447101Y-87554912D01*
X136461772Y-87628675D01*
X136461774Y-87628679D01*
X136515167Y-87708586D01*
X136524499Y-87755502D01*
X136515167Y-87778032D01*
X136486171Y-87821427D01*
X136486170Y-87821429D01*
X136473000Y-87887643D01*
X136473000Y-87976500D01*
X137127000Y-87976500D01*
X137127000Y-87887644D01*
X137126999Y-87887643D01*
X137113829Y-87821429D01*
X137113828Y-87821427D01*
X137084833Y-87778032D01*
X137075501Y-87731115D01*
X137084833Y-87708586D01*
X137099019Y-87687356D01*
X137138227Y-87628677D01*
X137152900Y-87554911D01*
X137152899Y-87245090D01*
X137138227Y-87171323D01*
X137105337Y-87122100D01*
X137088433Y-87096801D01*
X137077900Y-87062078D01*
X137077900Y-86795399D01*
X137096206Y-86751205D01*
X137140397Y-86732899D01*
X137465056Y-86732899D01*
X137509658Y-86724028D01*
X137515274Y-86720274D01*
X137562190Y-86710940D01*
X137584724Y-86720274D01*
X137590342Y-86724028D01*
X137634943Y-86732900D01*
X137965056Y-86732899D01*
X138009658Y-86724028D01*
X138015274Y-86720274D01*
X138062190Y-86710940D01*
X138084724Y-86720274D01*
X138090342Y-86724028D01*
X138134943Y-86732900D01*
X138465056Y-86732899D01*
X138509658Y-86724028D01*
X138515274Y-86720274D01*
X138562190Y-86710940D01*
X138584724Y-86720274D01*
X138590342Y-86724028D01*
X138634943Y-86732900D01*
X138965056Y-86732899D01*
X139009658Y-86724028D01*
X139015274Y-86720274D01*
X139062190Y-86710940D01*
X139084724Y-86720274D01*
G37*
%TD.AperFunction*%
%TA.AperFunction,Conductor*%
G36*
X162592635Y-78874680D02*
G01*
X162610941Y-78918874D01*
X162592635Y-78963068D01*
X162559100Y-78980458D01*
X162307943Y-79023923D01*
X162307939Y-79023924D01*
X162307940Y-79023924D01*
X162307935Y-79023925D01*
X161973215Y-79122208D01*
X161973194Y-79122216D01*
X161651856Y-79258013D01*
X161651852Y-79258015D01*
X161348087Y-79429560D01*
X161348086Y-79429560D01*
X161065833Y-79634628D01*
X161065827Y-79634634D01*
X160808824Y-79870511D01*
X160808808Y-79870527D01*
X160580357Y-80134174D01*
X160383439Y-80422156D01*
X160252250Y-80670788D01*
X160220635Y-80730706D01*
X160111426Y-81011209D01*
X160094062Y-81055807D01*
X160005373Y-81393210D01*
X159968611Y-81648905D01*
X159955725Y-81738527D01*
X159947407Y-82029728D01*
X159945763Y-82087263D01*
X159975617Y-82434846D01*
X160044897Y-82776754D01*
X160152705Y-83108554D01*
X160297631Y-83425896D01*
X160477786Y-83724649D01*
X160586649Y-83865825D01*
X160690820Y-84000916D01*
X160933959Y-84251100D01*
X160933964Y-84251104D01*
X160933968Y-84251108D01*
X161055520Y-84350500D01*
X161204032Y-84471938D01*
X161204034Y-84471939D01*
X161204033Y-84471939D01*
X161366119Y-84576105D01*
X161497518Y-84660550D01*
X161497526Y-84660554D01*
X161497533Y-84660558D01*
X161810583Y-84814474D01*
X161810586Y-84814475D01*
X161810592Y-84814478D01*
X162139171Y-84931714D01*
X162478972Y-85010732D01*
X162825566Y-85050500D01*
X162825570Y-85050500D01*
X163087146Y-85050500D01*
X163113260Y-85049006D01*
X163348299Y-85035567D01*
X163692057Y-84976077D01*
X164026793Y-84877789D01*
X164348144Y-84741986D01*
X164651919Y-84570436D01*
X164934159Y-84365377D01*
X165191184Y-84129481D01*
X165419644Y-83865824D01*
X165616560Y-83577844D01*
X165779365Y-83269294D01*
X165905937Y-82944196D01*
X165971652Y-82694189D01*
X166000592Y-82656102D01*
X166047988Y-82649632D01*
X166086076Y-82678572D01*
X166094599Y-82709996D01*
X166156812Y-129648891D01*
X166138565Y-129693110D01*
X166094395Y-129711474D01*
X166050176Y-129693227D01*
X166032041Y-129654322D01*
X166024382Y-129565153D01*
X165955102Y-129223245D01*
X165955101Y-129223240D01*
X165847295Y-128891447D01*
X165702370Y-128574106D01*
X165522215Y-128275353D01*
X165511312Y-128261214D01*
X165309187Y-127999093D01*
X165309182Y-127999087D01*
X165309180Y-127999084D01*
X165066041Y-127748900D01*
X165066034Y-127748895D01*
X165066031Y-127748891D01*
X164835535Y-127560416D01*
X164795968Y-127528062D01*
X164795965Y-127528060D01*
X164795966Y-127528060D01*
X164502490Y-127339455D01*
X164502487Y-127339453D01*
X164502482Y-127339450D01*
X164502478Y-127339448D01*
X164502466Y-127339441D01*
X164189416Y-127185525D01*
X164189402Y-127185520D01*
X164011965Y-127122211D01*
X163860832Y-127068287D01*
X163860834Y-127068287D01*
X163670059Y-127023924D01*
X163521028Y-126989268D01*
X163174434Y-126949500D01*
X162912855Y-126949500D01*
X162912854Y-126949500D01*
X162651709Y-126964432D01*
X162651701Y-126964433D01*
X162307943Y-127023923D01*
X162307939Y-127023924D01*
X162307940Y-127023924D01*
X162307935Y-127023925D01*
X161973215Y-127122208D01*
X161973194Y-127122216D01*
X161651856Y-127258013D01*
X161651852Y-127258015D01*
X161348087Y-127429560D01*
X161348086Y-127429560D01*
X161065833Y-127634628D01*
X161065827Y-127634634D01*
X160808824Y-127870511D01*
X160808808Y-127870527D01*
X160580357Y-128134174D01*
X160383439Y-128422156D01*
X160220635Y-128730706D01*
X160094062Y-129055807D01*
X160005373Y-129393210D01*
X159968613Y-129648891D01*
X159955725Y-129738527D01*
X159946658Y-130055943D01*
X159945763Y-130087263D01*
X159975617Y-130434846D01*
X160044897Y-130776754D01*
X160152705Y-131108554D01*
X160297631Y-131425896D01*
X160477786Y-131724649D01*
X160586649Y-131865825D01*
X160690820Y-132000916D01*
X160933959Y-132251100D01*
X160933964Y-132251104D01*
X160933968Y-132251108D01*
X161044452Y-132341450D01*
X161204032Y-132471938D01*
X161204034Y-132471939D01*
X161204033Y-132471939D01*
X161364180Y-132574859D01*
X161497518Y-132660550D01*
X161497526Y-132660554D01*
X161497533Y-132660558D01*
X161810583Y-132814474D01*
X161810586Y-132814475D01*
X161810592Y-132814478D01*
X162139171Y-132931714D01*
X162366300Y-132984531D01*
X162405199Y-133012370D01*
X162413019Y-133059562D01*
X162385179Y-133098462D01*
X162352212Y-133107906D01*
X130455007Y-133143041D01*
X130410793Y-133124784D01*
X130392438Y-133080610D01*
X130410695Y-133036396D01*
X130444277Y-133018957D01*
X130692057Y-132976077D01*
X131026793Y-132877789D01*
X131348144Y-132741986D01*
X131651919Y-132570436D01*
X131934159Y-132365377D01*
X131955191Y-132346074D01*
X133514600Y-132346074D01*
X133530086Y-132468662D01*
X133590810Y-132622033D01*
X133590812Y-132622037D01*
X133687774Y-132755494D01*
X133796156Y-132845155D01*
X133814878Y-132860643D01*
X133964139Y-132930880D01*
X134126178Y-132961790D01*
X134126178Y-132961789D01*
X134126179Y-132961790D01*
X134135923Y-132961176D01*
X134290814Y-132951432D01*
X134447701Y-132900457D01*
X134586982Y-132812066D01*
X134699905Y-132691815D01*
X134779376Y-132547259D01*
X134820400Y-132387480D01*
X134820400Y-132346074D01*
X142154600Y-132346074D01*
X142170086Y-132468662D01*
X142230810Y-132622033D01*
X142230812Y-132622037D01*
X142327774Y-132755494D01*
X142436156Y-132845155D01*
X142454878Y-132860643D01*
X142604139Y-132930880D01*
X142766178Y-132961790D01*
X142766178Y-132961789D01*
X142766179Y-132961790D01*
X142775923Y-132961176D01*
X142930814Y-132951432D01*
X143087701Y-132900457D01*
X143226982Y-132812066D01*
X143339905Y-132691815D01*
X143419376Y-132547259D01*
X143460400Y-132387480D01*
X143460400Y-131263925D01*
X143444914Y-131141340D01*
X143384188Y-130987963D01*
X143335066Y-130920353D01*
X143287225Y-130854505D01*
X143160122Y-130749357D01*
X143010860Y-130679119D01*
X142848824Y-130648210D01*
X142848820Y-130648209D01*
X142684185Y-130658568D01*
X142527299Y-130709542D01*
X142388017Y-130797934D01*
X142388016Y-130797935D01*
X142275093Y-130918187D01*
X142195623Y-131062742D01*
X142183861Y-131108554D01*
X142154600Y-131222520D01*
X142154600Y-131222522D01*
X142154600Y-131222523D01*
X142154600Y-132346074D01*
X134820400Y-132346074D01*
X134820400Y-131263925D01*
X134804914Y-131141340D01*
X134744188Y-130987963D01*
X134695066Y-130920353D01*
X134647225Y-130854505D01*
X134520122Y-130749357D01*
X134370860Y-130679119D01*
X134208824Y-130648210D01*
X134208820Y-130648209D01*
X134044185Y-130658568D01*
X133887299Y-130709542D01*
X133748017Y-130797934D01*
X133748016Y-130797935D01*
X133635093Y-130918187D01*
X133555623Y-131062742D01*
X133543861Y-131108554D01*
X133514600Y-131222520D01*
X133514600Y-131222522D01*
X133514600Y-131222523D01*
X133514600Y-132346074D01*
X131955191Y-132346074D01*
X132191184Y-132129481D01*
X132419644Y-131865824D01*
X132616560Y-131577844D01*
X132779365Y-131269294D01*
X132905937Y-130944196D01*
X132994626Y-130606790D01*
X133044275Y-130261473D01*
X133054237Y-129912747D01*
X133024383Y-129565159D01*
X132955101Y-129223240D01*
X132847295Y-128891447D01*
X132702370Y-128574106D01*
X132522215Y-128275353D01*
X132511312Y-128261214D01*
X132309187Y-127999093D01*
X132309182Y-127999087D01*
X132309180Y-127999084D01*
X132066041Y-127748900D01*
X132066034Y-127748895D01*
X132066031Y-127748891D01*
X131835535Y-127560416D01*
X131795968Y-127528062D01*
X131795965Y-127528060D01*
X131795966Y-127528060D01*
X131502490Y-127339455D01*
X131502487Y-127339453D01*
X131502482Y-127339450D01*
X131502478Y-127339448D01*
X131502466Y-127339441D01*
X131189416Y-127185525D01*
X131189402Y-127185520D01*
X131011965Y-127122211D01*
X130860832Y-127068287D01*
X130860834Y-127068287D01*
X130670059Y-127023924D01*
X130521028Y-126989268D01*
X130174434Y-126949500D01*
X129912855Y-126949500D01*
X129912854Y-126949500D01*
X129651709Y-126964432D01*
X129651701Y-126964433D01*
X129307943Y-127023923D01*
X129307939Y-127023924D01*
X129307940Y-127023924D01*
X129307935Y-127023925D01*
X128973215Y-127122208D01*
X128973194Y-127122216D01*
X128651856Y-127258013D01*
X128651852Y-127258015D01*
X128348087Y-127429560D01*
X128348086Y-127429560D01*
X128065833Y-127634628D01*
X128065827Y-127634634D01*
X127808824Y-127870511D01*
X127808808Y-127870527D01*
X127580357Y-128134174D01*
X127383439Y-128422156D01*
X127220635Y-128730706D01*
X127094062Y-129055807D01*
X127005373Y-129393210D01*
X126968613Y-129648891D01*
X126955725Y-129738527D01*
X126946658Y-130055943D01*
X126945763Y-130087263D01*
X126975617Y-130434846D01*
X127044897Y-130776754D01*
X127152705Y-131108554D01*
X127297631Y-131425896D01*
X127477786Y-131724649D01*
X127586649Y-131865825D01*
X127690820Y-132000916D01*
X127933959Y-132251100D01*
X127933964Y-132251104D01*
X127933968Y-132251108D01*
X128205414Y-132473068D01*
X128204992Y-132473583D01*
X128209033Y-132480176D01*
X128219960Y-132482175D01*
X128441395Y-132624482D01*
X128468677Y-132663775D01*
X128460183Y-132710850D01*
X128420890Y-132738132D01*
X128379230Y-132732747D01*
X128367088Y-132726561D01*
X128364253Y-132724924D01*
X128205821Y-132622037D01*
X128152129Y-132587169D01*
X128145463Y-132577470D01*
X128133174Y-132574859D01*
X128093251Y-132548932D01*
X128090603Y-132547008D01*
X127839466Y-132343641D01*
X127837033Y-132341450D01*
X127608549Y-132112966D01*
X127606358Y-132110533D01*
X127402990Y-131859396D01*
X127401067Y-131856748D01*
X127225075Y-131585746D01*
X127223438Y-131582911D01*
X127076732Y-131294987D01*
X127075401Y-131291997D01*
X126959595Y-130990315D01*
X126958589Y-130987223D01*
X126874943Y-130675056D01*
X126874270Y-130671886D01*
X126823715Y-130352707D01*
X126823375Y-130349480D01*
X126806418Y-130025966D01*
X126806376Y-130024328D01*
X126836826Y-115393202D01*
X128567145Y-115393202D01*
X128573521Y-115425262D01*
X128573526Y-115425281D01*
X128586773Y-115491877D01*
X128586773Y-115491878D01*
X128642666Y-115575528D01*
X128642669Y-115575531D01*
X128658667Y-115586220D01*
X128668138Y-115593993D01*
X137228794Y-124154648D01*
X137247100Y-124198842D01*
X137247100Y-124338330D01*
X137228794Y-124382524D01*
X137184600Y-124400830D01*
X137140406Y-124382524D01*
X137132633Y-124373053D01*
X137112331Y-124342669D01*
X137061448Y-124308670D01*
X137028678Y-124286773D01*
X137028676Y-124286772D01*
X136954911Y-124272100D01*
X136645091Y-124272100D01*
X136645087Y-124272101D01*
X136571325Y-124286772D01*
X136571320Y-124286774D01*
X136552515Y-124299339D01*
X136505599Y-124308670D01*
X136465826Y-124282092D01*
X136464340Y-124279600D01*
X136463619Y-124278623D01*
X136463618Y-124278621D01*
X136421758Y-124236761D01*
X136420947Y-124235919D01*
X136414336Y-124228794D01*
X136380668Y-124192509D01*
X136380305Y-124192299D01*
X136367367Y-124182370D01*
X135631000Y-123446002D01*
X135548767Y-123385310D01*
X135419898Y-123340217D01*
X135419902Y-123340217D01*
X135283470Y-123335114D01*
X135283469Y-123335114D01*
X135283468Y-123335114D01*
X135283466Y-123335114D01*
X135283461Y-123335115D01*
X135151592Y-123370450D01*
X135035992Y-123443086D01*
X135035991Y-123443087D01*
X134946936Y-123546570D01*
X134892340Y-123671708D01*
X134877055Y-123807373D01*
X134877055Y-123807375D01*
X134896022Y-123907623D01*
X134902436Y-123941522D01*
X134902437Y-123941527D01*
X134966228Y-124062224D01*
X134966232Y-124062230D01*
X135623894Y-124719892D01*
X135642200Y-124764086D01*
X135642200Y-126285500D01*
X135623894Y-126329694D01*
X135579700Y-126348000D01*
X135351000Y-126348000D01*
X135351000Y-127051000D01*
X135332694Y-127095194D01*
X135288500Y-127113500D01*
X135286500Y-127113500D01*
X135242306Y-127095194D01*
X135224000Y-127051000D01*
X135224000Y-126348000D01*
X134974993Y-126348000D01*
X134937946Y-126355369D01*
X134937945Y-126355369D01*
X134895938Y-126383438D01*
X134867869Y-126425445D01*
X134867869Y-126425446D01*
X134860500Y-126462492D01*
X134860500Y-126710064D01*
X134842194Y-126754258D01*
X134798000Y-126772564D01*
X134753806Y-126754258D01*
X134746564Y-126745568D01*
X134678644Y-126647169D01*
X134678640Y-126647165D01*
X134555418Y-126538001D01*
X134409653Y-126461497D01*
X134249815Y-126422100D01*
X134249812Y-126422100D01*
X134085188Y-126422100D01*
X134085184Y-126422100D01*
X133925346Y-126461497D01*
X133779581Y-126538001D01*
X133656359Y-126647165D01*
X133656355Y-126647169D01*
X133562840Y-126782650D01*
X133504463Y-126936575D01*
X133504462Y-126936579D01*
X133489600Y-127058987D01*
X133489600Y-128191012D01*
X133504462Y-128313420D01*
X133504463Y-128313424D01*
X133562840Y-128467349D01*
X133656355Y-128602830D01*
X133656358Y-128602833D01*
X133779581Y-128711998D01*
X133925348Y-128788503D01*
X134085188Y-128827900D01*
X134249812Y-128827900D01*
X134409652Y-128788503D01*
X134555419Y-128711998D01*
X134678642Y-128602833D01*
X134772159Y-128467350D01*
X134830536Y-128313424D01*
X134830537Y-128313420D01*
X134845399Y-128191012D01*
X134845400Y-128191006D01*
X134845400Y-127799722D01*
X134863706Y-127755528D01*
X134907900Y-127737222D01*
X134931394Y-127744362D01*
X134932259Y-127742275D01*
X134937946Y-127744630D01*
X134974993Y-127752000D01*
X135031218Y-127752000D01*
X135075412Y-127770306D01*
X135093718Y-127814500D01*
X135088960Y-127838418D01*
X135032917Y-127973716D01*
X135032914Y-127973726D01*
X135013000Y-128124998D01*
X135013000Y-128125001D01*
X135032914Y-128276273D01*
X135032917Y-128276283D01*
X135091306Y-128417247D01*
X135091308Y-128417250D01*
X135184195Y-128538304D01*
X135230850Y-128574103D01*
X135305250Y-128631192D01*
X135446220Y-128689584D01*
X135446226Y-128689584D01*
X135446227Y-128689585D01*
X135502870Y-128697042D01*
X135559520Y-128704500D01*
X135559526Y-128704500D01*
X135635474Y-128704500D01*
X135635480Y-128704500D01*
X135748780Y-128689584D01*
X135889750Y-128631192D01*
X136010804Y-128538304D01*
X136103692Y-128417250D01*
X136162084Y-128276280D01*
X136162206Y-128275353D01*
X136182000Y-128125001D01*
X136182000Y-128124998D01*
X136162085Y-127973726D01*
X136162084Y-127973724D01*
X136162084Y-127973720D01*
X136119337Y-127870519D01*
X136116768Y-127864317D01*
X136116768Y-127816481D01*
X136150592Y-127782657D01*
X136174510Y-127777899D01*
X136402555Y-127777899D01*
X136402556Y-127777899D01*
X136447158Y-127769028D01*
X136452774Y-127765274D01*
X136499690Y-127755940D01*
X136522224Y-127765274D01*
X136527842Y-127769028D01*
X136572443Y-127777900D01*
X136902556Y-127777899D01*
X136947158Y-127769028D01*
X136952774Y-127765274D01*
X136999690Y-127755940D01*
X137022224Y-127765274D01*
X137027842Y-127769028D01*
X137072443Y-127777900D01*
X137402556Y-127777899D01*
X137406396Y-127777135D01*
X137453312Y-127786464D01*
X137479890Y-127826236D01*
X137479891Y-127826239D01*
X137499273Y-127923676D01*
X137499274Y-127923680D01*
X137532709Y-127973719D01*
X137555168Y-128007330D01*
X137571168Y-128018021D01*
X137580639Y-128025794D01*
X137811703Y-128256857D01*
X137819476Y-128266328D01*
X137830166Y-128282328D01*
X137830169Y-128282331D01*
X137851288Y-128296442D01*
X137913823Y-128338227D01*
X138012499Y-128357855D01*
X138012500Y-128357855D01*
X138012501Y-128357855D01*
X138031373Y-128354101D01*
X138043566Y-128352900D01*
X138368934Y-128352900D01*
X138381127Y-128354101D01*
X138399999Y-128357855D01*
X138400000Y-128357855D01*
X138400001Y-128357855D01*
X138449338Y-128348041D01*
X138498677Y-128338227D01*
X138561213Y-128296442D01*
X138561213Y-128296441D01*
X138567982Y-128291919D01*
X138567984Y-128291916D01*
X138582331Y-128282331D01*
X138593022Y-128266328D01*
X138600790Y-128256863D01*
X138894363Y-127963290D01*
X138903831Y-127955521D01*
X138919831Y-127944831D01*
X138975727Y-127861177D01*
X138983149Y-127823861D01*
X139009724Y-127784088D01*
X139056639Y-127774756D01*
X139072443Y-127777900D01*
X139402556Y-127777899D01*
X139447158Y-127769028D01*
X139452774Y-127765274D01*
X139499690Y-127755940D01*
X139522224Y-127765274D01*
X139527842Y-127769028D01*
X139572443Y-127777900D01*
X139902556Y-127777899D01*
X139947158Y-127769028D01*
X139952774Y-127765274D01*
X139999690Y-127755940D01*
X140022224Y-127765274D01*
X140027842Y-127769028D01*
X140072443Y-127777900D01*
X140402556Y-127777899D01*
X140447158Y-127769028D01*
X140452774Y-127765274D01*
X140499690Y-127755940D01*
X140522224Y-127765274D01*
X140527842Y-127769028D01*
X140572443Y-127777900D01*
X140800489Y-127777899D01*
X140844683Y-127796205D01*
X140862989Y-127840399D01*
X140858232Y-127864316D01*
X140833645Y-127923676D01*
X140812916Y-127973720D01*
X140812915Y-127973721D01*
X140812914Y-127973726D01*
X140793000Y-128124998D01*
X140793000Y-128125001D01*
X140812914Y-128276273D01*
X140812917Y-128276283D01*
X140871306Y-128417247D01*
X140871308Y-128417250D01*
X140964195Y-128538304D01*
X141010850Y-128574103D01*
X141085250Y-128631192D01*
X141226220Y-128689584D01*
X141226226Y-128689584D01*
X141226227Y-128689585D01*
X141282870Y-128697042D01*
X141339520Y-128704500D01*
X141339526Y-128704500D01*
X141415474Y-128704500D01*
X141415480Y-128704500D01*
X141528780Y-128689584D01*
X141669750Y-128631192D01*
X141790804Y-128538304D01*
X141883692Y-128417250D01*
X141942084Y-128276280D01*
X141942206Y-128275353D01*
X141962000Y-128125001D01*
X141962000Y-128124998D01*
X141942085Y-127973726D01*
X141942084Y-127973724D01*
X141942084Y-127973720D01*
X141895467Y-127861177D01*
X141886040Y-127838418D01*
X141886039Y-127790582D01*
X141919864Y-127756758D01*
X141943782Y-127752000D01*
X142000007Y-127752000D01*
X142037053Y-127744630D01*
X142042741Y-127742275D01*
X142044053Y-127745444D01*
X142079229Y-127738410D01*
X142119031Y-127764945D01*
X142129600Y-127799722D01*
X142129600Y-128191012D01*
X142144462Y-128313420D01*
X142144463Y-128313424D01*
X142202840Y-128467349D01*
X142296355Y-128602830D01*
X142296358Y-128602833D01*
X142419581Y-128711998D01*
X142565348Y-128788503D01*
X142725188Y-128827900D01*
X142889812Y-128827900D01*
X143049652Y-128788503D01*
X143195419Y-128711998D01*
X143318642Y-128602833D01*
X143412159Y-128467350D01*
X143470536Y-128313424D01*
X143470537Y-128313420D01*
X143485399Y-128191012D01*
X143485400Y-128191006D01*
X143485400Y-127058993D01*
X143485399Y-127058987D01*
X143470537Y-126936579D01*
X143470536Y-126936575D01*
X143412159Y-126782650D01*
X143318644Y-126647169D01*
X143318640Y-126647165D01*
X143195418Y-126538001D01*
X143049653Y-126461497D01*
X142889815Y-126422100D01*
X142889812Y-126422100D01*
X142725188Y-126422100D01*
X142725184Y-126422100D01*
X142565346Y-126461497D01*
X142419581Y-126538001D01*
X142296359Y-126647165D01*
X142296355Y-126647169D01*
X142228436Y-126745568D01*
X142188266Y-126771540D01*
X142141496Y-126761500D01*
X142115524Y-126721330D01*
X142114500Y-126710064D01*
X142114500Y-126462492D01*
X142107130Y-126425446D01*
X142107130Y-126425445D01*
X142079061Y-126383438D01*
X142037053Y-126355369D01*
X142000007Y-126348000D01*
X141751000Y-126348000D01*
X141751000Y-127051000D01*
X141732694Y-127095194D01*
X141688500Y-127113500D01*
X141686500Y-127113500D01*
X141642306Y-127095194D01*
X141624000Y-127051000D01*
X141624000Y-126348000D01*
X141410200Y-126348000D01*
X141366006Y-126329694D01*
X141347700Y-126285500D01*
X141347700Y-126257923D01*
X141366005Y-126213730D01*
X141565942Y-126013793D01*
X141568527Y-126011484D01*
X141600649Y-125985869D01*
X141627628Y-125946295D01*
X141633995Y-125936958D01*
X141634672Y-125936004D01*
X141637258Y-125932498D01*
X141669839Y-125888356D01*
X141669971Y-125887976D01*
X141677332Y-125873395D01*
X141677558Y-125873065D01*
X141695014Y-125816468D01*
X141695366Y-125815400D01*
X141714931Y-125759490D01*
X141714945Y-125759089D01*
X141717683Y-125742980D01*
X141717800Y-125742603D01*
X141717800Y-125683376D01*
X141717822Y-125682207D01*
X141720035Y-125623058D01*
X141720033Y-125623050D01*
X141719929Y-125622660D01*
X141717800Y-125606487D01*
X141717800Y-124242093D01*
X141717997Y-124238592D01*
X141719101Y-124228794D01*
X141722596Y-124197775D01*
X141711581Y-124139566D01*
X141711392Y-124138451D01*
X141710863Y-124134941D01*
X141702568Y-124079897D01*
X141702393Y-124079535D01*
X141697288Y-124064021D01*
X141697214Y-124063628D01*
X141669559Y-124011303D01*
X141669039Y-124010273D01*
X141643331Y-123956891D01*
X141643331Y-123956890D01*
X141643329Y-123956888D01*
X141643328Y-123956886D01*
X141643047Y-123956583D01*
X141633608Y-123943280D01*
X141633419Y-123942922D01*
X141591558Y-123901061D01*
X141590747Y-123900219D01*
X141584106Y-123893062D01*
X141550468Y-123856809D01*
X141550105Y-123856599D01*
X141537167Y-123846670D01*
X141049729Y-123359232D01*
X141047392Y-123356617D01*
X141021782Y-123324503D01*
X141021776Y-123324498D01*
X140972867Y-123291153D01*
X140971913Y-123290476D01*
X140924268Y-123255311D01*
X140924259Y-123255307D01*
X140923868Y-123255170D01*
X140909318Y-123247824D01*
X140908978Y-123247592D01*
X140908975Y-123247591D01*
X140863877Y-123233680D01*
X140852425Y-123230148D01*
X140851324Y-123229786D01*
X140845293Y-123227676D01*
X140795401Y-123210218D01*
X140795399Y-123210217D01*
X140795397Y-123210217D01*
X140794972Y-123210201D01*
X140778912Y-123207472D01*
X140778518Y-123207350D01*
X140778514Y-123207350D01*
X140719314Y-123207350D01*
X140718154Y-123207328D01*
X140676064Y-123205753D01*
X140658970Y-123205114D01*
X140658964Y-123205114D01*
X140658576Y-123205219D01*
X140642395Y-123207350D01*
X140224632Y-123207350D01*
X140193801Y-123216403D01*
X140189650Y-123217321D01*
X140154745Y-123222582D01*
X140131211Y-123233915D01*
X140121708Y-123237571D01*
X140099670Y-123244043D01*
X140069859Y-123263201D01*
X140066521Y-123265068D01*
X140031740Y-123281818D01*
X140015182Y-123297182D01*
X140006465Y-123303941D01*
X139990116Y-123314448D01*
X139990115Y-123314450D01*
X139964731Y-123343742D01*
X139962369Y-123346186D01*
X139931662Y-123374678D01*
X139931658Y-123374683D01*
X139922131Y-123391183D01*
X139915243Y-123400856D01*
X139904829Y-123412875D01*
X139904826Y-123412879D01*
X139887360Y-123451123D01*
X139885998Y-123453766D01*
X139863396Y-123492915D01*
X139863394Y-123492921D01*
X139859942Y-123508042D01*
X139855864Y-123520090D01*
X139850727Y-123531340D01*
X139844271Y-123576232D01*
X139843806Y-123578738D01*
X139833015Y-123626020D01*
X139833015Y-123626021D01*
X139833909Y-123637955D01*
X139833448Y-123651517D01*
X139832193Y-123660248D01*
X139832193Y-123660249D01*
X139839115Y-123708399D01*
X139839346Y-123710511D01*
X139843217Y-123762169D01*
X139846293Y-123770007D01*
X139849976Y-123783939D01*
X139850726Y-123789156D01*
X139850729Y-123789165D01*
X139872301Y-123836402D01*
X139872965Y-123837966D01*
X139893095Y-123889255D01*
X139893096Y-123889256D01*
X139893097Y-123889258D01*
X139896131Y-123893062D01*
X139904114Y-123906058D01*
X139904829Y-123907624D01*
X139904831Y-123907626D01*
X139941002Y-123949372D01*
X139941810Y-123950343D01*
X139947032Y-123956891D01*
X139978217Y-123995996D01*
X139978222Y-123996001D01*
X139979296Y-123996733D01*
X139986620Y-124003254D01*
X139986736Y-124003122D01*
X139990113Y-124006048D01*
X139990114Y-124006049D01*
X140039387Y-124037715D01*
X140039998Y-124038119D01*
X140089858Y-124072113D01*
X140091024Y-124072908D01*
X140091786Y-124073143D01*
X140095564Y-124074581D01*
X140099673Y-124076457D01*
X140099674Y-124076458D01*
X140159156Y-124093923D01*
X140200235Y-124106594D01*
X140221485Y-124113150D01*
X140221486Y-124113150D01*
X140224633Y-124113150D01*
X140354867Y-124113150D01*
X140496764Y-124113150D01*
X140540958Y-124131456D01*
X140549908Y-124140406D01*
X140568214Y-124184600D01*
X140549908Y-124228794D01*
X140505715Y-124247100D01*
X140395091Y-124247100D01*
X140395087Y-124247101D01*
X140321324Y-124261772D01*
X140321320Y-124261774D01*
X140237669Y-124317669D01*
X140181773Y-124401321D01*
X140181772Y-124401323D01*
X140167100Y-124475088D01*
X140167100Y-124724908D01*
X140167101Y-124724912D01*
X140181772Y-124798675D01*
X140181774Y-124798679D01*
X140237666Y-124882328D01*
X140237669Y-124882331D01*
X140258923Y-124896532D01*
X140285499Y-124936306D01*
X140286700Y-124948499D01*
X140286700Y-125244401D01*
X140268394Y-125288595D01*
X139569157Y-125987831D01*
X139560381Y-125994148D01*
X139560647Y-125994500D01*
X139556026Y-125997989D01*
X139525844Y-126031096D01*
X139524850Y-126032138D01*
X139511684Y-126045306D01*
X139511680Y-126045311D01*
X139509256Y-126048848D01*
X139506570Y-126052238D01*
X139487047Y-126073655D01*
X139443745Y-126093983D01*
X139406142Y-126083522D01*
X139403838Y-126081983D01*
X139394360Y-126074205D01*
X139263293Y-125943138D01*
X139255520Y-125933667D01*
X139244831Y-125917669D01*
X139244828Y-125917666D01*
X139223714Y-125903559D01*
X139161178Y-125861773D01*
X139161176Y-125861772D01*
X139062501Y-125842145D01*
X139062499Y-125842145D01*
X139043627Y-125845899D01*
X139031434Y-125847100D01*
X138965400Y-125847100D01*
X138921206Y-125828794D01*
X138902900Y-125784600D01*
X138902900Y-124612865D01*
X138904101Y-124600671D01*
X138905423Y-124594028D01*
X138907855Y-124581800D01*
X138892821Y-124506221D01*
X138888227Y-124483123D01*
X138888226Y-124483121D01*
X138844736Y-124418034D01*
X138832331Y-124399469D01*
X138832328Y-124399466D01*
X138816331Y-124388778D01*
X138806860Y-124381005D01*
X138621205Y-124195350D01*
X138602899Y-124151156D01*
X138602899Y-124134945D01*
X138602898Y-124134941D01*
X138594738Y-124093915D01*
X138594028Y-124090342D01*
X138560234Y-124039766D01*
X138516095Y-124010273D01*
X138509657Y-124005971D01*
X138473927Y-123998864D01*
X138465057Y-123997100D01*
X138465056Y-123997100D01*
X138448843Y-123997100D01*
X138404649Y-123978794D01*
X133775855Y-119349999D01*
X143242443Y-119349999D01*
X143260976Y-119478908D01*
X143310901Y-119588226D01*
X143315079Y-119597374D01*
X143400364Y-119695799D01*
X143509924Y-119766208D01*
X143509926Y-119766208D01*
X143509927Y-119766209D01*
X143634881Y-119802900D01*
X143634883Y-119802900D01*
X143765119Y-119802900D01*
X143861444Y-119774615D01*
X143890076Y-119766208D01*
X143999636Y-119695799D01*
X144061441Y-119624471D01*
X144104217Y-119603059D01*
X144108676Y-119602900D01*
X151028164Y-119602900D01*
X151040357Y-119604101D01*
X151059229Y-119607855D01*
X151059230Y-119607855D01*
X151059231Y-119607855D01*
X151111932Y-119597372D01*
X151157907Y-119588227D01*
X151220443Y-119546442D01*
X151220443Y-119546441D01*
X151227212Y-119541919D01*
X151227214Y-119541916D01*
X151241561Y-119532331D01*
X151252252Y-119516328D01*
X151260020Y-119506863D01*
X152909460Y-117857422D01*
X152918928Y-117849653D01*
X152934931Y-117838961D01*
X152954107Y-117810261D01*
X152993881Y-117783684D01*
X153040797Y-117793016D01*
X153054388Y-117805333D01*
X153142411Y-117912589D01*
X153295122Y-118037916D01*
X153295124Y-118037917D01*
X153295127Y-118037919D01*
X153429339Y-118109656D01*
X153469350Y-118131042D01*
X153658397Y-118188389D01*
X153855000Y-118207753D01*
X154051603Y-118188389D01*
X154240650Y-118131042D01*
X154414878Y-118037916D01*
X154567589Y-117912589D01*
X154692916Y-117759878D01*
X154786042Y-117585650D01*
X154843389Y-117396603D01*
X154862753Y-117200000D01*
X155387247Y-117200000D01*
X155406610Y-117396601D01*
X155432342Y-117481427D01*
X155460937Y-117575692D01*
X155463960Y-117585655D01*
X155557080Y-117759872D01*
X155557084Y-117759878D01*
X155682411Y-117912589D01*
X155835122Y-118037916D01*
X155835124Y-118037917D01*
X155835127Y-118037919D01*
X155969339Y-118109656D01*
X156009350Y-118131042D01*
X156198397Y-118188389D01*
X156255640Y-118194027D01*
X156394999Y-118207753D01*
X156394999Y-118207752D01*
X156395000Y-118207753D01*
X156591603Y-118188389D01*
X156780650Y-118131042D01*
X156954878Y-118037916D01*
X157107589Y-117912589D01*
X157232916Y-117759878D01*
X157326042Y-117585650D01*
X157383389Y-117396603D01*
X157402753Y-117200000D01*
X157927247Y-117200000D01*
X157946610Y-117396601D01*
X157972342Y-117481427D01*
X158000937Y-117575692D01*
X158003960Y-117585655D01*
X158097080Y-117759872D01*
X158097084Y-117759878D01*
X158222411Y-117912589D01*
X158375122Y-118037916D01*
X158375124Y-118037917D01*
X158375127Y-118037919D01*
X158509339Y-118109656D01*
X158549350Y-118131042D01*
X158738397Y-118188389D01*
X158935000Y-118207753D01*
X159131603Y-118188389D01*
X159320650Y-118131042D01*
X159494878Y-118037916D01*
X159647589Y-117912589D01*
X159772916Y-117759878D01*
X159866042Y-117585650D01*
X159923389Y-117396603D01*
X159942753Y-117200000D01*
X160467247Y-117200000D01*
X160486610Y-117396601D01*
X160512342Y-117481427D01*
X160540937Y-117575692D01*
X160543960Y-117585655D01*
X160637080Y-117759872D01*
X160637084Y-117759878D01*
X160762411Y-117912589D01*
X160915122Y-118037916D01*
X160915124Y-118037917D01*
X160915127Y-118037919D01*
X161049339Y-118109656D01*
X161089350Y-118131042D01*
X161278397Y-118188389D01*
X161475000Y-118207753D01*
X161671603Y-118188389D01*
X161860650Y-118131042D01*
X162034878Y-118037916D01*
X162187589Y-117912589D01*
X162312916Y-117759878D01*
X162406042Y-117585650D01*
X162463389Y-117396603D01*
X162482753Y-117200000D01*
X163007247Y-117200000D01*
X163026610Y-117396601D01*
X163052342Y-117481427D01*
X163080937Y-117575692D01*
X163083960Y-117585655D01*
X163177080Y-117759872D01*
X163177084Y-117759878D01*
X163302411Y-117912589D01*
X163455122Y-118037916D01*
X163455124Y-118037917D01*
X163455127Y-118037919D01*
X163589339Y-118109656D01*
X163629350Y-118131042D01*
X163818397Y-118188389D01*
X163875640Y-118194027D01*
X164014999Y-118207753D01*
X164014999Y-118207752D01*
X164015000Y-118207753D01*
X164211603Y-118188389D01*
X164400650Y-118131042D01*
X164574878Y-118037916D01*
X164727589Y-117912589D01*
X164852916Y-117759878D01*
X164946042Y-117585650D01*
X165003389Y-117396603D01*
X165022753Y-117200000D01*
X165003389Y-117003397D01*
X164946042Y-116814350D01*
X164852916Y-116640122D01*
X164727589Y-116487411D01*
X164574878Y-116362084D01*
X164574872Y-116362080D01*
X164400655Y-116268960D01*
X164400652Y-116268959D01*
X164400650Y-116268958D01*
X164295751Y-116237137D01*
X164211601Y-116211610D01*
X164015000Y-116192247D01*
X163818398Y-116211610D01*
X163668146Y-116257189D01*
X163629350Y-116268958D01*
X163629349Y-116268958D01*
X163629344Y-116268960D01*
X163455127Y-116362080D01*
X163455121Y-116362084D01*
X163302411Y-116487411D01*
X163177084Y-116640121D01*
X163177080Y-116640127D01*
X163083960Y-116814344D01*
X163026610Y-117003398D01*
X163007247Y-117199999D01*
X163007247Y-117200000D01*
X162482753Y-117200000D01*
X162463389Y-117003397D01*
X162406042Y-116814350D01*
X162312916Y-116640122D01*
X162187589Y-116487411D01*
X162034878Y-116362084D01*
X162034872Y-116362080D01*
X161860655Y-116268960D01*
X161860652Y-116268959D01*
X161860650Y-116268958D01*
X161755751Y-116237137D01*
X161671601Y-116211610D01*
X161475000Y-116192247D01*
X161278398Y-116211610D01*
X161128146Y-116257189D01*
X161089350Y-116268958D01*
X161089349Y-116268958D01*
X161089344Y-116268960D01*
X160915127Y-116362080D01*
X160915121Y-116362084D01*
X160762411Y-116487411D01*
X160637084Y-116640121D01*
X160637080Y-116640127D01*
X160543960Y-116814344D01*
X160486610Y-117003398D01*
X160467247Y-117199999D01*
X160467247Y-117200000D01*
X159942753Y-117200000D01*
X159923389Y-117003397D01*
X159866042Y-116814350D01*
X159772916Y-116640122D01*
X159647589Y-116487411D01*
X159494878Y-116362084D01*
X159494872Y-116362080D01*
X159320655Y-116268960D01*
X159320652Y-116268959D01*
X159320650Y-116268958D01*
X159215751Y-116237137D01*
X159131601Y-116211610D01*
X158935000Y-116192247D01*
X158738398Y-116211610D01*
X158588146Y-116257189D01*
X158549350Y-116268958D01*
X158549349Y-116268958D01*
X158549344Y-116268960D01*
X158375127Y-116362080D01*
X158375121Y-116362084D01*
X158222411Y-116487411D01*
X158097084Y-116640121D01*
X158097080Y-116640127D01*
X158003960Y-116814344D01*
X157946610Y-117003398D01*
X157927247Y-117199999D01*
X157927247Y-117200000D01*
X157402753Y-117200000D01*
X157383389Y-117003397D01*
X157326042Y-116814350D01*
X157232916Y-116640122D01*
X157107589Y-116487411D01*
X156954878Y-116362084D01*
X156954872Y-116362080D01*
X156780655Y-116268960D01*
X156780652Y-116268959D01*
X156780650Y-116268958D01*
X156675751Y-116237137D01*
X156591601Y-116211610D01*
X156395000Y-116192247D01*
X156198398Y-116211610D01*
X156048146Y-116257189D01*
X156009350Y-116268958D01*
X156009349Y-116268958D01*
X156009344Y-116268960D01*
X155835127Y-116362080D01*
X155835121Y-116362084D01*
X155682411Y-116487411D01*
X155557084Y-116640121D01*
X155557080Y-116640127D01*
X155463960Y-116814344D01*
X155406610Y-117003398D01*
X155387247Y-117199999D01*
X155387247Y-117200000D01*
X154862753Y-117200000D01*
X154843389Y-117003397D01*
X154786042Y-116814350D01*
X154692916Y-116640122D01*
X154567589Y-116487411D01*
X154414878Y-116362084D01*
X154414872Y-116362080D01*
X154240655Y-116268960D01*
X154240652Y-116268959D01*
X154240650Y-116268958D01*
X154135751Y-116237137D01*
X154051601Y-116211610D01*
X153855000Y-116192247D01*
X153658398Y-116211610D01*
X153508146Y-116257189D01*
X153469350Y-116268958D01*
X153469349Y-116268958D01*
X153469344Y-116268960D01*
X153295127Y-116362080D01*
X153295121Y-116362084D01*
X153142411Y-116487411D01*
X153116313Y-116519212D01*
X153074126Y-116541761D01*
X153028350Y-116527875D01*
X153005801Y-116485688D01*
X153005500Y-116479562D01*
X153005500Y-115153042D01*
X153023805Y-115108849D01*
X163861448Y-104271205D01*
X163905642Y-104252900D01*
X164040119Y-104252900D01*
X164136444Y-104224615D01*
X164165076Y-104216208D01*
X164274636Y-104145799D01*
X164359921Y-104047374D01*
X164414023Y-103928909D01*
X164432557Y-103800000D01*
X164414023Y-103671091D01*
X164359921Y-103552626D01*
X164274636Y-103454201D01*
X164165076Y-103383792D01*
X164165074Y-103383791D01*
X164165072Y-103383790D01*
X164040119Y-103347100D01*
X164040117Y-103347100D01*
X163909883Y-103347100D01*
X163909881Y-103347100D01*
X163784927Y-103383790D01*
X163675364Y-103454201D01*
X163590078Y-103552627D01*
X163535976Y-103671091D01*
X163517443Y-103800000D01*
X163525548Y-103856377D01*
X163513717Y-103902727D01*
X163507878Y-103909465D01*
X152595737Y-114821606D01*
X152586269Y-114829377D01*
X152570270Y-114840068D01*
X152570269Y-114840069D01*
X152556159Y-114861185D01*
X152556158Y-114861187D01*
X152554795Y-114863227D01*
X152514373Y-114923721D01*
X152514372Y-114923723D01*
X152494745Y-115022399D01*
X152498499Y-115041271D01*
X152499700Y-115053465D01*
X152499700Y-117525986D01*
X152481394Y-117570180D01*
X152291488Y-117760086D01*
X152247294Y-117778392D01*
X152203100Y-117760086D01*
X152184794Y-117715892D01*
X152192173Y-117686432D01*
X152246042Y-117585650D01*
X152303389Y-117396603D01*
X152322753Y-117200000D01*
X152303389Y-117003397D01*
X152246042Y-116814350D01*
X152152916Y-116640122D01*
X152027589Y-116487411D01*
X151874878Y-116362084D01*
X151874872Y-116362080D01*
X151700655Y-116268960D01*
X151700652Y-116268959D01*
X151700650Y-116268958D01*
X151595751Y-116237137D01*
X151511601Y-116211610D01*
X151315000Y-116192247D01*
X151118398Y-116211610D01*
X150968146Y-116257189D01*
X150929350Y-116268958D01*
X150929349Y-116268958D01*
X150929344Y-116268960D01*
X150755127Y-116362080D01*
X150755121Y-116362084D01*
X150602411Y-116487411D01*
X150477084Y-116640121D01*
X150477080Y-116640127D01*
X150383960Y-116814344D01*
X150326610Y-117003398D01*
X150307247Y-117199999D01*
X150307247Y-117200000D01*
X150326610Y-117396601D01*
X150352342Y-117481427D01*
X150380937Y-117575692D01*
X150383960Y-117585655D01*
X150477080Y-117759872D01*
X150477084Y-117759878D01*
X150602411Y-117912589D01*
X150755122Y-118037916D01*
X150755124Y-118037917D01*
X150755127Y-118037919D01*
X150889339Y-118109656D01*
X150929350Y-118131042D01*
X151118397Y-118188389D01*
X151315000Y-118207753D01*
X151511603Y-118188389D01*
X151700650Y-118131042D01*
X151801431Y-118077173D01*
X151849035Y-118072485D01*
X151886012Y-118102831D01*
X151890701Y-118150437D01*
X151875086Y-118176488D01*
X150972781Y-119078794D01*
X150928587Y-119097100D01*
X144108676Y-119097100D01*
X144064482Y-119078794D01*
X144061442Y-119075529D01*
X143999637Y-119004202D01*
X143999636Y-119004201D01*
X143890076Y-118933792D01*
X143890074Y-118933791D01*
X143890072Y-118933790D01*
X143765119Y-118897100D01*
X143765117Y-118897100D01*
X143634883Y-118897100D01*
X143634881Y-118897100D01*
X143509927Y-118933790D01*
X143400364Y-119004201D01*
X143315078Y-119102627D01*
X143260976Y-119221091D01*
X143242443Y-119349999D01*
X133775855Y-119349999D01*
X129546206Y-115120350D01*
X129527900Y-115076156D01*
X129527900Y-113330056D01*
X129546206Y-113285862D01*
X129590400Y-113267556D01*
X129634594Y-113285862D01*
X129646087Y-113301681D01*
X129666708Y-113342151D01*
X129757849Y-113433292D01*
X129872694Y-113491809D01*
X130000000Y-113511972D01*
X130127306Y-113491809D01*
X130242151Y-113433292D01*
X130333292Y-113342151D01*
X130391809Y-113227306D01*
X130411972Y-113100000D01*
X130391809Y-112972694D01*
X130333292Y-112857849D01*
X130242151Y-112766708D01*
X130242150Y-112766707D01*
X130220523Y-112755688D01*
X130189456Y-112719314D01*
X130193209Y-112671626D01*
X130220523Y-112644312D01*
X130242151Y-112633292D01*
X130333292Y-112542151D01*
X130391809Y-112427306D01*
X130411972Y-112300000D01*
X130391809Y-112172694D01*
X130333292Y-112057849D01*
X130242151Y-111966708D01*
X130127306Y-111908191D01*
X130000000Y-111888028D01*
X129872693Y-111908191D01*
X129872692Y-111908191D01*
X129757848Y-111966708D01*
X129666708Y-112057848D01*
X129608190Y-112172695D01*
X129606671Y-112177372D01*
X129604289Y-112176598D01*
X129583725Y-112210161D01*
X129546986Y-112222099D01*
X129237867Y-112222099D01*
X129225674Y-112220898D01*
X129206802Y-112217144D01*
X129206800Y-112217144D01*
X129108124Y-112236771D01*
X129108122Y-112236772D01*
X129047222Y-112277463D01*
X129047216Y-112277469D01*
X129024470Y-112292667D01*
X129013778Y-112308668D01*
X129006007Y-112318136D01*
X128668137Y-112656006D01*
X128658669Y-112663777D01*
X128642670Y-112674468D01*
X128642669Y-112674469D01*
X128628559Y-112695585D01*
X128628558Y-112695587D01*
X128620154Y-112708163D01*
X128586773Y-112758121D01*
X128586772Y-112758123D01*
X128567145Y-112856798D01*
X128567145Y-112856800D01*
X128567354Y-112857849D01*
X128570899Y-112875676D01*
X128572099Y-112887866D01*
X128572099Y-115362132D01*
X128570899Y-115374321D01*
X128567145Y-115393200D01*
X128567145Y-115393202D01*
X126836826Y-115393202D01*
X126850444Y-108849452D01*
X127717145Y-108849452D01*
X127723521Y-108881512D01*
X127723526Y-108881531D01*
X127736773Y-108948127D01*
X127736773Y-108948128D01*
X127792666Y-109031778D01*
X127792669Y-109031781D01*
X127808667Y-109042470D01*
X127818138Y-109050243D01*
X129302005Y-110534110D01*
X129309778Y-110543581D01*
X129320466Y-110559578D01*
X129320469Y-110559581D01*
X129341585Y-110573690D01*
X129341587Y-110573692D01*
X129379904Y-110599294D01*
X129404121Y-110615476D01*
X129404123Y-110615477D01*
X129499594Y-110634467D01*
X129539368Y-110661043D01*
X129549901Y-110695766D01*
X129549900Y-111217304D01*
X129549901Y-111217308D01*
X129558771Y-111261906D01*
X129558772Y-111261908D01*
X129592566Y-111312484D01*
X129643142Y-111346278D01*
X129687743Y-111355150D01*
X131017856Y-111355149D01*
X131062458Y-111346278D01*
X131113034Y-111312484D01*
X131146828Y-111261908D01*
X131155700Y-111217307D01*
X131155699Y-109537194D01*
X131146828Y-109492592D01*
X131113034Y-109442016D01*
X131062458Y-109408222D01*
X131062457Y-109408221D01*
X131026728Y-109401114D01*
X131017857Y-109399350D01*
X131017856Y-109399350D01*
X130232117Y-109399350D01*
X130187923Y-109381044D01*
X130169617Y-109336850D01*
X130184881Y-109295922D01*
X130248630Y-109222352D01*
X130302732Y-109103887D01*
X130321266Y-108974978D01*
X130313159Y-108918598D01*
X130324990Y-108872249D01*
X130330823Y-108865517D01*
X130931583Y-108264757D01*
X131625799Y-108264757D01*
X131633169Y-108301803D01*
X131633169Y-108301804D01*
X131661238Y-108343811D01*
X131703246Y-108371880D01*
X131740293Y-108379250D01*
X132189300Y-108379250D01*
X132189300Y-108165750D01*
X132316300Y-108165750D01*
X132316300Y-108379250D01*
X132765307Y-108379250D01*
X132802353Y-108371880D01*
X132802354Y-108371880D01*
X132844361Y-108343811D01*
X132872430Y-108301804D01*
X132872430Y-108301803D01*
X132879800Y-108264757D01*
X132879800Y-108165750D01*
X132316300Y-108165750D01*
X132189300Y-108165750D01*
X131625800Y-108165750D01*
X131625800Y-108264757D01*
X131625799Y-108264757D01*
X130931583Y-108264757D01*
X131322885Y-107873455D01*
X131367079Y-107855150D01*
X131566470Y-107855150D01*
X131610664Y-107873456D01*
X131628970Y-107917650D01*
X131627769Y-107929843D01*
X131625800Y-107939740D01*
X131625800Y-108038750D01*
X132879800Y-108038750D01*
X132879800Y-107939742D01*
X132872430Y-107902694D01*
X132871337Y-107900055D01*
X132871336Y-107897197D01*
X132871230Y-107896660D01*
X132871336Y-107896638D01*
X132871336Y-107852219D01*
X132877113Y-107841413D01*
X132896827Y-107811910D01*
X132896827Y-107811909D01*
X132896828Y-107811908D01*
X132905700Y-107767307D01*
X132905699Y-107437194D01*
X132896828Y-107392592D01*
X132893074Y-107386975D01*
X132883740Y-107340060D01*
X132893075Y-107317524D01*
X132896828Y-107311908D01*
X132905700Y-107267307D01*
X132905699Y-106937194D01*
X132896828Y-106892592D01*
X132877112Y-106863085D01*
X132867780Y-106816169D01*
X132871338Y-106804442D01*
X132872430Y-106801804D01*
X132879800Y-106764757D01*
X132879800Y-106665750D01*
X131625800Y-106665750D01*
X131625800Y-106764759D01*
X131627769Y-106774657D01*
X131618437Y-106821573D01*
X131578663Y-106848149D01*
X131566470Y-106849350D01*
X130541556Y-106849350D01*
X130529363Y-106848149D01*
X130510491Y-106844395D01*
X130510489Y-106844395D01*
X130485579Y-106849350D01*
X130400810Y-106866210D01*
X130393220Y-106876445D01*
X130390899Y-106877996D01*
X130343983Y-106887331D01*
X130304208Y-106860757D01*
X130294309Y-106817138D01*
X130307557Y-106725000D01*
X130299450Y-106668620D01*
X130311281Y-106622271D01*
X130317113Y-106615540D01*
X130559198Y-106373456D01*
X130603393Y-106355150D01*
X131566470Y-106355150D01*
X131610664Y-106373456D01*
X131628970Y-106417650D01*
X131627769Y-106429843D01*
X131625800Y-106439740D01*
X131625800Y-106538750D01*
X132879800Y-106538750D01*
X132879800Y-106439742D01*
X132872430Y-106402694D01*
X132871337Y-106400055D01*
X132871336Y-106397197D01*
X132871230Y-106396660D01*
X132871336Y-106396638D01*
X132871336Y-106352219D01*
X132877113Y-106341413D01*
X132896827Y-106311910D01*
X132896827Y-106311909D01*
X132896828Y-106311908D01*
X132905700Y-106267307D01*
X132905699Y-105937194D01*
X132896828Y-105892592D01*
X132893074Y-105886975D01*
X132883740Y-105840060D01*
X132893075Y-105817524D01*
X132896828Y-105811908D01*
X132905700Y-105767307D01*
X132905699Y-105437194D01*
X132896828Y-105392592D01*
X132877112Y-105363085D01*
X132867780Y-105316169D01*
X132871338Y-105304442D01*
X132872430Y-105301804D01*
X132879800Y-105264757D01*
X132879800Y-105165750D01*
X131625800Y-105165750D01*
X131625800Y-105264759D01*
X131627769Y-105274657D01*
X131618437Y-105321573D01*
X131578663Y-105348149D01*
X131566470Y-105349350D01*
X130211752Y-105349350D01*
X130167558Y-105331044D01*
X130149252Y-105286850D01*
X130164517Y-105245922D01*
X130173016Y-105236113D01*
X130184921Y-105222374D01*
X130239023Y-105103909D01*
X130257557Y-104975000D01*
X130250590Y-104926544D01*
X130262420Y-104880195D01*
X130303559Y-104855786D01*
X130312454Y-104855150D01*
X131566470Y-104855150D01*
X131610664Y-104873456D01*
X131628970Y-104917650D01*
X131627769Y-104929843D01*
X131625800Y-104939740D01*
X131625800Y-105038750D01*
X132879800Y-105038750D01*
X132879800Y-104939742D01*
X132872430Y-104902694D01*
X132871337Y-104900055D01*
X132871336Y-104897197D01*
X132871230Y-104896660D01*
X132871336Y-104896638D01*
X132871336Y-104852219D01*
X132877113Y-104841413D01*
X132896827Y-104811910D01*
X132896827Y-104811909D01*
X132896828Y-104811908D01*
X132905700Y-104767307D01*
X132905699Y-104437194D01*
X132896828Y-104392592D01*
X132893074Y-104386975D01*
X132883740Y-104340060D01*
X132893075Y-104317524D01*
X132896828Y-104311908D01*
X132905700Y-104267307D01*
X132905699Y-103937194D01*
X132896828Y-103892592D01*
X132877112Y-103863085D01*
X132867780Y-103816169D01*
X132871338Y-103804442D01*
X132872430Y-103801804D01*
X132879800Y-103764757D01*
X132879800Y-103665750D01*
X131625800Y-103665750D01*
X131625800Y-103764759D01*
X131627769Y-103774657D01*
X131618437Y-103821573D01*
X131578663Y-103848149D01*
X131566470Y-103849350D01*
X130160628Y-103849350D01*
X130116434Y-103831044D01*
X130113394Y-103827779D01*
X130049637Y-103754200D01*
X130049636Y-103754199D01*
X129940076Y-103683790D01*
X129940074Y-103683789D01*
X129940072Y-103683788D01*
X129815119Y-103647098D01*
X129815117Y-103647098D01*
X129684883Y-103647098D01*
X129684881Y-103647098D01*
X129559927Y-103683788D01*
X129450364Y-103754199D01*
X129365078Y-103852625D01*
X129310976Y-103971089D01*
X129292443Y-104099997D01*
X129310976Y-104228906D01*
X129361740Y-104340060D01*
X129365079Y-104347372D01*
X129450364Y-104445797D01*
X129536242Y-104500987D01*
X129563524Y-104540279D01*
X129555031Y-104587355D01*
X129536242Y-104606143D01*
X129500367Y-104629198D01*
X129500364Y-104629200D01*
X129500364Y-104629201D01*
X129436400Y-104703019D01*
X129415078Y-104727627D01*
X129360976Y-104846091D01*
X129342443Y-104975000D01*
X129360976Y-105103908D01*
X129379896Y-105145336D01*
X129415079Y-105222374D01*
X129500364Y-105320799D01*
X129593191Y-105380454D01*
X129620473Y-105419747D01*
X129611980Y-105466823D01*
X129593191Y-105485611D01*
X129525366Y-105529198D01*
X129440078Y-105627627D01*
X129385976Y-105746091D01*
X129367443Y-105874999D01*
X129385976Y-106003908D01*
X129393745Y-106020919D01*
X129440079Y-106122374D01*
X129525364Y-106220799D01*
X129579290Y-106255455D01*
X129606572Y-106294747D01*
X129598079Y-106341823D01*
X129579290Y-106360611D01*
X129550366Y-106379198D01*
X129465078Y-106477627D01*
X129410976Y-106596091D01*
X129392443Y-106724999D01*
X129410976Y-106853908D01*
X129449013Y-106937195D01*
X129465079Y-106972374D01*
X129550364Y-107070799D01*
X129659924Y-107141208D01*
X129659926Y-107141208D01*
X129659927Y-107141209D01*
X129784881Y-107177900D01*
X129784883Y-107177900D01*
X129915116Y-107177900D01*
X129915117Y-107177900D01*
X129915117Y-107177899D01*
X129918523Y-107177410D01*
X129964874Y-107189237D01*
X129989285Y-107230374D01*
X129977458Y-107276725D01*
X129971616Y-107283467D01*
X129938549Y-107316534D01*
X129894357Y-107334840D01*
X129759881Y-107334840D01*
X129634927Y-107371530D01*
X129525364Y-107441941D01*
X129440078Y-107540367D01*
X129385976Y-107658831D01*
X129367443Y-107787740D01*
X129385976Y-107916648D01*
X129396522Y-107939740D01*
X129440079Y-108035114D01*
X129525364Y-108133539D01*
X129634924Y-108203948D01*
X129634926Y-108203948D01*
X129634927Y-108203949D01*
X129759881Y-108240640D01*
X129759883Y-108240640D01*
X129890119Y-108240640D01*
X129986444Y-108212355D01*
X130015076Y-108203948D01*
X130124636Y-108133539D01*
X130209921Y-108035114D01*
X130264023Y-107916649D01*
X130282557Y-107787740D01*
X130274450Y-107731360D01*
X130286281Y-107685011D01*
X130292114Y-107678279D01*
X130596938Y-107373456D01*
X130641133Y-107355150D01*
X130974994Y-107355150D01*
X131019188Y-107373456D01*
X131037494Y-107417650D01*
X131019188Y-107461844D01*
X129977259Y-108503772D01*
X129933065Y-108522078D01*
X129798590Y-108522078D01*
X129673636Y-108558768D01*
X129564073Y-108629179D01*
X129478787Y-108727605D01*
X129424685Y-108846069D01*
X129406152Y-108974978D01*
X129424685Y-109103886D01*
X129433643Y-109123500D01*
X129478788Y-109222352D01*
X129564073Y-109320777D01*
X129590855Y-109337988D01*
X129618137Y-109377281D01*
X129609645Y-109424356D01*
X129596746Y-109437490D01*
X129596919Y-109437663D01*
X129592568Y-109442013D01*
X129558771Y-109492592D01*
X129549900Y-109537193D01*
X129549900Y-109915807D01*
X129531594Y-109960001D01*
X129487400Y-109978307D01*
X129443206Y-109960001D01*
X128246206Y-108763001D01*
X128227900Y-108718807D01*
X128227900Y-103267304D01*
X131599900Y-103267304D01*
X131599901Y-103267308D01*
X131608771Y-103311906D01*
X131608773Y-103311910D01*
X131628487Y-103341414D01*
X131637819Y-103388330D01*
X131634265Y-103400049D01*
X131633169Y-103402693D01*
X131625800Y-103439742D01*
X131625800Y-103538750D01*
X132879800Y-103538750D01*
X132879800Y-103439742D01*
X132872430Y-103402694D01*
X132871337Y-103400055D01*
X132871336Y-103397197D01*
X132871230Y-103396660D01*
X132871336Y-103396638D01*
X132871336Y-103352219D01*
X132877111Y-103341415D01*
X132896828Y-103311908D01*
X132905700Y-103267307D01*
X132905699Y-102937194D01*
X132896828Y-102892592D01*
X132893074Y-102886975D01*
X132883740Y-102840060D01*
X132893075Y-102817524D01*
X132896828Y-102811908D01*
X132905700Y-102767307D01*
X132905699Y-102437194D01*
X132896828Y-102392592D01*
X132877112Y-102363085D01*
X132867780Y-102316169D01*
X132871338Y-102304442D01*
X132872430Y-102301804D01*
X132879800Y-102264757D01*
X132879800Y-102165750D01*
X131625800Y-102165750D01*
X131625800Y-102264757D01*
X131625799Y-102264757D01*
X131633169Y-102301805D01*
X131634264Y-102304448D01*
X131634263Y-102307306D01*
X131634370Y-102307840D01*
X131634263Y-102307861D01*
X131634261Y-102352283D01*
X131628487Y-102363084D01*
X131608773Y-102392587D01*
X131608772Y-102392591D01*
X131599900Y-102437193D01*
X131599900Y-102767304D01*
X131599901Y-102767308D01*
X131608771Y-102811905D01*
X131608773Y-102811911D01*
X131612526Y-102817527D01*
X131621858Y-102864443D01*
X131612529Y-102886967D01*
X131608772Y-102892590D01*
X131599900Y-102937193D01*
X131599900Y-103267304D01*
X128227900Y-103267304D01*
X128227900Y-101767304D01*
X131599900Y-101767304D01*
X131599901Y-101767308D01*
X131608771Y-101811906D01*
X131608773Y-101811910D01*
X131628487Y-101841414D01*
X131637819Y-101888330D01*
X131634265Y-101900049D01*
X131633169Y-101902693D01*
X131625800Y-101939742D01*
X131625800Y-102038750D01*
X132879800Y-102038750D01*
X132879800Y-101939742D01*
X132872430Y-101902694D01*
X132871337Y-101900055D01*
X132871336Y-101897197D01*
X132871230Y-101896660D01*
X132871336Y-101896638D01*
X132871336Y-101852219D01*
X132877111Y-101841415D01*
X132896828Y-101811908D01*
X132905700Y-101767307D01*
X132905699Y-101437194D01*
X132896828Y-101392592D01*
X132893074Y-101386975D01*
X132883740Y-101340060D01*
X132893075Y-101317524D01*
X132896828Y-101311908D01*
X132905700Y-101267307D01*
X132905699Y-100937194D01*
X132896828Y-100892592D01*
X132877112Y-100863085D01*
X132867780Y-100816169D01*
X132871338Y-100804442D01*
X132872430Y-100801804D01*
X132879800Y-100764757D01*
X132879800Y-100665750D01*
X131625800Y-100665750D01*
X131625800Y-100764757D01*
X131625799Y-100764757D01*
X131633169Y-100801805D01*
X131634264Y-100804448D01*
X131634263Y-100807306D01*
X131634370Y-100807840D01*
X131634263Y-100807861D01*
X131634261Y-100852283D01*
X131628487Y-100863084D01*
X131608773Y-100892587D01*
X131608772Y-100892591D01*
X131599900Y-100937193D01*
X131599900Y-101267304D01*
X131599901Y-101267308D01*
X131608771Y-101311905D01*
X131608773Y-101311910D01*
X131612528Y-101317530D01*
X131621857Y-101364447D01*
X131612528Y-101386970D01*
X131608772Y-101392591D01*
X131599900Y-101437193D01*
X131599900Y-101767304D01*
X128227900Y-101767304D01*
X128227900Y-100267304D01*
X131599900Y-100267304D01*
X131599901Y-100267308D01*
X131608771Y-100311906D01*
X131608773Y-100311910D01*
X131628487Y-100341414D01*
X131637819Y-100388330D01*
X131634265Y-100400049D01*
X131633169Y-100402693D01*
X131625800Y-100439742D01*
X131625800Y-100538750D01*
X132879800Y-100538750D01*
X132879800Y-100439742D01*
X132879799Y-100439740D01*
X132877831Y-100429843D01*
X132887163Y-100382927D01*
X132926937Y-100356351D01*
X132939130Y-100355150D01*
X133316322Y-100355150D01*
X133360516Y-100373456D01*
X133363556Y-100376721D01*
X133414104Y-100435057D01*
X133425362Y-100448049D01*
X133534922Y-100518458D01*
X133534924Y-100518458D01*
X133534925Y-100518459D01*
X133659879Y-100555150D01*
X133659881Y-100555150D01*
X133790117Y-100555150D01*
X133900263Y-100522807D01*
X133915074Y-100518458D01*
X134024634Y-100448049D01*
X134109919Y-100349624D01*
X134164021Y-100231159D01*
X134182555Y-100102250D01*
X134164021Y-99973341D01*
X134109919Y-99854876D01*
X134024634Y-99756451D01*
X133915074Y-99686042D01*
X133915072Y-99686041D01*
X133915070Y-99686040D01*
X133790117Y-99649350D01*
X133790115Y-99649350D01*
X133659881Y-99649350D01*
X133659879Y-99649350D01*
X133534925Y-99686040D01*
X133425360Y-99756452D01*
X133363556Y-99827779D01*
X133320781Y-99849191D01*
X133316322Y-99849350D01*
X132965537Y-99849350D01*
X132921343Y-99831044D01*
X132903037Y-99786850D01*
X132904238Y-99774656D01*
X132905700Y-99767307D01*
X132905699Y-99437194D01*
X132896828Y-99392592D01*
X132877112Y-99363085D01*
X132867780Y-99316169D01*
X132871338Y-99304442D01*
X132872430Y-99301804D01*
X132879800Y-99264757D01*
X132879800Y-99165750D01*
X131625800Y-99165750D01*
X131625800Y-99264757D01*
X131625799Y-99264757D01*
X131633169Y-99301805D01*
X131634264Y-99304448D01*
X131634263Y-99307306D01*
X131634370Y-99307840D01*
X131634263Y-99307861D01*
X131634261Y-99352283D01*
X131628487Y-99363084D01*
X131608773Y-99392587D01*
X131608772Y-99392591D01*
X131599900Y-99437193D01*
X131599900Y-99767304D01*
X131599901Y-99767308D01*
X131608771Y-99811905D01*
X131608773Y-99811911D01*
X131612526Y-99817527D01*
X131621858Y-99864443D01*
X131612529Y-99886967D01*
X131608772Y-99892590D01*
X131599900Y-99937193D01*
X131599900Y-100267304D01*
X128227900Y-100267304D01*
X128227900Y-98767304D01*
X131599900Y-98767304D01*
X131599901Y-98767308D01*
X131608771Y-98811906D01*
X131608773Y-98811910D01*
X131628487Y-98841414D01*
X131637819Y-98888330D01*
X131634265Y-98900049D01*
X131633169Y-98902693D01*
X131625800Y-98939742D01*
X131625800Y-99038750D01*
X132879800Y-99038750D01*
X132879800Y-99037792D01*
X132898106Y-98993598D01*
X132942300Y-98975292D01*
X132986494Y-98993598D01*
X133099753Y-99106857D01*
X133107525Y-99116327D01*
X133118218Y-99132330D01*
X133201871Y-99188226D01*
X133201873Y-99188227D01*
X133260230Y-99199835D01*
X133300549Y-99207855D01*
X133300550Y-99207855D01*
X133300551Y-99207855D01*
X133319423Y-99204101D01*
X133331616Y-99202900D01*
X133666324Y-99202900D01*
X133710518Y-99221206D01*
X133713558Y-99224471D01*
X133770636Y-99290343D01*
X133775364Y-99295799D01*
X133884924Y-99366208D01*
X133884926Y-99366208D01*
X133884927Y-99366209D01*
X134009881Y-99402900D01*
X134009883Y-99402900D01*
X134140119Y-99402900D01*
X134258200Y-99368227D01*
X134265076Y-99366208D01*
X134374636Y-99295799D01*
X134459921Y-99197374D01*
X134514023Y-99078909D01*
X134532557Y-98950000D01*
X134514023Y-98821091D01*
X134459921Y-98702626D01*
X134374636Y-98604201D01*
X134265076Y-98533792D01*
X134265074Y-98533791D01*
X134265072Y-98533790D01*
X134140119Y-98497100D01*
X134140117Y-98497100D01*
X134009883Y-98497100D01*
X134009881Y-98497100D01*
X133884927Y-98533790D01*
X133775362Y-98604202D01*
X133713558Y-98675529D01*
X133670783Y-98696941D01*
X133666324Y-98697100D01*
X133431192Y-98697100D01*
X133386998Y-98678794D01*
X133370048Y-98661844D01*
X133351742Y-98617650D01*
X133370048Y-98573456D01*
X133414242Y-98555150D01*
X133515125Y-98555150D01*
X133611450Y-98526865D01*
X133640082Y-98518458D01*
X133749642Y-98448049D01*
X133834927Y-98349624D01*
X133889029Y-98231159D01*
X133907563Y-98102250D01*
X133899627Y-98047056D01*
X133911457Y-98000710D01*
X133952596Y-97976300D01*
X133998945Y-97988130D01*
X134005685Y-97993970D01*
X135603794Y-99592078D01*
X135622100Y-99636272D01*
X135622100Y-116134600D01*
X135603794Y-116178794D01*
X135559600Y-116197100D01*
X135209945Y-116197100D01*
X135209941Y-116197101D01*
X135165343Y-116205971D01*
X135165342Y-116205972D01*
X135114766Y-116239766D01*
X135080971Y-116290342D01*
X135072100Y-116334943D01*
X135072100Y-118065054D01*
X135072101Y-118065058D01*
X135080971Y-118109656D01*
X135080972Y-118109658D01*
X135114766Y-118160234D01*
X135165342Y-118194028D01*
X135209943Y-118202900D01*
X136940056Y-118202899D01*
X136984658Y-118194028D01*
X137035234Y-118160234D01*
X137069028Y-118109658D01*
X137077900Y-118065057D01*
X137077899Y-117136499D01*
X137639526Y-117136499D01*
X137639527Y-117136500D01*
X138115000Y-117136500D01*
X138115000Y-117263500D01*
X137639527Y-117263500D01*
X137652137Y-117391524D01*
X137708004Y-117575692D01*
X137798720Y-117745412D01*
X137798728Y-117745423D01*
X137920812Y-117894184D01*
X137920815Y-117894187D01*
X138069576Y-118016271D01*
X138069587Y-118016279D01*
X138239307Y-118106995D01*
X138423476Y-118162863D01*
X138551500Y-118175471D01*
X138551500Y-117696011D01*
X138579237Y-117700000D01*
X138650763Y-117700000D01*
X138678500Y-117696011D01*
X138678500Y-118175471D01*
X138806523Y-118162863D01*
X138990692Y-118106995D01*
X139160412Y-118016279D01*
X139160423Y-118016271D01*
X139309184Y-117894187D01*
X139309187Y-117894184D01*
X139431271Y-117745423D01*
X139431279Y-117745412D01*
X139521995Y-117575692D01*
X139577862Y-117391524D01*
X139590473Y-117263500D01*
X139115000Y-117263500D01*
X139115000Y-117200000D01*
X140147247Y-117200000D01*
X140166610Y-117396601D01*
X140192342Y-117481427D01*
X140220937Y-117575692D01*
X140223960Y-117585655D01*
X140317080Y-117759872D01*
X140317084Y-117759878D01*
X140442411Y-117912589D01*
X140595122Y-118037916D01*
X140595124Y-118037917D01*
X140595127Y-118037919D01*
X140729339Y-118109656D01*
X140769350Y-118131042D01*
X140958397Y-118188389D01*
X141155000Y-118207753D01*
X141351603Y-118188389D01*
X141540650Y-118131042D01*
X141714878Y-118037916D01*
X141867589Y-117912589D01*
X141992916Y-117759878D01*
X142086042Y-117585650D01*
X142143389Y-117396603D01*
X142162753Y-117200000D01*
X142687247Y-117200000D01*
X142706610Y-117396601D01*
X142732342Y-117481427D01*
X142760937Y-117575692D01*
X142763960Y-117585655D01*
X142857080Y-117759872D01*
X142857084Y-117759878D01*
X142982411Y-117912589D01*
X143135122Y-118037916D01*
X143135124Y-118037917D01*
X143135127Y-118037919D01*
X143269339Y-118109656D01*
X143309350Y-118131042D01*
X143498397Y-118188389D01*
X143695000Y-118207753D01*
X143891603Y-118188389D01*
X144080650Y-118131042D01*
X144254878Y-118037916D01*
X144407589Y-117912589D01*
X144532916Y-117759878D01*
X144626042Y-117585650D01*
X144683389Y-117396603D01*
X144702753Y-117200000D01*
X145227247Y-117200000D01*
X145246610Y-117396601D01*
X145272342Y-117481427D01*
X145300937Y-117575692D01*
X145303960Y-117585655D01*
X145397080Y-117759872D01*
X145397084Y-117759878D01*
X145522411Y-117912589D01*
X145675122Y-118037916D01*
X145675124Y-118037917D01*
X145675127Y-118037919D01*
X145809339Y-118109656D01*
X145849350Y-118131042D01*
X146038397Y-118188389D01*
X146235000Y-118207753D01*
X146431603Y-118188389D01*
X146620650Y-118131042D01*
X146794878Y-118037916D01*
X146947589Y-117912589D01*
X147072916Y-117759878D01*
X147166042Y-117585650D01*
X147223389Y-117396603D01*
X147242753Y-117200000D01*
X147767247Y-117200000D01*
X147786610Y-117396601D01*
X147812342Y-117481427D01*
X147840937Y-117575692D01*
X147843960Y-117585655D01*
X147937080Y-117759872D01*
X147937084Y-117759878D01*
X148062411Y-117912589D01*
X148215122Y-118037916D01*
X148215124Y-118037917D01*
X148215127Y-118037919D01*
X148349339Y-118109656D01*
X148389350Y-118131042D01*
X148578397Y-118188389D01*
X148635640Y-118194027D01*
X148774999Y-118207753D01*
X148774999Y-118207752D01*
X148775000Y-118207753D01*
X148971603Y-118188389D01*
X149160650Y-118131042D01*
X149334878Y-118037916D01*
X149487589Y-117912589D01*
X149612916Y-117759878D01*
X149706042Y-117585650D01*
X149763389Y-117396603D01*
X149782753Y-117200000D01*
X149763389Y-117003397D01*
X149706042Y-116814350D01*
X149612916Y-116640122D01*
X149487589Y-116487411D01*
X149334878Y-116362084D01*
X149334872Y-116362080D01*
X149160655Y-116268960D01*
X149160652Y-116268959D01*
X149160650Y-116268958D01*
X149055751Y-116237137D01*
X148971601Y-116211610D01*
X148775000Y-116192247D01*
X148578398Y-116211610D01*
X148428146Y-116257189D01*
X148389350Y-116268958D01*
X148389349Y-116268958D01*
X148389344Y-116268960D01*
X148215127Y-116362080D01*
X148215121Y-116362084D01*
X148062411Y-116487411D01*
X147937084Y-116640121D01*
X147937080Y-116640127D01*
X147843960Y-116814344D01*
X147786610Y-117003398D01*
X147767247Y-117199999D01*
X147767247Y-117200000D01*
X147242753Y-117200000D01*
X147223389Y-117003397D01*
X147166042Y-116814350D01*
X147072916Y-116640122D01*
X146947589Y-116487411D01*
X146794878Y-116362084D01*
X146794872Y-116362080D01*
X146620655Y-116268960D01*
X146620652Y-116268959D01*
X146620650Y-116268958D01*
X146515751Y-116237137D01*
X146431601Y-116211610D01*
X146235000Y-116192247D01*
X146038398Y-116211610D01*
X145888146Y-116257189D01*
X145849350Y-116268958D01*
X145849349Y-116268958D01*
X145849344Y-116268960D01*
X145675127Y-116362080D01*
X145675121Y-116362084D01*
X145522411Y-116487411D01*
X145397084Y-116640121D01*
X145397080Y-116640127D01*
X145303960Y-116814344D01*
X145246610Y-117003398D01*
X145227247Y-117199999D01*
X145227247Y-117200000D01*
X144702753Y-117200000D01*
X144683389Y-117003397D01*
X144626042Y-116814350D01*
X144532916Y-116640122D01*
X144407589Y-116487411D01*
X144254878Y-116362084D01*
X144254872Y-116362080D01*
X144080655Y-116268960D01*
X144080652Y-116268959D01*
X144080650Y-116268958D01*
X143975751Y-116237137D01*
X143891601Y-116211610D01*
X143695000Y-116192247D01*
X143498398Y-116211610D01*
X143348146Y-116257189D01*
X143309350Y-116268958D01*
X143309349Y-116268958D01*
X143309344Y-116268960D01*
X143135127Y-116362080D01*
X143135121Y-116362084D01*
X142982411Y-116487411D01*
X142857084Y-116640121D01*
X142857080Y-116640127D01*
X142763960Y-116814344D01*
X142706610Y-117003398D01*
X142687247Y-117199999D01*
X142687247Y-117200000D01*
X142162753Y-117200000D01*
X142143389Y-117003397D01*
X142086042Y-116814350D01*
X141992916Y-116640122D01*
X141867589Y-116487411D01*
X141714878Y-116362084D01*
X141714872Y-116362080D01*
X141540655Y-116268960D01*
X141540652Y-116268959D01*
X141540650Y-116268958D01*
X141435751Y-116237137D01*
X141351601Y-116211610D01*
X141155000Y-116192247D01*
X140958398Y-116211610D01*
X140808146Y-116257189D01*
X140769350Y-116268958D01*
X140769349Y-116268958D01*
X140769344Y-116268960D01*
X140595127Y-116362080D01*
X140595121Y-116362084D01*
X140442411Y-116487411D01*
X140317084Y-116640121D01*
X140317080Y-116640127D01*
X140223960Y-116814344D01*
X140166610Y-117003398D01*
X140147247Y-117199999D01*
X140147247Y-117200000D01*
X139115000Y-117200000D01*
X139115000Y-117136500D01*
X139590473Y-117136500D01*
X139590473Y-117136499D01*
X139577862Y-117008475D01*
X139521995Y-116824307D01*
X139431279Y-116654587D01*
X139431271Y-116654576D01*
X139309187Y-116505815D01*
X139309184Y-116505812D01*
X139160423Y-116383728D01*
X139160412Y-116383720D01*
X138990692Y-116293004D01*
X138806524Y-116237137D01*
X138678500Y-116224526D01*
X138678500Y-116703988D01*
X138650763Y-116700000D01*
X138579237Y-116700000D01*
X138551500Y-116703988D01*
X138551500Y-116224526D01*
X138551499Y-116224526D01*
X138423475Y-116237137D01*
X138239307Y-116293004D01*
X138069587Y-116383720D01*
X138069576Y-116383728D01*
X137920815Y-116505812D01*
X137920812Y-116505815D01*
X137798728Y-116654576D01*
X137798720Y-116654587D01*
X137708004Y-116824307D01*
X137652137Y-117008475D01*
X137639526Y-117136499D01*
X137077899Y-117136499D01*
X137077899Y-116334944D01*
X137069028Y-116290342D01*
X137035234Y-116239766D01*
X137001439Y-116217184D01*
X136984657Y-116205971D01*
X136948928Y-116198864D01*
X136940057Y-116197100D01*
X136940056Y-116197100D01*
X136590400Y-116197100D01*
X136546206Y-116178794D01*
X136527900Y-116134600D01*
X136527900Y-114588500D01*
X146193000Y-114588500D01*
X146193000Y-114647356D01*
X146206170Y-114713570D01*
X146206171Y-114713572D01*
X146256342Y-114788657D01*
X146331427Y-114838828D01*
X146331429Y-114838829D01*
X146397643Y-114851999D01*
X146397644Y-114852000D01*
X146486500Y-114852000D01*
X146486500Y-114588500D01*
X146193000Y-114588500D01*
X136527900Y-114588500D01*
X136527900Y-114461500D01*
X146193000Y-114461500D01*
X146486500Y-114461500D01*
X146486500Y-114198000D01*
X146397644Y-114198000D01*
X146331429Y-114211170D01*
X146331427Y-114211171D01*
X146256342Y-114261342D01*
X146206171Y-114336427D01*
X146206170Y-114336429D01*
X146193000Y-114402643D01*
X146193000Y-114461500D01*
X136527900Y-114461500D01*
X136527900Y-113816705D01*
X142552100Y-113816705D01*
X142552101Y-113816721D01*
X142567041Y-113911049D01*
X142567044Y-113911059D01*
X142624983Y-114024770D01*
X142715229Y-114115016D01*
X142828940Y-114172955D01*
X142828942Y-114172955D01*
X142828945Y-114172957D01*
X142828948Y-114172957D01*
X142828950Y-114172958D01*
X142923278Y-114187898D01*
X142923284Y-114187898D01*
X142923292Y-114187900D01*
X142923294Y-114187900D01*
X144286706Y-114187900D01*
X144286708Y-114187900D01*
X144381055Y-114172957D01*
X144494771Y-114115016D01*
X144585016Y-114024771D01*
X144642957Y-113911055D01*
X144657900Y-113816708D01*
X144657900Y-113773914D01*
X144676206Y-113729721D01*
X144720400Y-113711415D01*
X146784600Y-113711415D01*
X146828794Y-113729721D01*
X146847100Y-113773915D01*
X146847100Y-114150634D01*
X146828794Y-114194828D01*
X146784600Y-114213134D01*
X146772408Y-114211933D01*
X146702359Y-114198000D01*
X146613500Y-114198000D01*
X146613500Y-114852000D01*
X146702356Y-114852000D01*
X146702356Y-114851999D01*
X146768570Y-114838829D01*
X146768573Y-114838827D01*
X146811966Y-114809833D01*
X146858882Y-114800500D01*
X146881408Y-114809829D01*
X146961323Y-114863227D01*
X147035089Y-114877900D01*
X147184105Y-114877899D01*
X147186681Y-114878005D01*
X147229545Y-114881558D01*
X147236439Y-114879811D01*
X147251784Y-114877899D01*
X147344909Y-114877899D01*
X147344910Y-114877899D01*
X147418677Y-114863227D01*
X147502331Y-114807331D01*
X147558227Y-114723677D01*
X147572900Y-114649911D01*
X147572899Y-114400090D01*
X147558227Y-114326323D01*
X147558226Y-114326322D01*
X147558226Y-114326320D01*
X147557655Y-114324941D01*
X147552900Y-114301030D01*
X147552900Y-113773915D01*
X147571206Y-113729721D01*
X147615400Y-113711415D01*
X151864735Y-113711415D01*
X151867271Y-113711517D01*
X151922783Y-113716038D01*
X152001312Y-113705338D01*
X152002041Y-113705248D01*
X152080865Y-113696677D01*
X152086077Y-113694920D01*
X152097597Y-113692220D01*
X152103049Y-113691478D01*
X152177464Y-113664138D01*
X152178146Y-113663898D01*
X152253272Y-113638586D01*
X152257984Y-113635750D01*
X152268660Y-113630634D01*
X152273820Y-113628739D01*
X152340630Y-113586034D01*
X152341179Y-113585693D01*
X152409162Y-113544791D01*
X152413154Y-113541008D01*
X152422482Y-113533715D01*
X152427112Y-113530757D01*
X152483112Y-113474755D01*
X152483689Y-113474193D01*
X152541243Y-113419677D01*
X152544335Y-113415115D01*
X152551867Y-113406000D01*
X157064675Y-108893192D01*
X157072394Y-108886635D01*
X157086841Y-108876259D01*
X157131910Y-108826021D01*
X157133055Y-108824813D01*
X157166805Y-108791065D01*
X157166808Y-108791059D01*
X160577413Y-105380454D01*
X164016500Y-101941367D01*
X164018338Y-101939672D01*
X164060814Y-101903594D01*
X164108798Y-101840470D01*
X164109228Y-101839920D01*
X164158904Y-101778122D01*
X164161346Y-101773196D01*
X164167581Y-101763143D01*
X164170914Y-101758760D01*
X164204177Y-101686861D01*
X164204542Y-101686100D01*
X164239738Y-101615136D01*
X164241063Y-101609804D01*
X164244997Y-101598631D01*
X164245297Y-101597981D01*
X164247305Y-101593643D01*
X164264336Y-101516266D01*
X164264526Y-101515460D01*
X164283646Y-101438582D01*
X164283683Y-101437194D01*
X164283794Y-101433088D01*
X164285232Y-101421333D01*
X164286415Y-101415966D01*
X164286415Y-101336771D01*
X164286425Y-101335965D01*
X164288572Y-101256717D01*
X164287535Y-101251311D01*
X164286415Y-101239533D01*
X164286415Y-97771777D01*
X164288949Y-97754162D01*
X164289023Y-97753908D01*
X164294065Y-97718839D01*
X164307557Y-97625000D01*
X164289023Y-97496091D01*
X164288948Y-97495835D01*
X164286415Y-97478223D01*
X164286415Y-96621777D01*
X164288949Y-96604162D01*
X164289023Y-96603908D01*
X164296275Y-96553466D01*
X164307557Y-96475000D01*
X164289023Y-96346091D01*
X164270325Y-96305149D01*
X164258178Y-96278551D01*
X164256989Y-96275545D01*
X164240877Y-96227727D01*
X164213586Y-96146728D01*
X164198449Y-96121570D01*
X164119792Y-95990839D01*
X164107535Y-95977900D01*
X163994677Y-95858757D01*
X163844094Y-95756660D01*
X163844091Y-95756658D01*
X163844090Y-95756658D01*
X163745386Y-95717331D01*
X163675084Y-95689320D01*
X163495550Y-95659887D01*
X163495549Y-95659887D01*
X163495543Y-95659886D01*
X163313891Y-95669735D01*
X163313886Y-95669735D01*
X163313885Y-95669736D01*
X163301312Y-95673227D01*
X163138583Y-95718408D01*
X163138579Y-95718410D01*
X162977846Y-95803626D01*
X162839186Y-95921406D01*
X162729086Y-96066238D01*
X162662629Y-96209884D01*
X162652695Y-96231357D01*
X162616847Y-96394217D01*
X162613585Y-96409036D01*
X162613585Y-100952657D01*
X162595279Y-100996851D01*
X160575191Y-103016938D01*
X160530997Y-103035244D01*
X160486803Y-103016938D01*
X160469133Y-102981638D01*
X160464023Y-102946091D01*
X160409921Y-102827626D01*
X160324636Y-102729201D01*
X160215076Y-102658792D01*
X160215074Y-102658791D01*
X160215072Y-102658790D01*
X160090119Y-102622100D01*
X160090117Y-102622100D01*
X159959883Y-102622100D01*
X159959881Y-102622100D01*
X159834927Y-102658790D01*
X159725364Y-102729201D01*
X159640078Y-102827627D01*
X159585976Y-102946090D01*
X159568378Y-103068495D01*
X159543969Y-103109634D01*
X159506514Y-103122100D01*
X157433676Y-103122100D01*
X157389482Y-103103794D01*
X157386442Y-103100529D01*
X157324637Y-103029202D01*
X157324636Y-103029201D01*
X157215076Y-102958792D01*
X157215074Y-102958791D01*
X157215072Y-102958790D01*
X157090119Y-102922100D01*
X157090117Y-102922100D01*
X156959883Y-102922100D01*
X156959881Y-102922100D01*
X156834927Y-102958790D01*
X156725364Y-103029201D01*
X156640078Y-103127627D01*
X156585976Y-103246091D01*
X156567443Y-103374999D01*
X156585976Y-103503908D01*
X156622782Y-103584499D01*
X156640079Y-103622374D01*
X156725364Y-103720799D01*
X156834924Y-103791208D01*
X156834926Y-103791208D01*
X156834927Y-103791209D01*
X156959881Y-103827900D01*
X156959883Y-103827900D01*
X157090119Y-103827900D01*
X157187347Y-103799350D01*
X157215076Y-103791208D01*
X157324636Y-103720799D01*
X157386441Y-103649471D01*
X157429217Y-103628059D01*
X157433676Y-103627900D01*
X159693934Y-103627900D01*
X159706127Y-103629101D01*
X159724999Y-103632855D01*
X159725000Y-103632855D01*
X159725001Y-103632855D01*
X159777702Y-103622372D01*
X159801346Y-103617669D01*
X159815370Y-103614879D01*
X159862286Y-103624211D01*
X159888863Y-103663984D01*
X159879531Y-103710900D01*
X159871758Y-103720372D01*
X156569193Y-107022936D01*
X156524999Y-107041242D01*
X156480806Y-107022936D01*
X153991377Y-104533508D01*
X153989657Y-104531643D01*
X153953594Y-104489186D01*
X153890524Y-104441242D01*
X153889882Y-104440740D01*
X153847170Y-104406406D01*
X153828127Y-104391099D01*
X153828121Y-104391095D01*
X153827975Y-104391022D01*
X153823184Y-104388646D01*
X153813147Y-104382420D01*
X153808760Y-104379086D01*
X153808755Y-104379083D01*
X153808753Y-104379082D01*
X153736886Y-104345833D01*
X153736123Y-104345467D01*
X153665141Y-104310263D01*
X153663096Y-104309754D01*
X153659787Y-104308931D01*
X153648639Y-104305006D01*
X153643648Y-104302697D01*
X153643643Y-104302695D01*
X153566311Y-104285672D01*
X153565488Y-104285479D01*
X153508092Y-104271206D01*
X153488582Y-104266354D01*
X153483075Y-104266204D01*
X153471337Y-104264767D01*
X153465967Y-104263585D01*
X153465966Y-104263585D01*
X153386773Y-104263585D01*
X153385965Y-104263574D01*
X153358676Y-104262835D01*
X153306719Y-104261427D01*
X153302534Y-104262230D01*
X153301312Y-104262465D01*
X153289535Y-104263585D01*
X151104649Y-104263585D01*
X150969134Y-104278323D01*
X150969129Y-104278324D01*
X150796729Y-104336413D01*
X150640839Y-104430207D01*
X150508756Y-104555324D01*
X150406658Y-104705909D01*
X150346942Y-104855786D01*
X150339320Y-104874916D01*
X150322912Y-104975000D01*
X150309887Y-105054450D01*
X150309886Y-105054451D01*
X150319735Y-105236108D01*
X150319735Y-105236112D01*
X150319736Y-105236115D01*
X150346093Y-105331044D01*
X150368408Y-105411416D01*
X150368410Y-105411420D01*
X150430854Y-105529201D01*
X150453626Y-105572153D01*
X150571406Y-105710814D01*
X150661424Y-105779244D01*
X150716238Y-105820913D01*
X150716239Y-105820913D01*
X150716240Y-105820914D01*
X150881357Y-105897305D01*
X151059034Y-105936415D01*
X153002658Y-105936415D01*
X153046852Y-105954721D01*
X155297936Y-108205805D01*
X155316242Y-108249999D01*
X155297936Y-108294193D01*
X151571852Y-112020279D01*
X151527658Y-112038585D01*
X147865400Y-112038585D01*
X147821206Y-112020279D01*
X147802900Y-111976085D01*
X147802900Y-110505168D01*
X147821206Y-110460974D01*
X147840151Y-110447995D01*
X147916645Y-110414220D01*
X147996720Y-110334145D01*
X148042462Y-110230550D01*
X148045400Y-110205226D01*
X148045400Y-109814774D01*
X148042462Y-109789450D01*
X147996720Y-109685855D01*
X147916645Y-109605780D01*
X147813050Y-109560038D01*
X147787726Y-109557100D01*
X147586748Y-109557100D01*
X147546909Y-109542757D01*
X147514120Y-109515631D01*
X147370573Y-109448084D01*
X147214742Y-109418358D01*
X147214738Y-109418357D01*
X147056408Y-109428319D01*
X146905530Y-109477342D01*
X146905528Y-109477342D01*
X146905528Y-109477343D01*
X146795181Y-109547371D01*
X146761693Y-109557100D01*
X146522274Y-109557100D01*
X146496950Y-109560038D01*
X146393355Y-109605780D01*
X146393353Y-109605781D01*
X146313281Y-109685853D01*
X146313280Y-109685854D01*
X146313280Y-109685855D01*
X146267538Y-109789450D01*
X146264600Y-109814774D01*
X146264600Y-110205226D01*
X146267538Y-110230550D01*
X146313280Y-110334145D01*
X146393355Y-110414220D01*
X146496950Y-110459962D01*
X146496957Y-110459962D01*
X146501005Y-110461064D01*
X146538845Y-110490329D01*
X146547100Y-110521373D01*
X146547100Y-111976085D01*
X146528794Y-112020279D01*
X146484600Y-112038585D01*
X144720400Y-112038585D01*
X144676206Y-112020279D01*
X144657900Y-111976085D01*
X144657900Y-111753294D01*
X144657898Y-111753278D01*
X144642958Y-111658950D01*
X144642957Y-111658948D01*
X144642957Y-111658945D01*
X144642955Y-111658942D01*
X144642955Y-111658940D01*
X144585016Y-111545229D01*
X144494770Y-111454983D01*
X144381059Y-111397044D01*
X144381049Y-111397041D01*
X144286721Y-111382101D01*
X144286709Y-111382100D01*
X144286708Y-111382100D01*
X142923292Y-111382100D01*
X142923290Y-111382100D01*
X142923278Y-111382101D01*
X142828950Y-111397041D01*
X142828940Y-111397044D01*
X142715229Y-111454983D01*
X142624983Y-111545229D01*
X142567044Y-111658940D01*
X142567041Y-111658950D01*
X142552101Y-111753278D01*
X142552100Y-111753294D01*
X142552100Y-113816705D01*
X136527900Y-113816705D01*
X136527900Y-101638500D01*
X140823000Y-101638500D01*
X140823000Y-101727356D01*
X140836170Y-101793570D01*
X140836171Y-101793572D01*
X140886342Y-101868657D01*
X140961427Y-101918828D01*
X140961429Y-101918829D01*
X141027643Y-101931999D01*
X141027644Y-101932000D01*
X141086500Y-101932000D01*
X141086500Y-101638500D01*
X141213500Y-101638500D01*
X141213500Y-101932000D01*
X141272356Y-101932000D01*
X141272356Y-101931999D01*
X141338570Y-101918829D01*
X141338572Y-101918828D01*
X141413657Y-101868657D01*
X141463828Y-101793572D01*
X141463829Y-101793570D01*
X141476999Y-101727356D01*
X141477000Y-101727356D01*
X141477000Y-101638500D01*
X141213500Y-101638500D01*
X141086500Y-101638500D01*
X140823000Y-101638500D01*
X136527900Y-101638500D01*
X136527900Y-100631705D01*
X137122100Y-100631705D01*
X137122101Y-100631721D01*
X137137041Y-100726049D01*
X137137044Y-100726059D01*
X137194983Y-100839770D01*
X137285229Y-100930016D01*
X137398940Y-100987955D01*
X137398942Y-100987955D01*
X137398945Y-100987957D01*
X137398948Y-100987957D01*
X137398950Y-100987958D01*
X137493278Y-101002898D01*
X137493284Y-101002898D01*
X137493292Y-101002900D01*
X137493294Y-101002900D01*
X138856706Y-101002900D01*
X138856708Y-101002900D01*
X138951055Y-100987957D01*
X139064771Y-100930016D01*
X139155016Y-100839771D01*
X139212957Y-100726055D01*
X139227387Y-100634945D01*
X139227898Y-100631721D01*
X139227900Y-100631705D01*
X139227900Y-100448915D01*
X139246206Y-100404721D01*
X139290400Y-100386415D01*
X140734600Y-100386415D01*
X140778794Y-100404721D01*
X140797100Y-100448915D01*
X140797100Y-101089907D01*
X140797101Y-101089913D01*
X140811772Y-101163675D01*
X140811774Y-101163679D01*
X140865167Y-101243586D01*
X140874499Y-101290502D01*
X140865167Y-101313032D01*
X140836171Y-101356427D01*
X140836170Y-101356429D01*
X140823000Y-101422643D01*
X140823000Y-101511500D01*
X141477000Y-101511500D01*
X141477000Y-101422644D01*
X141476999Y-101422643D01*
X141463829Y-101356429D01*
X141463828Y-101356427D01*
X141434833Y-101313032D01*
X141425501Y-101266115D01*
X141434833Y-101243586D01*
X141470795Y-101189766D01*
X141488227Y-101163677D01*
X141502900Y-101089911D01*
X141502900Y-100937193D01*
X141502900Y-100448915D01*
X141521206Y-100404721D01*
X141565400Y-100386415D01*
X141720346Y-100386415D01*
X141720350Y-100386415D01*
X141855865Y-100371677D01*
X142028272Y-100313586D01*
X142184162Y-100219791D01*
X142316243Y-100094677D01*
X142418340Y-99944094D01*
X142485680Y-99775084D01*
X142515113Y-99595550D01*
X142512643Y-99550000D01*
X142509263Y-99487643D01*
X142505264Y-99413885D01*
X142456592Y-99238585D01*
X142446407Y-99219375D01*
X142410245Y-99151165D01*
X142371374Y-99077847D01*
X142253594Y-98939186D01*
X142156728Y-98865550D01*
X142108761Y-98829086D01*
X142053721Y-98803622D01*
X141943643Y-98752695D01*
X141943644Y-98752695D01*
X141899223Y-98742917D01*
X141765966Y-98713585D01*
X141765963Y-98713585D01*
X139290400Y-98713585D01*
X139246206Y-98695279D01*
X139227900Y-98651085D01*
X139227900Y-98568294D01*
X139227898Y-98568278D01*
X139212958Y-98473950D01*
X139212957Y-98473948D01*
X139212957Y-98473945D01*
X139212955Y-98473942D01*
X139212955Y-98473940D01*
X139155016Y-98360229D01*
X139064770Y-98269983D01*
X138951059Y-98212044D01*
X138951049Y-98212041D01*
X138856721Y-98197101D01*
X138856709Y-98197100D01*
X138856708Y-98197100D01*
X137493292Y-98197100D01*
X137493290Y-98197100D01*
X137493278Y-98197101D01*
X137398950Y-98212041D01*
X137398940Y-98212044D01*
X137285229Y-98269983D01*
X137194983Y-98360229D01*
X137137044Y-98473940D01*
X137137041Y-98473950D01*
X137122101Y-98568278D01*
X137122100Y-98568294D01*
X137122100Y-100631705D01*
X136527900Y-100631705D01*
X136527900Y-99449975D01*
X136528097Y-99446473D01*
X136529142Y-99437193D01*
X136532695Y-99405662D01*
X136521685Y-99347474D01*
X136521494Y-99346350D01*
X136519775Y-99334945D01*
X136512668Y-99287784D01*
X136512491Y-99287417D01*
X136507387Y-99271902D01*
X136507314Y-99271514D01*
X136479644Y-99219162D01*
X136479122Y-99218127D01*
X136453431Y-99164777D01*
X136453151Y-99164475D01*
X136443709Y-99151168D01*
X136443519Y-99150808D01*
X136401645Y-99108934D01*
X136400834Y-99108092D01*
X136372770Y-99077847D01*
X136360568Y-99064696D01*
X136360567Y-99064695D01*
X136360564Y-99064693D01*
X136360212Y-99064490D01*
X136347269Y-99054558D01*
X135229904Y-97937193D01*
X134084385Y-96791675D01*
X134066080Y-96747482D01*
X134071726Y-96721524D01*
X134077393Y-96709114D01*
X134078744Y-96706493D01*
X134101355Y-96667332D01*
X134104808Y-96652201D01*
X134108886Y-96640155D01*
X134114023Y-96628909D01*
X134120480Y-96583990D01*
X134120935Y-96581539D01*
X134131735Y-96534228D01*
X134130840Y-96522291D01*
X134131302Y-96508726D01*
X134132557Y-96500001D01*
X134131152Y-96490227D01*
X134125632Y-96451839D01*
X134125404Y-96449759D01*
X134121533Y-96398082D01*
X134118456Y-96390242D01*
X134114772Y-96376301D01*
X134114023Y-96371092D01*
X134092447Y-96323846D01*
X134091783Y-96322281D01*
X134071655Y-96270995D01*
X134071649Y-96270985D01*
X134068619Y-96267186D01*
X134060631Y-96254181D01*
X134059921Y-96252627D01*
X134059919Y-96252623D01*
X134023736Y-96210864D01*
X134022921Y-96209884D01*
X133986530Y-96164251D01*
X133986528Y-96164249D01*
X133985452Y-96163516D01*
X133978126Y-96156991D01*
X133978011Y-96157125D01*
X133974637Y-96154201D01*
X133943749Y-96134351D01*
X133925380Y-96122546D01*
X133924703Y-96122097D01*
X133873728Y-96087343D01*
X133873721Y-96087340D01*
X133872953Y-96087103D01*
X133869188Y-96085669D01*
X133865077Y-96083792D01*
X133805595Y-96066326D01*
X133743266Y-96047100D01*
X133743264Y-96047100D01*
X133277189Y-96047100D01*
X133273687Y-96046903D01*
X133242083Y-96043342D01*
X133232875Y-96042305D01*
X133232874Y-96042305D01*
X133174698Y-96053310D01*
X133173547Y-96053506D01*
X133114995Y-96062332D01*
X133114618Y-96062514D01*
X133099140Y-96067607D01*
X133098731Y-96067684D01*
X133098722Y-96067687D01*
X133046384Y-96095349D01*
X133045341Y-96095876D01*
X132991988Y-96121569D01*
X132991986Y-96121570D01*
X132991673Y-96121862D01*
X132978396Y-96131281D01*
X132978027Y-96131475D01*
X132978018Y-96131482D01*
X132936148Y-96173352D01*
X132935307Y-96174161D01*
X132891908Y-96214432D01*
X132891907Y-96214433D01*
X132891699Y-96214795D01*
X132881773Y-96227727D01*
X132715522Y-96393980D01*
X132715519Y-96393980D01*
X132715520Y-96393981D01*
X132673647Y-96435853D01*
X132672806Y-96436662D01*
X132629411Y-96476929D01*
X132629407Y-96476933D01*
X132629199Y-96477295D01*
X132619273Y-96490227D01*
X131955752Y-97153749D01*
X131895061Y-97235981D01*
X131895061Y-97235982D01*
X131887532Y-97257496D01*
X131855654Y-97293162D01*
X131828541Y-97299350D01*
X131737745Y-97299350D01*
X131737741Y-97299351D01*
X131693143Y-97308221D01*
X131693142Y-97308222D01*
X131642566Y-97342016D01*
X131608771Y-97392592D01*
X131599900Y-97437193D01*
X131599900Y-97767304D01*
X131599901Y-97767308D01*
X131608771Y-97811905D01*
X131608773Y-97811911D01*
X131612526Y-97817527D01*
X131621858Y-97864443D01*
X131612529Y-97886967D01*
X131608772Y-97892590D01*
X131599900Y-97937193D01*
X131599900Y-98267304D01*
X131599901Y-98267308D01*
X131608771Y-98311905D01*
X131608773Y-98311910D01*
X131612528Y-98317530D01*
X131621857Y-98364447D01*
X131612528Y-98386970D01*
X131608772Y-98392591D01*
X131599900Y-98437193D01*
X131599900Y-98767304D01*
X128227900Y-98767304D01*
X128227900Y-98010692D01*
X128246206Y-97966498D01*
X129889249Y-96323455D01*
X129933443Y-96305149D01*
X131017855Y-96305149D01*
X131017856Y-96305149D01*
X131062458Y-96296278D01*
X131113034Y-96262484D01*
X131146828Y-96211908D01*
X131155700Y-96167307D01*
X131155699Y-94487194D01*
X131146828Y-94442592D01*
X131113034Y-94392016D01*
X131062458Y-94358222D01*
X131062457Y-94358221D01*
X131026727Y-94351114D01*
X131017857Y-94349350D01*
X131017856Y-94349350D01*
X129687745Y-94349350D01*
X129687741Y-94349351D01*
X129643143Y-94358221D01*
X129643142Y-94358222D01*
X129592566Y-94392016D01*
X129558771Y-94442592D01*
X129549899Y-94487193D01*
X129549900Y-95921605D01*
X129531594Y-95965799D01*
X127818137Y-97679256D01*
X127808669Y-97687027D01*
X127792670Y-97697718D01*
X127792669Y-97697719D01*
X127778559Y-97718835D01*
X127778558Y-97718837D01*
X127778557Y-97718839D01*
X127736773Y-97781371D01*
X127736772Y-97781373D01*
X127717145Y-97880048D01*
X127720899Y-97898926D01*
X127722099Y-97911116D01*
X127722099Y-108818382D01*
X127720899Y-108830571D01*
X127717145Y-108849450D01*
X127717145Y-108849452D01*
X126850444Y-108849452D01*
X126887862Y-90869776D01*
X126906260Y-90825622D01*
X126950492Y-90807408D01*
X126985085Y-90817941D01*
X126995546Y-90824930D01*
X127032593Y-90832300D01*
X128086500Y-90832300D01*
X128213500Y-90832300D01*
X129243199Y-90832300D01*
X129287393Y-90850606D01*
X129305699Y-90894800D01*
X129305699Y-91505399D01*
X129305700Y-91505400D01*
X131083700Y-91505400D01*
X131083700Y-90920699D01*
X131102006Y-90876505D01*
X131146197Y-90858199D01*
X133359356Y-90858199D01*
X133403958Y-90849328D01*
X133454534Y-90815534D01*
X133488328Y-90764958D01*
X133497200Y-90720357D01*
X133497200Y-90548915D01*
X133515506Y-90504721D01*
X133559700Y-90486415D01*
X135309034Y-90486415D01*
X137427658Y-90486415D01*
X137471851Y-90504720D01*
X138185436Y-91218306D01*
X138203742Y-91262499D01*
X138185436Y-91306693D01*
X137658510Y-91833620D01*
X137656643Y-91835340D01*
X137614188Y-91871403D01*
X137614184Y-91871407D01*
X137566245Y-91934470D01*
X137565724Y-91935136D01*
X137516099Y-91996872D01*
X137516092Y-91996882D01*
X137513644Y-92001817D01*
X137507420Y-92011852D01*
X137504085Y-92016239D01*
X137470825Y-92088127D01*
X137470460Y-92088889D01*
X137435262Y-92159862D01*
X137435261Y-92159864D01*
X137433930Y-92165215D01*
X137430008Y-92176355D01*
X137427696Y-92181352D01*
X137427693Y-92181361D01*
X137410672Y-92258687D01*
X137410479Y-92259509D01*
X137391354Y-92336416D01*
X137391354Y-92336421D01*
X137391205Y-92341923D01*
X137389767Y-92353662D01*
X137388585Y-92359032D01*
X137388585Y-92438227D01*
X137388574Y-92439034D01*
X137388403Y-92445369D01*
X137386427Y-92518280D01*
X137387465Y-92523684D01*
X137388585Y-92535465D01*
X137388585Y-94179020D01*
X137370279Y-94223214D01*
X137354460Y-94234708D01*
X137285228Y-94269984D01*
X137194983Y-94360229D01*
X137137044Y-94473940D01*
X137137041Y-94473950D01*
X137122101Y-94568278D01*
X137122100Y-94568294D01*
X137122100Y-96631705D01*
X137122101Y-96631721D01*
X137137041Y-96726049D01*
X137137044Y-96726059D01*
X137194983Y-96839770D01*
X137285229Y-96930016D01*
X137398940Y-96987955D01*
X137398942Y-96987955D01*
X137398945Y-96987957D01*
X137398948Y-96987957D01*
X137398950Y-96987958D01*
X137493278Y-97002898D01*
X137493284Y-97002898D01*
X137493292Y-97002900D01*
X137493294Y-97002900D01*
X138856706Y-97002900D01*
X138856708Y-97002900D01*
X138936799Y-96990215D01*
X138951049Y-96987958D01*
X138951049Y-96987957D01*
X138951055Y-96987957D01*
X139064771Y-96930016D01*
X139155016Y-96839771D01*
X139212957Y-96726055D01*
X139227900Y-96631708D01*
X139227900Y-95688500D01*
X140303000Y-95688500D01*
X140303000Y-95747356D01*
X140316170Y-95813570D01*
X140316171Y-95813572D01*
X140366342Y-95888657D01*
X140441427Y-95938828D01*
X140441429Y-95938829D01*
X140507643Y-95951999D01*
X140507644Y-95952000D01*
X140596500Y-95952000D01*
X140596500Y-95688500D01*
X140303000Y-95688500D01*
X139227900Y-95688500D01*
X139227900Y-95561500D01*
X140303000Y-95561500D01*
X140596500Y-95561500D01*
X140596500Y-95298000D01*
X140507644Y-95298000D01*
X140441429Y-95311170D01*
X140441427Y-95311171D01*
X140366342Y-95361342D01*
X140316171Y-95436427D01*
X140316170Y-95436429D01*
X140303000Y-95502643D01*
X140303000Y-95561500D01*
X139227900Y-95561500D01*
X139227900Y-94568292D01*
X139225739Y-94554650D01*
X139212958Y-94473950D01*
X139212957Y-94473948D01*
X139212957Y-94473945D01*
X139212955Y-94473942D01*
X139212955Y-94473940D01*
X139155016Y-94360229D01*
X139079721Y-94284934D01*
X139061415Y-94240740D01*
X139061415Y-92822341D01*
X139079721Y-92778147D01*
X139221426Y-92636442D01*
X139368308Y-92489560D01*
X139412499Y-92471256D01*
X139456693Y-92489562D01*
X141848044Y-94880913D01*
X141866350Y-94925107D01*
X141848044Y-94969301D01*
X141553879Y-95263465D01*
X141509685Y-95281771D01*
X141497492Y-95280570D01*
X141470113Y-95275124D01*
X141454911Y-95272100D01*
X141145091Y-95272100D01*
X141145087Y-95272101D01*
X141071324Y-95286772D01*
X141071320Y-95286774D01*
X140991413Y-95340167D01*
X140944497Y-95349499D01*
X140921967Y-95340167D01*
X140878572Y-95311171D01*
X140878570Y-95311170D01*
X140812356Y-95298000D01*
X140723500Y-95298000D01*
X140723500Y-95952000D01*
X140812356Y-95952000D01*
X140812356Y-95951999D01*
X140878570Y-95938829D01*
X140878573Y-95938827D01*
X140921966Y-95909833D01*
X140968882Y-95900500D01*
X140991408Y-95909829D01*
X141071323Y-95963227D01*
X141145089Y-95977900D01*
X141454910Y-95977899D01*
X141528677Y-95963227D01*
X141612331Y-95907331D01*
X141629349Y-95881860D01*
X141646591Y-95864620D01*
X141648675Y-95863227D01*
X141648677Y-95863227D01*
X141711213Y-95821442D01*
X141711213Y-95821440D01*
X141717978Y-95816921D01*
X141717979Y-95816919D01*
X141732331Y-95807331D01*
X141743020Y-95791330D01*
X141750789Y-95781863D01*
X142245731Y-95286921D01*
X142289924Y-95268616D01*
X142317693Y-95275124D01*
X142372364Y-95302238D01*
X142377703Y-95303565D01*
X142388865Y-95307495D01*
X142393857Y-95309805D01*
X142471283Y-95326847D01*
X142471968Y-95327008D01*
X142548918Y-95346146D01*
X142548916Y-95346146D01*
X142549939Y-95346173D01*
X142554410Y-95346294D01*
X142566168Y-95347733D01*
X142571534Y-95348915D01*
X142650727Y-95348915D01*
X142651534Y-95348925D01*
X142723542Y-95350875D01*
X142730780Y-95351072D01*
X142730780Y-95351071D01*
X142730782Y-95351072D01*
X142736187Y-95350034D01*
X142747965Y-95348915D01*
X143309034Y-95348915D01*
X143588585Y-95348915D01*
X143632779Y-95367221D01*
X143651085Y-95411415D01*
X143651085Y-96090157D01*
X143632779Y-96134351D01*
X143108510Y-96658620D01*
X143106643Y-96660340D01*
X143064188Y-96696403D01*
X143064184Y-96696407D01*
X143016245Y-96759470D01*
X143015724Y-96760136D01*
X142966099Y-96821872D01*
X142966092Y-96821882D01*
X142963644Y-96826817D01*
X142957420Y-96836852D01*
X142954085Y-96841239D01*
X142920825Y-96913127D01*
X142920460Y-96913889D01*
X142885262Y-96984862D01*
X142885261Y-96984864D01*
X142883930Y-96990215D01*
X142880008Y-97001355D01*
X142877696Y-97006352D01*
X142877693Y-97006361D01*
X142860672Y-97083687D01*
X142860479Y-97084509D01*
X142841354Y-97161416D01*
X142841354Y-97161421D01*
X142841205Y-97166923D01*
X142839767Y-97178662D01*
X142838585Y-97184032D01*
X142838585Y-97263227D01*
X142838574Y-97264034D01*
X142837847Y-97290859D01*
X142836427Y-97343280D01*
X142837465Y-97348684D01*
X142838585Y-97360465D01*
X142838585Y-101352657D01*
X142820279Y-101396851D01*
X141058520Y-103158610D01*
X141056653Y-103160330D01*
X141014198Y-103196393D01*
X141014194Y-103196397D01*
X140966255Y-103259460D01*
X140965734Y-103260126D01*
X140916109Y-103321862D01*
X140916102Y-103321872D01*
X140913654Y-103326807D01*
X140907430Y-103336842D01*
X140904095Y-103341229D01*
X140870835Y-103413117D01*
X140870470Y-103413879D01*
X140835272Y-103484852D01*
X140835271Y-103484854D01*
X140833940Y-103490205D01*
X140830018Y-103501345D01*
X140827706Y-103506342D01*
X140827703Y-103506351D01*
X140810682Y-103583677D01*
X140810489Y-103584499D01*
X140791364Y-103661406D01*
X140791364Y-103661411D01*
X140791215Y-103666913D01*
X140789777Y-103678652D01*
X140788595Y-103684022D01*
X140788595Y-103763217D01*
X140788584Y-103764024D01*
X140788565Y-103764757D01*
X140786437Y-103843270D01*
X140787475Y-103848674D01*
X140788595Y-103860455D01*
X140788595Y-105145336D01*
X140803333Y-105280851D01*
X140803334Y-105280856D01*
X140861423Y-105453256D01*
X140955217Y-105609146D01*
X140955219Y-105609148D01*
X141080333Y-105741229D01*
X141230916Y-105843326D01*
X141399926Y-105910666D01*
X141579460Y-105940099D01*
X141761125Y-105930250D01*
X141936425Y-105881578D01*
X142097163Y-105796360D01*
X142235824Y-105678580D01*
X142345924Y-105533746D01*
X142422315Y-105368629D01*
X142461425Y-105190952D01*
X142461425Y-104147331D01*
X142479730Y-104103138D01*
X143334367Y-103248500D01*
X144623000Y-103248500D01*
X144623000Y-103307356D01*
X144636170Y-103373570D01*
X144636171Y-103373572D01*
X144686342Y-103448657D01*
X144761427Y-103498828D01*
X144761429Y-103498829D01*
X144827643Y-103511999D01*
X144827644Y-103512000D01*
X144916500Y-103512000D01*
X144916500Y-103248500D01*
X144623000Y-103248500D01*
X143334367Y-103248500D01*
X143461367Y-103121500D01*
X144623000Y-103121500D01*
X144916500Y-103121500D01*
X144916500Y-102858000D01*
X144827644Y-102858000D01*
X144761429Y-102871170D01*
X144761427Y-102871171D01*
X144686342Y-102921342D01*
X144636171Y-102996427D01*
X144636170Y-102996429D01*
X144623000Y-103062643D01*
X144623000Y-103121500D01*
X143461367Y-103121500D01*
X144241500Y-102341367D01*
X144243338Y-102339672D01*
X144285814Y-102303594D01*
X144333798Y-102240470D01*
X144334228Y-102239920D01*
X144383904Y-102178122D01*
X144386346Y-102173196D01*
X144392581Y-102163143D01*
X144395914Y-102158760D01*
X144429177Y-102086861D01*
X144429542Y-102086100D01*
X144464738Y-102015136D01*
X144466063Y-102009804D01*
X144469997Y-101998631D01*
X144470297Y-101997981D01*
X144472305Y-101993643D01*
X144489336Y-101916266D01*
X144489526Y-101915460D01*
X144492091Y-101905149D01*
X144508646Y-101838582D01*
X144508794Y-101833088D01*
X144510232Y-101821333D01*
X144511415Y-101815966D01*
X144511415Y-101736771D01*
X144511425Y-101735965D01*
X144513572Y-101656717D01*
X144512535Y-101651312D01*
X144511415Y-101639534D01*
X144511415Y-99703500D01*
X144723000Y-99703500D01*
X144723000Y-99792356D01*
X144736170Y-99858570D01*
X144736171Y-99858572D01*
X144786342Y-99933657D01*
X144861427Y-99983828D01*
X144861429Y-99983829D01*
X144927643Y-99996999D01*
X144927644Y-99997000D01*
X144986500Y-99997000D01*
X144986500Y-99703500D01*
X145113500Y-99703500D01*
X145113500Y-99997000D01*
X145172356Y-99997000D01*
X145172356Y-99996999D01*
X145238570Y-99983829D01*
X145238572Y-99983828D01*
X145313657Y-99933657D01*
X145363828Y-99858572D01*
X145363829Y-99858570D01*
X145376999Y-99792356D01*
X145377000Y-99792356D01*
X145377000Y-99703500D01*
X145113500Y-99703500D01*
X144986500Y-99703500D01*
X144723000Y-99703500D01*
X144511415Y-99703500D01*
X144511415Y-97647341D01*
X144529720Y-97603148D01*
X145054000Y-97078867D01*
X145055838Y-97077172D01*
X145098314Y-97041094D01*
X145146289Y-96977982D01*
X145146723Y-96977426D01*
X145196405Y-96915622D01*
X145198849Y-96910692D01*
X145205087Y-96900635D01*
X145208414Y-96896260D01*
X145241682Y-96824348D01*
X145242032Y-96823619D01*
X145242899Y-96821872D01*
X145277238Y-96752635D01*
X145278566Y-96747293D01*
X145282497Y-96736131D01*
X145284803Y-96731147D01*
X145284805Y-96731143D01*
X145301846Y-96653720D01*
X145302011Y-96653018D01*
X145321146Y-96576082D01*
X145321294Y-96570588D01*
X145322732Y-96558833D01*
X145323915Y-96553466D01*
X145323915Y-96474271D01*
X145323925Y-96473465D01*
X145326072Y-96394217D01*
X145325035Y-96388812D01*
X145323915Y-96377034D01*
X145323915Y-94884842D01*
X145342221Y-94840648D01*
X145833519Y-94349350D01*
X146348502Y-93834368D01*
X146433904Y-93728123D01*
X146514738Y-93565136D01*
X146558645Y-93388582D01*
X146563572Y-93206718D01*
X146529287Y-93028046D01*
X146485971Y-92927350D01*
X146485324Y-92879522D01*
X146499189Y-92858464D01*
X146765405Y-92592248D01*
X146809600Y-92573942D01*
X146853794Y-92592248D01*
X146872100Y-92636442D01*
X146872100Y-93754650D01*
X146853794Y-93798844D01*
X146826323Y-93814871D01*
X146813585Y-93818408D01*
X146813583Y-93818408D01*
X146813579Y-93818410D01*
X146652846Y-93903626D01*
X146514186Y-94021406D01*
X146404086Y-94166238D01*
X146362407Y-94256327D01*
X146327695Y-94331357D01*
X146292839Y-94489711D01*
X146288585Y-94509036D01*
X146288585Y-97786450D01*
X146270279Y-97830644D01*
X145497130Y-98603794D01*
X145452936Y-98622100D01*
X145206203Y-98622100D01*
X145194010Y-98620899D01*
X145174911Y-98617100D01*
X144925091Y-98617100D01*
X144925087Y-98617101D01*
X144851324Y-98631772D01*
X144851320Y-98631774D01*
X144767669Y-98687669D01*
X144711773Y-98771321D01*
X144711772Y-98771323D01*
X144697100Y-98845088D01*
X144697100Y-98959097D01*
X144696993Y-98961678D01*
X144693442Y-99004544D01*
X144693442Y-99004545D01*
X144695188Y-99011440D01*
X144697100Y-99026781D01*
X144697100Y-99154907D01*
X144697101Y-99154913D01*
X144711772Y-99228675D01*
X144711774Y-99228679D01*
X144728239Y-99253320D01*
X144764923Y-99308222D01*
X144765167Y-99308586D01*
X144774499Y-99355502D01*
X144765167Y-99378032D01*
X144736171Y-99421427D01*
X144736170Y-99421429D01*
X144723000Y-99487643D01*
X144723000Y-99576500D01*
X145377000Y-99576500D01*
X145377000Y-99487644D01*
X145376999Y-99487643D01*
X145363829Y-99421429D01*
X145361473Y-99415741D01*
X145364203Y-99414609D01*
X145356969Y-99378192D01*
X145383554Y-99338425D01*
X145418265Y-99327900D01*
X145581917Y-99327900D01*
X145594743Y-99329230D01*
X145610215Y-99332474D01*
X145610216Y-99332473D01*
X145610217Y-99332474D01*
X145629555Y-99330063D01*
X145644986Y-99328139D01*
X145648853Y-99327900D01*
X145654240Y-99327900D01*
X145654243Y-99327900D01*
X145675287Y-99324387D01*
X145676490Y-99324211D01*
X145727088Y-99317906D01*
X145727091Y-99317904D01*
X145732053Y-99316428D01*
X145732090Y-99316553D01*
X145736317Y-99315199D01*
X145736275Y-99315075D01*
X145741166Y-99313396D01*
X145741169Y-99313394D01*
X145741171Y-99313394D01*
X145785973Y-99289147D01*
X145787105Y-99288564D01*
X145832897Y-99266179D01*
X145832900Y-99266175D01*
X145837120Y-99263164D01*
X145837196Y-99263270D01*
X145840746Y-99260623D01*
X145840666Y-99260520D01*
X145844749Y-99257340D01*
X145844753Y-99257339D01*
X145879273Y-99219838D01*
X145880140Y-99218934D01*
X146181892Y-98917183D01*
X146226085Y-98898878D01*
X146270279Y-98917184D01*
X146288585Y-98961378D01*
X146288585Y-101670350D01*
X146303323Y-101805865D01*
X146303324Y-101805870D01*
X146348679Y-101940477D01*
X146361414Y-101978272D01*
X146376910Y-102004027D01*
X146455207Y-102134160D01*
X146455209Y-102134162D01*
X146580323Y-102266243D01*
X146730906Y-102368340D01*
X146737733Y-102371060D01*
X146772012Y-102404422D01*
X146777100Y-102429121D01*
X146777100Y-102744600D01*
X146758794Y-102788794D01*
X146714600Y-102807100D01*
X145575757Y-102807100D01*
X145488829Y-102821606D01*
X145488827Y-102821606D01*
X145488827Y-102821607D01*
X145480251Y-102826247D01*
X145462704Y-102832575D01*
X145391324Y-102846772D01*
X145391320Y-102846774D01*
X145311413Y-102900167D01*
X145264497Y-102909499D01*
X145241967Y-102900167D01*
X145198572Y-102871171D01*
X145198570Y-102871170D01*
X145132356Y-102858000D01*
X145043500Y-102858000D01*
X145043500Y-103512000D01*
X145132356Y-103512000D01*
X145132356Y-103511999D01*
X145198570Y-103498829D01*
X145198573Y-103498827D01*
X145241966Y-103469833D01*
X145288882Y-103460500D01*
X145311408Y-103469829D01*
X145391323Y-103523227D01*
X145465089Y-103537900D01*
X145774910Y-103537899D01*
X145848677Y-103523227D01*
X145848680Y-103523224D01*
X145854367Y-103520870D01*
X145854640Y-103521530D01*
X145883092Y-103512900D01*
X146714600Y-103512900D01*
X146758794Y-103531206D01*
X146777100Y-103575400D01*
X146777100Y-104794908D01*
X146777101Y-104794912D01*
X146791772Y-104868675D01*
X146791774Y-104868679D01*
X146829592Y-104925277D01*
X146838924Y-104972193D01*
X146829592Y-104994723D01*
X146791773Y-105051321D01*
X146791772Y-105051323D01*
X146777100Y-105125088D01*
X146777100Y-106019600D01*
X146758794Y-106063794D01*
X146714600Y-106082100D01*
X145729865Y-106082100D01*
X145685671Y-106063794D01*
X145672452Y-106044298D01*
X145671969Y-106043175D01*
X145662396Y-106020921D01*
X145556259Y-105873159D01*
X145420838Y-105751667D01*
X145262466Y-105662127D01*
X145262465Y-105662126D01*
X145262464Y-105662126D01*
X145262462Y-105662125D01*
X145088553Y-105608727D01*
X145088546Y-105608725D01*
X144907219Y-105593961D01*
X144907218Y-105593961D01*
X144907217Y-105593961D01*
X144726952Y-105618522D01*
X144726950Y-105618522D01*
X144726947Y-105618523D01*
X144556183Y-105681259D01*
X144556180Y-105681260D01*
X144402890Y-105779240D01*
X144402885Y-105779244D01*
X142988510Y-107193620D01*
X142986643Y-107195340D01*
X142944188Y-107231403D01*
X142944184Y-107231407D01*
X142896245Y-107294470D01*
X142895724Y-107295136D01*
X142846099Y-107356872D01*
X142846095Y-107356877D01*
X142843647Y-107361813D01*
X142837417Y-107371856D01*
X142834089Y-107376234D01*
X142834085Y-107376241D01*
X142832156Y-107380410D01*
X142803810Y-107409849D01*
X142715228Y-107454984D01*
X142624983Y-107545229D01*
X142567044Y-107658940D01*
X142567041Y-107658950D01*
X142552101Y-107753278D01*
X142552100Y-107753294D01*
X142552100Y-109816705D01*
X142552101Y-109816721D01*
X142567041Y-109911049D01*
X142567044Y-109911059D01*
X142624983Y-110024770D01*
X142715229Y-110115016D01*
X142828940Y-110172955D01*
X142828942Y-110172955D01*
X142828945Y-110172957D01*
X142828948Y-110172957D01*
X142828950Y-110172958D01*
X142923278Y-110187898D01*
X142923284Y-110187898D01*
X142923292Y-110187900D01*
X142923294Y-110187900D01*
X144286706Y-110187900D01*
X144286708Y-110187900D01*
X144381055Y-110172957D01*
X144494771Y-110115016D01*
X144585016Y-110024771D01*
X144642957Y-109911055D01*
X144657900Y-109816708D01*
X144657900Y-109123500D01*
X148165501Y-109123500D01*
X148165501Y-109251355D01*
X148168187Y-109274521D01*
X148168188Y-109274522D01*
X148210016Y-109369252D01*
X148210017Y-109369254D01*
X148283244Y-109442481D01*
X148377983Y-109484312D01*
X148401144Y-109486999D01*
X148966500Y-109486999D01*
X148966500Y-109123500D01*
X149093500Y-109123500D01*
X149093500Y-109486999D01*
X149658855Y-109486999D01*
X149682021Y-109484312D01*
X149682022Y-109484311D01*
X149776752Y-109442483D01*
X149776753Y-109442482D01*
X149849981Y-109369255D01*
X149891812Y-109274516D01*
X149894500Y-109251355D01*
X149894500Y-109123500D01*
X149093500Y-109123500D01*
X148966500Y-109123500D01*
X148165501Y-109123500D01*
X144657900Y-109123500D01*
X144657900Y-108868644D01*
X148165499Y-108868644D01*
X148165500Y-108996499D01*
X148165500Y-108996500D01*
X148966500Y-108996500D01*
X148966500Y-108633000D01*
X149093500Y-108633000D01*
X149093500Y-108996500D01*
X149894499Y-108996500D01*
X149894499Y-108868644D01*
X149891812Y-108845478D01*
X149891811Y-108845477D01*
X149849983Y-108750747D01*
X149849983Y-108750746D01*
X149776755Y-108677518D01*
X149682016Y-108635687D01*
X149658856Y-108633000D01*
X149093500Y-108633000D01*
X148966500Y-108633000D01*
X148401144Y-108633000D01*
X148377978Y-108635687D01*
X148377977Y-108635688D01*
X148283247Y-108677516D01*
X148283246Y-108677517D01*
X148210018Y-108750744D01*
X148168187Y-108845483D01*
X148165499Y-108868644D01*
X144657900Y-108868644D01*
X144657900Y-107915857D01*
X144676206Y-107871663D01*
X145110678Y-107437191D01*
X145553502Y-106994367D01*
X145638904Y-106888122D01*
X145671385Y-106822629D01*
X145707421Y-106791172D01*
X145727377Y-106787900D01*
X146714600Y-106787900D01*
X146758794Y-106806206D01*
X146777100Y-106850400D01*
X146777100Y-107594600D01*
X146758794Y-107638794D01*
X146714600Y-107657100D01*
X146522274Y-107657100D01*
X146496950Y-107660038D01*
X146405551Y-107700395D01*
X146393353Y-107705781D01*
X146313281Y-107785853D01*
X146313280Y-107785854D01*
X146313280Y-107785855D01*
X146267538Y-107889450D01*
X146264600Y-107914774D01*
X146264600Y-108305226D01*
X146267538Y-108330550D01*
X146313280Y-108434145D01*
X146393355Y-108514220D01*
X146496950Y-108559962D01*
X146522274Y-108562900D01*
X147787726Y-108562900D01*
X147813050Y-108559962D01*
X147916645Y-108514220D01*
X147996720Y-108434145D01*
X148042462Y-108330550D01*
X148045400Y-108305226D01*
X148045400Y-107914774D01*
X148042462Y-107889450D01*
X147996720Y-107785855D01*
X147916645Y-107705780D01*
X147813050Y-107660038D01*
X147787726Y-107657100D01*
X147545400Y-107657100D01*
X147501206Y-107638794D01*
X147482900Y-107594600D01*
X147482900Y-106450898D01*
X147483007Y-106448317D01*
X147485547Y-106417650D01*
X147486558Y-106405455D01*
X147484812Y-106398559D01*
X147482900Y-106383218D01*
X147482900Y-105300726D01*
X147482899Y-105300712D01*
X147482899Y-105125091D01*
X147482899Y-105125089D01*
X147468227Y-105051323D01*
X147430408Y-104994723D01*
X147421076Y-104947807D01*
X147430408Y-104925277D01*
X147449544Y-104896638D01*
X147468227Y-104868677D01*
X147482900Y-104794911D01*
X147482900Y-104643674D01*
X147482900Y-103353081D01*
X147484230Y-103340255D01*
X147487474Y-103324785D01*
X147487474Y-103324783D01*
X147483140Y-103290015D01*
X147482900Y-103286146D01*
X147482900Y-102419552D01*
X147501206Y-102375358D01*
X147516124Y-102364333D01*
X147538852Y-102352283D01*
X147597153Y-102321374D01*
X147735814Y-102203594D01*
X147845914Y-102058760D01*
X147919754Y-101899155D01*
X147954924Y-101866734D01*
X147976477Y-101862900D01*
X149383515Y-101862900D01*
X149395708Y-101864101D01*
X149404386Y-101865827D01*
X149439943Y-101872900D01*
X150170056Y-101872899D01*
X150214658Y-101864028D01*
X150265234Y-101830234D01*
X150299028Y-101779658D01*
X150307900Y-101735057D01*
X150307899Y-101284944D01*
X150299028Y-101240342D01*
X150285251Y-101219723D01*
X150275919Y-101172807D01*
X150285251Y-101150277D01*
X150299027Y-101129659D01*
X150299028Y-101129658D01*
X150307900Y-101085057D01*
X150307899Y-100634944D01*
X150299028Y-100590342D01*
X150285251Y-100569723D01*
X150275919Y-100522807D01*
X150285251Y-100500277D01*
X150299027Y-100479659D01*
X150299028Y-100479658D01*
X150307900Y-100435057D01*
X150307899Y-99984944D01*
X150299028Y-99940342D01*
X150285251Y-99919723D01*
X150275919Y-99872807D01*
X150285251Y-99850277D01*
X150299027Y-99829659D01*
X150299028Y-99829658D01*
X150307900Y-99785057D01*
X150307899Y-99334944D01*
X150299028Y-99290342D01*
X150265234Y-99239766D01*
X150231439Y-99217184D01*
X150214657Y-99205971D01*
X150171424Y-99197372D01*
X150170057Y-99197100D01*
X150170056Y-99197100D01*
X149439945Y-99197100D01*
X149439941Y-99197101D01*
X149395343Y-99205971D01*
X149395342Y-99205972D01*
X149344766Y-99239766D01*
X149327118Y-99266179D01*
X149325017Y-99269323D01*
X149285243Y-99295899D01*
X149273050Y-99297100D01*
X148958676Y-99297100D01*
X148914482Y-99278794D01*
X148911442Y-99275529D01*
X148849637Y-99204202D01*
X148849636Y-99204201D01*
X148740076Y-99133792D01*
X148740074Y-99133791D01*
X148740072Y-99133790D01*
X148615119Y-99097100D01*
X148615117Y-99097100D01*
X148484883Y-99097100D01*
X148484881Y-99097100D01*
X148359927Y-99133790D01*
X148250364Y-99204201D01*
X148165078Y-99302627D01*
X148110976Y-99421091D01*
X148092443Y-99549999D01*
X148110976Y-99678908D01*
X148134321Y-99730025D01*
X148151347Y-99767306D01*
X148151955Y-99768636D01*
X148153663Y-99816441D01*
X148121067Y-99851452D01*
X148095103Y-99857100D01*
X148023915Y-99857100D01*
X147979721Y-99838794D01*
X147961415Y-99794600D01*
X147961415Y-94554653D01*
X147961415Y-94554650D01*
X147946677Y-94419135D01*
X147888586Y-94246728D01*
X147816102Y-94126257D01*
X147794792Y-94090839D01*
X147708620Y-93999869D01*
X147669677Y-93958757D01*
X147519094Y-93856660D01*
X147519091Y-93856658D01*
X147519090Y-93856658D01*
X147417266Y-93816087D01*
X147382987Y-93782723D01*
X147377900Y-93758026D01*
X147377900Y-92703943D01*
X147396206Y-92659749D01*
X147440400Y-92641443D01*
X147484594Y-92659748D01*
X148521294Y-93696449D01*
X148539600Y-93740642D01*
X148539600Y-94703933D01*
X148538399Y-94716126D01*
X148534645Y-94734999D01*
X148534645Y-94735000D01*
X148554272Y-94833675D01*
X148554274Y-94833680D01*
X148578779Y-94870355D01*
X148578780Y-94870355D01*
X148610166Y-94917328D01*
X148610169Y-94917331D01*
X148626167Y-94928020D01*
X148635638Y-94935793D01*
X149291705Y-95591860D01*
X149299478Y-95601331D01*
X149310166Y-95617328D01*
X149310169Y-95617331D01*
X149331285Y-95631440D01*
X149331287Y-95631442D01*
X149334632Y-95633677D01*
X149393821Y-95673226D01*
X149393823Y-95673227D01*
X149450903Y-95684581D01*
X149462854Y-95686958D01*
X149502629Y-95713530D01*
X149502633Y-95713536D01*
X149505166Y-95717328D01*
X149505169Y-95717331D01*
X149588821Y-95773226D01*
X149588823Y-95773227D01*
X149662589Y-95787900D01*
X149972410Y-95787899D01*
X150046177Y-95773227D01*
X150102776Y-95735408D01*
X150149693Y-95726076D01*
X150172223Y-95735408D01*
X150228821Y-95773226D01*
X150228823Y-95773227D01*
X150302589Y-95787900D01*
X150612410Y-95787899D01*
X150686177Y-95773227D01*
X150769831Y-95717331D01*
X150825727Y-95633677D01*
X150840400Y-95559911D01*
X150840399Y-95310090D01*
X150825727Y-95236323D01*
X150769831Y-95152669D01*
X150769826Y-95152665D01*
X150723176Y-95121493D01*
X150696601Y-95081719D01*
X150695400Y-95069527D01*
X150695400Y-94416065D01*
X150696601Y-94403871D01*
X150700355Y-94385000D01*
X150689448Y-94330169D01*
X150680727Y-94286323D01*
X150670113Y-94270438D01*
X150660684Y-94256326D01*
X150660683Y-94256326D01*
X150660683Y-94256325D01*
X150637724Y-94221963D01*
X150637706Y-94221938D01*
X150624831Y-94202669D01*
X150624828Y-94202666D01*
X150608831Y-94191978D01*
X150599360Y-94184205D01*
X150358812Y-93943657D01*
X150340506Y-93899463D01*
X150358812Y-93855269D01*
X150403006Y-93836963D01*
X150433049Y-93846076D01*
X150433135Y-93845871D01*
X150435226Y-93846737D01*
X150437730Y-93847496D01*
X150438823Y-93848227D01*
X150512589Y-93862900D01*
X150822410Y-93862899D01*
X150896177Y-93848227D01*
X150952776Y-93810408D01*
X150999693Y-93801076D01*
X151022223Y-93810408D01*
X151078821Y-93848226D01*
X151078823Y-93848227D01*
X151152589Y-93862900D01*
X151462410Y-93862899D01*
X151536177Y-93848227D01*
X151619831Y-93792331D01*
X151626251Y-93782723D01*
X151637641Y-93765677D01*
X151677415Y-93739101D01*
X151689608Y-93737900D01*
X151936434Y-93737900D01*
X151948627Y-93739101D01*
X151967499Y-93742855D01*
X151967500Y-93742855D01*
X151967501Y-93742855D01*
X152016838Y-93733041D01*
X152066177Y-93723227D01*
X152087479Y-93708993D01*
X152134396Y-93699661D01*
X152166397Y-93716766D01*
X153545279Y-95095648D01*
X153563585Y-95139842D01*
X153563585Y-99626085D01*
X153545279Y-99670279D01*
X153501085Y-99688585D01*
X153373395Y-99688585D01*
X153329201Y-99670279D01*
X153310895Y-99626085D01*
X153310895Y-99350000D01*
X153299028Y-99290342D01*
X153265234Y-99239766D01*
X153214658Y-99205972D01*
X153214657Y-99205971D01*
X153155001Y-99194105D01*
X153155000Y-99194105D01*
X150905000Y-99194105D01*
X150904998Y-99194105D01*
X150845343Y-99205971D01*
X150794766Y-99239766D01*
X150760971Y-99290343D01*
X150749105Y-99349998D01*
X150749105Y-101720001D01*
X150760971Y-101779656D01*
X150760971Y-101779657D01*
X150760972Y-101779658D01*
X150794766Y-101830234D01*
X150845342Y-101864028D01*
X150905000Y-101875895D01*
X153155000Y-101875895D01*
X153214658Y-101864028D01*
X153265234Y-101830234D01*
X153299028Y-101779658D01*
X153310895Y-101720000D01*
X153310895Y-101423914D01*
X153329201Y-101379721D01*
X153373395Y-101361415D01*
X154089701Y-101361415D01*
X154106456Y-101364395D01*
X154106575Y-101363920D01*
X154109863Y-101364737D01*
X154109864Y-101364738D01*
X154141051Y-101372493D01*
X154145069Y-101373787D01*
X154174916Y-101385680D01*
X154225358Y-101393949D01*
X154229868Y-101394689D01*
X154232354Y-101395201D01*
X154244345Y-101398182D01*
X154286418Y-101408646D01*
X154318540Y-101409515D01*
X154322749Y-101409916D01*
X154330107Y-101411121D01*
X154354450Y-101415113D01*
X154410080Y-101412096D01*
X154412587Y-101412063D01*
X154460854Y-101413370D01*
X154468281Y-101413572D01*
X154468281Y-101413571D01*
X154468283Y-101413572D01*
X154499844Y-101407515D01*
X154504028Y-101407002D01*
X154536115Y-101405264D01*
X154589815Y-101390353D01*
X154592238Y-101389786D01*
X154646954Y-101379288D01*
X154676475Y-101366588D01*
X154680443Y-101365190D01*
X154711415Y-101356592D01*
X154711419Y-101356589D01*
X154711422Y-101356589D01*
X154726346Y-101348675D01*
X154760648Y-101330489D01*
X154762886Y-101329416D01*
X154814079Y-101307396D01*
X154840175Y-101288650D01*
X154843765Y-101286423D01*
X154872153Y-101271374D01*
X154914603Y-101235315D01*
X154916601Y-101233754D01*
X154961838Y-101201261D01*
X154961837Y-101201261D01*
X154961841Y-101201259D01*
X154983299Y-101177339D01*
X154986319Y-101174399D01*
X155010814Y-101153594D01*
X155044527Y-101109244D01*
X155046120Y-101107316D01*
X155083333Y-101065838D01*
X155099149Y-101037862D01*
X155101472Y-101034333D01*
X155120914Y-101008760D01*
X155144310Y-100958188D01*
X155145439Y-100955986D01*
X155172873Y-100907466D01*
X155182309Y-100876731D01*
X155183811Y-100872807D01*
X155197305Y-100843643D01*
X155209276Y-100789251D01*
X155209921Y-100786804D01*
X155226272Y-100733554D01*
X155226274Y-100733547D01*
X155228881Y-100701520D01*
X155229506Y-100697345D01*
X155236415Y-100665966D01*
X155236415Y-100610276D01*
X155236518Y-100607739D01*
X155241039Y-100552217D01*
X155236700Y-100520377D01*
X155236415Y-100516155D01*
X155236415Y-99649999D01*
X159667443Y-99649999D01*
X159685976Y-99778908D01*
X159728859Y-99872807D01*
X159740079Y-99897374D01*
X159825364Y-99995799D01*
X159934924Y-100066208D01*
X159934926Y-100066208D01*
X159934927Y-100066209D01*
X160059881Y-100102900D01*
X160059883Y-100102900D01*
X160190119Y-100102900D01*
X160286444Y-100074615D01*
X160315076Y-100066208D01*
X160424636Y-99995799D01*
X160509921Y-99897374D01*
X160564023Y-99778909D01*
X160582557Y-99650000D01*
X160564023Y-99521091D01*
X160509921Y-99402626D01*
X160424636Y-99304201D01*
X160422187Y-99302627D01*
X160406608Y-99292614D01*
X160379328Y-99253320D01*
X160377900Y-99240037D01*
X160377900Y-97811853D01*
X160396205Y-97767660D01*
X163439891Y-94723975D01*
X163484085Y-94705669D01*
X163673689Y-94705669D01*
X163717883Y-94723975D01*
X163720923Y-94727240D01*
X163782729Y-94798568D01*
X163892289Y-94868977D01*
X163892291Y-94868977D01*
X163892292Y-94868978D01*
X164017246Y-94905669D01*
X164017248Y-94905669D01*
X164147484Y-94905669D01*
X164267748Y-94870355D01*
X164272441Y-94868977D01*
X164382001Y-94798568D01*
X164467286Y-94700143D01*
X164521388Y-94581678D01*
X164539922Y-94452769D01*
X164521388Y-94323860D01*
X164467286Y-94205395D01*
X164382001Y-94106970D01*
X164272441Y-94036561D01*
X164272439Y-94036560D01*
X164272437Y-94036559D01*
X164147484Y-93999869D01*
X164147482Y-93999869D01*
X164017248Y-93999869D01*
X164017246Y-93999869D01*
X163892292Y-94036559D01*
X163782727Y-94106971D01*
X163720923Y-94178298D01*
X163678148Y-94199710D01*
X163673689Y-94199869D01*
X163384509Y-94199869D01*
X163372316Y-94198668D01*
X163353444Y-94194914D01*
X163353442Y-94194914D01*
X163328532Y-94199869D01*
X163254766Y-94214541D01*
X163254764Y-94214542D01*
X163171112Y-94270438D01*
X163160418Y-94286441D01*
X163152647Y-94295909D01*
X159968137Y-97480418D01*
X159958669Y-97488189D01*
X159947227Y-97495835D01*
X159942669Y-97498881D01*
X159928559Y-97519997D01*
X159928558Y-97519999D01*
X159928557Y-97520001D01*
X159886773Y-97582533D01*
X159886772Y-97582535D01*
X159867534Y-97679256D01*
X159867145Y-97681212D01*
X159870428Y-97697718D01*
X159870899Y-97700083D01*
X159872100Y-97712277D01*
X159872100Y-99240037D01*
X159853794Y-99284231D01*
X159843392Y-99292614D01*
X159825366Y-99304199D01*
X159825364Y-99304200D01*
X159825364Y-99304201D01*
X159788842Y-99346350D01*
X159740078Y-99402627D01*
X159685976Y-99521091D01*
X159667443Y-99649999D01*
X155236415Y-99649999D01*
X155236415Y-98150000D01*
X156942145Y-98150000D01*
X156961772Y-98248675D01*
X156961773Y-98248677D01*
X156974222Y-98267308D01*
X157001557Y-98308220D01*
X157004020Y-98311905D01*
X157017669Y-98332331D01*
X157033667Y-98343020D01*
X157043138Y-98350793D01*
X157357878Y-98665533D01*
X157376184Y-98709727D01*
X157375548Y-98718620D01*
X157367443Y-98774999D01*
X157385976Y-98903908D01*
X157438534Y-99018992D01*
X157440079Y-99022374D01*
X157525364Y-99120799D01*
X157634924Y-99191208D01*
X157634926Y-99191208D01*
X157634927Y-99191209D01*
X157759881Y-99227900D01*
X157759883Y-99227900D01*
X157890119Y-99227900D01*
X158005210Y-99194105D01*
X158015076Y-99191208D01*
X158124636Y-99120799D01*
X158209921Y-99022374D01*
X158264023Y-98903909D01*
X158282557Y-98775000D01*
X158264023Y-98646091D01*
X158209921Y-98527626D01*
X158124636Y-98429201D01*
X158015076Y-98358792D01*
X158015074Y-98358791D01*
X158015072Y-98358790D01*
X157890119Y-98322100D01*
X157890117Y-98322100D01*
X157759883Y-98322100D01*
X157755643Y-98322100D01*
X157711449Y-98303794D01*
X157471206Y-98063551D01*
X157452900Y-98019357D01*
X157452900Y-95930638D01*
X157471206Y-95886444D01*
X157761448Y-95596202D01*
X157805642Y-95577896D01*
X157940119Y-95577896D01*
X158036444Y-95549611D01*
X158065076Y-95541204D01*
X158174636Y-95470795D01*
X158259921Y-95372370D01*
X158314023Y-95253905D01*
X158332557Y-95124996D01*
X158314023Y-94996087D01*
X158259921Y-94877622D01*
X158174636Y-94779197D01*
X158065076Y-94708788D01*
X158065074Y-94708787D01*
X158065072Y-94708786D01*
X157940119Y-94672096D01*
X157940117Y-94672096D01*
X157809883Y-94672096D01*
X157809881Y-94672096D01*
X157684927Y-94708786D01*
X157575364Y-94779197D01*
X157490078Y-94877623D01*
X157435976Y-94996087D01*
X157417443Y-95124996D01*
X157425548Y-95181373D01*
X157413717Y-95227723D01*
X157407878Y-95234461D01*
X157043137Y-95599202D01*
X157033669Y-95606973D01*
X157017670Y-95617664D01*
X157017669Y-95617665D01*
X157003559Y-95638781D01*
X157003558Y-95638783D01*
X157003557Y-95638785D01*
X156961773Y-95701317D01*
X156961772Y-95701319D01*
X156944551Y-95787898D01*
X156942145Y-95799996D01*
X156944845Y-95813572D01*
X156945899Y-95818867D01*
X156947100Y-95831061D01*
X156947100Y-98118933D01*
X156945899Y-98131126D01*
X156942145Y-98149999D01*
X156942145Y-98150000D01*
X155236415Y-98150000D01*
X155236415Y-94802776D01*
X155236518Y-94800239D01*
X155238231Y-94779197D01*
X155241039Y-94744717D01*
X155230336Y-94666167D01*
X155230245Y-94665430D01*
X155221677Y-94586635D01*
X155219919Y-94581418D01*
X155217219Y-94569896D01*
X155216478Y-94564452D01*
X155189148Y-94490064D01*
X155188892Y-94489335D01*
X155163586Y-94414228D01*
X155160746Y-94409508D01*
X155155636Y-94398844D01*
X155153739Y-94393680D01*
X155153737Y-94393677D01*
X155153736Y-94393674D01*
X155153736Y-94393673D01*
X155111085Y-94326947D01*
X155110639Y-94326228D01*
X155100144Y-94308786D01*
X155069791Y-94258338D01*
X155069789Y-94258336D01*
X155069788Y-94258334D01*
X155066007Y-94254343D01*
X155058717Y-94245018D01*
X155055757Y-94240387D01*
X154999756Y-94184386D01*
X154999166Y-94183780D01*
X154982549Y-94166238D01*
X154944677Y-94126257D01*
X154940120Y-94123167D01*
X154931001Y-94115631D01*
X153196206Y-92380836D01*
X153177900Y-92336642D01*
X153177900Y-91465400D01*
X153196206Y-91421206D01*
X153240400Y-91402900D01*
X153622079Y-91402900D01*
X153656799Y-91413432D01*
X153731323Y-91463227D01*
X153805089Y-91477900D01*
X154114910Y-91477899D01*
X154188677Y-91463227D01*
X154268586Y-91409832D01*
X154315502Y-91400501D01*
X154338032Y-91409833D01*
X154381427Y-91438828D01*
X154381429Y-91438829D01*
X154447643Y-91451999D01*
X154447644Y-91452000D01*
X154536500Y-91452000D01*
X154536500Y-91188500D01*
X154663500Y-91188500D01*
X154663500Y-91452000D01*
X154752356Y-91452000D01*
X154752356Y-91451999D01*
X154818570Y-91438829D01*
X154818572Y-91438828D01*
X154893657Y-91388657D01*
X154943828Y-91313572D01*
X154943829Y-91313570D01*
X154956999Y-91247356D01*
X154957000Y-91247356D01*
X154957000Y-91188500D01*
X154663500Y-91188500D01*
X154536500Y-91188500D01*
X154536500Y-90798000D01*
X154663500Y-90798000D01*
X154663500Y-91061500D01*
X154957000Y-91061500D01*
X154957000Y-91002644D01*
X154956999Y-91002643D01*
X154943829Y-90936429D01*
X154943828Y-90936427D01*
X154893657Y-90861342D01*
X154818572Y-90811171D01*
X154818570Y-90811170D01*
X154752356Y-90798000D01*
X154663500Y-90798000D01*
X154536500Y-90798000D01*
X154447644Y-90798000D01*
X154381429Y-90811170D01*
X154381427Y-90811171D01*
X154338032Y-90840167D01*
X154291115Y-90849499D01*
X154268587Y-90840167D01*
X154225190Y-90811170D01*
X154188678Y-90786773D01*
X154188676Y-90786772D01*
X154114911Y-90772100D01*
X153805091Y-90772100D01*
X153805087Y-90772101D01*
X153731324Y-90786772D01*
X153731320Y-90786774D01*
X153647669Y-90842668D01*
X153647666Y-90842671D01*
X153629859Y-90869323D01*
X153590085Y-90895899D01*
X153577892Y-90897100D01*
X153240400Y-90897100D01*
X153196206Y-90878794D01*
X153177900Y-90834600D01*
X153177900Y-89821326D01*
X153196205Y-89777133D01*
X153498338Y-89475000D01*
X155742443Y-89475000D01*
X155742587Y-89476000D01*
X155749365Y-89523149D01*
X155749595Y-89525253D01*
X155750588Y-89538500D01*
X155753467Y-89576919D01*
X155756543Y-89584757D01*
X155760226Y-89598689D01*
X155760976Y-89603906D01*
X155760979Y-89603915D01*
X155782551Y-89651152D01*
X155783215Y-89652716D01*
X155803345Y-89704005D01*
X155803346Y-89704006D01*
X155803347Y-89704008D01*
X155804325Y-89705234D01*
X155806381Y-89707812D01*
X155814364Y-89720808D01*
X155815079Y-89722374D01*
X155815081Y-89722376D01*
X155851252Y-89764122D01*
X155852067Y-89765101D01*
X155888467Y-89810746D01*
X155888472Y-89810751D01*
X155889546Y-89811483D01*
X155896870Y-89818004D01*
X155896986Y-89817872D01*
X155900362Y-89820797D01*
X155900364Y-89820799D01*
X155949637Y-89852465D01*
X155950248Y-89852869D01*
X156001273Y-89887657D01*
X156001274Y-89887658D01*
X156002036Y-89887893D01*
X156005814Y-89889331D01*
X156009923Y-89891207D01*
X156009924Y-89891208D01*
X156069406Y-89908673D01*
X156110485Y-89921344D01*
X156131735Y-89927900D01*
X156131736Y-89927900D01*
X156134883Y-89927900D01*
X156265117Y-89927900D01*
X158134600Y-89927900D01*
X158178794Y-89946206D01*
X158197100Y-89990400D01*
X158197100Y-91139908D01*
X158197101Y-91139912D01*
X158211772Y-91213675D01*
X158211775Y-91213680D01*
X158249591Y-91270275D01*
X158258924Y-91317191D01*
X158249592Y-91339722D01*
X158211773Y-91396321D01*
X158211772Y-91396323D01*
X158197100Y-91470088D01*
X158197100Y-91779908D01*
X158197101Y-91779912D01*
X158211772Y-91853675D01*
X158214130Y-91859367D01*
X158213468Y-91859641D01*
X158222100Y-91888091D01*
X158222100Y-92217360D01*
X158206835Y-92258288D01*
X158190079Y-92277625D01*
X158190078Y-92277626D01*
X158135976Y-92396091D01*
X158117443Y-92524999D01*
X158135976Y-92653908D01*
X158190078Y-92772372D01*
X158190079Y-92772374D01*
X158275364Y-92870799D01*
X158384924Y-92941208D01*
X158384926Y-92941208D01*
X158384927Y-92941209D01*
X158509881Y-92977900D01*
X158509883Y-92977900D01*
X158640119Y-92977900D01*
X158736444Y-92949615D01*
X158765076Y-92941208D01*
X158874636Y-92870799D01*
X158959921Y-92772374D01*
X159014023Y-92653909D01*
X159032557Y-92525000D01*
X159014023Y-92396091D01*
X158959921Y-92277626D01*
X158944223Y-92259509D01*
X158943165Y-92258288D01*
X158927900Y-92217360D01*
X158927900Y-91595762D01*
X158927900Y-91595757D01*
X158913394Y-91508829D01*
X158912139Y-91506510D01*
X158910430Y-91503351D01*
X158902899Y-91473608D01*
X158902899Y-91470091D01*
X158902899Y-91470089D01*
X158888227Y-91396323D01*
X158850408Y-91339723D01*
X158841076Y-91292807D01*
X158850408Y-91270277D01*
X158865723Y-91247356D01*
X158888227Y-91213677D01*
X158902900Y-91139911D01*
X158902900Y-90988787D01*
X158902900Y-89990400D01*
X158921206Y-89946206D01*
X158965400Y-89927900D01*
X161464596Y-89927900D01*
X161508790Y-89946206D01*
X161617519Y-90054935D01*
X161758154Y-90143302D01*
X161758155Y-90143303D01*
X161758157Y-90143303D01*
X161758161Y-90143306D01*
X161914942Y-90198166D01*
X162080000Y-90216764D01*
X162245058Y-90198166D01*
X162401839Y-90143306D01*
X162542482Y-90054934D01*
X162659934Y-89937482D01*
X162748306Y-89796839D01*
X162803166Y-89640058D01*
X162821764Y-89475003D01*
X163903576Y-89475003D01*
X163924392Y-89646443D01*
X163924393Y-89646447D01*
X163985639Y-89807942D01*
X164072057Y-89933139D01*
X164344648Y-89660548D01*
X164404477Y-89731850D01*
X164435209Y-89749593D01*
X164163803Y-90020999D01*
X164213026Y-90064605D01*
X164213025Y-90064605D01*
X164365951Y-90144867D01*
X164533641Y-90186199D01*
X164533647Y-90186200D01*
X164706353Y-90186200D01*
X164706358Y-90186199D01*
X164874048Y-90144867D01*
X165026974Y-90064605D01*
X165076196Y-90020999D01*
X164804790Y-89749593D01*
X164835523Y-89731850D01*
X164895351Y-89660548D01*
X165167941Y-89933139D01*
X165167942Y-89933138D01*
X165254360Y-89807942D01*
X165315606Y-89646447D01*
X165315607Y-89646443D01*
X165336424Y-89475003D01*
X165336424Y-89474996D01*
X165315607Y-89303556D01*
X165315606Y-89303552D01*
X165254360Y-89142057D01*
X165167941Y-89016859D01*
X164895350Y-89289450D01*
X164835523Y-89218150D01*
X164804789Y-89200405D01*
X165076195Y-88929000D01*
X165026973Y-88885394D01*
X165026974Y-88885394D01*
X164874048Y-88805132D01*
X164706358Y-88763800D01*
X164533641Y-88763800D01*
X164365951Y-88805132D01*
X164213025Y-88885394D01*
X164213023Y-88885396D01*
X164163802Y-88928999D01*
X164435209Y-89200406D01*
X164404477Y-89218150D01*
X164344648Y-89289450D01*
X164072058Y-89016860D01*
X163985637Y-89142063D01*
X163924393Y-89303552D01*
X163924392Y-89303556D01*
X163903576Y-89474996D01*
X163903576Y-89475003D01*
X162821764Y-89475003D01*
X162821764Y-89475000D01*
X162803166Y-89309942D01*
X162748306Y-89153161D01*
X162748303Y-89153157D01*
X162748303Y-89153155D01*
X162748302Y-89153154D01*
X162659935Y-89012519D01*
X162542480Y-88895064D01*
X162401845Y-88806697D01*
X162401844Y-88806696D01*
X162401839Y-88806694D01*
X162330532Y-88781742D01*
X162245056Y-88751833D01*
X162080000Y-88733236D01*
X161914943Y-88751833D01*
X161758155Y-88806696D01*
X161758154Y-88806697D01*
X161617519Y-88895064D01*
X161617518Y-88895065D01*
X161508790Y-89003794D01*
X161464596Y-89022100D01*
X158965400Y-89022100D01*
X158921206Y-89003794D01*
X158902900Y-88959600D01*
X158902900Y-88145762D01*
X158902900Y-88145757D01*
X158888394Y-88058829D01*
X158885430Y-88053351D01*
X158877899Y-88023608D01*
X158877899Y-88020091D01*
X158877899Y-88020089D01*
X158863227Y-87946323D01*
X158809831Y-87866411D01*
X158800500Y-87819497D01*
X158809833Y-87796966D01*
X158838827Y-87753573D01*
X158838829Y-87753570D01*
X158851999Y-87687356D01*
X158852000Y-87687356D01*
X158852000Y-87598500D01*
X158198000Y-87598500D01*
X158198000Y-87687356D01*
X158211170Y-87753570D01*
X158211171Y-87753572D01*
X158240167Y-87796967D01*
X158249499Y-87843883D01*
X158240167Y-87866413D01*
X158186773Y-87946321D01*
X158186772Y-87946323D01*
X158172100Y-88020088D01*
X158172100Y-88329908D01*
X158172101Y-88329912D01*
X158186772Y-88403675D01*
X158189130Y-88409367D01*
X158188468Y-88409641D01*
X158197100Y-88438091D01*
X158197100Y-88959600D01*
X158178794Y-89003794D01*
X158134600Y-89022100D01*
X156134882Y-89022100D01*
X156104051Y-89031153D01*
X156099900Y-89032071D01*
X156064995Y-89037332D01*
X156041461Y-89048665D01*
X156031958Y-89052321D01*
X156009920Y-89058793D01*
X155980109Y-89077951D01*
X155976771Y-89079818D01*
X155941990Y-89096568D01*
X155925432Y-89111932D01*
X155916715Y-89118691D01*
X155900366Y-89129198D01*
X155900365Y-89129200D01*
X155874981Y-89158492D01*
X155872619Y-89160936D01*
X155841912Y-89189428D01*
X155841908Y-89189433D01*
X155832381Y-89205933D01*
X155825493Y-89215606D01*
X155815079Y-89227625D01*
X155815076Y-89227629D01*
X155797610Y-89265873D01*
X155796248Y-89268516D01*
X155773646Y-89307665D01*
X155773644Y-89307671D01*
X155770192Y-89322792D01*
X155766114Y-89334840D01*
X155760977Y-89346090D01*
X155754521Y-89390982D01*
X155754056Y-89393488D01*
X155743265Y-89440770D01*
X155743265Y-89440771D01*
X155744159Y-89452705D01*
X155743698Y-89466267D01*
X155742443Y-89474998D01*
X155742443Y-89475000D01*
X153498338Y-89475000D01*
X154205825Y-88767513D01*
X154216524Y-88758942D01*
X154219482Y-88757066D01*
X154268595Y-88704763D01*
X154269241Y-88704097D01*
X154290714Y-88682626D01*
X154296122Y-88675651D01*
X154298031Y-88673418D01*
X154332405Y-88636815D01*
X154345014Y-88613876D01*
X154350397Y-88605681D01*
X154366445Y-88584995D01*
X154386396Y-88538889D01*
X154387676Y-88536275D01*
X154411876Y-88492259D01*
X154418386Y-88466900D01*
X154421564Y-88457622D01*
X154431958Y-88433603D01*
X154431957Y-88433603D01*
X154431959Y-88433601D01*
X154439814Y-88383993D01*
X154440404Y-88381141D01*
X154452900Y-88332480D01*
X154452900Y-88306301D01*
X154453669Y-88296525D01*
X154454417Y-88291800D01*
X154457764Y-88270671D01*
X154455113Y-88242634D01*
X154453039Y-88220677D01*
X154452900Y-88217735D01*
X154452900Y-87471500D01*
X158198000Y-87471500D01*
X158461500Y-87471500D01*
X158461500Y-87178000D01*
X158588500Y-87178000D01*
X158588500Y-87471500D01*
X158852000Y-87471500D01*
X158852000Y-87382644D01*
X158851999Y-87382643D01*
X158838829Y-87316429D01*
X158838828Y-87316427D01*
X158788657Y-87241342D01*
X158713572Y-87191171D01*
X158713570Y-87191170D01*
X158647356Y-87178000D01*
X158588500Y-87178000D01*
X158461500Y-87178000D01*
X158402644Y-87178000D01*
X158336429Y-87191170D01*
X158336427Y-87191171D01*
X158261342Y-87241342D01*
X158211171Y-87316427D01*
X158211170Y-87316429D01*
X158198000Y-87382643D01*
X158198000Y-87471500D01*
X154452900Y-87471500D01*
X154452900Y-86312507D01*
X155172999Y-86312507D01*
X155180369Y-86349553D01*
X155180369Y-86349554D01*
X155208438Y-86391561D01*
X155250446Y-86419630D01*
X155287493Y-86427000D01*
X155736500Y-86427000D01*
X155736500Y-83613500D01*
X155863500Y-83613500D01*
X155863500Y-86427000D01*
X156312507Y-86427000D01*
X156349553Y-86419630D01*
X156349554Y-86419630D01*
X156391561Y-86391561D01*
X156419630Y-86349554D01*
X156419630Y-86349553D01*
X156427000Y-86312507D01*
X156427000Y-83613500D01*
X155863500Y-83613500D01*
X155736500Y-83613500D01*
X155173000Y-83613500D01*
X155173000Y-86312507D01*
X155172999Y-86312507D01*
X154452900Y-86312507D01*
X154452900Y-83486500D01*
X155173000Y-83486500D01*
X155736500Y-83486500D01*
X155736500Y-80673000D01*
X155863500Y-80673000D01*
X155863500Y-83486500D01*
X156427000Y-83486500D01*
X156427000Y-82815054D01*
X157247100Y-82815054D01*
X157247101Y-82815058D01*
X157255971Y-82859656D01*
X157255972Y-82859658D01*
X157289766Y-82910234D01*
X157340342Y-82944028D01*
X157384943Y-82952900D01*
X159015056Y-82952899D01*
X159059658Y-82944028D01*
X159110234Y-82910234D01*
X159144028Y-82859658D01*
X159152900Y-82815057D01*
X159152899Y-79784944D01*
X159144028Y-79740342D01*
X159110234Y-79689766D01*
X159076439Y-79667184D01*
X159059657Y-79655971D01*
X159023928Y-79648864D01*
X159015057Y-79647100D01*
X159015056Y-79647100D01*
X157384945Y-79647100D01*
X157384941Y-79647101D01*
X157340343Y-79655971D01*
X157340342Y-79655972D01*
X157289766Y-79689766D01*
X157255971Y-79740342D01*
X157247100Y-79784943D01*
X157247100Y-82815054D01*
X156427000Y-82815054D01*
X156427000Y-80787492D01*
X156419630Y-80750446D01*
X156419630Y-80750445D01*
X156391561Y-80708438D01*
X156349553Y-80680369D01*
X156312507Y-80673000D01*
X155863500Y-80673000D01*
X155736500Y-80673000D01*
X155287493Y-80673000D01*
X155250446Y-80680369D01*
X155250445Y-80680369D01*
X155208438Y-80708438D01*
X155180369Y-80750445D01*
X155180369Y-80750446D01*
X155173000Y-80787492D01*
X155173000Y-83486500D01*
X154452900Y-83486500D01*
X154452900Y-83157266D01*
X154452899Y-83157244D01*
X154452899Y-80784945D01*
X154452898Y-80784941D01*
X154446037Y-80750446D01*
X154444028Y-80740342D01*
X154410234Y-80689766D01*
X154359658Y-80655972D01*
X154359657Y-80655971D01*
X154323928Y-80648864D01*
X154315057Y-80647100D01*
X154315056Y-80647100D01*
X153284945Y-80647100D01*
X153284941Y-80647101D01*
X153240343Y-80655971D01*
X153240342Y-80655972D01*
X153189766Y-80689766D01*
X153155971Y-80740342D01*
X153147100Y-80784943D01*
X153147100Y-85059600D01*
X153128794Y-85103794D01*
X153084600Y-85122100D01*
X148620583Y-85122100D01*
X148607757Y-85120770D01*
X148592285Y-85117526D01*
X148592282Y-85117525D01*
X148561912Y-85121311D01*
X148557513Y-85121860D01*
X148553647Y-85122100D01*
X148548255Y-85122100D01*
X148527236Y-85125606D01*
X148525960Y-85125792D01*
X148475414Y-85132093D01*
X148470455Y-85133570D01*
X148470419Y-85133449D01*
X148466182Y-85134806D01*
X148466223Y-85134926D01*
X148461328Y-85136606D01*
X148416516Y-85160856D01*
X148415368Y-85161447D01*
X148369601Y-85183821D01*
X148365388Y-85186830D01*
X148365314Y-85186726D01*
X148361756Y-85189378D01*
X148361835Y-85189479D01*
X148357746Y-85192661D01*
X148323242Y-85230143D01*
X148322348Y-85231075D01*
X146847283Y-86706140D01*
X146796074Y-86777864D01*
X146796073Y-86777865D01*
X146796074Y-86777865D01*
X146762467Y-86890745D01*
X146762467Y-86890746D01*
X146762467Y-86890747D01*
X146767334Y-87008423D01*
X146810145Y-87118138D01*
X146810147Y-87118141D01*
X146849793Y-87164950D01*
X146864600Y-87205344D01*
X146864600Y-87816738D01*
X146846294Y-87860932D01*
X146802100Y-87879238D01*
X146789907Y-87878037D01*
X146760059Y-87872100D01*
X146489947Y-87872100D01*
X146489943Y-87872101D01*
X146445345Y-87880971D01*
X146445344Y-87880972D01*
X146394768Y-87914766D01*
X146360973Y-87965342D01*
X146352102Y-88009943D01*
X146352102Y-88640054D01*
X146352103Y-88640058D01*
X146354796Y-88653596D01*
X146345463Y-88700512D01*
X146305689Y-88727087D01*
X146290579Y-88727830D01*
X146290579Y-88728001D01*
X146038500Y-88728001D01*
X146038500Y-89476000D01*
X146020194Y-89520194D01*
X145976000Y-89538500D01*
X145548000Y-89538500D01*
X145548000Y-89607507D01*
X145555937Y-89647406D01*
X145546605Y-89694322D01*
X145506832Y-89720899D01*
X145494638Y-89722100D01*
X143615403Y-89722100D01*
X143571209Y-89703794D01*
X143563440Y-89694329D01*
X143562331Y-89692669D01*
X143562329Y-89692668D01*
X143562329Y-89692667D01*
X143562328Y-89692666D01*
X143478678Y-89636773D01*
X143478676Y-89636772D01*
X143404911Y-89622100D01*
X143095091Y-89622100D01*
X143095087Y-89622101D01*
X143021324Y-89636772D01*
X143021320Y-89636774D01*
X142941413Y-89690167D01*
X142894497Y-89699499D01*
X142871967Y-89690167D01*
X142828572Y-89661171D01*
X142828570Y-89661170D01*
X142762356Y-89648000D01*
X142673500Y-89648000D01*
X142673500Y-90302000D01*
X142762356Y-90302000D01*
X142762356Y-90301999D01*
X142828570Y-90288829D01*
X142828573Y-90288827D01*
X142871966Y-90259833D01*
X142918882Y-90250500D01*
X142941408Y-90259829D01*
X143021323Y-90313227D01*
X143095089Y-90327900D01*
X143404910Y-90327899D01*
X143478677Y-90313227D01*
X143562331Y-90257331D01*
X143563437Y-90255675D01*
X143565090Y-90254570D01*
X143566681Y-90252980D01*
X143566997Y-90253296D01*
X143603210Y-90229101D01*
X143615403Y-90227900D01*
X144963556Y-90227900D01*
X145007750Y-90246206D01*
X145026056Y-90290400D01*
X145007750Y-90334594D01*
X144562599Y-90779744D01*
X144520991Y-90797996D01*
X144476577Y-90799834D01*
X144476575Y-90799835D01*
X144366861Y-90842645D01*
X144366858Y-90842647D01*
X144344786Y-90861342D01*
X144320047Y-90882293D01*
X144279656Y-90897100D01*
X143640403Y-90897100D01*
X143596209Y-90878794D01*
X143588440Y-90869329D01*
X143587331Y-90867669D01*
X143587329Y-90867668D01*
X143587329Y-90867667D01*
X143587328Y-90867666D01*
X143503678Y-90811773D01*
X143503676Y-90811772D01*
X143429911Y-90797100D01*
X143120091Y-90797100D01*
X143120087Y-90797101D01*
X143046324Y-90811772D01*
X143046320Y-90811774D01*
X142966413Y-90865167D01*
X142919497Y-90874499D01*
X142896967Y-90865167D01*
X142853572Y-90836171D01*
X142853570Y-90836170D01*
X142787356Y-90823000D01*
X142698500Y-90823000D01*
X142698500Y-91477000D01*
X142787356Y-91477000D01*
X142787356Y-91476999D01*
X142853570Y-91463829D01*
X142853573Y-91463827D01*
X142896966Y-91434833D01*
X142943882Y-91425500D01*
X142966408Y-91434829D01*
X143046323Y-91488227D01*
X143120089Y-91502900D01*
X143429910Y-91502899D01*
X143503677Y-91488227D01*
X143587331Y-91432331D01*
X143588437Y-91430675D01*
X143590090Y-91429570D01*
X143591681Y-91427980D01*
X143591997Y-91428296D01*
X143628210Y-91404101D01*
X143640403Y-91402900D01*
X144277936Y-91402900D01*
X144322130Y-91421206D01*
X144546455Y-91645531D01*
X144564761Y-91689725D01*
X144559113Y-91715689D01*
X144510976Y-91821091D01*
X144492443Y-91949999D01*
X144510976Y-92078908D01*
X144547948Y-92159864D01*
X144565079Y-92197374D01*
X144650364Y-92295799D01*
X144759924Y-92366208D01*
X144759926Y-92366208D01*
X144759927Y-92366209D01*
X144884881Y-92402900D01*
X144884883Y-92402900D01*
X145015119Y-92402900D01*
X145111444Y-92374615D01*
X145140076Y-92366208D01*
X145249636Y-92295799D01*
X145334921Y-92197374D01*
X145389023Y-92078909D01*
X145407557Y-91950000D01*
X145389023Y-91821091D01*
X145334921Y-91702626D01*
X145318165Y-91683288D01*
X145302900Y-91642360D01*
X145302900Y-91593082D01*
X145304230Y-91580255D01*
X145307474Y-91564784D01*
X145307474Y-91564783D01*
X145303140Y-91530019D01*
X145302900Y-91526150D01*
X145302900Y-91520761D01*
X145302900Y-91520757D01*
X145299388Y-91499717D01*
X145299209Y-91498488D01*
X145292905Y-91447912D01*
X145292903Y-91447908D01*
X145291426Y-91442944D01*
X145291550Y-91442907D01*
X145290197Y-91438684D01*
X145290075Y-91438726D01*
X145288394Y-91433829D01*
X145264137Y-91389007D01*
X145263545Y-91387858D01*
X145241178Y-91342103D01*
X145241177Y-91342102D01*
X145238169Y-91337889D01*
X145238274Y-91337813D01*
X145235624Y-91334258D01*
X145235523Y-91334338D01*
X145232338Y-91330246D01*
X145194832Y-91295719D01*
X145193900Y-91294825D01*
X145087575Y-91188500D01*
X145022557Y-91123481D01*
X145004252Y-91079289D01*
X145022557Y-91035096D01*
X145336448Y-90721206D01*
X145380643Y-90702900D01*
X145542313Y-90702900D01*
X145577037Y-90713434D01*
X145615340Y-90739028D01*
X145615342Y-90739029D01*
X145659943Y-90747901D01*
X146289602Y-90747900D01*
X146333796Y-90766206D01*
X146352102Y-90810400D01*
X146352102Y-91440053D01*
X146352103Y-91440057D01*
X146360973Y-91484655D01*
X146360973Y-91484656D01*
X146360974Y-91484657D01*
X146361565Y-91485542D01*
X146362180Y-91487569D01*
X146363331Y-91490347D01*
X146363057Y-91490460D01*
X146372100Y-91520267D01*
X146372100Y-92244356D01*
X146353794Y-92288550D01*
X146143924Y-92498419D01*
X146099730Y-92516725D01*
X146068971Y-92508632D01*
X146057471Y-92502130D01*
X146057465Y-92502128D01*
X146016540Y-92489562D01*
X145883550Y-92448727D01*
X145883546Y-92448726D01*
X145702218Y-92433962D01*
X145702217Y-92433962D01*
X145670913Y-92438227D01*
X145521947Y-92458522D01*
X145521946Y-92458523D01*
X145351181Y-92521259D01*
X145351180Y-92521260D01*
X145197889Y-92619241D01*
X145197889Y-92619242D01*
X144159352Y-93657779D01*
X144115158Y-93676085D01*
X143034842Y-93676085D01*
X142990648Y-93657779D01*
X140546369Y-91213500D01*
X142278000Y-91213500D01*
X142278000Y-91272356D01*
X142291170Y-91338570D01*
X142291171Y-91338572D01*
X142341342Y-91413657D01*
X142416427Y-91463828D01*
X142416429Y-91463829D01*
X142482643Y-91476999D01*
X142482644Y-91477000D01*
X142571500Y-91477000D01*
X142571500Y-91213500D01*
X142278000Y-91213500D01*
X140546369Y-91213500D01*
X140419369Y-91086500D01*
X142278000Y-91086500D01*
X142571500Y-91086500D01*
X142571500Y-90823000D01*
X142482644Y-90823000D01*
X142416429Y-90836170D01*
X142416427Y-90836171D01*
X142341342Y-90886342D01*
X142291171Y-90961427D01*
X142291170Y-90961429D01*
X142278000Y-91027643D01*
X142278000Y-91086500D01*
X140419369Y-91086500D01*
X140368376Y-91035507D01*
X140350070Y-90991313D01*
X140368374Y-90947122D01*
X140776037Y-90539458D01*
X140778622Y-90537149D01*
X140810749Y-90511530D01*
X140844111Y-90462594D01*
X140844767Y-90461670D01*
X140879940Y-90414016D01*
X140880070Y-90413643D01*
X140887434Y-90399053D01*
X140887658Y-90398726D01*
X140905110Y-90342142D01*
X140905460Y-90341078D01*
X140925032Y-90285150D01*
X140925047Y-90284736D01*
X140927782Y-90268646D01*
X140927900Y-90268263D01*
X140927900Y-90209063D01*
X140927922Y-90207894D01*
X140930136Y-90148718D01*
X140930030Y-90148322D01*
X140927900Y-90132144D01*
X140927900Y-90038500D01*
X142253000Y-90038500D01*
X142253000Y-90097356D01*
X142266170Y-90163570D01*
X142266171Y-90163572D01*
X142316342Y-90238657D01*
X142391427Y-90288828D01*
X142391429Y-90288829D01*
X142457643Y-90301999D01*
X142457644Y-90302000D01*
X142546500Y-90302000D01*
X142546500Y-90038500D01*
X142253000Y-90038500D01*
X140927900Y-90038500D01*
X140927900Y-89911500D01*
X142253000Y-89911500D01*
X142546500Y-89911500D01*
X142546500Y-89648000D01*
X142457644Y-89648000D01*
X142391429Y-89661170D01*
X142391427Y-89661171D01*
X142316342Y-89711342D01*
X142266171Y-89786427D01*
X142266170Y-89786429D01*
X142253000Y-89852643D01*
X142253000Y-89911500D01*
X140927900Y-89911500D01*
X140927900Y-89107508D01*
X145547999Y-89107508D01*
X145555369Y-89144554D01*
X145555369Y-89144555D01*
X145585920Y-89190277D01*
X145595252Y-89237193D01*
X145585920Y-89259723D01*
X145555369Y-89305445D01*
X145555369Y-89305446D01*
X145548000Y-89342492D01*
X145548000Y-89411500D01*
X145911500Y-89411500D01*
X145911500Y-89038501D01*
X145548000Y-89038501D01*
X145548000Y-89107508D01*
X145547999Y-89107508D01*
X140927900Y-89107508D01*
X140927900Y-88911501D01*
X145548000Y-88911501D01*
X145911500Y-88911501D01*
X145911500Y-88728001D01*
X145662493Y-88728001D01*
X145625446Y-88735370D01*
X145625445Y-88735370D01*
X145583438Y-88763439D01*
X145555369Y-88805446D01*
X145555369Y-88805447D01*
X145548000Y-88842493D01*
X145548000Y-88911501D01*
X140927900Y-88911501D01*
X140927900Y-86769500D01*
X140946206Y-86725306D01*
X140990400Y-86707000D01*
X141186500Y-86707000D01*
X141186500Y-86004000D01*
X141204806Y-85959806D01*
X141249000Y-85941500D01*
X141251000Y-85941500D01*
X141295194Y-85959806D01*
X141313500Y-86004000D01*
X141313500Y-86707000D01*
X141562507Y-86707000D01*
X141599553Y-86699630D01*
X141599554Y-86699630D01*
X141641561Y-86671561D01*
X141669630Y-86629554D01*
X141669630Y-86629553D01*
X141677000Y-86592507D01*
X141677000Y-86302005D01*
X141695306Y-86257811D01*
X141739500Y-86239505D01*
X141783694Y-86257811D01*
X141791707Y-86268482D01*
X141791796Y-86268418D01*
X141890938Y-86404875D01*
X142017863Y-86509877D01*
X142166920Y-86580017D01*
X142306499Y-86606643D01*
X142306500Y-86606642D01*
X142306500Y-86273839D01*
X142341840Y-86283895D01*
X142433500Y-86275401D01*
X142433500Y-86604293D01*
X142493143Y-86600541D01*
X142649811Y-86549636D01*
X142788904Y-86461366D01*
X142901668Y-86341284D01*
X142901673Y-86341277D01*
X142981034Y-86196920D01*
X143021999Y-86037370D01*
X143022000Y-86037365D01*
X143022000Y-85493500D01*
X142670000Y-85493500D01*
X142670000Y-85366500D01*
X143022000Y-85366500D01*
X143022000Y-84863981D01*
X143006534Y-84741565D01*
X143006533Y-84741560D01*
X142945895Y-84588404D01*
X142849061Y-84455124D01*
X142722136Y-84350122D01*
X142573080Y-84279983D01*
X142433500Y-84253356D01*
X142433500Y-84586160D01*
X142398160Y-84576105D01*
X142306500Y-84584598D01*
X142306500Y-84255705D01*
X142306499Y-84255705D01*
X142246856Y-84259458D01*
X142090188Y-84310363D01*
X141951095Y-84398633D01*
X141838331Y-84518715D01*
X141838326Y-84518722D01*
X141758965Y-84663079D01*
X141718000Y-84822629D01*
X141718000Y-85272583D01*
X141699694Y-85316777D01*
X141655500Y-85335083D01*
X141620777Y-85324550D01*
X141599553Y-85310369D01*
X141562507Y-85303000D01*
X141506282Y-85303000D01*
X141462088Y-85284694D01*
X141443782Y-85240500D01*
X141448540Y-85216582D01*
X141462110Y-85183821D01*
X141504584Y-85081280D01*
X141524500Y-84930000D01*
X141517626Y-84877789D01*
X141504585Y-84778726D01*
X141504584Y-84778724D01*
X141504584Y-84778720D01*
X141456684Y-84663079D01*
X141446193Y-84637752D01*
X141446191Y-84637749D01*
X141353304Y-84516695D01*
X141232250Y-84423808D01*
X141232247Y-84423806D01*
X141091283Y-84365417D01*
X141091281Y-84365416D01*
X141091280Y-84365416D01*
X141091278Y-84365415D01*
X141091272Y-84365414D01*
X140977986Y-84350500D01*
X140977980Y-84350500D01*
X140902020Y-84350500D01*
X140902013Y-84350500D01*
X140788727Y-84365414D01*
X140788716Y-84365417D01*
X140647752Y-84423806D01*
X140647749Y-84423808D01*
X140526695Y-84516695D01*
X140433808Y-84637749D01*
X140433806Y-84637752D01*
X140375417Y-84778716D01*
X140375414Y-84778726D01*
X140355500Y-84929998D01*
X140355500Y-84930001D01*
X140375414Y-85081273D01*
X140375415Y-85081278D01*
X140375416Y-85081280D01*
X140384742Y-85103794D01*
X140420732Y-85190683D01*
X140420731Y-85238518D01*
X140386906Y-85272343D01*
X140362989Y-85277100D01*
X140134945Y-85277100D01*
X140134941Y-85277101D01*
X140090344Y-85285971D01*
X140090339Y-85285973D01*
X140084720Y-85289728D01*
X140037803Y-85299057D01*
X140015280Y-85289728D01*
X140009658Y-85285972D01*
X140003233Y-85284694D01*
X139965057Y-85277100D01*
X139965056Y-85277100D01*
X139634945Y-85277100D01*
X139634941Y-85277101D01*
X139590344Y-85285971D01*
X139590339Y-85285973D01*
X139584720Y-85289728D01*
X139537803Y-85299057D01*
X139515280Y-85289728D01*
X139509658Y-85285972D01*
X139503233Y-85284694D01*
X139465057Y-85277100D01*
X139465056Y-85277100D01*
X139134945Y-85277100D01*
X139134941Y-85277101D01*
X139090344Y-85285971D01*
X139090339Y-85285973D01*
X139084720Y-85289728D01*
X139037803Y-85299057D01*
X139015280Y-85289728D01*
X139009658Y-85285972D01*
X139003233Y-85284694D01*
X138965057Y-85277100D01*
X138965056Y-85277100D01*
X138634945Y-85277100D01*
X138634941Y-85277101D01*
X138590344Y-85285971D01*
X138590339Y-85285973D01*
X138584720Y-85289728D01*
X138537803Y-85299057D01*
X138515280Y-85289728D01*
X138509658Y-85285972D01*
X138503233Y-85284694D01*
X138465057Y-85277100D01*
X138465056Y-85277100D01*
X138134945Y-85277100D01*
X138134941Y-85277101D01*
X138090344Y-85285971D01*
X138090339Y-85285973D01*
X138084720Y-85289728D01*
X138037803Y-85299057D01*
X138015280Y-85289728D01*
X138009658Y-85285972D01*
X138003233Y-85284694D01*
X137965057Y-85277100D01*
X137965056Y-85277100D01*
X137634945Y-85277100D01*
X137634941Y-85277101D01*
X137590344Y-85285971D01*
X137590339Y-85285973D01*
X137584720Y-85289728D01*
X137537803Y-85299057D01*
X137515280Y-85289728D01*
X137509658Y-85285972D01*
X137503233Y-85284694D01*
X137465057Y-85277100D01*
X137465056Y-85277100D01*
X137134945Y-85277100D01*
X137134941Y-85277101D01*
X137090344Y-85285971D01*
X137090339Y-85285973D01*
X137084720Y-85289728D01*
X137037803Y-85299057D01*
X137015280Y-85289728D01*
X137009658Y-85285972D01*
X137003233Y-85284694D01*
X136965057Y-85277100D01*
X136965056Y-85277100D01*
X136634945Y-85277100D01*
X136634941Y-85277101D01*
X136590344Y-85285971D01*
X136590339Y-85285973D01*
X136584720Y-85289728D01*
X136537803Y-85299057D01*
X136515280Y-85289728D01*
X136509658Y-85285972D01*
X136503233Y-85284694D01*
X136465057Y-85277100D01*
X136465056Y-85277100D01*
X136134945Y-85277100D01*
X136134941Y-85277101D01*
X136090344Y-85285971D01*
X136090339Y-85285973D01*
X136084720Y-85289728D01*
X136037803Y-85299057D01*
X136015280Y-85289728D01*
X136009658Y-85285972D01*
X136003233Y-85284694D01*
X135965057Y-85277100D01*
X135965056Y-85277100D01*
X135737011Y-85277100D01*
X135692817Y-85258794D01*
X135674511Y-85214600D01*
X135679268Y-85190683D01*
X135701667Y-85136606D01*
X135724584Y-85081280D01*
X135744500Y-84930000D01*
X135737626Y-84877789D01*
X135724585Y-84778726D01*
X135724584Y-84778724D01*
X135724584Y-84778720D01*
X135676684Y-84663079D01*
X135666193Y-84637752D01*
X135666191Y-84637749D01*
X135573304Y-84516695D01*
X135452250Y-84423808D01*
X135452247Y-84423806D01*
X135311283Y-84365417D01*
X135311281Y-84365416D01*
X135311280Y-84365416D01*
X135311278Y-84365415D01*
X135311272Y-84365414D01*
X135197986Y-84350500D01*
X135197980Y-84350500D01*
X135122020Y-84350500D01*
X135122013Y-84350500D01*
X135008727Y-84365414D01*
X135008716Y-84365417D01*
X134867752Y-84423806D01*
X134867749Y-84423808D01*
X134746695Y-84516695D01*
X134653808Y-84637749D01*
X134653806Y-84637752D01*
X134595417Y-84778716D01*
X134595414Y-84778726D01*
X134575500Y-84929998D01*
X134575500Y-84930001D01*
X134595414Y-85081273D01*
X134595417Y-85081283D01*
X134651460Y-85216582D01*
X134651461Y-85264418D01*
X134617636Y-85298242D01*
X134593718Y-85303000D01*
X134537493Y-85303000D01*
X134500446Y-85310369D01*
X134500445Y-85310369D01*
X134479223Y-85324550D01*
X134432307Y-85333882D01*
X134392533Y-85307306D01*
X134382000Y-85272583D01*
X134382000Y-84863981D01*
X134366534Y-84741565D01*
X134366533Y-84741560D01*
X134305895Y-84588404D01*
X134209061Y-84455124D01*
X134082136Y-84350122D01*
X133933080Y-84279983D01*
X133793499Y-84253356D01*
X133793499Y-84586159D01*
X133758160Y-84576105D01*
X133666500Y-84584598D01*
X133666500Y-84255705D01*
X133666499Y-84255705D01*
X133606856Y-84259458D01*
X133450188Y-84310363D01*
X133311095Y-84398633D01*
X133198331Y-84518715D01*
X133198326Y-84518722D01*
X133118965Y-84663079D01*
X133078000Y-84822629D01*
X133078000Y-85366500D01*
X133430000Y-85366500D01*
X133430000Y-85493500D01*
X133078000Y-85493500D01*
X133078000Y-85996018D01*
X133093465Y-86118434D01*
X133093466Y-86118439D01*
X133154104Y-86271595D01*
X133250938Y-86404875D01*
X133377863Y-86509877D01*
X133526920Y-86580017D01*
X133666499Y-86606643D01*
X133666500Y-86606643D01*
X133666500Y-86273839D01*
X133701840Y-86283895D01*
X133793499Y-86275401D01*
X133793499Y-86604293D01*
X133853143Y-86600541D01*
X134009811Y-86549636D01*
X134148904Y-86461366D01*
X134261668Y-86341284D01*
X134261675Y-86341274D01*
X134305731Y-86261137D01*
X134343063Y-86231228D01*
X134390609Y-86236477D01*
X134420518Y-86273809D01*
X134423000Y-86291246D01*
X134423000Y-86592507D01*
X134422999Y-86592507D01*
X134430369Y-86629553D01*
X134430369Y-86629554D01*
X134458438Y-86671561D01*
X134500446Y-86699630D01*
X134537493Y-86707000D01*
X134786500Y-86707000D01*
X134786500Y-86004000D01*
X134804806Y-85959806D01*
X134849000Y-85941500D01*
X134851000Y-85941500D01*
X134895194Y-85959806D01*
X134913500Y-86004000D01*
X134913500Y-86707000D01*
X135134600Y-86707000D01*
X135178794Y-86725306D01*
X135197100Y-86769500D01*
X135197100Y-88751085D01*
X135178794Y-88795279D01*
X135134600Y-88813585D01*
X133559699Y-88813585D01*
X133515505Y-88795279D01*
X133497199Y-88751085D01*
X133497199Y-88605677D01*
X133497199Y-88429644D01*
X133488328Y-88385042D01*
X133454534Y-88334466D01*
X133412384Y-88306302D01*
X133403957Y-88300671D01*
X133368227Y-88293564D01*
X133359357Y-88291800D01*
X133359356Y-88291800D01*
X131146200Y-88291800D01*
X131102006Y-88273494D01*
X131083700Y-88229300D01*
X131083700Y-87644600D01*
X129305700Y-87644600D01*
X129305699Y-88255200D01*
X129287393Y-88299394D01*
X129243199Y-88317700D01*
X128213500Y-88317700D01*
X128213500Y-90832300D01*
X128086500Y-90832300D01*
X128086500Y-88317700D01*
X127032593Y-88317700D01*
X126995546Y-88325069D01*
X126995540Y-88325071D01*
X126990478Y-88328454D01*
X126943561Y-88337783D01*
X126903790Y-88311204D01*
X126893259Y-88276357D01*
X126904846Y-82708612D01*
X126923244Y-82664459D01*
X126967476Y-82646245D01*
X127011632Y-82664643D01*
X127028601Y-82696333D01*
X127044897Y-82776754D01*
X127152705Y-83108554D01*
X127297631Y-83425896D01*
X127477786Y-83724649D01*
X127586649Y-83865825D01*
X127690820Y-84000916D01*
X127933959Y-84251100D01*
X127933964Y-84251104D01*
X127933968Y-84251108D01*
X128055520Y-84350500D01*
X128204032Y-84471938D01*
X128204034Y-84471939D01*
X128204033Y-84471939D01*
X128366119Y-84576105D01*
X128497518Y-84660550D01*
X128497526Y-84660554D01*
X128497533Y-84660558D01*
X128810583Y-84814474D01*
X128810586Y-84814475D01*
X128810592Y-84814478D01*
X129139171Y-84931714D01*
X129478972Y-85010732D01*
X129825566Y-85050500D01*
X129825570Y-85050500D01*
X130087146Y-85050500D01*
X130113260Y-85049006D01*
X130348299Y-85035567D01*
X130692057Y-84976077D01*
X131026793Y-84877789D01*
X131348144Y-84741986D01*
X131651919Y-84570436D01*
X131934159Y-84365377D01*
X132191184Y-84129481D01*
X132419644Y-83865824D01*
X132616560Y-83577844D01*
X132779365Y-83269294D01*
X132905937Y-82944196D01*
X132939883Y-82815054D01*
X150247100Y-82815054D01*
X150247101Y-82815058D01*
X150255971Y-82859656D01*
X150255972Y-82859658D01*
X150289766Y-82910234D01*
X150340342Y-82944028D01*
X150384943Y-82952900D01*
X152015056Y-82952899D01*
X152059658Y-82944028D01*
X152110234Y-82910234D01*
X152144028Y-82859658D01*
X152152900Y-82815057D01*
X152152899Y-79784944D01*
X152144028Y-79740342D01*
X152110234Y-79689766D01*
X152076439Y-79667184D01*
X152059657Y-79655971D01*
X152023928Y-79648864D01*
X152015057Y-79647100D01*
X152015056Y-79647100D01*
X150384945Y-79647100D01*
X150384941Y-79647101D01*
X150340343Y-79655971D01*
X150340342Y-79655972D01*
X150289766Y-79689766D01*
X150255971Y-79740342D01*
X150247100Y-79784943D01*
X150247100Y-82815054D01*
X132939883Y-82815054D01*
X132994626Y-82606790D01*
X133044275Y-82261473D01*
X133049987Y-82061497D01*
X133069548Y-82017846D01*
X133114247Y-82000809D01*
X133157900Y-82020370D01*
X133170573Y-82040277D01*
X133176186Y-82054454D01*
X133176186Y-82054455D01*
X133269307Y-82182625D01*
X133391363Y-82283598D01*
X133391364Y-82283599D01*
X133534707Y-82351052D01*
X133666499Y-82376192D01*
X133666500Y-82376192D01*
X133666499Y-81943839D01*
X133701840Y-81953895D01*
X133793500Y-81945401D01*
X133793500Y-82374243D01*
X133848421Y-82370788D01*
X133999082Y-82321835D01*
X134132841Y-82236950D01*
X134241282Y-82121472D01*
X134241289Y-82121462D01*
X134317604Y-81982645D01*
X134356999Y-81829211D01*
X134357000Y-81829206D01*
X134357000Y-81789443D01*
X141743000Y-81789443D01*
X141757872Y-81907170D01*
X141816186Y-82054455D01*
X141909307Y-82182625D01*
X142031363Y-82283598D01*
X142031364Y-82283599D01*
X142174707Y-82351052D01*
X142306499Y-82376192D01*
X142306500Y-82376192D01*
X142306500Y-81943839D01*
X142341840Y-81953895D01*
X142433500Y-81945401D01*
X142433500Y-82374243D01*
X142488421Y-82370788D01*
X142639082Y-82321835D01*
X142772841Y-82236950D01*
X142881282Y-82121472D01*
X142881289Y-82121462D01*
X142957604Y-81982645D01*
X142996999Y-81829211D01*
X142997000Y-81829206D01*
X142997000Y-81313500D01*
X142670000Y-81313500D01*
X142670000Y-81186500D01*
X142997000Y-81186500D01*
X142997000Y-80710556D01*
X142982127Y-80592829D01*
X142923813Y-80445544D01*
X142830692Y-80317374D01*
X142708636Y-80216401D01*
X142708635Y-80216400D01*
X142565292Y-80148947D01*
X142433500Y-80123806D01*
X142433500Y-80556160D01*
X142398160Y-80546105D01*
X142306500Y-80554598D01*
X142306500Y-80125755D01*
X142306499Y-80125755D01*
X142251578Y-80129211D01*
X142100917Y-80178164D01*
X141967158Y-80263049D01*
X141858717Y-80378527D01*
X141858710Y-80378537D01*
X141782395Y-80517354D01*
X141743000Y-80670788D01*
X141743000Y-81186500D01*
X142070000Y-81186500D01*
X142070000Y-81313500D01*
X141743000Y-81313500D01*
X141743000Y-81789443D01*
X134357000Y-81789443D01*
X134357000Y-81313500D01*
X134030000Y-81313500D01*
X134030000Y-81186500D01*
X134357000Y-81186500D01*
X134357000Y-80710556D01*
X134342127Y-80592829D01*
X134283813Y-80445544D01*
X134190692Y-80317374D01*
X134068636Y-80216401D01*
X134068635Y-80216400D01*
X133925292Y-80148947D01*
X133793500Y-80123806D01*
X133793500Y-80556160D01*
X133758160Y-80546105D01*
X133666499Y-80554598D01*
X133666500Y-80125755D01*
X133666499Y-80125755D01*
X133611578Y-80129211D01*
X133460917Y-80178164D01*
X133327158Y-80263049D01*
X133218717Y-80378527D01*
X133218710Y-80378537D01*
X133142395Y-80517354D01*
X133103000Y-80670788D01*
X133103000Y-80670793D01*
X133102999Y-81186499D01*
X133103000Y-81186500D01*
X133430000Y-81186500D01*
X133430000Y-81313500D01*
X133103000Y-81313500D01*
X133103000Y-81329980D01*
X133084694Y-81374174D01*
X133040500Y-81392480D01*
X132996306Y-81374174D01*
X132979245Y-81342392D01*
X132955102Y-81223245D01*
X132955101Y-81223240D01*
X132847295Y-80891447D01*
X132702370Y-80574106D01*
X132522215Y-80275353D01*
X132512727Y-80263049D01*
X132309187Y-79999093D01*
X132309182Y-79999087D01*
X132309180Y-79999084D01*
X132066041Y-79748900D01*
X132066034Y-79748895D01*
X132066031Y-79748891D01*
X131891853Y-79606467D01*
X131795968Y-79528062D01*
X131795965Y-79528060D01*
X131795966Y-79528060D01*
X131502490Y-79339455D01*
X131502487Y-79339453D01*
X131502482Y-79339450D01*
X131502478Y-79339448D01*
X131502466Y-79339441D01*
X131189416Y-79185525D01*
X131189402Y-79185520D01*
X130860832Y-79068287D01*
X130860834Y-79068287D01*
X130670059Y-79023924D01*
X130521028Y-78989268D01*
X130448675Y-78980966D01*
X130406858Y-78957742D01*
X130393709Y-78911749D01*
X130416934Y-78869930D01*
X130455802Y-78856374D01*
X162548441Y-78856374D01*
X162592635Y-78874680D01*
G37*
%TD.AperFunction*%
%TD*%
M02*
