%TF.GenerationSoftware,KiCad,Pcbnew,7.0.5*%
%TF.CreationDate,2023-07-07T08:41:41+03:00*%
%TF.ProjectId,carrier_board_v1,63617272-6965-4725-9f62-6f6172645f76,v01*%
%TF.SameCoordinates,Original*%
%TF.FileFunction,Legend,Bot*%
%TF.FilePolarity,Positive*%
%FSLAX46Y46*%
G04 Gerber Fmt 4.6, Leading zero omitted, Abs format (unit mm)*
G04 Created by KiCad (PCBNEW 7.0.5) date 2023-07-07 08:41:41*
%MOMM*%
%LPD*%
G01*
G04 APERTURE LIST*
G04 Aperture macros list*
%AMRoundRect*
0 Rectangle with rounded corners*
0 $1 Rounding radius*
0 $2 $3 $4 $5 $6 $7 $8 $9 X,Y pos of 4 corners*
0 Add a 4 corners polygon primitive as box body*
4,1,4,$2,$3,$4,$5,$6,$7,$8,$9,$2,$3,0*
0 Add four circle primitives for the rounded corners*
1,1,$1+$1,$2,$3*
1,1,$1+$1,$4,$5*
1,1,$1+$1,$6,$7*
1,1,$1+$1,$8,$9*
0 Add four rect primitives between the rounded corners*
20,1,$1+$1,$2,$3,$4,$5,0*
20,1,$1+$1,$4,$5,$6,$7,0*
20,1,$1+$1,$6,$7,$8,$9,0*
20,1,$1+$1,$8,$9,$2,$3,0*%
%AMOutline4P*
0 Free polygon, 4 corners , with rotation*
0 The origin of the aperture is its center*
0 number of corners: always 4*
0 $1 to $8 corner X, Y*
0 $9 Rotation angle, in degrees counterclockwise*
0 create outline with 4 corners*
4,1,4,$1,$2,$3,$4,$5,$6,$7,$8,$1,$2,$9*%
%AMFreePoly0*
4,1,17,1.395000,0.765000,0.855000,0.765000,0.855000,0.535000,1.395000,0.535000,1.395000,0.115000,0.855000,0.115000,0.855000,-0.115000,1.395000,-0.115000,1.395000,-0.535000,0.855000,-0.535000,0.855000,-0.765000,1.395000,-0.765000,1.395000,-1.185000,-0.855000,-1.185000,-0.855000,1.185000,1.395000,1.185000,1.395000,0.765000,1.395000,0.765000,$1*%
G04 Aperture macros list end*
%ADD10C,0.150000*%
%ADD11C,0.120000*%
%ADD12C,0.200000*%
%ADD13C,0.152400*%
%ADD14C,0.127000*%
%ADD15C,0.300000*%
%ADD16R,1.700000X1.700000*%
%ADD17O,1.700000X1.700000*%
%ADD18C,6.100000*%
%ADD19RoundRect,0.100000X0.100000X-0.130000X0.100000X0.130000X-0.100000X0.130000X-0.100000X-0.130000X0*%
%ADD20RoundRect,0.150000X-0.587500X-0.150000X0.587500X-0.150000X0.587500X0.150000X-0.587500X0.150000X0*%
%ADD21C,0.499999*%
%ADD22R,1.679999X1.679999*%
%ADD23R,0.240000X0.599999*%
%ADD24R,0.599999X0.240000*%
%ADD25C,1.168400*%
%ADD26RoundRect,0.100000X-0.130000X-0.100000X0.130000X-0.100000X0.130000X0.100000X-0.130000X0.100000X0*%
%ADD27RoundRect,0.100000X0.130000X0.100000X-0.130000X0.100000X-0.130000X-0.100000X0.130000X-0.100000X0*%
%ADD28C,0.650000*%
%ADD29R,0.600000X1.150000*%
%ADD30R,0.300000X1.150000*%
%ADD31O,1.050000X2.100000*%
%ADD32O,1.000000X2.000000*%
%ADD33R,0.300000X0.300000*%
%ADD34R,2.209800X2.260600*%
%ADD35Outline4P,-0.800000X-1.500000X0.800000X-1.500000X0.800000X1.500000X-0.800000X1.500000X180.000000*%
%ADD36Outline4P,-0.500000X-2.750000X0.500000X-2.750000X0.500000X2.750000X-0.500000X2.750000X180.000000*%
%ADD37R,1.000000X0.300000*%
%ADD38R,1.300000X1.650000*%
%ADD39RoundRect,0.100000X-0.100000X0.130000X-0.100000X-0.130000X0.100000X-0.130000X0.100000X0.130000X0*%
%ADD40RoundRect,0.250000X0.650000X-1.000000X0.650000X1.000000X-0.650000X1.000000X-0.650000X-1.000000X0*%
%ADD41R,0.700000X0.420000*%
%ADD42FreePoly0,0.000000*%
G04 APERTURE END LIST*
D10*
X149538094Y-119729819D02*
X149538094Y-118729819D01*
X149538094Y-118729819D02*
X149157142Y-118729819D01*
X149157142Y-118729819D02*
X149061904Y-118777438D01*
X149061904Y-118777438D02*
X149014285Y-118825057D01*
X149014285Y-118825057D02*
X148966666Y-118920295D01*
X148966666Y-118920295D02*
X148966666Y-119063152D01*
X148966666Y-119063152D02*
X149014285Y-119158390D01*
X149014285Y-119158390D02*
X149061904Y-119206009D01*
X149061904Y-119206009D02*
X149157142Y-119253628D01*
X149157142Y-119253628D02*
X149538094Y-119253628D01*
X148490475Y-119729819D02*
X148299999Y-119729819D01*
X148299999Y-119729819D02*
X148204761Y-119682200D01*
X148204761Y-119682200D02*
X148157142Y-119634580D01*
X148157142Y-119634580D02*
X148061904Y-119491723D01*
X148061904Y-119491723D02*
X148014285Y-119301247D01*
X148014285Y-119301247D02*
X148014285Y-118920295D01*
X148014285Y-118920295D02*
X148061904Y-118825057D01*
X148061904Y-118825057D02*
X148109523Y-118777438D01*
X148109523Y-118777438D02*
X148204761Y-118729819D01*
X148204761Y-118729819D02*
X148395237Y-118729819D01*
X148395237Y-118729819D02*
X148490475Y-118777438D01*
X148490475Y-118777438D02*
X148538094Y-118825057D01*
X148538094Y-118825057D02*
X148585713Y-118920295D01*
X148585713Y-118920295D02*
X148585713Y-119158390D01*
X148585713Y-119158390D02*
X148538094Y-119253628D01*
X148538094Y-119253628D02*
X148490475Y-119301247D01*
X148490475Y-119301247D02*
X148395237Y-119348866D01*
X148395237Y-119348866D02*
X148204761Y-119348866D01*
X148204761Y-119348866D02*
X148109523Y-119301247D01*
X148109523Y-119301247D02*
X148061904Y-119253628D01*
X148061904Y-119253628D02*
X148014285Y-119158390D01*
X164763094Y-119729819D02*
X164763094Y-118729819D01*
X164763094Y-118729819D02*
X164382142Y-118729819D01*
X164382142Y-118729819D02*
X164286904Y-118777438D01*
X164286904Y-118777438D02*
X164239285Y-118825057D01*
X164239285Y-118825057D02*
X164191666Y-118920295D01*
X164191666Y-118920295D02*
X164191666Y-119063152D01*
X164191666Y-119063152D02*
X164239285Y-119158390D01*
X164239285Y-119158390D02*
X164286904Y-119206009D01*
X164286904Y-119206009D02*
X164382142Y-119253628D01*
X164382142Y-119253628D02*
X164763094Y-119253628D01*
X163858332Y-118729819D02*
X163239285Y-118729819D01*
X163239285Y-118729819D02*
X163572618Y-119110771D01*
X163572618Y-119110771D02*
X163429761Y-119110771D01*
X163429761Y-119110771D02*
X163334523Y-119158390D01*
X163334523Y-119158390D02*
X163286904Y-119206009D01*
X163286904Y-119206009D02*
X163239285Y-119301247D01*
X163239285Y-119301247D02*
X163239285Y-119539342D01*
X163239285Y-119539342D02*
X163286904Y-119634580D01*
X163286904Y-119634580D02*
X163334523Y-119682200D01*
X163334523Y-119682200D02*
X163429761Y-119729819D01*
X163429761Y-119729819D02*
X163715475Y-119729819D01*
X163715475Y-119729819D02*
X163810713Y-119682200D01*
X163810713Y-119682200D02*
X163858332Y-119634580D01*
X139236904Y-114702438D02*
X139332142Y-114654819D01*
X139332142Y-114654819D02*
X139474999Y-114654819D01*
X139474999Y-114654819D02*
X139617856Y-114702438D01*
X139617856Y-114702438D02*
X139713094Y-114797676D01*
X139713094Y-114797676D02*
X139760713Y-114892914D01*
X139760713Y-114892914D02*
X139808332Y-115083390D01*
X139808332Y-115083390D02*
X139808332Y-115226247D01*
X139808332Y-115226247D02*
X139760713Y-115416723D01*
X139760713Y-115416723D02*
X139713094Y-115511961D01*
X139713094Y-115511961D02*
X139617856Y-115607200D01*
X139617856Y-115607200D02*
X139474999Y-115654819D01*
X139474999Y-115654819D02*
X139379761Y-115654819D01*
X139379761Y-115654819D02*
X139236904Y-115607200D01*
X139236904Y-115607200D02*
X139189285Y-115559580D01*
X139189285Y-115559580D02*
X139189285Y-115226247D01*
X139189285Y-115226247D02*
X139379761Y-115226247D01*
X138760713Y-115654819D02*
X138760713Y-114654819D01*
X138760713Y-114654819D02*
X138189285Y-115654819D01*
X138189285Y-115654819D02*
X138189285Y-114654819D01*
X137713094Y-115654819D02*
X137713094Y-114654819D01*
X137713094Y-114654819D02*
X137474999Y-114654819D01*
X137474999Y-114654819D02*
X137332142Y-114702438D01*
X137332142Y-114702438D02*
X137236904Y-114797676D01*
X137236904Y-114797676D02*
X137189285Y-114892914D01*
X137189285Y-114892914D02*
X137141666Y-115083390D01*
X137141666Y-115083390D02*
X137141666Y-115226247D01*
X137141666Y-115226247D02*
X137189285Y-115416723D01*
X137189285Y-115416723D02*
X137236904Y-115511961D01*
X137236904Y-115511961D02*
X137332142Y-115607200D01*
X137332142Y-115607200D02*
X137474999Y-115654819D01*
X137474999Y-115654819D02*
X137713094Y-115654819D01*
X157163094Y-119724819D02*
X157163094Y-118724819D01*
X157163094Y-118724819D02*
X156782142Y-118724819D01*
X156782142Y-118724819D02*
X156686904Y-118772438D01*
X156686904Y-118772438D02*
X156639285Y-118820057D01*
X156639285Y-118820057D02*
X156591666Y-118915295D01*
X156591666Y-118915295D02*
X156591666Y-119058152D01*
X156591666Y-119058152D02*
X156639285Y-119153390D01*
X156639285Y-119153390D02*
X156686904Y-119201009D01*
X156686904Y-119201009D02*
X156782142Y-119248628D01*
X156782142Y-119248628D02*
X157163094Y-119248628D01*
X156258332Y-118724819D02*
X155591666Y-118724819D01*
X155591666Y-118724819D02*
X156020237Y-119724819D01*
X142589285Y-115679819D02*
X142589285Y-114679819D01*
X142589285Y-114679819D02*
X142208333Y-114679819D01*
X142208333Y-114679819D02*
X142113095Y-114727438D01*
X142113095Y-114727438D02*
X142065476Y-114775057D01*
X142065476Y-114775057D02*
X142017857Y-114870295D01*
X142017857Y-114870295D02*
X142017857Y-115013152D01*
X142017857Y-115013152D02*
X142065476Y-115108390D01*
X142065476Y-115108390D02*
X142113095Y-115156009D01*
X142113095Y-115156009D02*
X142208333Y-115203628D01*
X142208333Y-115203628D02*
X142589285Y-115203628D01*
X141065476Y-115679819D02*
X141636904Y-115679819D01*
X141351190Y-115679819D02*
X141351190Y-114679819D01*
X141351190Y-114679819D02*
X141446428Y-114822676D01*
X141446428Y-114822676D02*
X141541666Y-114917914D01*
X141541666Y-114917914D02*
X141636904Y-114965533D01*
X140208333Y-115013152D02*
X140208333Y-115679819D01*
X140446428Y-114632200D02*
X140684523Y-115346485D01*
X140684523Y-115346485D02*
X140065476Y-115346485D01*
X147214285Y-119754819D02*
X147214285Y-118754819D01*
X147214285Y-118754819D02*
X146833333Y-118754819D01*
X146833333Y-118754819D02*
X146738095Y-118802438D01*
X146738095Y-118802438D02*
X146690476Y-118850057D01*
X146690476Y-118850057D02*
X146642857Y-118945295D01*
X146642857Y-118945295D02*
X146642857Y-119088152D01*
X146642857Y-119088152D02*
X146690476Y-119183390D01*
X146690476Y-119183390D02*
X146738095Y-119231009D01*
X146738095Y-119231009D02*
X146833333Y-119278628D01*
X146833333Y-119278628D02*
X147214285Y-119278628D01*
X145690476Y-119754819D02*
X146261904Y-119754819D01*
X145976190Y-119754819D02*
X145976190Y-118754819D01*
X145976190Y-118754819D02*
X146071428Y-118897676D01*
X146071428Y-118897676D02*
X146166666Y-118992914D01*
X146166666Y-118992914D02*
X146261904Y-119040533D01*
X145071428Y-118754819D02*
X144976190Y-118754819D01*
X144976190Y-118754819D02*
X144880952Y-118802438D01*
X144880952Y-118802438D02*
X144833333Y-118850057D01*
X144833333Y-118850057D02*
X144785714Y-118945295D01*
X144785714Y-118945295D02*
X144738095Y-119135771D01*
X144738095Y-119135771D02*
X144738095Y-119373866D01*
X144738095Y-119373866D02*
X144785714Y-119564342D01*
X144785714Y-119564342D02*
X144833333Y-119659580D01*
X144833333Y-119659580D02*
X144880952Y-119707200D01*
X144880952Y-119707200D02*
X144976190Y-119754819D01*
X144976190Y-119754819D02*
X145071428Y-119754819D01*
X145071428Y-119754819D02*
X145166666Y-119707200D01*
X145166666Y-119707200D02*
X145214285Y-119659580D01*
X145214285Y-119659580D02*
X145261904Y-119564342D01*
X145261904Y-119564342D02*
X145309523Y-119373866D01*
X145309523Y-119373866D02*
X145309523Y-119135771D01*
X145309523Y-119135771D02*
X145261904Y-118945295D01*
X145261904Y-118945295D02*
X145214285Y-118850057D01*
X145214285Y-118850057D02*
X145166666Y-118802438D01*
X145166666Y-118802438D02*
X145071428Y-118754819D01*
X145514285Y-115679819D02*
X145514285Y-114679819D01*
X145514285Y-114679819D02*
X145133333Y-114679819D01*
X145133333Y-114679819D02*
X145038095Y-114727438D01*
X145038095Y-114727438D02*
X144990476Y-114775057D01*
X144990476Y-114775057D02*
X144942857Y-114870295D01*
X144942857Y-114870295D02*
X144942857Y-115013152D01*
X144942857Y-115013152D02*
X144990476Y-115108390D01*
X144990476Y-115108390D02*
X145038095Y-115156009D01*
X145038095Y-115156009D02*
X145133333Y-115203628D01*
X145133333Y-115203628D02*
X145514285Y-115203628D01*
X143990476Y-115679819D02*
X144561904Y-115679819D01*
X144276190Y-115679819D02*
X144276190Y-114679819D01*
X144276190Y-114679819D02*
X144371428Y-114822676D01*
X144371428Y-114822676D02*
X144466666Y-114917914D01*
X144466666Y-114917914D02*
X144561904Y-114965533D01*
X143085714Y-114679819D02*
X143561904Y-114679819D01*
X143561904Y-114679819D02*
X143609523Y-115156009D01*
X143609523Y-115156009D02*
X143561904Y-115108390D01*
X143561904Y-115108390D02*
X143466666Y-115060771D01*
X143466666Y-115060771D02*
X143228571Y-115060771D01*
X143228571Y-115060771D02*
X143133333Y-115108390D01*
X143133333Y-115108390D02*
X143085714Y-115156009D01*
X143085714Y-115156009D02*
X143038095Y-115251247D01*
X143038095Y-115251247D02*
X143038095Y-115489342D01*
X143038095Y-115489342D02*
X143085714Y-115584580D01*
X143085714Y-115584580D02*
X143133333Y-115632200D01*
X143133333Y-115632200D02*
X143228571Y-115679819D01*
X143228571Y-115679819D02*
X143466666Y-115679819D01*
X143466666Y-115679819D02*
X143561904Y-115632200D01*
X143561904Y-115632200D02*
X143609523Y-115584580D01*
X154613094Y-119729819D02*
X154613094Y-118729819D01*
X154613094Y-118729819D02*
X154232142Y-118729819D01*
X154232142Y-118729819D02*
X154136904Y-118777438D01*
X154136904Y-118777438D02*
X154089285Y-118825057D01*
X154089285Y-118825057D02*
X154041666Y-118920295D01*
X154041666Y-118920295D02*
X154041666Y-119063152D01*
X154041666Y-119063152D02*
X154089285Y-119158390D01*
X154089285Y-119158390D02*
X154136904Y-119206009D01*
X154136904Y-119206009D02*
X154232142Y-119253628D01*
X154232142Y-119253628D02*
X154613094Y-119253628D01*
X153470237Y-119158390D02*
X153565475Y-119110771D01*
X153565475Y-119110771D02*
X153613094Y-119063152D01*
X153613094Y-119063152D02*
X153660713Y-118967914D01*
X153660713Y-118967914D02*
X153660713Y-118920295D01*
X153660713Y-118920295D02*
X153613094Y-118825057D01*
X153613094Y-118825057D02*
X153565475Y-118777438D01*
X153565475Y-118777438D02*
X153470237Y-118729819D01*
X153470237Y-118729819D02*
X153279761Y-118729819D01*
X153279761Y-118729819D02*
X153184523Y-118777438D01*
X153184523Y-118777438D02*
X153136904Y-118825057D01*
X153136904Y-118825057D02*
X153089285Y-118920295D01*
X153089285Y-118920295D02*
X153089285Y-118967914D01*
X153089285Y-118967914D02*
X153136904Y-119063152D01*
X153136904Y-119063152D02*
X153184523Y-119110771D01*
X153184523Y-119110771D02*
X153279761Y-119158390D01*
X153279761Y-119158390D02*
X153470237Y-119158390D01*
X153470237Y-119158390D02*
X153565475Y-119206009D01*
X153565475Y-119206009D02*
X153613094Y-119253628D01*
X153613094Y-119253628D02*
X153660713Y-119348866D01*
X153660713Y-119348866D02*
X153660713Y-119539342D01*
X153660713Y-119539342D02*
X153613094Y-119634580D01*
X153613094Y-119634580D02*
X153565475Y-119682200D01*
X153565475Y-119682200D02*
X153470237Y-119729819D01*
X153470237Y-119729819D02*
X153279761Y-119729819D01*
X153279761Y-119729819D02*
X153184523Y-119682200D01*
X153184523Y-119682200D02*
X153136904Y-119634580D01*
X153136904Y-119634580D02*
X153089285Y-119539342D01*
X153089285Y-119539342D02*
X153089285Y-119348866D01*
X153089285Y-119348866D02*
X153136904Y-119253628D01*
X153136904Y-119253628D02*
X153184523Y-119206009D01*
X153184523Y-119206009D02*
X153279761Y-119158390D01*
X137390475Y-118479819D02*
X136771428Y-118479819D01*
X136771428Y-118479819D02*
X137104761Y-118860771D01*
X137104761Y-118860771D02*
X136961904Y-118860771D01*
X136961904Y-118860771D02*
X136866666Y-118908390D01*
X136866666Y-118908390D02*
X136819047Y-118956009D01*
X136819047Y-118956009D02*
X136771428Y-119051247D01*
X136771428Y-119051247D02*
X136771428Y-119289342D01*
X136771428Y-119289342D02*
X136819047Y-119384580D01*
X136819047Y-119384580D02*
X136866666Y-119432200D01*
X136866666Y-119432200D02*
X136961904Y-119479819D01*
X136961904Y-119479819D02*
X137247618Y-119479819D01*
X137247618Y-119479819D02*
X137342856Y-119432200D01*
X137342856Y-119432200D02*
X137390475Y-119384580D01*
X136438094Y-118813152D02*
X136199999Y-119479819D01*
X136199999Y-119479819D02*
X135961904Y-118813152D01*
X135676189Y-118479819D02*
X135057142Y-118479819D01*
X135057142Y-118479819D02*
X135390475Y-118860771D01*
X135390475Y-118860771D02*
X135247618Y-118860771D01*
X135247618Y-118860771D02*
X135152380Y-118908390D01*
X135152380Y-118908390D02*
X135104761Y-118956009D01*
X135104761Y-118956009D02*
X135057142Y-119051247D01*
X135057142Y-119051247D02*
X135057142Y-119289342D01*
X135057142Y-119289342D02*
X135104761Y-119384580D01*
X135104761Y-119384580D02*
X135152380Y-119432200D01*
X135152380Y-119432200D02*
X135247618Y-119479819D01*
X135247618Y-119479819D02*
X135533332Y-119479819D01*
X135533332Y-119479819D02*
X135628570Y-119432200D01*
X135628570Y-119432200D02*
X135676189Y-119384580D01*
X152539285Y-119729819D02*
X152539285Y-118729819D01*
X152539285Y-118729819D02*
X152158333Y-118729819D01*
X152158333Y-118729819D02*
X152063095Y-118777438D01*
X152063095Y-118777438D02*
X152015476Y-118825057D01*
X152015476Y-118825057D02*
X151967857Y-118920295D01*
X151967857Y-118920295D02*
X151967857Y-119063152D01*
X151967857Y-119063152D02*
X152015476Y-119158390D01*
X152015476Y-119158390D02*
X152063095Y-119206009D01*
X152063095Y-119206009D02*
X152158333Y-119253628D01*
X152158333Y-119253628D02*
X152539285Y-119253628D01*
X151015476Y-119729819D02*
X151586904Y-119729819D01*
X151301190Y-119729819D02*
X151301190Y-118729819D01*
X151301190Y-118729819D02*
X151396428Y-118872676D01*
X151396428Y-118872676D02*
X151491666Y-118967914D01*
X151491666Y-118967914D02*
X151586904Y-119015533D01*
X150063095Y-119729819D02*
X150634523Y-119729819D01*
X150348809Y-119729819D02*
X150348809Y-118729819D01*
X150348809Y-118729819D02*
X150444047Y-118872676D01*
X150444047Y-118872676D02*
X150539285Y-118967914D01*
X150539285Y-118967914D02*
X150634523Y-119015533D01*
X158853571Y-119231009D02*
X158710714Y-119278628D01*
X158710714Y-119278628D02*
X158663095Y-119326247D01*
X158663095Y-119326247D02*
X158615476Y-119421485D01*
X158615476Y-119421485D02*
X158615476Y-119564342D01*
X158615476Y-119564342D02*
X158663095Y-119659580D01*
X158663095Y-119659580D02*
X158710714Y-119707200D01*
X158710714Y-119707200D02*
X158805952Y-119754819D01*
X158805952Y-119754819D02*
X159186904Y-119754819D01*
X159186904Y-119754819D02*
X159186904Y-118754819D01*
X159186904Y-118754819D02*
X158853571Y-118754819D01*
X158853571Y-118754819D02*
X158758333Y-118802438D01*
X158758333Y-118802438D02*
X158710714Y-118850057D01*
X158710714Y-118850057D02*
X158663095Y-118945295D01*
X158663095Y-118945295D02*
X158663095Y-119040533D01*
X158663095Y-119040533D02*
X158710714Y-119135771D01*
X158710714Y-119135771D02*
X158758333Y-119183390D01*
X158758333Y-119183390D02*
X158853571Y-119231009D01*
X158853571Y-119231009D02*
X159186904Y-119231009D01*
X162188094Y-119724819D02*
X162188094Y-118724819D01*
X162188094Y-118724819D02*
X161807142Y-118724819D01*
X161807142Y-118724819D02*
X161711904Y-118772438D01*
X161711904Y-118772438D02*
X161664285Y-118820057D01*
X161664285Y-118820057D02*
X161616666Y-118915295D01*
X161616666Y-118915295D02*
X161616666Y-119058152D01*
X161616666Y-119058152D02*
X161664285Y-119153390D01*
X161664285Y-119153390D02*
X161711904Y-119201009D01*
X161711904Y-119201009D02*
X161807142Y-119248628D01*
X161807142Y-119248628D02*
X162188094Y-119248628D01*
X161235713Y-118820057D02*
X161188094Y-118772438D01*
X161188094Y-118772438D02*
X161092856Y-118724819D01*
X161092856Y-118724819D02*
X160854761Y-118724819D01*
X160854761Y-118724819D02*
X160759523Y-118772438D01*
X160759523Y-118772438D02*
X160711904Y-118820057D01*
X160711904Y-118820057D02*
X160664285Y-118915295D01*
X160664285Y-118915295D02*
X160664285Y-119010533D01*
X160664285Y-119010533D02*
X160711904Y-119153390D01*
X160711904Y-119153390D02*
X161283332Y-119724819D01*
X161283332Y-119724819D02*
X160664285Y-119724819D01*
%TO.C,L1*%
X147634819Y-106413333D02*
X147634819Y-105937143D01*
X147634819Y-105937143D02*
X146634819Y-105937143D01*
X147634819Y-107270476D02*
X147634819Y-106699048D01*
X147634819Y-106984762D02*
X146634819Y-106984762D01*
X146634819Y-106984762D02*
X146777676Y-106889524D01*
X146777676Y-106889524D02*
X146872914Y-106794286D01*
X146872914Y-106794286D02*
X146920533Y-106699048D01*
%TO.C,R6*%
X134616666Y-88229819D02*
X134949999Y-87753628D01*
X135188094Y-88229819D02*
X135188094Y-87229819D01*
X135188094Y-87229819D02*
X134807142Y-87229819D01*
X134807142Y-87229819D02*
X134711904Y-87277438D01*
X134711904Y-87277438D02*
X134664285Y-87325057D01*
X134664285Y-87325057D02*
X134616666Y-87420295D01*
X134616666Y-87420295D02*
X134616666Y-87563152D01*
X134616666Y-87563152D02*
X134664285Y-87658390D01*
X134664285Y-87658390D02*
X134711904Y-87706009D01*
X134711904Y-87706009D02*
X134807142Y-87753628D01*
X134807142Y-87753628D02*
X135188094Y-87753628D01*
X133759523Y-87229819D02*
X133949999Y-87229819D01*
X133949999Y-87229819D02*
X134045237Y-87277438D01*
X134045237Y-87277438D02*
X134092856Y-87325057D01*
X134092856Y-87325057D02*
X134188094Y-87467914D01*
X134188094Y-87467914D02*
X134235713Y-87658390D01*
X134235713Y-87658390D02*
X134235713Y-88039342D01*
X134235713Y-88039342D02*
X134188094Y-88134580D01*
X134188094Y-88134580D02*
X134140475Y-88182200D01*
X134140475Y-88182200D02*
X134045237Y-88229819D01*
X134045237Y-88229819D02*
X133854761Y-88229819D01*
X133854761Y-88229819D02*
X133759523Y-88182200D01*
X133759523Y-88182200D02*
X133711904Y-88134580D01*
X133711904Y-88134580D02*
X133664285Y-88039342D01*
X133664285Y-88039342D02*
X133664285Y-87801247D01*
X133664285Y-87801247D02*
X133711904Y-87706009D01*
X133711904Y-87706009D02*
X133759523Y-87658390D01*
X133759523Y-87658390D02*
X133854761Y-87610771D01*
X133854761Y-87610771D02*
X134045237Y-87610771D01*
X134045237Y-87610771D02*
X134140475Y-87658390D01*
X134140475Y-87658390D02*
X134188094Y-87706009D01*
X134188094Y-87706009D02*
X134235713Y-87801247D01*
%TO.C,R2*%
X157141666Y-88329819D02*
X157474999Y-87853628D01*
X157713094Y-88329819D02*
X157713094Y-87329819D01*
X157713094Y-87329819D02*
X157332142Y-87329819D01*
X157332142Y-87329819D02*
X157236904Y-87377438D01*
X157236904Y-87377438D02*
X157189285Y-87425057D01*
X157189285Y-87425057D02*
X157141666Y-87520295D01*
X157141666Y-87520295D02*
X157141666Y-87663152D01*
X157141666Y-87663152D02*
X157189285Y-87758390D01*
X157189285Y-87758390D02*
X157236904Y-87806009D01*
X157236904Y-87806009D02*
X157332142Y-87853628D01*
X157332142Y-87853628D02*
X157713094Y-87853628D01*
X156760713Y-87425057D02*
X156713094Y-87377438D01*
X156713094Y-87377438D02*
X156617856Y-87329819D01*
X156617856Y-87329819D02*
X156379761Y-87329819D01*
X156379761Y-87329819D02*
X156284523Y-87377438D01*
X156284523Y-87377438D02*
X156236904Y-87425057D01*
X156236904Y-87425057D02*
X156189285Y-87520295D01*
X156189285Y-87520295D02*
X156189285Y-87615533D01*
X156189285Y-87615533D02*
X156236904Y-87758390D01*
X156236904Y-87758390D02*
X156808332Y-88329819D01*
X156808332Y-88329819D02*
X156189285Y-88329819D01*
%TO.C,U5*%
X151661904Y-108504819D02*
X151661904Y-109314342D01*
X151661904Y-109314342D02*
X151614285Y-109409580D01*
X151614285Y-109409580D02*
X151566666Y-109457200D01*
X151566666Y-109457200D02*
X151471428Y-109504819D01*
X151471428Y-109504819D02*
X151280952Y-109504819D01*
X151280952Y-109504819D02*
X151185714Y-109457200D01*
X151185714Y-109457200D02*
X151138095Y-109409580D01*
X151138095Y-109409580D02*
X151090476Y-109314342D01*
X151090476Y-109314342D02*
X151090476Y-108504819D01*
X150138095Y-108504819D02*
X150614285Y-108504819D01*
X150614285Y-108504819D02*
X150661904Y-108981009D01*
X150661904Y-108981009D02*
X150614285Y-108933390D01*
X150614285Y-108933390D02*
X150519047Y-108885771D01*
X150519047Y-108885771D02*
X150280952Y-108885771D01*
X150280952Y-108885771D02*
X150185714Y-108933390D01*
X150185714Y-108933390D02*
X150138095Y-108981009D01*
X150138095Y-108981009D02*
X150090476Y-109076247D01*
X150090476Y-109076247D02*
X150090476Y-109314342D01*
X150090476Y-109314342D02*
X150138095Y-109409580D01*
X150138095Y-109409580D02*
X150185714Y-109457200D01*
X150185714Y-109457200D02*
X150280952Y-109504819D01*
X150280952Y-109504819D02*
X150519047Y-109504819D01*
X150519047Y-109504819D02*
X150614285Y-109457200D01*
X150614285Y-109457200D02*
X150661904Y-109409580D01*
%TO.C,R5*%
X142891666Y-101704819D02*
X143224999Y-101228628D01*
X143463094Y-101704819D02*
X143463094Y-100704819D01*
X143463094Y-100704819D02*
X143082142Y-100704819D01*
X143082142Y-100704819D02*
X142986904Y-100752438D01*
X142986904Y-100752438D02*
X142939285Y-100800057D01*
X142939285Y-100800057D02*
X142891666Y-100895295D01*
X142891666Y-100895295D02*
X142891666Y-101038152D01*
X142891666Y-101038152D02*
X142939285Y-101133390D01*
X142939285Y-101133390D02*
X142986904Y-101181009D01*
X142986904Y-101181009D02*
X143082142Y-101228628D01*
X143082142Y-101228628D02*
X143463094Y-101228628D01*
X141986904Y-100704819D02*
X142463094Y-100704819D01*
X142463094Y-100704819D02*
X142510713Y-101181009D01*
X142510713Y-101181009D02*
X142463094Y-101133390D01*
X142463094Y-101133390D02*
X142367856Y-101085771D01*
X142367856Y-101085771D02*
X142129761Y-101085771D01*
X142129761Y-101085771D02*
X142034523Y-101133390D01*
X142034523Y-101133390D02*
X141986904Y-101181009D01*
X141986904Y-101181009D02*
X141939285Y-101276247D01*
X141939285Y-101276247D02*
X141939285Y-101514342D01*
X141939285Y-101514342D02*
X141986904Y-101609580D01*
X141986904Y-101609580D02*
X142034523Y-101657200D01*
X142034523Y-101657200D02*
X142129761Y-101704819D01*
X142129761Y-101704819D02*
X142367856Y-101704819D01*
X142367856Y-101704819D02*
X142463094Y-101657200D01*
X142463094Y-101657200D02*
X142510713Y-101609580D01*
%TO.C,U1*%
X149786904Y-86554819D02*
X149786904Y-87364342D01*
X149786904Y-87364342D02*
X149739285Y-87459580D01*
X149739285Y-87459580D02*
X149691666Y-87507200D01*
X149691666Y-87507200D02*
X149596428Y-87554819D01*
X149596428Y-87554819D02*
X149405952Y-87554819D01*
X149405952Y-87554819D02*
X149310714Y-87507200D01*
X149310714Y-87507200D02*
X149263095Y-87459580D01*
X149263095Y-87459580D02*
X149215476Y-87364342D01*
X149215476Y-87364342D02*
X149215476Y-86554819D01*
X148215476Y-87554819D02*
X148786904Y-87554819D01*
X148501190Y-87554819D02*
X148501190Y-86554819D01*
X148501190Y-86554819D02*
X148596428Y-86697676D01*
X148596428Y-86697676D02*
X148691666Y-86792914D01*
X148691666Y-86792914D02*
X148786904Y-86840533D01*
%TO.C,C7*%
X163516666Y-87309580D02*
X163564285Y-87357200D01*
X163564285Y-87357200D02*
X163707142Y-87404819D01*
X163707142Y-87404819D02*
X163802380Y-87404819D01*
X163802380Y-87404819D02*
X163945237Y-87357200D01*
X163945237Y-87357200D02*
X164040475Y-87261961D01*
X164040475Y-87261961D02*
X164088094Y-87166723D01*
X164088094Y-87166723D02*
X164135713Y-86976247D01*
X164135713Y-86976247D02*
X164135713Y-86833390D01*
X164135713Y-86833390D02*
X164088094Y-86642914D01*
X164088094Y-86642914D02*
X164040475Y-86547676D01*
X164040475Y-86547676D02*
X163945237Y-86452438D01*
X163945237Y-86452438D02*
X163802380Y-86404819D01*
X163802380Y-86404819D02*
X163707142Y-86404819D01*
X163707142Y-86404819D02*
X163564285Y-86452438D01*
X163564285Y-86452438D02*
X163516666Y-86500057D01*
X163183332Y-86404819D02*
X162516666Y-86404819D01*
X162516666Y-86404819D02*
X162945237Y-87404819D01*
%TO.C,C6*%
X156126666Y-91509580D02*
X156174285Y-91557200D01*
X156174285Y-91557200D02*
X156317142Y-91604819D01*
X156317142Y-91604819D02*
X156412380Y-91604819D01*
X156412380Y-91604819D02*
X156555237Y-91557200D01*
X156555237Y-91557200D02*
X156650475Y-91461961D01*
X156650475Y-91461961D02*
X156698094Y-91366723D01*
X156698094Y-91366723D02*
X156745713Y-91176247D01*
X156745713Y-91176247D02*
X156745713Y-91033390D01*
X156745713Y-91033390D02*
X156698094Y-90842914D01*
X156698094Y-90842914D02*
X156650475Y-90747676D01*
X156650475Y-90747676D02*
X156555237Y-90652438D01*
X156555237Y-90652438D02*
X156412380Y-90604819D01*
X156412380Y-90604819D02*
X156317142Y-90604819D01*
X156317142Y-90604819D02*
X156174285Y-90652438D01*
X156174285Y-90652438D02*
X156126666Y-90700057D01*
X155269523Y-90604819D02*
X155459999Y-90604819D01*
X155459999Y-90604819D02*
X155555237Y-90652438D01*
X155555237Y-90652438D02*
X155602856Y-90700057D01*
X155602856Y-90700057D02*
X155698094Y-90842914D01*
X155698094Y-90842914D02*
X155745713Y-91033390D01*
X155745713Y-91033390D02*
X155745713Y-91414342D01*
X155745713Y-91414342D02*
X155698094Y-91509580D01*
X155698094Y-91509580D02*
X155650475Y-91557200D01*
X155650475Y-91557200D02*
X155555237Y-91604819D01*
X155555237Y-91604819D02*
X155364761Y-91604819D01*
X155364761Y-91604819D02*
X155269523Y-91557200D01*
X155269523Y-91557200D02*
X155221904Y-91509580D01*
X155221904Y-91509580D02*
X155174285Y-91414342D01*
X155174285Y-91414342D02*
X155174285Y-91176247D01*
X155174285Y-91176247D02*
X155221904Y-91081009D01*
X155221904Y-91081009D02*
X155269523Y-91033390D01*
X155269523Y-91033390D02*
X155364761Y-90985771D01*
X155364761Y-90985771D02*
X155555237Y-90985771D01*
X155555237Y-90985771D02*
X155650475Y-91033390D01*
X155650475Y-91033390D02*
X155698094Y-91081009D01*
X155698094Y-91081009D02*
X155745713Y-91176247D01*
%TO.C,C3*%
X141266666Y-97184580D02*
X141314285Y-97232200D01*
X141314285Y-97232200D02*
X141457142Y-97279819D01*
X141457142Y-97279819D02*
X141552380Y-97279819D01*
X141552380Y-97279819D02*
X141695237Y-97232200D01*
X141695237Y-97232200D02*
X141790475Y-97136961D01*
X141790475Y-97136961D02*
X141838094Y-97041723D01*
X141838094Y-97041723D02*
X141885713Y-96851247D01*
X141885713Y-96851247D02*
X141885713Y-96708390D01*
X141885713Y-96708390D02*
X141838094Y-96517914D01*
X141838094Y-96517914D02*
X141790475Y-96422676D01*
X141790475Y-96422676D02*
X141695237Y-96327438D01*
X141695237Y-96327438D02*
X141552380Y-96279819D01*
X141552380Y-96279819D02*
X141457142Y-96279819D01*
X141457142Y-96279819D02*
X141314285Y-96327438D01*
X141314285Y-96327438D02*
X141266666Y-96375057D01*
X140933332Y-96279819D02*
X140314285Y-96279819D01*
X140314285Y-96279819D02*
X140647618Y-96660771D01*
X140647618Y-96660771D02*
X140504761Y-96660771D01*
X140504761Y-96660771D02*
X140409523Y-96708390D01*
X140409523Y-96708390D02*
X140361904Y-96756009D01*
X140361904Y-96756009D02*
X140314285Y-96851247D01*
X140314285Y-96851247D02*
X140314285Y-97089342D01*
X140314285Y-97089342D02*
X140361904Y-97184580D01*
X140361904Y-97184580D02*
X140409523Y-97232200D01*
X140409523Y-97232200D02*
X140504761Y-97279819D01*
X140504761Y-97279819D02*
X140790475Y-97279819D01*
X140790475Y-97279819D02*
X140885713Y-97232200D01*
X140885713Y-97232200D02*
X140933332Y-97184580D01*
%TO.C,J4*%
X139170833Y-129989819D02*
X139170833Y-130704104D01*
X139170833Y-130704104D02*
X139218452Y-130846961D01*
X139218452Y-130846961D02*
X139313690Y-130942200D01*
X139313690Y-130942200D02*
X139456547Y-130989819D01*
X139456547Y-130989819D02*
X139551785Y-130989819D01*
X138266071Y-130323152D02*
X138266071Y-130989819D01*
X138504166Y-129942200D02*
X138742261Y-130656485D01*
X138742261Y-130656485D02*
X138123214Y-130656485D01*
%TO.C,U3*%
X138811904Y-123154819D02*
X138811904Y-123964342D01*
X138811904Y-123964342D02*
X138764285Y-124059580D01*
X138764285Y-124059580D02*
X138716666Y-124107200D01*
X138716666Y-124107200D02*
X138621428Y-124154819D01*
X138621428Y-124154819D02*
X138430952Y-124154819D01*
X138430952Y-124154819D02*
X138335714Y-124107200D01*
X138335714Y-124107200D02*
X138288095Y-124059580D01*
X138288095Y-124059580D02*
X138240476Y-123964342D01*
X138240476Y-123964342D02*
X138240476Y-123154819D01*
X137859523Y-123154819D02*
X137240476Y-123154819D01*
X137240476Y-123154819D02*
X137573809Y-123535771D01*
X137573809Y-123535771D02*
X137430952Y-123535771D01*
X137430952Y-123535771D02*
X137335714Y-123583390D01*
X137335714Y-123583390D02*
X137288095Y-123631009D01*
X137288095Y-123631009D02*
X137240476Y-123726247D01*
X137240476Y-123726247D02*
X137240476Y-123964342D01*
X137240476Y-123964342D02*
X137288095Y-124059580D01*
X137288095Y-124059580D02*
X137335714Y-124107200D01*
X137335714Y-124107200D02*
X137430952Y-124154819D01*
X137430952Y-124154819D02*
X137716666Y-124154819D01*
X137716666Y-124154819D02*
X137811904Y-124107200D01*
X137811904Y-124107200D02*
X137859523Y-124059580D01*
%TO.C,R3*%
X142766666Y-125129819D02*
X143099999Y-124653628D01*
X143338094Y-125129819D02*
X143338094Y-124129819D01*
X143338094Y-124129819D02*
X142957142Y-124129819D01*
X142957142Y-124129819D02*
X142861904Y-124177438D01*
X142861904Y-124177438D02*
X142814285Y-124225057D01*
X142814285Y-124225057D02*
X142766666Y-124320295D01*
X142766666Y-124320295D02*
X142766666Y-124463152D01*
X142766666Y-124463152D02*
X142814285Y-124558390D01*
X142814285Y-124558390D02*
X142861904Y-124606009D01*
X142861904Y-124606009D02*
X142957142Y-124653628D01*
X142957142Y-124653628D02*
X143338094Y-124653628D01*
X142433332Y-124129819D02*
X141814285Y-124129819D01*
X141814285Y-124129819D02*
X142147618Y-124510771D01*
X142147618Y-124510771D02*
X142004761Y-124510771D01*
X142004761Y-124510771D02*
X141909523Y-124558390D01*
X141909523Y-124558390D02*
X141861904Y-124606009D01*
X141861904Y-124606009D02*
X141814285Y-124701247D01*
X141814285Y-124701247D02*
X141814285Y-124939342D01*
X141814285Y-124939342D02*
X141861904Y-125034580D01*
X141861904Y-125034580D02*
X141909523Y-125082200D01*
X141909523Y-125082200D02*
X142004761Y-125129819D01*
X142004761Y-125129819D02*
X142290475Y-125129819D01*
X142290475Y-125129819D02*
X142385713Y-125082200D01*
X142385713Y-125082200D02*
X142433332Y-125034580D01*
%TO.C,C1*%
X148666666Y-114834580D02*
X148714285Y-114882200D01*
X148714285Y-114882200D02*
X148857142Y-114929819D01*
X148857142Y-114929819D02*
X148952380Y-114929819D01*
X148952380Y-114929819D02*
X149095237Y-114882200D01*
X149095237Y-114882200D02*
X149190475Y-114786961D01*
X149190475Y-114786961D02*
X149238094Y-114691723D01*
X149238094Y-114691723D02*
X149285713Y-114501247D01*
X149285713Y-114501247D02*
X149285713Y-114358390D01*
X149285713Y-114358390D02*
X149238094Y-114167914D01*
X149238094Y-114167914D02*
X149190475Y-114072676D01*
X149190475Y-114072676D02*
X149095237Y-113977438D01*
X149095237Y-113977438D02*
X148952380Y-113929819D01*
X148952380Y-113929819D02*
X148857142Y-113929819D01*
X148857142Y-113929819D02*
X148714285Y-113977438D01*
X148714285Y-113977438D02*
X148666666Y-114025057D01*
X147714285Y-114929819D02*
X148285713Y-114929819D01*
X147999999Y-114929819D02*
X147999999Y-113929819D01*
X147999999Y-113929819D02*
X148095237Y-114072676D01*
X148095237Y-114072676D02*
X148190475Y-114167914D01*
X148190475Y-114167914D02*
X148285713Y-114215533D01*
%TO.C,C8*%
X143991666Y-104209580D02*
X144039285Y-104257200D01*
X144039285Y-104257200D02*
X144182142Y-104304819D01*
X144182142Y-104304819D02*
X144277380Y-104304819D01*
X144277380Y-104304819D02*
X144420237Y-104257200D01*
X144420237Y-104257200D02*
X144515475Y-104161961D01*
X144515475Y-104161961D02*
X144563094Y-104066723D01*
X144563094Y-104066723D02*
X144610713Y-103876247D01*
X144610713Y-103876247D02*
X144610713Y-103733390D01*
X144610713Y-103733390D02*
X144563094Y-103542914D01*
X144563094Y-103542914D02*
X144515475Y-103447676D01*
X144515475Y-103447676D02*
X144420237Y-103352438D01*
X144420237Y-103352438D02*
X144277380Y-103304819D01*
X144277380Y-103304819D02*
X144182142Y-103304819D01*
X144182142Y-103304819D02*
X144039285Y-103352438D01*
X144039285Y-103352438D02*
X143991666Y-103400057D01*
X143420237Y-103733390D02*
X143515475Y-103685771D01*
X143515475Y-103685771D02*
X143563094Y-103638152D01*
X143563094Y-103638152D02*
X143610713Y-103542914D01*
X143610713Y-103542914D02*
X143610713Y-103495295D01*
X143610713Y-103495295D02*
X143563094Y-103400057D01*
X143563094Y-103400057D02*
X143515475Y-103352438D01*
X143515475Y-103352438D02*
X143420237Y-103304819D01*
X143420237Y-103304819D02*
X143229761Y-103304819D01*
X143229761Y-103304819D02*
X143134523Y-103352438D01*
X143134523Y-103352438D02*
X143086904Y-103400057D01*
X143086904Y-103400057D02*
X143039285Y-103495295D01*
X143039285Y-103495295D02*
X143039285Y-103542914D01*
X143039285Y-103542914D02*
X143086904Y-103638152D01*
X143086904Y-103638152D02*
X143134523Y-103685771D01*
X143134523Y-103685771D02*
X143229761Y-103733390D01*
X143229761Y-103733390D02*
X143420237Y-103733390D01*
X143420237Y-103733390D02*
X143515475Y-103781009D01*
X143515475Y-103781009D02*
X143563094Y-103828628D01*
X143563094Y-103828628D02*
X143610713Y-103923866D01*
X143610713Y-103923866D02*
X143610713Y-104114342D01*
X143610713Y-104114342D02*
X143563094Y-104209580D01*
X143563094Y-104209580D02*
X143515475Y-104257200D01*
X143515475Y-104257200D02*
X143420237Y-104304819D01*
X143420237Y-104304819D02*
X143229761Y-104304819D01*
X143229761Y-104304819D02*
X143134523Y-104257200D01*
X143134523Y-104257200D02*
X143086904Y-104209580D01*
X143086904Y-104209580D02*
X143039285Y-104114342D01*
X143039285Y-104114342D02*
X143039285Y-103923866D01*
X143039285Y-103923866D02*
X143086904Y-103828628D01*
X143086904Y-103828628D02*
X143134523Y-103781009D01*
X143134523Y-103781009D02*
X143229761Y-103733390D01*
%TO.C,J6*%
X138433333Y-83679819D02*
X138433333Y-84394104D01*
X138433333Y-84394104D02*
X138480952Y-84536961D01*
X138480952Y-84536961D02*
X138576190Y-84632200D01*
X138576190Y-84632200D02*
X138719047Y-84679819D01*
X138719047Y-84679819D02*
X138814285Y-84679819D01*
X137528571Y-83679819D02*
X137719047Y-83679819D01*
X137719047Y-83679819D02*
X137814285Y-83727438D01*
X137814285Y-83727438D02*
X137861904Y-83775057D01*
X137861904Y-83775057D02*
X137957142Y-83917914D01*
X137957142Y-83917914D02*
X138004761Y-84108390D01*
X138004761Y-84108390D02*
X138004761Y-84489342D01*
X138004761Y-84489342D02*
X137957142Y-84584580D01*
X137957142Y-84584580D02*
X137909523Y-84632200D01*
X137909523Y-84632200D02*
X137814285Y-84679819D01*
X137814285Y-84679819D02*
X137623809Y-84679819D01*
X137623809Y-84679819D02*
X137528571Y-84632200D01*
X137528571Y-84632200D02*
X137480952Y-84584580D01*
X137480952Y-84584580D02*
X137433333Y-84489342D01*
X137433333Y-84489342D02*
X137433333Y-84251247D01*
X137433333Y-84251247D02*
X137480952Y-84156009D01*
X137480952Y-84156009D02*
X137528571Y-84108390D01*
X137528571Y-84108390D02*
X137623809Y-84060771D01*
X137623809Y-84060771D02*
X137814285Y-84060771D01*
X137814285Y-84060771D02*
X137909523Y-84108390D01*
X137909523Y-84108390D02*
X137957142Y-84156009D01*
X137957142Y-84156009D02*
X138004761Y-84251247D01*
%TO.C,CR1*%
X130666666Y-87134580D02*
X130714285Y-87182200D01*
X130714285Y-87182200D02*
X130857142Y-87229819D01*
X130857142Y-87229819D02*
X130952380Y-87229819D01*
X130952380Y-87229819D02*
X131095237Y-87182200D01*
X131095237Y-87182200D02*
X131190475Y-87086961D01*
X131190475Y-87086961D02*
X131238094Y-86991723D01*
X131238094Y-86991723D02*
X131285713Y-86801247D01*
X131285713Y-86801247D02*
X131285713Y-86658390D01*
X131285713Y-86658390D02*
X131238094Y-86467914D01*
X131238094Y-86467914D02*
X131190475Y-86372676D01*
X131190475Y-86372676D02*
X131095237Y-86277438D01*
X131095237Y-86277438D02*
X130952380Y-86229819D01*
X130952380Y-86229819D02*
X130857142Y-86229819D01*
X130857142Y-86229819D02*
X130714285Y-86277438D01*
X130714285Y-86277438D02*
X130666666Y-86325057D01*
X129666666Y-87229819D02*
X129999999Y-86753628D01*
X130238094Y-87229819D02*
X130238094Y-86229819D01*
X130238094Y-86229819D02*
X129857142Y-86229819D01*
X129857142Y-86229819D02*
X129761904Y-86277438D01*
X129761904Y-86277438D02*
X129714285Y-86325057D01*
X129714285Y-86325057D02*
X129666666Y-86420295D01*
X129666666Y-86420295D02*
X129666666Y-86563152D01*
X129666666Y-86563152D02*
X129714285Y-86658390D01*
X129714285Y-86658390D02*
X129761904Y-86706009D01*
X129761904Y-86706009D02*
X129857142Y-86753628D01*
X129857142Y-86753628D02*
X130238094Y-86753628D01*
X128714285Y-87229819D02*
X129285713Y-87229819D01*
X128999999Y-87229819D02*
X128999999Y-86229819D01*
X128999999Y-86229819D02*
X129095237Y-86372676D01*
X129095237Y-86372676D02*
X129190475Y-86467914D01*
X129190475Y-86467914D02*
X129285713Y-86515533D01*
%TO.C,L2*%
X151091666Y-94954819D02*
X151567856Y-94954819D01*
X151567856Y-94954819D02*
X151567856Y-93954819D01*
X150805951Y-94050057D02*
X150758332Y-94002438D01*
X150758332Y-94002438D02*
X150663094Y-93954819D01*
X150663094Y-93954819D02*
X150424999Y-93954819D01*
X150424999Y-93954819D02*
X150329761Y-94002438D01*
X150329761Y-94002438D02*
X150282142Y-94050057D01*
X150282142Y-94050057D02*
X150234523Y-94145295D01*
X150234523Y-94145295D02*
X150234523Y-94240533D01*
X150234523Y-94240533D02*
X150282142Y-94383390D01*
X150282142Y-94383390D02*
X150853570Y-94954819D01*
X150853570Y-94954819D02*
X150234523Y-94954819D01*
%TO.C,R9*%
X138691666Y-89629819D02*
X139024999Y-89153628D01*
X139263094Y-89629819D02*
X139263094Y-88629819D01*
X139263094Y-88629819D02*
X138882142Y-88629819D01*
X138882142Y-88629819D02*
X138786904Y-88677438D01*
X138786904Y-88677438D02*
X138739285Y-88725057D01*
X138739285Y-88725057D02*
X138691666Y-88820295D01*
X138691666Y-88820295D02*
X138691666Y-88963152D01*
X138691666Y-88963152D02*
X138739285Y-89058390D01*
X138739285Y-89058390D02*
X138786904Y-89106009D01*
X138786904Y-89106009D02*
X138882142Y-89153628D01*
X138882142Y-89153628D02*
X139263094Y-89153628D01*
X138215475Y-89629819D02*
X138024999Y-89629819D01*
X138024999Y-89629819D02*
X137929761Y-89582200D01*
X137929761Y-89582200D02*
X137882142Y-89534580D01*
X137882142Y-89534580D02*
X137786904Y-89391723D01*
X137786904Y-89391723D02*
X137739285Y-89201247D01*
X137739285Y-89201247D02*
X137739285Y-88820295D01*
X137739285Y-88820295D02*
X137786904Y-88725057D01*
X137786904Y-88725057D02*
X137834523Y-88677438D01*
X137834523Y-88677438D02*
X137929761Y-88629819D01*
X137929761Y-88629819D02*
X138120237Y-88629819D01*
X138120237Y-88629819D02*
X138215475Y-88677438D01*
X138215475Y-88677438D02*
X138263094Y-88725057D01*
X138263094Y-88725057D02*
X138310713Y-88820295D01*
X138310713Y-88820295D02*
X138310713Y-89058390D01*
X138310713Y-89058390D02*
X138263094Y-89153628D01*
X138263094Y-89153628D02*
X138215475Y-89201247D01*
X138215475Y-89201247D02*
X138120237Y-89248866D01*
X138120237Y-89248866D02*
X137929761Y-89248866D01*
X137929761Y-89248866D02*
X137834523Y-89201247D01*
X137834523Y-89201247D02*
X137786904Y-89153628D01*
X137786904Y-89153628D02*
X137739285Y-89058390D01*
%TO.C,C5*%
X143091666Y-92659580D02*
X143139285Y-92707200D01*
X143139285Y-92707200D02*
X143282142Y-92754819D01*
X143282142Y-92754819D02*
X143377380Y-92754819D01*
X143377380Y-92754819D02*
X143520237Y-92707200D01*
X143520237Y-92707200D02*
X143615475Y-92611961D01*
X143615475Y-92611961D02*
X143663094Y-92516723D01*
X143663094Y-92516723D02*
X143710713Y-92326247D01*
X143710713Y-92326247D02*
X143710713Y-92183390D01*
X143710713Y-92183390D02*
X143663094Y-91992914D01*
X143663094Y-91992914D02*
X143615475Y-91897676D01*
X143615475Y-91897676D02*
X143520237Y-91802438D01*
X143520237Y-91802438D02*
X143377380Y-91754819D01*
X143377380Y-91754819D02*
X143282142Y-91754819D01*
X143282142Y-91754819D02*
X143139285Y-91802438D01*
X143139285Y-91802438D02*
X143091666Y-91850057D01*
X142186904Y-91754819D02*
X142663094Y-91754819D01*
X142663094Y-91754819D02*
X142710713Y-92231009D01*
X142710713Y-92231009D02*
X142663094Y-92183390D01*
X142663094Y-92183390D02*
X142567856Y-92135771D01*
X142567856Y-92135771D02*
X142329761Y-92135771D01*
X142329761Y-92135771D02*
X142234523Y-92183390D01*
X142234523Y-92183390D02*
X142186904Y-92231009D01*
X142186904Y-92231009D02*
X142139285Y-92326247D01*
X142139285Y-92326247D02*
X142139285Y-92564342D01*
X142139285Y-92564342D02*
X142186904Y-92659580D01*
X142186904Y-92659580D02*
X142234523Y-92707200D01*
X142234523Y-92707200D02*
X142329761Y-92754819D01*
X142329761Y-92754819D02*
X142567856Y-92754819D01*
X142567856Y-92754819D02*
X142663094Y-92707200D01*
X142663094Y-92707200D02*
X142710713Y-92659580D01*
%TO.C,J1*%
X149333333Y-81254819D02*
X149333333Y-81969104D01*
X149333333Y-81969104D02*
X149380952Y-82111961D01*
X149380952Y-82111961D02*
X149476190Y-82207200D01*
X149476190Y-82207200D02*
X149619047Y-82254819D01*
X149619047Y-82254819D02*
X149714285Y-82254819D01*
X148333333Y-82254819D02*
X148904761Y-82254819D01*
X148619047Y-82254819D02*
X148619047Y-81254819D01*
X148619047Y-81254819D02*
X148714285Y-81397676D01*
X148714285Y-81397676D02*
X148809523Y-81492914D01*
X148809523Y-81492914D02*
X148904761Y-81540533D01*
%TO.C,J3*%
X129958913Y-102353884D02*
X129958913Y-103069413D01*
X129958913Y-103069413D02*
X130006614Y-103212519D01*
X130006614Y-103212519D02*
X130102018Y-103307923D01*
X130102018Y-103307923D02*
X130245124Y-103355624D01*
X130245124Y-103355624D02*
X130340528Y-103355624D01*
X129577298Y-102353884D02*
X128957173Y-102353884D01*
X128957173Y-102353884D02*
X129291086Y-102735500D01*
X129291086Y-102735500D02*
X129147981Y-102735500D01*
X129147981Y-102735500D02*
X129052577Y-102783202D01*
X129052577Y-102783202D02*
X129004875Y-102830903D01*
X129004875Y-102830903D02*
X128957173Y-102926307D01*
X128957173Y-102926307D02*
X128957173Y-103164817D01*
X128957173Y-103164817D02*
X129004875Y-103260221D01*
X129004875Y-103260221D02*
X129052577Y-103307923D01*
X129052577Y-103307923D02*
X129147981Y-103355624D01*
X129147981Y-103355624D02*
X129434192Y-103355624D01*
X129434192Y-103355624D02*
X129529596Y-103307923D01*
X129529596Y-103307923D02*
X129577298Y-103260221D01*
%TO.C,C4*%
X150341666Y-96759580D02*
X150389285Y-96807200D01*
X150389285Y-96807200D02*
X150532142Y-96854819D01*
X150532142Y-96854819D02*
X150627380Y-96854819D01*
X150627380Y-96854819D02*
X150770237Y-96807200D01*
X150770237Y-96807200D02*
X150865475Y-96711961D01*
X150865475Y-96711961D02*
X150913094Y-96616723D01*
X150913094Y-96616723D02*
X150960713Y-96426247D01*
X150960713Y-96426247D02*
X150960713Y-96283390D01*
X150960713Y-96283390D02*
X150913094Y-96092914D01*
X150913094Y-96092914D02*
X150865475Y-95997676D01*
X150865475Y-95997676D02*
X150770237Y-95902438D01*
X150770237Y-95902438D02*
X150627380Y-95854819D01*
X150627380Y-95854819D02*
X150532142Y-95854819D01*
X150532142Y-95854819D02*
X150389285Y-95902438D01*
X150389285Y-95902438D02*
X150341666Y-95950057D01*
X149484523Y-96188152D02*
X149484523Y-96854819D01*
X149722618Y-95807200D02*
X149960713Y-96521485D01*
X149960713Y-96521485D02*
X149341666Y-96521485D01*
%TO.C,C2*%
X145516666Y-101309580D02*
X145564285Y-101357200D01*
X145564285Y-101357200D02*
X145707142Y-101404819D01*
X145707142Y-101404819D02*
X145802380Y-101404819D01*
X145802380Y-101404819D02*
X145945237Y-101357200D01*
X145945237Y-101357200D02*
X146040475Y-101261961D01*
X146040475Y-101261961D02*
X146088094Y-101166723D01*
X146088094Y-101166723D02*
X146135713Y-100976247D01*
X146135713Y-100976247D02*
X146135713Y-100833390D01*
X146135713Y-100833390D02*
X146088094Y-100642914D01*
X146088094Y-100642914D02*
X146040475Y-100547676D01*
X146040475Y-100547676D02*
X145945237Y-100452438D01*
X145945237Y-100452438D02*
X145802380Y-100404819D01*
X145802380Y-100404819D02*
X145707142Y-100404819D01*
X145707142Y-100404819D02*
X145564285Y-100452438D01*
X145564285Y-100452438D02*
X145516666Y-100500057D01*
X145135713Y-100500057D02*
X145088094Y-100452438D01*
X145088094Y-100452438D02*
X144992856Y-100404819D01*
X144992856Y-100404819D02*
X144754761Y-100404819D01*
X144754761Y-100404819D02*
X144659523Y-100452438D01*
X144659523Y-100452438D02*
X144611904Y-100500057D01*
X144611904Y-100500057D02*
X144564285Y-100595295D01*
X144564285Y-100595295D02*
X144564285Y-100690533D01*
X144564285Y-100690533D02*
X144611904Y-100833390D01*
X144611904Y-100833390D02*
X145183332Y-101404819D01*
X145183332Y-101404819D02*
X144564285Y-101404819D01*
%TO.C,R4*%
X135416666Y-125529819D02*
X135749999Y-125053628D01*
X135988094Y-125529819D02*
X135988094Y-124529819D01*
X135988094Y-124529819D02*
X135607142Y-124529819D01*
X135607142Y-124529819D02*
X135511904Y-124577438D01*
X135511904Y-124577438D02*
X135464285Y-124625057D01*
X135464285Y-124625057D02*
X135416666Y-124720295D01*
X135416666Y-124720295D02*
X135416666Y-124863152D01*
X135416666Y-124863152D02*
X135464285Y-124958390D01*
X135464285Y-124958390D02*
X135511904Y-125006009D01*
X135511904Y-125006009D02*
X135607142Y-125053628D01*
X135607142Y-125053628D02*
X135988094Y-125053628D01*
X134559523Y-124863152D02*
X134559523Y-125529819D01*
X134797618Y-124482200D02*
X135035713Y-125196485D01*
X135035713Y-125196485D02*
X134416666Y-125196485D01*
%TO.C,D2*%
X141413094Y-111129819D02*
X141413094Y-110129819D01*
X141413094Y-110129819D02*
X141174999Y-110129819D01*
X141174999Y-110129819D02*
X141032142Y-110177438D01*
X141032142Y-110177438D02*
X140936904Y-110272676D01*
X140936904Y-110272676D02*
X140889285Y-110367914D01*
X140889285Y-110367914D02*
X140841666Y-110558390D01*
X140841666Y-110558390D02*
X140841666Y-110701247D01*
X140841666Y-110701247D02*
X140889285Y-110891723D01*
X140889285Y-110891723D02*
X140936904Y-110986961D01*
X140936904Y-110986961D02*
X141032142Y-111082200D01*
X141032142Y-111082200D02*
X141174999Y-111129819D01*
X141174999Y-111129819D02*
X141413094Y-111129819D01*
X140460713Y-110225057D02*
X140413094Y-110177438D01*
X140413094Y-110177438D02*
X140317856Y-110129819D01*
X140317856Y-110129819D02*
X140079761Y-110129819D01*
X140079761Y-110129819D02*
X139984523Y-110177438D01*
X139984523Y-110177438D02*
X139936904Y-110225057D01*
X139936904Y-110225057D02*
X139889285Y-110320295D01*
X139889285Y-110320295D02*
X139889285Y-110415533D01*
X139889285Y-110415533D02*
X139936904Y-110558390D01*
X139936904Y-110558390D02*
X140508332Y-111129819D01*
X140508332Y-111129819D02*
X139889285Y-111129819D01*
%TO.C,D1*%
X135863094Y-95454819D02*
X135863094Y-94454819D01*
X135863094Y-94454819D02*
X135624999Y-94454819D01*
X135624999Y-94454819D02*
X135482142Y-94502438D01*
X135482142Y-94502438D02*
X135386904Y-94597676D01*
X135386904Y-94597676D02*
X135339285Y-94692914D01*
X135339285Y-94692914D02*
X135291666Y-94883390D01*
X135291666Y-94883390D02*
X135291666Y-95026247D01*
X135291666Y-95026247D02*
X135339285Y-95216723D01*
X135339285Y-95216723D02*
X135386904Y-95311961D01*
X135386904Y-95311961D02*
X135482142Y-95407200D01*
X135482142Y-95407200D02*
X135624999Y-95454819D01*
X135624999Y-95454819D02*
X135863094Y-95454819D01*
X134339285Y-95454819D02*
X134910713Y-95454819D01*
X134624999Y-95454819D02*
X134624999Y-94454819D01*
X134624999Y-94454819D02*
X134720237Y-94597676D01*
X134720237Y-94597676D02*
X134815475Y-94692914D01*
X134815475Y-94692914D02*
X134910713Y-94740533D01*
%TO.C,R10*%
X143617857Y-89329819D02*
X143951190Y-88853628D01*
X144189285Y-89329819D02*
X144189285Y-88329819D01*
X144189285Y-88329819D02*
X143808333Y-88329819D01*
X143808333Y-88329819D02*
X143713095Y-88377438D01*
X143713095Y-88377438D02*
X143665476Y-88425057D01*
X143665476Y-88425057D02*
X143617857Y-88520295D01*
X143617857Y-88520295D02*
X143617857Y-88663152D01*
X143617857Y-88663152D02*
X143665476Y-88758390D01*
X143665476Y-88758390D02*
X143713095Y-88806009D01*
X143713095Y-88806009D02*
X143808333Y-88853628D01*
X143808333Y-88853628D02*
X144189285Y-88853628D01*
X142665476Y-89329819D02*
X143236904Y-89329819D01*
X142951190Y-89329819D02*
X142951190Y-88329819D01*
X142951190Y-88329819D02*
X143046428Y-88472676D01*
X143046428Y-88472676D02*
X143141666Y-88567914D01*
X143141666Y-88567914D02*
X143236904Y-88615533D01*
X142046428Y-88329819D02*
X141951190Y-88329819D01*
X141951190Y-88329819D02*
X141855952Y-88377438D01*
X141855952Y-88377438D02*
X141808333Y-88425057D01*
X141808333Y-88425057D02*
X141760714Y-88520295D01*
X141760714Y-88520295D02*
X141713095Y-88710771D01*
X141713095Y-88710771D02*
X141713095Y-88948866D01*
X141713095Y-88948866D02*
X141760714Y-89139342D01*
X141760714Y-89139342D02*
X141808333Y-89234580D01*
X141808333Y-89234580D02*
X141855952Y-89282200D01*
X141855952Y-89282200D02*
X141951190Y-89329819D01*
X141951190Y-89329819D02*
X142046428Y-89329819D01*
X142046428Y-89329819D02*
X142141666Y-89282200D01*
X142141666Y-89282200D02*
X142189285Y-89234580D01*
X142189285Y-89234580D02*
X142236904Y-89139342D01*
X142236904Y-89139342D02*
X142284523Y-88948866D01*
X142284523Y-88948866D02*
X142284523Y-88710771D01*
X142284523Y-88710771D02*
X142236904Y-88520295D01*
X142236904Y-88520295D02*
X142189285Y-88425057D01*
X142189285Y-88425057D02*
X142141666Y-88377438D01*
X142141666Y-88377438D02*
X142046428Y-88329819D01*
D11*
%TO.C,U5*%
X148092500Y-107500000D02*
X147442500Y-107500000D01*
X148092500Y-107500000D02*
X148742500Y-107500000D01*
X148092500Y-110620000D02*
X146417500Y-110620000D01*
X148092500Y-110620000D02*
X148742500Y-110620000D01*
D12*
%TO.C,U1*%
X149099998Y-91250003D02*
X149099998Y-91450000D01*
X149099998Y-87999999D02*
X149099998Y-88199996D01*
X148900001Y-91450000D02*
X149099998Y-91450000D01*
X148900001Y-87999999D02*
X149099998Y-87999999D01*
X145650002Y-91450000D02*
X146275000Y-91450000D01*
X145650002Y-90825000D02*
X145650002Y-91450000D01*
X145650002Y-87999999D02*
X145849999Y-87999999D01*
X145650002Y-87999999D02*
X145650002Y-88199996D01*
D13*
%TO.C,C7*%
X162994400Y-87951000D02*
X163705600Y-87951000D01*
X162994400Y-90999000D02*
X163705600Y-90999000D01*
X162994400Y-87951001D02*
G75*
G03*
X161726944Y-88628755I1J-1524003D01*
G01*
X161726944Y-90321245D02*
G75*
G03*
X162994400Y-90999000I1267456J846245D01*
G01*
X164973056Y-88628755D02*
G75*
G03*
X163705600Y-87951000I-1267456J-846245D01*
G01*
X163705600Y-90998999D02*
G75*
G03*
X164973055Y-90321245I0J1523999D01*
G01*
D12*
%TO.C,J4*%
X143277500Y-134405000D02*
X133697500Y-134405000D01*
X143277500Y-133125000D02*
X143277500Y-134405000D01*
X143277500Y-129155000D02*
X143277500Y-130405000D01*
X133697500Y-134405000D02*
X133697500Y-133125000D01*
X133697500Y-129155000D02*
X133697500Y-130405000D01*
D11*
%TO.C,U3*%
X137300000Y-124725000D02*
X137300000Y-125275000D01*
X137300000Y-125275000D02*
X137500000Y-125275000D01*
X138600000Y-124725000D02*
X138600000Y-125275000D01*
X138600000Y-125275000D02*
X138400000Y-125275000D01*
D12*
%TO.C,J6*%
X133260000Y-78650000D02*
X142840000Y-78650000D01*
X133260000Y-79930000D02*
X133260000Y-78650000D01*
X133260000Y-83900000D02*
X133260000Y-82650000D01*
X142840000Y-78650000D02*
X142840000Y-79930000D01*
X142840000Y-83900000D02*
X142840000Y-82650000D01*
D13*
%TO.C,CR1*%
X134995300Y-89575000D02*
X134233300Y-90210000D01*
X134995300Y-89575000D02*
X134233300Y-90083000D01*
X134995300Y-89575000D02*
X134233300Y-89956000D01*
X134995300Y-89575000D02*
X134233300Y-89829000D01*
X134995300Y-89575000D02*
X134233300Y-89702000D01*
X134995300Y-89575000D02*
X134233300Y-89448000D01*
X134995300Y-89575000D02*
X134233300Y-89321000D01*
X134995300Y-89575000D02*
X134233300Y-89194000D01*
X134995300Y-89575000D02*
X134233300Y-89067000D01*
X134995300Y-89575000D02*
X134233300Y-88940000D01*
X134995300Y-88940000D02*
X134995300Y-90210000D01*
X134233300Y-88940000D02*
X134233300Y-90210000D01*
X133979300Y-89575000D02*
X135249300Y-89575000D01*
X132620400Y-91683200D02*
X127769000Y-91683200D01*
X132620400Y-91038040D02*
X132620400Y-91683200D01*
X132620400Y-87466800D02*
X132620400Y-88111960D01*
X127769000Y-91683200D02*
X127769000Y-91038040D01*
X127769000Y-88111960D02*
X127769000Y-87466800D01*
X127769000Y-87466800D02*
X132620400Y-87466800D01*
%TO.C,J1*%
X158900000Y-83850000D02*
X158300000Y-83850000D01*
X158900000Y-83250000D02*
X158900000Y-83850000D01*
X158900000Y-79350000D02*
X158900000Y-78750000D01*
X158900000Y-78750000D02*
X158300000Y-78750000D01*
X155200000Y-78750000D02*
X154400000Y-78750000D01*
X150700000Y-83850000D02*
X151300000Y-83850000D01*
X150700000Y-83250000D02*
X150700000Y-83850000D01*
X150700000Y-79350000D02*
X150700000Y-78750000D01*
X150700000Y-78750000D02*
X151300000Y-78750000D01*
D14*
%TO.C,J3*%
X127952800Y-110952250D02*
X129352800Y-110952250D01*
X132002800Y-110952250D02*
X131302800Y-110952250D01*
X132002800Y-108452250D02*
X132002800Y-110952250D01*
X132002800Y-97252250D02*
X132002800Y-94752250D01*
X127952800Y-94752250D02*
X127952800Y-110952250D01*
X129352800Y-94752250D02*
X127952800Y-94752250D01*
X132002800Y-94752250D02*
X131302800Y-94752250D01*
D15*
X132623509Y-108702250D02*
G75*
G03*
X132623509Y-108702250I-70709J0D01*
G01*
D11*
%TO.C,D2*%
X141955000Y-114295000D02*
X141955000Y-108785000D01*
X145255000Y-114295000D02*
X141955000Y-114295000D01*
X145255000Y-114295000D02*
X145255000Y-108785000D01*
%TO.C,Q1*%
X149535000Y-98765000D02*
X149535000Y-99135000D01*
X149535000Y-98765000D02*
X153075000Y-98765000D01*
X153075000Y-98765000D02*
X153075000Y-99135000D01*
X153075000Y-102305000D02*
X149305000Y-102305000D01*
X153075000Y-102305000D02*
X153075000Y-101935000D01*
%TO.C,D1*%
X136525000Y-101110000D02*
X136525000Y-95600000D01*
X139825000Y-101110000D02*
X136525000Y-101110000D01*
X139825000Y-101110000D02*
X139825000Y-95600000D01*
%TD*%
%LPC*%
D16*
%TO.C,J7*%
X136075000Y-117200000D03*
D17*
X138615000Y-117200000D03*
X141155000Y-117200000D03*
X143695000Y-117200000D03*
X146235000Y-117200000D03*
X148775000Y-117200000D03*
X151315000Y-117200000D03*
X153855000Y-117200000D03*
X156395000Y-117200000D03*
X158935000Y-117200000D03*
X161475000Y-117200000D03*
X164015000Y-117200000D03*
%TD*%
D18*
%TO.C,V1*%
X163000000Y-130000000D03*
X163000000Y-82000000D03*
X130000000Y-130000000D03*
X130000000Y-82000000D03*
%TD*%
D19*
%TO.C,L1*%
X147130000Y-105280000D03*
X147130000Y-104640000D03*
%TD*%
%TO.C,R6*%
X136800000Y-88040000D03*
X136800000Y-87400000D03*
%TD*%
%TO.C,R2*%
X158525000Y-88175000D03*
X158525000Y-87535000D03*
%TD*%
D20*
%TO.C,U5*%
X147155000Y-110010000D03*
X147155000Y-108110000D03*
X149030000Y-109060000D03*
%TD*%
D19*
%TO.C,R1*%
X158550000Y-91625000D03*
X158550000Y-90985000D03*
%TD*%
%TO.C,R5*%
X141150000Y-101575000D03*
X141150000Y-100935000D03*
%TD*%
D21*
%TO.C,U1*%
X147964999Y-90314998D03*
X147964999Y-89135001D03*
D22*
X147375003Y-89725000D03*
D21*
X147375000Y-89725000D03*
X146785001Y-90314998D03*
X146785001Y-89135001D03*
D23*
X146625002Y-91124999D03*
X147125000Y-91124999D03*
X147625002Y-91124999D03*
X148125001Y-91124999D03*
D24*
X148775000Y-90475001D03*
X148775000Y-89975002D03*
X148775000Y-89475000D03*
X148775000Y-88975001D03*
D23*
X148125001Y-88325000D03*
X147625002Y-88325000D03*
X147125000Y-88325000D03*
X146625002Y-88325000D03*
D24*
X145975000Y-88975001D03*
X145975000Y-89475000D03*
X145975000Y-89975002D03*
X145975000Y-90475001D03*
%TD*%
D25*
%TO.C,C7*%
X162080000Y-89475000D03*
X164620000Y-89475000D03*
%TD*%
D26*
%TO.C,C6*%
X153960000Y-91125000D03*
X154600000Y-91125000D03*
%TD*%
D27*
%TO.C,C3*%
X141300000Y-95625000D03*
X140660000Y-95625000D03*
%TD*%
D28*
%TO.C,J4*%
X141377500Y-128125000D03*
X135597500Y-128125000D03*
D29*
X141687500Y-127050000D03*
X140887500Y-127050000D03*
D30*
X139737500Y-127050000D03*
X138737500Y-127050000D03*
X138237500Y-127050000D03*
X137237500Y-127050000D03*
D29*
X135287500Y-127050000D03*
X136087500Y-127050000D03*
D30*
X136737500Y-127050000D03*
X137737500Y-127050000D03*
X139237500Y-127050000D03*
X140237500Y-127050000D03*
D31*
X142807500Y-127625000D03*
D32*
X142807500Y-131805000D03*
X134167500Y-131805000D03*
D31*
X134167500Y-127625000D03*
%TD*%
D33*
%TO.C,U3*%
X137600000Y-124300000D03*
X138300000Y-124300000D03*
X137950000Y-125150000D03*
%TD*%
D27*
%TO.C,R3*%
X141190000Y-124600000D03*
X140550000Y-124600000D03*
%TD*%
%TO.C,C1*%
X147190000Y-114525000D03*
X146550000Y-114525000D03*
%TD*%
%TO.C,C8*%
X145620000Y-103185000D03*
X144980000Y-103185000D03*
%TD*%
D28*
%TO.C,J6*%
X135160000Y-84930000D03*
X140940000Y-84930000D03*
D29*
X134850000Y-86005000D03*
X135650000Y-86005000D03*
D30*
X136800000Y-86005000D03*
X137800000Y-86005000D03*
X138300000Y-86005000D03*
X139300000Y-86005000D03*
D29*
X141250000Y-86005000D03*
X140450000Y-86005000D03*
D30*
X139800000Y-86005000D03*
X138800000Y-86005000D03*
X137300000Y-86005000D03*
X136300000Y-86005000D03*
D31*
X133730000Y-85430000D03*
D32*
X133730000Y-81250000D03*
X142370000Y-81250000D03*
D31*
X142370000Y-85430000D03*
%TD*%
D34*
%TO.C,CR1*%
X132239400Y-89575000D03*
X128150000Y-89575000D03*
%TD*%
D26*
%TO.C,L2*%
X150667500Y-93510000D03*
X151307500Y-93510000D03*
%TD*%
D19*
%TO.C,R9*%
X138525000Y-88050000D03*
X138525000Y-87410000D03*
%TD*%
D27*
%TO.C,C5*%
X143275000Y-91150000D03*
X142635000Y-91150000D03*
%TD*%
D35*
%TO.C,J1*%
X158200000Y-81300000D03*
X151200000Y-81300000D03*
D36*
X155800000Y-83550000D03*
X153800000Y-83550000D03*
%TD*%
D37*
%TO.C,J3*%
X132252800Y-108102250D03*
X132252800Y-107602250D03*
X132252800Y-107102250D03*
X132252800Y-106602250D03*
X132252800Y-106102250D03*
X132252800Y-105602250D03*
X132252800Y-105102250D03*
X132252800Y-104602250D03*
X132252800Y-104102250D03*
X132252800Y-103602250D03*
X132252800Y-103102250D03*
X132252800Y-102602250D03*
X132252800Y-102102250D03*
X132252800Y-101602250D03*
X132252800Y-101102250D03*
X132252800Y-100602250D03*
X132252800Y-100102250D03*
X132252800Y-99602250D03*
X132252800Y-99102250D03*
X132252800Y-98602250D03*
X132252800Y-98102250D03*
X132252800Y-97602250D03*
D38*
X130352800Y-110377250D03*
X130352800Y-95327250D03*
%TD*%
D26*
%TO.C,C4*%
X149817500Y-95435000D03*
X150457500Y-95435000D03*
%TD*%
D39*
%TO.C,C2*%
X145050000Y-99000000D03*
X145050000Y-99640000D03*
%TD*%
D26*
%TO.C,R4*%
X136160000Y-124625000D03*
X136800000Y-124625000D03*
%TD*%
D40*
%TO.C,D2*%
X143605000Y-112785000D03*
X143605000Y-108785000D03*
%TD*%
D41*
%TO.C,Q1*%
X149805000Y-101510000D03*
X149805000Y-100860000D03*
X149805000Y-100210000D03*
X149805000Y-99560000D03*
D42*
X151760000Y-100535000D03*
%TD*%
D40*
%TO.C,D1*%
X138175000Y-99600000D03*
X138175000Y-95600000D03*
%TD*%
D26*
%TO.C,R10*%
X142610000Y-89975000D03*
X143250000Y-89975000D03*
%TD*%
%LPD*%
M02*
