M48
; DRILL file {KiCad 7.0.5} date Fri Jul  7 08:44:01 2023
; FORMAT={-:-/ absolute / metric / decimal}
; #@! TF.CreationDate,2023-07-07T08:44:01+03:00
; #@! TF.GenerationSoftware,Kicad,Pcbnew,7.0.5
; #@! TF.FileFunction,Plated,1,2,PTH
FMAT,2
METRIC
; #@! TA.AperFunction,Plated,PTH,ComponentDrill
T1C0.203
; #@! TA.AperFunction,Plated,PTH,ViaDrill
T2C0.254
; #@! TA.AperFunction,Plated,PTH,ViaDrill
T3C0.300
; #@! TA.AperFunction,Plated,PTH,ComponentDrill
T4C0.600
; #@! TA.AperFunction,Plated,PTH,ComponentDrill
T5C0.660
; #@! TA.AperFunction,Plated,PTH,ComponentDrill
T6C1.000
%
G90
G05
T1
X146.785Y-89.135
X146.785Y-90.315
X147.375Y-89.725
X147.965Y-89.135
X147.965Y-90.315
T2
X130.0Y-112.3
X130.0Y-113.1
T3
X127.1Y-114.75
X127.775Y-116.325
X127.775Y-124.725
X127.775Y-126.2
X127.8Y-118.075
X127.8Y-119.85
X127.8Y-123.075
X127.825Y-85.675
X127.825Y-121.35
X129.2Y-111.7
X129.575Y-98.475
X129.625Y-100.6
X129.75Y-104.1
X129.8Y-104.975
X129.825Y-105.875
X129.825Y-107.788
X129.85Y-106.725
X129.864Y-108.975
X131.9Y-85.6
X132.05Y-115.9
X132.075Y-116.85
X132.45Y-123.8
X132.475Y-121.0
X132.475Y-122.325
X132.75Y-92.7
X132.75Y-94.075
X133.175Y-108.925
X133.175Y-110.725
X133.45Y-98.102
X133.675Y-96.5
X133.725Y-100.102
X134.075Y-98.95
X134.225Y-102.975
X134.25Y-105.075
X134.25Y-106.9
X134.625Y-108.975
X134.95Y-99.9
X135.335Y-123.79
X136.45Y-92.925
X136.725Y-91.35
X137.375Y-103.2
X137.375Y-105.675
X137.475Y-111.825
X137.475Y-113.3
X137.95Y-125.75
X138.375Y-104.325
X138.5Y-119.975
X139.175Y-113.325
X139.65Y-103.25
X139.975Y-94.2
X140.29Y-123.66
X140.8Y-121.4
X140.825Y-108.2
X140.925Y-113.275
X141.625Y-105.1
X141.675Y-99.55
X142.525Y-122.875
X143.7Y-119.35
X144.65Y-79.625
X144.95Y-91.95
X145.263Y-82.06
X145.275Y-85.525
X145.3Y-83.875
X145.35Y-126.0
X145.725Y-132.425
X145.775Y-129.6
X146.275Y-79.6
X147.475Y-132.45
X147.575Y-79.6
X147.65Y-118.45
X148.55Y-99.55
X148.775Y-103.275
X148.975Y-79.6
X149.175Y-132.45
X149.975Y-91.65
X150.0Y-90.85
X150.05Y-118.525
X150.325Y-106.825
X150.575Y-89.475
X150.725Y-132.45
X150.85Y-103.275
X151.15Y-105.1
X151.175Y-90.85
X152.325Y-132.45
X152.425Y-95.3
X153.075Y-103.275
X153.875Y-132.45
X154.675Y-103.325
X154.675Y-114.5
X155.0Y-118.925
X155.65Y-113.675
X155.675Y-132.425
X156.2Y-89.475
X156.2Y-99.325
X156.25Y-94.0
X156.825Y-101.275
X157.025Y-103.375
X157.35Y-132.425
X157.55Y-119.0
X157.825Y-98.775
X157.85Y-100.275
X157.875Y-95.125
X158.3Y-85.675
X158.575Y-92.525
X158.625Y-111.825
X159.075Y-110.675
X159.3Y-132.4
X160.0Y-101.225
X160.025Y-103.075
X160.125Y-99.65
X160.15Y-111.425
X160.3Y-109.475
X160.775Y-85.675
X160.775Y-100.5
X160.8Y-95.325
X160.85Y-94.1
X160.875Y-98.875
X163.15Y-93.275
X163.425Y-105.55
X163.85Y-95.325
X163.85Y-96.475
X163.85Y-97.625
X163.925Y-110.1
X163.925Y-112.225
X163.95Y-108.2
X163.975Y-103.8
X164.082Y-94.453
X165.025Y-85.75
X165.1Y-126.2
X165.15Y-121.125
X165.15Y-124.35
X165.175Y-122.7
T5
X162.08Y-89.475
X164.62Y-89.475
T6
X136.075Y-117.2
X138.615Y-117.2
X141.155Y-117.2
X143.695Y-117.2
X146.235Y-117.2
X148.775Y-117.2
X151.315Y-117.2
X153.855Y-117.2
X156.395Y-117.2
X158.935Y-117.2
X161.475Y-117.2
X164.015Y-117.2
T4
X133.73Y-80.85G85X133.73Y-81.65
G05
X133.73Y-84.88G85X133.73Y-85.98
G05
X134.167Y-128.175G85X134.167Y-127.075
G05
X134.167Y-132.205G85X134.167Y-131.405
G05
X142.37Y-80.85G85X142.37Y-81.65
G05
X142.37Y-84.88G85X142.37Y-85.98
G05
X142.808Y-128.175G85X142.808Y-127.075
G05
X142.808Y-132.205G85X142.808Y-131.405
G05
T0
M30
