%TF.GenerationSoftware,KiCad,Pcbnew,7.0.5*%
%TF.CreationDate,2023-07-07T08:45:00+03:00*%
%TF.ProjectId,carrier_board_v1,63617272-6965-4725-9f62-6f6172645f76,v01*%
%TF.SameCoordinates,Original*%
%TF.FileFunction,Drillmap*%
%TF.FilePolarity,Positive*%
%FSLAX45Y45*%
G04 Gerber Fmt 4.5, Leading zero omitted, Abs format (unit mm)*
G04 Created by KiCad (PCBNEW 7.0.5) date 2023-07-07 08:45:00*
%MOMM*%
%LPD*%
G01*
G04 APERTURE LIST*
%ADD10C,0.100000*%
%ADD11C,0.200000*%
%ADD12C,0.020320*%
%ADD13C,0.025400*%
%ADD14C,0.030000*%
%ADD15C,0.060000*%
%ADD16C,0.066040*%
G04 APERTURE END LIST*
D10*
X16653870Y-12994235D02*
X16647513Y-8197487D01*
X13002487Y-7847487D02*
G75*
G03*
X12652487Y-8197487I3J-350003D01*
G01*
X12652487Y-8197487D02*
X12642487Y-13002513D01*
X12992487Y-13352513D02*
X16299235Y-13348870D01*
X12642487Y-13002513D02*
G75*
G03*
X12992487Y-13352513I350003J3D01*
G01*
X16297513Y-7847487D02*
X13002487Y-7847487D01*
X16299235Y-13348870D02*
G75*
G03*
X16653870Y-12994235I5J354630D01*
G01*
X16647513Y-8197487D02*
G75*
G03*
X16297513Y-7847487I-350003J-3D01*
G01*
D11*
D12*
X14668340Y-8903340D02*
X14688660Y-8923660D01*
X14688660Y-8903340D02*
X14668340Y-8923660D01*
X14668340Y-9021340D02*
X14688660Y-9041660D01*
X14688660Y-9021340D02*
X14668340Y-9041660D01*
X14727340Y-8962340D02*
X14747660Y-8982660D01*
X14747660Y-8962340D02*
X14727340Y-8982660D01*
X14786340Y-8903340D02*
X14806660Y-8923660D01*
X14806660Y-8903340D02*
X14786340Y-8923660D01*
X14786340Y-9021340D02*
X14806660Y-9041660D01*
X14806660Y-9021340D02*
X14786340Y-9041660D01*
D13*
X13012700Y-11230000D02*
G75*
G03*
X13012700Y-11230000I-12700J0D01*
G01*
X13012700Y-11310000D02*
G75*
G03*
X13012700Y-11310000I-12700J0D01*
G01*
D14*
X12710000Y-11460000D02*
X12710000Y-11490000D01*
X12695000Y-11475000D02*
X12725000Y-11475000D01*
X12777500Y-11617500D02*
X12777500Y-11647500D01*
X12762500Y-11632500D02*
X12792500Y-11632500D01*
X12777500Y-12457500D02*
X12777500Y-12487500D01*
X12762500Y-12472500D02*
X12792500Y-12472500D01*
X12777500Y-12605000D02*
X12777500Y-12635000D01*
X12762500Y-12620000D02*
X12792500Y-12620000D01*
X12780000Y-11792500D02*
X12780000Y-11822500D01*
X12765000Y-11807500D02*
X12795000Y-11807500D01*
X12780000Y-11970000D02*
X12780000Y-12000000D01*
X12765000Y-11985000D02*
X12795000Y-11985000D01*
X12780000Y-12292500D02*
X12780000Y-12322500D01*
X12765000Y-12307500D02*
X12795000Y-12307500D01*
X12782500Y-8552500D02*
X12782500Y-8582500D01*
X12767500Y-8567500D02*
X12797500Y-8567500D01*
X12782500Y-12120000D02*
X12782500Y-12150000D01*
X12767500Y-12135000D02*
X12797500Y-12135000D01*
X12920000Y-11155000D02*
X12920000Y-11185000D01*
X12905000Y-11170000D02*
X12935000Y-11170000D01*
X12957500Y-9832500D02*
X12957500Y-9862500D01*
X12942500Y-9847500D02*
X12972500Y-9847500D01*
X12962500Y-10045000D02*
X12962500Y-10075000D01*
X12947500Y-10060000D02*
X12977500Y-10060000D01*
X12975000Y-10395000D02*
X12975000Y-10425000D01*
X12960000Y-10410000D02*
X12990000Y-10410000D01*
X12980000Y-10482500D02*
X12980000Y-10512500D01*
X12965000Y-10497500D02*
X12995000Y-10497500D01*
X12982500Y-10572500D02*
X12982500Y-10602500D01*
X12967500Y-10587500D02*
X12997500Y-10587500D01*
X12982500Y-10763774D02*
X12982500Y-10793774D01*
X12967500Y-10778774D02*
X12997500Y-10778774D01*
X12985000Y-10657500D02*
X12985000Y-10687500D01*
X12970000Y-10672500D02*
X13000000Y-10672500D01*
X12986371Y-10882498D02*
X12986371Y-10912498D01*
X12971371Y-10897498D02*
X13001371Y-10897498D01*
X13190000Y-8545000D02*
X13190000Y-8575000D01*
X13175000Y-8560000D02*
X13205000Y-8560000D01*
X13205000Y-11575000D02*
X13205000Y-11605000D01*
X13190000Y-11590000D02*
X13220000Y-11590000D01*
X13207500Y-11670000D02*
X13207500Y-11700000D01*
X13192500Y-11685000D02*
X13222500Y-11685000D01*
X13245000Y-12365000D02*
X13245000Y-12395000D01*
X13230000Y-12380000D02*
X13260000Y-12380000D01*
X13247500Y-12085000D02*
X13247500Y-12115000D01*
X13232500Y-12100000D02*
X13262500Y-12100000D01*
X13247500Y-12217500D02*
X13247500Y-12247500D01*
X13232500Y-12232500D02*
X13262500Y-12232500D01*
X13275000Y-9255000D02*
X13275000Y-9285000D01*
X13260000Y-9270000D02*
X13290000Y-9270000D01*
X13275000Y-9392500D02*
X13275000Y-9422500D01*
X13260000Y-9407500D02*
X13290000Y-9407500D01*
X13317500Y-10877500D02*
X13317500Y-10907500D01*
X13302500Y-10892500D02*
X13332500Y-10892500D01*
X13317500Y-11057500D02*
X13317500Y-11087500D01*
X13302500Y-11072500D02*
X13332500Y-11072500D01*
X13345001Y-9795225D02*
X13345001Y-9825225D01*
X13330001Y-9810225D02*
X13360001Y-9810225D01*
X13367500Y-9635000D02*
X13367500Y-9665000D01*
X13352500Y-9650000D02*
X13382500Y-9650000D01*
X13372500Y-9995225D02*
X13372500Y-10025225D01*
X13357500Y-10010225D02*
X13387500Y-10010225D01*
X13407500Y-9880000D02*
X13407500Y-9910000D01*
X13392500Y-9895000D02*
X13422500Y-9895000D01*
X13422500Y-10282500D02*
X13422500Y-10312500D01*
X13407500Y-10297500D02*
X13437500Y-10297500D01*
X13425000Y-10492500D02*
X13425000Y-10522500D01*
X13410000Y-10507500D02*
X13440000Y-10507500D01*
X13425000Y-10675000D02*
X13425000Y-10705000D01*
X13410000Y-10690000D02*
X13440000Y-10690000D01*
X13462500Y-10882500D02*
X13462500Y-10912500D01*
X13447500Y-10897500D02*
X13477500Y-10897500D01*
X13495000Y-9975000D02*
X13495000Y-10005000D01*
X13480000Y-9990000D02*
X13510000Y-9990000D01*
X13533475Y-12364025D02*
X13533475Y-12394025D01*
X13518475Y-12379025D02*
X13548475Y-12379025D01*
X13645000Y-9277500D02*
X13645000Y-9307500D01*
X13630000Y-9292500D02*
X13660000Y-9292500D01*
X13672500Y-9120000D02*
X13672500Y-9150000D01*
X13657500Y-9135000D02*
X13687500Y-9135000D01*
X13737500Y-10305000D02*
X13737500Y-10335000D01*
X13722500Y-10320000D02*
X13752500Y-10320000D01*
X13737500Y-10552500D02*
X13737500Y-10582500D01*
X13722500Y-10567500D02*
X13752500Y-10567500D01*
X13747500Y-11167500D02*
X13747500Y-11197500D01*
X13732500Y-11182500D02*
X13762500Y-11182500D01*
X13747500Y-11315000D02*
X13747500Y-11345000D01*
X13732500Y-11330000D02*
X13762500Y-11330000D01*
X13795000Y-12560000D02*
X13795000Y-12590000D01*
X13780000Y-12575000D02*
X13810000Y-12575000D01*
X13837500Y-10417500D02*
X13837500Y-10447500D01*
X13822500Y-10432500D02*
X13852500Y-10432500D01*
X13850000Y-11982500D02*
X13850000Y-12012500D01*
X13835000Y-11997500D02*
X13865000Y-11997500D01*
X13917500Y-11317500D02*
X13917500Y-11347500D01*
X13902500Y-11332500D02*
X13932500Y-11332500D01*
X13965000Y-10310000D02*
X13965000Y-10340000D01*
X13950000Y-10325000D02*
X13980000Y-10325000D01*
X13997500Y-9405000D02*
X13997500Y-9435000D01*
X13982500Y-9420000D02*
X14012500Y-9420000D01*
X14028975Y-12351025D02*
X14028975Y-12381025D01*
X14013975Y-12366025D02*
X14043975Y-12366025D01*
X14080000Y-12125000D02*
X14080000Y-12155000D01*
X14065000Y-12140000D02*
X14095000Y-12140000D01*
X14082500Y-10805000D02*
X14082500Y-10835000D01*
X14067500Y-10820000D02*
X14097500Y-10820000D01*
X14092500Y-11312500D02*
X14092500Y-11342500D01*
X14077500Y-11327500D02*
X14107500Y-11327500D01*
X14162501Y-10494999D02*
X14162501Y-10524999D01*
X14147501Y-10509999D02*
X14177501Y-10509999D01*
X14167500Y-9940000D02*
X14167500Y-9970000D01*
X14152500Y-9955000D02*
X14182500Y-9955000D01*
X14252500Y-12272500D02*
X14252500Y-12302500D01*
X14237500Y-12287500D02*
X14267500Y-12287500D01*
X14370000Y-11920000D02*
X14370000Y-11950000D01*
X14355000Y-11935000D02*
X14385000Y-11935000D01*
X14465000Y-7947500D02*
X14465000Y-7977500D01*
X14450000Y-7962500D02*
X14480000Y-7962500D01*
X14495000Y-9180000D02*
X14495000Y-9210000D01*
X14480000Y-9195000D02*
X14510000Y-9195000D01*
X14526254Y-8190981D02*
X14526254Y-8220981D01*
X14511254Y-8205981D02*
X14541254Y-8205981D01*
X14527500Y-8537500D02*
X14527500Y-8567500D01*
X14512500Y-8552500D02*
X14542500Y-8552500D01*
X14530000Y-8372500D02*
X14530000Y-8402500D01*
X14515000Y-8387500D02*
X14545000Y-8387500D01*
X14535000Y-12585000D02*
X14535000Y-12615000D01*
X14520000Y-12600000D02*
X14550000Y-12600000D01*
X14572500Y-13227500D02*
X14572500Y-13257500D01*
X14557500Y-13242500D02*
X14587500Y-13242500D01*
X14577500Y-12945000D02*
X14577500Y-12975000D01*
X14562500Y-12960000D02*
X14592500Y-12960000D01*
X14627500Y-7945000D02*
X14627500Y-7975000D01*
X14612500Y-7960000D02*
X14642500Y-7960000D01*
X14747500Y-13230000D02*
X14747500Y-13260000D01*
X14732500Y-13245000D02*
X14762500Y-13245000D01*
X14757500Y-7945000D02*
X14757500Y-7975000D01*
X14742500Y-7960000D02*
X14772500Y-7960000D01*
X14765000Y-11830000D02*
X14765000Y-11860000D01*
X14750000Y-11845000D02*
X14780000Y-11845000D01*
X14855000Y-9940000D02*
X14855000Y-9970000D01*
X14840000Y-9955000D02*
X14870000Y-9955000D01*
X14877500Y-10312500D02*
X14877500Y-10342500D01*
X14862500Y-10327500D02*
X14892500Y-10327500D01*
X14897500Y-7945000D02*
X14897500Y-7975000D01*
X14882500Y-7960000D02*
X14912500Y-7960000D01*
X14917500Y-13230000D02*
X14917500Y-13260000D01*
X14902500Y-13245000D02*
X14932500Y-13245000D01*
X14997500Y-9150000D02*
X14997500Y-9180000D01*
X14982500Y-9165000D02*
X15012500Y-9165000D01*
X15000000Y-9070000D02*
X15000000Y-9100000D01*
X14985000Y-9085000D02*
X15015000Y-9085000D01*
X15005000Y-11837500D02*
X15005000Y-11867500D01*
X14990000Y-11852500D02*
X15020000Y-11852500D01*
X15032500Y-10667500D02*
X15032500Y-10697500D01*
X15017500Y-10682500D02*
X15047500Y-10682500D01*
X15057500Y-8932500D02*
X15057500Y-8962500D01*
X15042500Y-8947500D02*
X15072500Y-8947500D01*
X15072500Y-13230000D02*
X15072500Y-13260000D01*
X15057500Y-13245000D02*
X15087500Y-13245000D01*
X15085000Y-10312500D02*
X15085000Y-10342500D01*
X15070000Y-10327500D02*
X15100000Y-10327500D01*
X15115000Y-10495000D02*
X15115000Y-10525000D01*
X15100000Y-10510000D02*
X15130000Y-10510000D01*
X15117500Y-9070000D02*
X15117500Y-9100000D01*
X15102500Y-9085000D02*
X15132500Y-9085000D01*
X15232500Y-13230000D02*
X15232500Y-13260000D01*
X15217500Y-13245000D02*
X15247500Y-13245000D01*
X15242500Y-9515000D02*
X15242500Y-9545000D01*
X15227500Y-9530000D02*
X15257500Y-9530000D01*
X15307500Y-10312500D02*
X15307500Y-10342500D01*
X15292500Y-10327500D02*
X15322500Y-10327500D01*
X15387500Y-13230000D02*
X15387500Y-13260000D01*
X15372500Y-13245000D02*
X15402500Y-13245000D01*
X15467500Y-10317500D02*
X15467500Y-10347500D01*
X15452500Y-10332500D02*
X15482500Y-10332500D01*
X15467500Y-11435000D02*
X15467500Y-11465000D01*
X15452500Y-11450000D02*
X15482500Y-11450000D01*
X15500000Y-11877500D02*
X15500000Y-11907500D01*
X15485000Y-11892500D02*
X15515000Y-11892500D01*
X15565000Y-11352500D02*
X15565000Y-11382500D01*
X15550000Y-11367500D02*
X15580000Y-11367500D01*
X15567500Y-13227500D02*
X15567500Y-13257500D01*
X15552500Y-13242500D02*
X15582500Y-13242500D01*
X15620000Y-8932500D02*
X15620000Y-8962500D01*
X15605000Y-8947500D02*
X15635000Y-8947500D01*
X15620000Y-9917500D02*
X15620000Y-9947500D01*
X15605000Y-9932500D02*
X15635000Y-9932500D01*
X15625000Y-9385000D02*
X15625000Y-9415000D01*
X15610000Y-9400000D02*
X15640000Y-9400000D01*
X15682500Y-10112500D02*
X15682500Y-10142500D01*
X15667500Y-10127500D02*
X15697500Y-10127500D01*
X15702500Y-10322500D02*
X15702500Y-10352500D01*
X15687500Y-10337500D02*
X15717500Y-10337500D01*
X15735000Y-13227500D02*
X15735000Y-13257500D01*
X15720000Y-13242500D02*
X15750000Y-13242500D01*
X15755000Y-11885000D02*
X15755000Y-11915000D01*
X15740000Y-11900000D02*
X15770000Y-11900000D01*
X15782500Y-9862500D02*
X15782500Y-9892500D01*
X15767500Y-9877500D02*
X15797500Y-9877500D01*
X15785000Y-10012500D02*
X15785000Y-10042500D01*
X15770000Y-10027500D02*
X15800000Y-10027500D01*
X15787500Y-9497500D02*
X15787500Y-9527500D01*
X15772500Y-9512500D02*
X15802500Y-9512500D01*
X15830000Y-8552500D02*
X15830000Y-8582500D01*
X15815000Y-8567500D02*
X15845000Y-8567500D01*
X15857500Y-9237500D02*
X15857500Y-9267500D01*
X15842500Y-9252500D02*
X15872500Y-9252500D01*
X15862500Y-11167500D02*
X15862500Y-11197500D01*
X15847500Y-11182500D02*
X15877500Y-11182500D01*
X15907500Y-11052500D02*
X15907500Y-11082500D01*
X15892500Y-11067500D02*
X15922500Y-11067500D01*
X15930000Y-13225000D02*
X15930000Y-13255000D01*
X15915000Y-13240000D02*
X15945000Y-13240000D01*
X16000000Y-10107500D02*
X16000000Y-10137500D01*
X15985000Y-10122500D02*
X16015000Y-10122500D01*
X16002500Y-10292500D02*
X16002500Y-10322500D01*
X15987500Y-10307500D02*
X16017500Y-10307500D01*
X16012500Y-9950000D02*
X16012500Y-9980000D01*
X15997500Y-9965000D02*
X16027500Y-9965000D01*
X16015000Y-11127500D02*
X16015000Y-11157500D01*
X16000000Y-11142500D02*
X16030000Y-11142500D01*
X16030000Y-10932500D02*
X16030000Y-10962500D01*
X16015000Y-10947500D02*
X16045000Y-10947500D01*
X16077500Y-8552500D02*
X16077500Y-8582500D01*
X16062500Y-8567500D02*
X16092500Y-8567500D01*
X16077500Y-10035000D02*
X16077500Y-10065000D01*
X16062500Y-10050000D02*
X16092500Y-10050000D01*
X16080000Y-9517500D02*
X16080000Y-9547500D01*
X16065000Y-9532500D02*
X16095000Y-9532500D01*
X16085000Y-9395000D02*
X16085000Y-9425000D01*
X16070000Y-9410000D02*
X16100000Y-9410000D01*
X16087500Y-9872500D02*
X16087500Y-9902500D01*
X16072500Y-9887500D02*
X16102500Y-9887500D01*
X16315000Y-9312500D02*
X16315000Y-9342500D01*
X16300000Y-9327500D02*
X16330000Y-9327500D01*
X16342500Y-10540000D02*
X16342500Y-10570000D01*
X16327500Y-10555000D02*
X16357500Y-10555000D01*
X16385000Y-9517500D02*
X16385000Y-9547500D01*
X16370000Y-9532500D02*
X16400000Y-9532500D01*
X16385000Y-9632500D02*
X16385000Y-9662500D01*
X16370000Y-9647500D02*
X16400000Y-9647500D01*
X16385000Y-9747500D02*
X16385000Y-9777500D01*
X16370000Y-9762500D02*
X16400000Y-9762500D01*
X16392500Y-10995000D02*
X16392500Y-11025000D01*
X16377500Y-11010000D02*
X16407500Y-11010000D01*
X16392500Y-11207500D02*
X16392500Y-11237500D01*
X16377500Y-11222500D02*
X16407500Y-11222500D01*
X16395000Y-10805000D02*
X16395000Y-10835000D01*
X16380000Y-10820000D02*
X16410000Y-10820000D01*
X16397500Y-10365000D02*
X16397500Y-10395000D01*
X16382500Y-10380000D02*
X16412500Y-10380000D01*
X16408236Y-9430277D02*
X16408236Y-9460277D01*
X16393236Y-9445277D02*
X16423236Y-9445277D01*
X16502500Y-8560000D02*
X16502500Y-8590000D01*
X16487500Y-8575000D02*
X16517500Y-8575000D01*
X16510000Y-12605000D02*
X16510000Y-12635000D01*
X16495000Y-12620000D02*
X16525000Y-12620000D01*
X16515000Y-12097500D02*
X16515000Y-12127500D01*
X16500000Y-12112500D02*
X16530000Y-12112500D01*
X16515000Y-12420000D02*
X16515000Y-12450000D01*
X16500000Y-12435000D02*
X16530000Y-12435000D01*
X16517500Y-12255000D02*
X16517500Y-12285000D01*
X16502500Y-12270000D02*
X16532500Y-12270000D01*
D15*
X13394213Y-8146213D02*
X13394213Y-8103787D01*
X13351787Y-8103787D01*
X13351787Y-8146213D01*
X13394213Y-8146213D01*
D11*
X13343000Y-8085000D02*
X13343000Y-8165000D01*
X13343000Y-8165000D02*
G75*
G03*
X13403000Y-8165000I30000J0D01*
G01*
X13403000Y-8165000D02*
X13403000Y-8085000D01*
X13403000Y-8085000D02*
G75*
G03*
X13343000Y-8085000I-30000J0D01*
G01*
D15*
X13394213Y-8564213D02*
X13394213Y-8521787D01*
X13351787Y-8521787D01*
X13351787Y-8564213D01*
X13394213Y-8564213D01*
D11*
X13343000Y-8488000D02*
X13343000Y-8598000D01*
X13343000Y-8598000D02*
G75*
G03*
X13403000Y-8598000I30000J0D01*
G01*
X13403000Y-8598000D02*
X13403000Y-8488000D01*
X13403000Y-8488000D02*
G75*
G03*
X13343000Y-8488000I-30000J0D01*
G01*
D15*
X13437963Y-12783713D02*
X13437963Y-12741287D01*
X13395537Y-12741287D01*
X13395537Y-12783713D01*
X13437963Y-12783713D01*
D11*
X13446750Y-12817500D02*
X13446750Y-12707500D01*
X13446750Y-12707500D02*
G75*
G03*
X13386750Y-12707500I-30000J0D01*
G01*
X13386750Y-12707500D02*
X13386750Y-12817500D01*
X13386750Y-12817500D02*
G75*
G03*
X13446750Y-12817500I30000J0D01*
G01*
D15*
X13437963Y-13201713D02*
X13437963Y-13159287D01*
X13395537Y-13159287D01*
X13395537Y-13201713D01*
X13437963Y-13201713D01*
D11*
X13446750Y-13220500D02*
X13446750Y-13140500D01*
X13446750Y-13140500D02*
G75*
G03*
X13386750Y-13140500I-30000J0D01*
G01*
X13386750Y-13140500D02*
X13386750Y-13220500D01*
X13386750Y-13220500D02*
G75*
G03*
X13446750Y-13220500I30000J0D01*
G01*
D15*
X14258213Y-8146213D02*
X14258213Y-8103787D01*
X14215787Y-8103787D01*
X14215787Y-8146213D01*
X14258213Y-8146213D01*
D11*
X14207000Y-8085000D02*
X14207000Y-8165000D01*
X14207000Y-8165000D02*
G75*
G03*
X14267000Y-8165000I30000J0D01*
G01*
X14267000Y-8165000D02*
X14267000Y-8085000D01*
X14267000Y-8085000D02*
G75*
G03*
X14207000Y-8085000I-30000J0D01*
G01*
D15*
X14258213Y-8564213D02*
X14258213Y-8521787D01*
X14215787Y-8521787D01*
X14215787Y-8564213D01*
X14258213Y-8564213D01*
D11*
X14207000Y-8488000D02*
X14207000Y-8598000D01*
X14207000Y-8598000D02*
G75*
G03*
X14267000Y-8598000I30000J0D01*
G01*
X14267000Y-8598000D02*
X14267000Y-8488000D01*
X14267000Y-8488000D02*
G75*
G03*
X14207000Y-8488000I-30000J0D01*
G01*
D15*
X14301963Y-12783713D02*
X14301963Y-12741287D01*
X14259537Y-12741287D01*
X14259537Y-12783713D01*
X14301963Y-12783713D01*
D11*
X14310750Y-12817500D02*
X14310750Y-12707500D01*
X14310750Y-12707500D02*
G75*
G03*
X14250750Y-12707500I-30000J0D01*
G01*
X14250750Y-12707500D02*
X14250750Y-12817500D01*
X14250750Y-12817500D02*
G75*
G03*
X14310750Y-12817500I30000J0D01*
G01*
D15*
X14301963Y-13201713D02*
X14301963Y-13159287D01*
X14259537Y-13159287D01*
X14259537Y-13201713D01*
X14301963Y-13201713D01*
D11*
X14310750Y-13220500D02*
X14310750Y-13140500D01*
X14310750Y-13140500D02*
G75*
G03*
X14250750Y-13140500I-30000J0D01*
G01*
X14250750Y-13140500D02*
X14250750Y-13220500D01*
X14250750Y-13220500D02*
G75*
G03*
X14310750Y-13220500I30000J0D01*
G01*
D16*
X16208000Y-8980520D02*
X16241020Y-8947500D01*
X16208000Y-8914480D01*
X16174980Y-8947500D01*
X16208000Y-8980520D01*
X16462000Y-8980520D02*
X16495020Y-8947500D01*
X16462000Y-8914480D01*
X16428980Y-8947500D01*
X16462000Y-8980520D01*
D10*
X13557500Y-11670000D02*
X13657500Y-11770000D01*
X13657500Y-11670000D02*
X13557500Y-11770000D01*
X13657500Y-11720000D02*
G75*
G03*
X13657500Y-11720000I-50000J0D01*
G01*
X13811500Y-11670000D02*
X13911500Y-11770000D01*
X13911500Y-11670000D02*
X13811500Y-11770000D01*
X13911500Y-11720000D02*
G75*
G03*
X13911500Y-11720000I-50000J0D01*
G01*
X14065500Y-11670000D02*
X14165500Y-11770000D01*
X14165500Y-11670000D02*
X14065500Y-11770000D01*
X14165500Y-11720000D02*
G75*
G03*
X14165500Y-11720000I-50000J0D01*
G01*
X14319500Y-11670000D02*
X14419500Y-11770000D01*
X14419500Y-11670000D02*
X14319500Y-11770000D01*
X14419500Y-11720000D02*
G75*
G03*
X14419500Y-11720000I-50000J0D01*
G01*
X14573500Y-11670000D02*
X14673500Y-11770000D01*
X14673500Y-11670000D02*
X14573500Y-11770000D01*
X14673500Y-11720000D02*
G75*
G03*
X14673500Y-11720000I-50000J0D01*
G01*
X14827500Y-11670000D02*
X14927500Y-11770000D01*
X14927500Y-11670000D02*
X14827500Y-11770000D01*
X14927500Y-11720000D02*
G75*
G03*
X14927500Y-11720000I-50000J0D01*
G01*
X15081500Y-11670000D02*
X15181500Y-11770000D01*
X15181500Y-11670000D02*
X15081500Y-11770000D01*
X15181500Y-11720000D02*
G75*
G03*
X15181500Y-11720000I-50000J0D01*
G01*
X15335500Y-11670000D02*
X15435500Y-11770000D01*
X15435500Y-11670000D02*
X15335500Y-11770000D01*
X15435500Y-11720000D02*
G75*
G03*
X15435500Y-11720000I-50000J0D01*
G01*
X15589500Y-11670000D02*
X15689500Y-11770000D01*
X15689500Y-11670000D02*
X15589500Y-11770000D01*
X15689500Y-11720000D02*
G75*
G03*
X15689500Y-11720000I-50000J0D01*
G01*
X15843500Y-11670000D02*
X15943500Y-11770000D01*
X15943500Y-11670000D02*
X15843500Y-11770000D01*
X15943500Y-11720000D02*
G75*
G03*
X15943500Y-11720000I-50000J0D01*
G01*
X16097500Y-11670000D02*
X16197500Y-11770000D01*
X16197500Y-11670000D02*
X16097500Y-11770000D01*
X16197500Y-11720000D02*
G75*
G03*
X16197500Y-11720000I-50000J0D01*
G01*
X16351500Y-11670000D02*
X16451500Y-11770000D01*
X16451500Y-11670000D02*
X16351500Y-11770000D01*
X16451500Y-11720000D02*
G75*
G03*
X16451500Y-11720000I-50000J0D01*
G01*
D11*
X12898264Y-13668996D02*
X12898264Y-13468996D01*
X12898264Y-13468996D02*
X12945883Y-13468996D01*
X12945883Y-13468996D02*
X12974455Y-13478520D01*
X12974455Y-13478520D02*
X12993502Y-13497568D01*
X12993502Y-13497568D02*
X13003026Y-13516615D01*
X13003026Y-13516615D02*
X13012550Y-13554711D01*
X13012550Y-13554711D02*
X13012550Y-13583282D01*
X13012550Y-13583282D02*
X13003026Y-13621377D01*
X13003026Y-13621377D02*
X12993502Y-13640425D01*
X12993502Y-13640425D02*
X12974455Y-13659473D01*
X12974455Y-13659473D02*
X12945883Y-13668996D01*
X12945883Y-13668996D02*
X12898264Y-13668996D01*
X13098264Y-13668996D02*
X13098264Y-13535663D01*
X13098264Y-13573758D02*
X13107788Y-13554711D01*
X13107788Y-13554711D02*
X13117312Y-13545187D01*
X13117312Y-13545187D02*
X13136359Y-13535663D01*
X13136359Y-13535663D02*
X13155407Y-13535663D01*
X13222074Y-13668996D02*
X13222074Y-13535663D01*
X13222074Y-13468996D02*
X13212550Y-13478520D01*
X13212550Y-13478520D02*
X13222074Y-13488044D01*
X13222074Y-13488044D02*
X13231597Y-13478520D01*
X13231597Y-13478520D02*
X13222074Y-13468996D01*
X13222074Y-13468996D02*
X13222074Y-13488044D01*
X13345883Y-13668996D02*
X13326836Y-13659473D01*
X13326836Y-13659473D02*
X13317312Y-13640425D01*
X13317312Y-13640425D02*
X13317312Y-13468996D01*
X13450645Y-13668996D02*
X13431597Y-13659473D01*
X13431597Y-13659473D02*
X13422074Y-13640425D01*
X13422074Y-13640425D02*
X13422074Y-13468996D01*
X13679217Y-13668996D02*
X13679217Y-13468996D01*
X13679217Y-13468996D02*
X13745883Y-13611853D01*
X13745883Y-13611853D02*
X13812550Y-13468996D01*
X13812550Y-13468996D02*
X13812550Y-13668996D01*
X13993502Y-13668996D02*
X13993502Y-13564234D01*
X13993502Y-13564234D02*
X13983978Y-13545187D01*
X13983978Y-13545187D02*
X13964931Y-13535663D01*
X13964931Y-13535663D02*
X13926836Y-13535663D01*
X13926836Y-13535663D02*
X13907788Y-13545187D01*
X13993502Y-13659473D02*
X13974455Y-13668996D01*
X13974455Y-13668996D02*
X13926836Y-13668996D01*
X13926836Y-13668996D02*
X13907788Y-13659473D01*
X13907788Y-13659473D02*
X13898264Y-13640425D01*
X13898264Y-13640425D02*
X13898264Y-13621377D01*
X13898264Y-13621377D02*
X13907788Y-13602330D01*
X13907788Y-13602330D02*
X13926836Y-13592806D01*
X13926836Y-13592806D02*
X13974455Y-13592806D01*
X13974455Y-13592806D02*
X13993502Y-13583282D01*
X14088740Y-13535663D02*
X14088740Y-13735663D01*
X14088740Y-13545187D02*
X14107788Y-13535663D01*
X14107788Y-13535663D02*
X14145883Y-13535663D01*
X14145883Y-13535663D02*
X14164931Y-13545187D01*
X14164931Y-13545187D02*
X14174455Y-13554711D01*
X14174455Y-13554711D02*
X14183978Y-13573758D01*
X14183978Y-13573758D02*
X14183978Y-13630901D01*
X14183978Y-13630901D02*
X14174455Y-13649949D01*
X14174455Y-13649949D02*
X14164931Y-13659473D01*
X14164931Y-13659473D02*
X14145883Y-13668996D01*
X14145883Y-13668996D02*
X14107788Y-13668996D01*
X14107788Y-13668996D02*
X14088740Y-13659473D01*
X14269693Y-13649949D02*
X14279217Y-13659473D01*
X14279217Y-13659473D02*
X14269693Y-13668996D01*
X14269693Y-13668996D02*
X14260169Y-13659473D01*
X14260169Y-13659473D02*
X14269693Y-13649949D01*
X14269693Y-13649949D02*
X14269693Y-13668996D01*
X14269693Y-13545187D02*
X14279217Y-13554711D01*
X14279217Y-13554711D02*
X14269693Y-13564234D01*
X14269693Y-13564234D02*
X14260169Y-13554711D01*
X14260169Y-13554711D02*
X14269693Y-13545187D01*
X14269693Y-13545187D02*
X14269693Y-13564234D01*
D12*
X12617167Y-13987353D02*
X12637487Y-14007673D01*
X12637487Y-13987353D02*
X12617167Y-14007673D01*
D11*
X12936359Y-13888996D02*
X12955407Y-13888996D01*
X12955407Y-13888996D02*
X12974455Y-13898520D01*
X12974455Y-13898520D02*
X12983978Y-13908044D01*
X12983978Y-13908044D02*
X12993502Y-13927092D01*
X12993502Y-13927092D02*
X13003026Y-13965187D01*
X13003026Y-13965187D02*
X13003026Y-14012806D01*
X13003026Y-14012806D02*
X12993502Y-14050901D01*
X12993502Y-14050901D02*
X12983978Y-14069949D01*
X12983978Y-14069949D02*
X12974455Y-14079473D01*
X12974455Y-14079473D02*
X12955407Y-14088996D01*
X12955407Y-14088996D02*
X12936359Y-14088996D01*
X12936359Y-14088996D02*
X12917312Y-14079473D01*
X12917312Y-14079473D02*
X12907788Y-14069949D01*
X12907788Y-14069949D02*
X12898264Y-14050901D01*
X12898264Y-14050901D02*
X12888740Y-14012806D01*
X12888740Y-14012806D02*
X12888740Y-13965187D01*
X12888740Y-13965187D02*
X12898264Y-13927092D01*
X12898264Y-13927092D02*
X12907788Y-13908044D01*
X12907788Y-13908044D02*
X12917312Y-13898520D01*
X12917312Y-13898520D02*
X12936359Y-13888996D01*
X13088740Y-14069949D02*
X13098264Y-14079473D01*
X13098264Y-14079473D02*
X13088740Y-14088996D01*
X13088740Y-14088996D02*
X13079217Y-14079473D01*
X13079217Y-14079473D02*
X13088740Y-14069949D01*
X13088740Y-14069949D02*
X13088740Y-14088996D01*
X13174455Y-13908044D02*
X13183978Y-13898520D01*
X13183978Y-13898520D02*
X13203026Y-13888996D01*
X13203026Y-13888996D02*
X13250645Y-13888996D01*
X13250645Y-13888996D02*
X13269693Y-13898520D01*
X13269693Y-13898520D02*
X13279217Y-13908044D01*
X13279217Y-13908044D02*
X13288740Y-13927092D01*
X13288740Y-13927092D02*
X13288740Y-13946139D01*
X13288740Y-13946139D02*
X13279217Y-13974711D01*
X13279217Y-13974711D02*
X13164931Y-14088996D01*
X13164931Y-14088996D02*
X13288740Y-14088996D01*
X13412550Y-13888996D02*
X13431598Y-13888996D01*
X13431598Y-13888996D02*
X13450645Y-13898520D01*
X13450645Y-13898520D02*
X13460169Y-13908044D01*
X13460169Y-13908044D02*
X13469693Y-13927092D01*
X13469693Y-13927092D02*
X13479217Y-13965187D01*
X13479217Y-13965187D02*
X13479217Y-14012806D01*
X13479217Y-14012806D02*
X13469693Y-14050901D01*
X13469693Y-14050901D02*
X13460169Y-14069949D01*
X13460169Y-14069949D02*
X13450645Y-14079473D01*
X13450645Y-14079473D02*
X13431598Y-14088996D01*
X13431598Y-14088996D02*
X13412550Y-14088996D01*
X13412550Y-14088996D02*
X13393502Y-14079473D01*
X13393502Y-14079473D02*
X13383978Y-14069949D01*
X13383978Y-14069949D02*
X13374455Y-14050901D01*
X13374455Y-14050901D02*
X13364931Y-14012806D01*
X13364931Y-14012806D02*
X13364931Y-13965187D01*
X13364931Y-13965187D02*
X13374455Y-13927092D01*
X13374455Y-13927092D02*
X13383978Y-13908044D01*
X13383978Y-13908044D02*
X13393502Y-13898520D01*
X13393502Y-13898520D02*
X13412550Y-13888996D01*
X13545883Y-13888996D02*
X13669693Y-13888996D01*
X13669693Y-13888996D02*
X13603026Y-13965187D01*
X13603026Y-13965187D02*
X13631598Y-13965187D01*
X13631598Y-13965187D02*
X13650645Y-13974711D01*
X13650645Y-13974711D02*
X13660169Y-13984234D01*
X13660169Y-13984234D02*
X13669693Y-14003282D01*
X13669693Y-14003282D02*
X13669693Y-14050901D01*
X13669693Y-14050901D02*
X13660169Y-14069949D01*
X13660169Y-14069949D02*
X13650645Y-14079473D01*
X13650645Y-14079473D02*
X13631598Y-14088996D01*
X13631598Y-14088996D02*
X13574455Y-14088996D01*
X13574455Y-14088996D02*
X13555407Y-14079473D01*
X13555407Y-14079473D02*
X13545883Y-14069949D01*
X13755407Y-14088996D02*
X13755407Y-13955663D01*
X13755407Y-13974711D02*
X13764931Y-13965187D01*
X13764931Y-13965187D02*
X13783978Y-13955663D01*
X13783978Y-13955663D02*
X13812550Y-13955663D01*
X13812550Y-13955663D02*
X13831598Y-13965187D01*
X13831598Y-13965187D02*
X13841121Y-13984234D01*
X13841121Y-13984234D02*
X13841121Y-14088996D01*
X13841121Y-13984234D02*
X13850645Y-13965187D01*
X13850645Y-13965187D02*
X13869693Y-13955663D01*
X13869693Y-13955663D02*
X13898264Y-13955663D01*
X13898264Y-13955663D02*
X13917312Y-13965187D01*
X13917312Y-13965187D02*
X13926836Y-13984234D01*
X13926836Y-13984234D02*
X13926836Y-14088996D01*
X14022074Y-14088996D02*
X14022074Y-13955663D01*
X14022074Y-13974711D02*
X14031598Y-13965187D01*
X14031598Y-13965187D02*
X14050645Y-13955663D01*
X14050645Y-13955663D02*
X14079217Y-13955663D01*
X14079217Y-13955663D02*
X14098264Y-13965187D01*
X14098264Y-13965187D02*
X14107788Y-13984234D01*
X14107788Y-13984234D02*
X14107788Y-14088996D01*
X14107788Y-13984234D02*
X14117312Y-13965187D01*
X14117312Y-13965187D02*
X14136359Y-13955663D01*
X14136359Y-13955663D02*
X14164931Y-13955663D01*
X14164931Y-13955663D02*
X14183979Y-13965187D01*
X14183979Y-13965187D02*
X14193502Y-13984234D01*
X14193502Y-13984234D02*
X14193502Y-14088996D01*
X14583979Y-13879473D02*
X14412550Y-14136615D01*
X14841121Y-13888996D02*
X14860169Y-13888996D01*
X14860169Y-13888996D02*
X14879217Y-13898520D01*
X14879217Y-13898520D02*
X14888741Y-13908044D01*
X14888741Y-13908044D02*
X14898264Y-13927092D01*
X14898264Y-13927092D02*
X14907788Y-13965187D01*
X14907788Y-13965187D02*
X14907788Y-14012806D01*
X14907788Y-14012806D02*
X14898264Y-14050901D01*
X14898264Y-14050901D02*
X14888741Y-14069949D01*
X14888741Y-14069949D02*
X14879217Y-14079473D01*
X14879217Y-14079473D02*
X14860169Y-14088996D01*
X14860169Y-14088996D02*
X14841121Y-14088996D01*
X14841121Y-14088996D02*
X14822074Y-14079473D01*
X14822074Y-14079473D02*
X14812550Y-14069949D01*
X14812550Y-14069949D02*
X14803026Y-14050901D01*
X14803026Y-14050901D02*
X14793502Y-14012806D01*
X14793502Y-14012806D02*
X14793502Y-13965187D01*
X14793502Y-13965187D02*
X14803026Y-13927092D01*
X14803026Y-13927092D02*
X14812550Y-13908044D01*
X14812550Y-13908044D02*
X14822074Y-13898520D01*
X14822074Y-13898520D02*
X14841121Y-13888996D01*
X14993502Y-14069949D02*
X15003026Y-14079473D01*
X15003026Y-14079473D02*
X14993502Y-14088996D01*
X14993502Y-14088996D02*
X14983979Y-14079473D01*
X14983979Y-14079473D02*
X14993502Y-14069949D01*
X14993502Y-14069949D02*
X14993502Y-14088996D01*
X15126836Y-13888996D02*
X15145883Y-13888996D01*
X15145883Y-13888996D02*
X15164931Y-13898520D01*
X15164931Y-13898520D02*
X15174455Y-13908044D01*
X15174455Y-13908044D02*
X15183979Y-13927092D01*
X15183979Y-13927092D02*
X15193502Y-13965187D01*
X15193502Y-13965187D02*
X15193502Y-14012806D01*
X15193502Y-14012806D02*
X15183979Y-14050901D01*
X15183979Y-14050901D02*
X15174455Y-14069949D01*
X15174455Y-14069949D02*
X15164931Y-14079473D01*
X15164931Y-14079473D02*
X15145883Y-14088996D01*
X15145883Y-14088996D02*
X15126836Y-14088996D01*
X15126836Y-14088996D02*
X15107788Y-14079473D01*
X15107788Y-14079473D02*
X15098264Y-14069949D01*
X15098264Y-14069949D02*
X15088741Y-14050901D01*
X15088741Y-14050901D02*
X15079217Y-14012806D01*
X15079217Y-14012806D02*
X15079217Y-13965187D01*
X15079217Y-13965187D02*
X15088741Y-13927092D01*
X15088741Y-13927092D02*
X15098264Y-13908044D01*
X15098264Y-13908044D02*
X15107788Y-13898520D01*
X15107788Y-13898520D02*
X15126836Y-13888996D01*
X15317312Y-13888996D02*
X15336360Y-13888996D01*
X15336360Y-13888996D02*
X15355407Y-13898520D01*
X15355407Y-13898520D02*
X15364931Y-13908044D01*
X15364931Y-13908044D02*
X15374455Y-13927092D01*
X15374455Y-13927092D02*
X15383979Y-13965187D01*
X15383979Y-13965187D02*
X15383979Y-14012806D01*
X15383979Y-14012806D02*
X15374455Y-14050901D01*
X15374455Y-14050901D02*
X15364931Y-14069949D01*
X15364931Y-14069949D02*
X15355407Y-14079473D01*
X15355407Y-14079473D02*
X15336360Y-14088996D01*
X15336360Y-14088996D02*
X15317312Y-14088996D01*
X15317312Y-14088996D02*
X15298264Y-14079473D01*
X15298264Y-14079473D02*
X15288741Y-14069949D01*
X15288741Y-14069949D02*
X15279217Y-14050901D01*
X15279217Y-14050901D02*
X15269693Y-14012806D01*
X15269693Y-14012806D02*
X15269693Y-13965187D01*
X15269693Y-13965187D02*
X15279217Y-13927092D01*
X15279217Y-13927092D02*
X15288741Y-13908044D01*
X15288741Y-13908044D02*
X15298264Y-13898520D01*
X15298264Y-13898520D02*
X15317312Y-13888996D01*
X15498264Y-13974711D02*
X15479217Y-13965187D01*
X15479217Y-13965187D02*
X15469693Y-13955663D01*
X15469693Y-13955663D02*
X15460169Y-13936615D01*
X15460169Y-13936615D02*
X15460169Y-13927092D01*
X15460169Y-13927092D02*
X15469693Y-13908044D01*
X15469693Y-13908044D02*
X15479217Y-13898520D01*
X15479217Y-13898520D02*
X15498264Y-13888996D01*
X15498264Y-13888996D02*
X15536360Y-13888996D01*
X15536360Y-13888996D02*
X15555407Y-13898520D01*
X15555407Y-13898520D02*
X15564931Y-13908044D01*
X15564931Y-13908044D02*
X15574455Y-13927092D01*
X15574455Y-13927092D02*
X15574455Y-13936615D01*
X15574455Y-13936615D02*
X15564931Y-13955663D01*
X15564931Y-13955663D02*
X15555407Y-13965187D01*
X15555407Y-13965187D02*
X15536360Y-13974711D01*
X15536360Y-13974711D02*
X15498264Y-13974711D01*
X15498264Y-13974711D02*
X15479217Y-13984234D01*
X15479217Y-13984234D02*
X15469693Y-13993758D01*
X15469693Y-13993758D02*
X15460169Y-14012806D01*
X15460169Y-14012806D02*
X15460169Y-14050901D01*
X15460169Y-14050901D02*
X15469693Y-14069949D01*
X15469693Y-14069949D02*
X15479217Y-14079473D01*
X15479217Y-14079473D02*
X15498264Y-14088996D01*
X15498264Y-14088996D02*
X15536360Y-14088996D01*
X15536360Y-14088996D02*
X15555407Y-14079473D01*
X15555407Y-14079473D02*
X15564931Y-14069949D01*
X15564931Y-14069949D02*
X15574455Y-14050901D01*
X15574455Y-14050901D02*
X15574455Y-14012806D01*
X15574455Y-14012806D02*
X15564931Y-13993758D01*
X15564931Y-13993758D02*
X15555407Y-13984234D01*
X15555407Y-13984234D02*
X15536360Y-13974711D01*
X15698264Y-13888996D02*
X15717312Y-13888996D01*
X15717312Y-13888996D02*
X15736360Y-13898520D01*
X15736360Y-13898520D02*
X15745883Y-13908044D01*
X15745883Y-13908044D02*
X15755407Y-13927092D01*
X15755407Y-13927092D02*
X15764931Y-13965187D01*
X15764931Y-13965187D02*
X15764931Y-14012806D01*
X15764931Y-14012806D02*
X15755407Y-14050901D01*
X15755407Y-14050901D02*
X15745883Y-14069949D01*
X15745883Y-14069949D02*
X15736360Y-14079473D01*
X15736360Y-14079473D02*
X15717312Y-14088996D01*
X15717312Y-14088996D02*
X15698264Y-14088996D01*
X15698264Y-14088996D02*
X15679217Y-14079473D01*
X15679217Y-14079473D02*
X15669693Y-14069949D01*
X15669693Y-14069949D02*
X15660169Y-14050901D01*
X15660169Y-14050901D02*
X15650645Y-14012806D01*
X15650645Y-14012806D02*
X15650645Y-13965187D01*
X15650645Y-13965187D02*
X15660169Y-13927092D01*
X15660169Y-13927092D02*
X15669693Y-13908044D01*
X15669693Y-13908044D02*
X15679217Y-13898520D01*
X15679217Y-13898520D02*
X15698264Y-13888996D01*
X15841122Y-13888996D02*
X15841122Y-13927092D01*
X15917312Y-13888996D02*
X15917312Y-13927092D01*
X16212550Y-14165187D02*
X16203026Y-14155663D01*
X16203026Y-14155663D02*
X16183979Y-14127092D01*
X16183979Y-14127092D02*
X16174455Y-14108044D01*
X16174455Y-14108044D02*
X16164931Y-14079473D01*
X16164931Y-14079473D02*
X16155407Y-14031853D01*
X16155407Y-14031853D02*
X16155407Y-13993758D01*
X16155407Y-13993758D02*
X16164931Y-13946139D01*
X16164931Y-13946139D02*
X16174455Y-13917568D01*
X16174455Y-13917568D02*
X16183979Y-13898520D01*
X16183979Y-13898520D02*
X16203026Y-13869949D01*
X16203026Y-13869949D02*
X16212550Y-13860425D01*
X16383979Y-13888996D02*
X16288741Y-13888996D01*
X16288741Y-13888996D02*
X16279217Y-13984234D01*
X16279217Y-13984234D02*
X16288741Y-13974711D01*
X16288741Y-13974711D02*
X16307788Y-13965187D01*
X16307788Y-13965187D02*
X16355407Y-13965187D01*
X16355407Y-13965187D02*
X16374455Y-13974711D01*
X16374455Y-13974711D02*
X16383979Y-13984234D01*
X16383979Y-13984234D02*
X16393503Y-14003282D01*
X16393503Y-14003282D02*
X16393503Y-14050901D01*
X16393503Y-14050901D02*
X16383979Y-14069949D01*
X16383979Y-14069949D02*
X16374455Y-14079473D01*
X16374455Y-14079473D02*
X16355407Y-14088996D01*
X16355407Y-14088996D02*
X16307788Y-14088996D01*
X16307788Y-14088996D02*
X16288741Y-14079473D01*
X16288741Y-14079473D02*
X16279217Y-14069949D01*
X16631598Y-14088996D02*
X16631598Y-13888996D01*
X16717312Y-14088996D02*
X16717312Y-13984234D01*
X16717312Y-13984234D02*
X16707788Y-13965187D01*
X16707788Y-13965187D02*
X16688741Y-13955663D01*
X16688741Y-13955663D02*
X16660169Y-13955663D01*
X16660169Y-13955663D02*
X16641122Y-13965187D01*
X16641122Y-13965187D02*
X16631598Y-13974711D01*
X16841122Y-14088996D02*
X16822074Y-14079473D01*
X16822074Y-14079473D02*
X16812550Y-14069949D01*
X16812550Y-14069949D02*
X16803027Y-14050901D01*
X16803027Y-14050901D02*
X16803027Y-13993758D01*
X16803027Y-13993758D02*
X16812550Y-13974711D01*
X16812550Y-13974711D02*
X16822074Y-13965187D01*
X16822074Y-13965187D02*
X16841122Y-13955663D01*
X16841122Y-13955663D02*
X16869693Y-13955663D01*
X16869693Y-13955663D02*
X16888741Y-13965187D01*
X16888741Y-13965187D02*
X16898265Y-13974711D01*
X16898265Y-13974711D02*
X16907788Y-13993758D01*
X16907788Y-13993758D02*
X16907788Y-14050901D01*
X16907788Y-14050901D02*
X16898265Y-14069949D01*
X16898265Y-14069949D02*
X16888741Y-14079473D01*
X16888741Y-14079473D02*
X16869693Y-14088996D01*
X16869693Y-14088996D02*
X16841122Y-14088996D01*
X17022074Y-14088996D02*
X17003027Y-14079473D01*
X17003027Y-14079473D02*
X16993503Y-14060425D01*
X16993503Y-14060425D02*
X16993503Y-13888996D01*
X17174455Y-14079473D02*
X17155408Y-14088996D01*
X17155408Y-14088996D02*
X17117312Y-14088996D01*
X17117312Y-14088996D02*
X17098265Y-14079473D01*
X17098265Y-14079473D02*
X17088741Y-14060425D01*
X17088741Y-14060425D02*
X17088741Y-13984234D01*
X17088741Y-13984234D02*
X17098265Y-13965187D01*
X17098265Y-13965187D02*
X17117312Y-13955663D01*
X17117312Y-13955663D02*
X17155408Y-13955663D01*
X17155408Y-13955663D02*
X17174455Y-13965187D01*
X17174455Y-13965187D02*
X17183979Y-13984234D01*
X17183979Y-13984234D02*
X17183979Y-14003282D01*
X17183979Y-14003282D02*
X17088741Y-14022330D01*
X17260169Y-14079473D02*
X17279217Y-14088996D01*
X17279217Y-14088996D02*
X17317312Y-14088996D01*
X17317312Y-14088996D02*
X17336360Y-14079473D01*
X17336360Y-14079473D02*
X17345884Y-14060425D01*
X17345884Y-14060425D02*
X17345884Y-14050901D01*
X17345884Y-14050901D02*
X17336360Y-14031853D01*
X17336360Y-14031853D02*
X17317312Y-14022330D01*
X17317312Y-14022330D02*
X17288741Y-14022330D01*
X17288741Y-14022330D02*
X17269693Y-14012806D01*
X17269693Y-14012806D02*
X17260169Y-13993758D01*
X17260169Y-13993758D02*
X17260169Y-13984234D01*
X17260169Y-13984234D02*
X17269693Y-13965187D01*
X17269693Y-13965187D02*
X17288741Y-13955663D01*
X17288741Y-13955663D02*
X17317312Y-13955663D01*
X17317312Y-13955663D02*
X17336360Y-13965187D01*
X17412550Y-14165187D02*
X17422074Y-14155663D01*
X17422074Y-14155663D02*
X17441122Y-14127092D01*
X17441122Y-14127092D02*
X17450646Y-14108044D01*
X17450646Y-14108044D02*
X17460169Y-14079473D01*
X17460169Y-14079473D02*
X17469693Y-14031853D01*
X17469693Y-14031853D02*
X17469693Y-13993758D01*
X17469693Y-13993758D02*
X17460169Y-13946139D01*
X17460169Y-13946139D02*
X17450646Y-13917568D01*
X17450646Y-13917568D02*
X17441122Y-13898520D01*
X17441122Y-13898520D02*
X17422074Y-13869949D01*
X17422074Y-13869949D02*
X17412550Y-13860425D01*
D13*
X12637487Y-14261513D02*
G75*
G03*
X12637487Y-14261513I-12700J0D01*
G01*
D11*
X12936359Y-14152996D02*
X12955407Y-14152996D01*
X12955407Y-14152996D02*
X12974455Y-14162520D01*
X12974455Y-14162520D02*
X12983978Y-14172044D01*
X12983978Y-14172044D02*
X12993502Y-14191092D01*
X12993502Y-14191092D02*
X13003026Y-14229187D01*
X13003026Y-14229187D02*
X13003026Y-14276806D01*
X13003026Y-14276806D02*
X12993502Y-14314901D01*
X12993502Y-14314901D02*
X12983978Y-14333949D01*
X12983978Y-14333949D02*
X12974455Y-14343473D01*
X12974455Y-14343473D02*
X12955407Y-14352996D01*
X12955407Y-14352996D02*
X12936359Y-14352996D01*
X12936359Y-14352996D02*
X12917312Y-14343473D01*
X12917312Y-14343473D02*
X12907788Y-14333949D01*
X12907788Y-14333949D02*
X12898264Y-14314901D01*
X12898264Y-14314901D02*
X12888740Y-14276806D01*
X12888740Y-14276806D02*
X12888740Y-14229187D01*
X12888740Y-14229187D02*
X12898264Y-14191092D01*
X12898264Y-14191092D02*
X12907788Y-14172044D01*
X12907788Y-14172044D02*
X12917312Y-14162520D01*
X12917312Y-14162520D02*
X12936359Y-14152996D01*
X13088740Y-14333949D02*
X13098264Y-14343473D01*
X13098264Y-14343473D02*
X13088740Y-14352996D01*
X13088740Y-14352996D02*
X13079217Y-14343473D01*
X13079217Y-14343473D02*
X13088740Y-14333949D01*
X13088740Y-14333949D02*
X13088740Y-14352996D01*
X13174455Y-14172044D02*
X13183978Y-14162520D01*
X13183978Y-14162520D02*
X13203026Y-14152996D01*
X13203026Y-14152996D02*
X13250645Y-14152996D01*
X13250645Y-14152996D02*
X13269693Y-14162520D01*
X13269693Y-14162520D02*
X13279217Y-14172044D01*
X13279217Y-14172044D02*
X13288740Y-14191092D01*
X13288740Y-14191092D02*
X13288740Y-14210139D01*
X13288740Y-14210139D02*
X13279217Y-14238711D01*
X13279217Y-14238711D02*
X13164931Y-14352996D01*
X13164931Y-14352996D02*
X13288740Y-14352996D01*
X13469693Y-14152996D02*
X13374455Y-14152996D01*
X13374455Y-14152996D02*
X13364931Y-14248234D01*
X13364931Y-14248234D02*
X13374455Y-14238711D01*
X13374455Y-14238711D02*
X13393502Y-14229187D01*
X13393502Y-14229187D02*
X13441121Y-14229187D01*
X13441121Y-14229187D02*
X13460169Y-14238711D01*
X13460169Y-14238711D02*
X13469693Y-14248234D01*
X13469693Y-14248234D02*
X13479217Y-14267282D01*
X13479217Y-14267282D02*
X13479217Y-14314901D01*
X13479217Y-14314901D02*
X13469693Y-14333949D01*
X13469693Y-14333949D02*
X13460169Y-14343473D01*
X13460169Y-14343473D02*
X13441121Y-14352996D01*
X13441121Y-14352996D02*
X13393502Y-14352996D01*
X13393502Y-14352996D02*
X13374455Y-14343473D01*
X13374455Y-14343473D02*
X13364931Y-14333949D01*
X13650645Y-14219663D02*
X13650645Y-14352996D01*
X13603026Y-14143473D02*
X13555407Y-14286330D01*
X13555407Y-14286330D02*
X13679217Y-14286330D01*
X13755407Y-14352996D02*
X13755407Y-14219663D01*
X13755407Y-14238711D02*
X13764931Y-14229187D01*
X13764931Y-14229187D02*
X13783978Y-14219663D01*
X13783978Y-14219663D02*
X13812550Y-14219663D01*
X13812550Y-14219663D02*
X13831598Y-14229187D01*
X13831598Y-14229187D02*
X13841121Y-14248234D01*
X13841121Y-14248234D02*
X13841121Y-14352996D01*
X13841121Y-14248234D02*
X13850645Y-14229187D01*
X13850645Y-14229187D02*
X13869693Y-14219663D01*
X13869693Y-14219663D02*
X13898264Y-14219663D01*
X13898264Y-14219663D02*
X13917312Y-14229187D01*
X13917312Y-14229187D02*
X13926836Y-14248234D01*
X13926836Y-14248234D02*
X13926836Y-14352996D01*
X14022074Y-14352996D02*
X14022074Y-14219663D01*
X14022074Y-14238711D02*
X14031598Y-14229187D01*
X14031598Y-14229187D02*
X14050645Y-14219663D01*
X14050645Y-14219663D02*
X14079217Y-14219663D01*
X14079217Y-14219663D02*
X14098264Y-14229187D01*
X14098264Y-14229187D02*
X14107788Y-14248234D01*
X14107788Y-14248234D02*
X14107788Y-14352996D01*
X14107788Y-14248234D02*
X14117312Y-14229187D01*
X14117312Y-14229187D02*
X14136359Y-14219663D01*
X14136359Y-14219663D02*
X14164931Y-14219663D01*
X14164931Y-14219663D02*
X14183979Y-14229187D01*
X14183979Y-14229187D02*
X14193502Y-14248234D01*
X14193502Y-14248234D02*
X14193502Y-14352996D01*
X14583979Y-14143473D02*
X14412550Y-14400615D01*
X14841121Y-14152996D02*
X14860169Y-14152996D01*
X14860169Y-14152996D02*
X14879217Y-14162520D01*
X14879217Y-14162520D02*
X14888741Y-14172044D01*
X14888741Y-14172044D02*
X14898264Y-14191092D01*
X14898264Y-14191092D02*
X14907788Y-14229187D01*
X14907788Y-14229187D02*
X14907788Y-14276806D01*
X14907788Y-14276806D02*
X14898264Y-14314901D01*
X14898264Y-14314901D02*
X14888741Y-14333949D01*
X14888741Y-14333949D02*
X14879217Y-14343473D01*
X14879217Y-14343473D02*
X14860169Y-14352996D01*
X14860169Y-14352996D02*
X14841121Y-14352996D01*
X14841121Y-14352996D02*
X14822074Y-14343473D01*
X14822074Y-14343473D02*
X14812550Y-14333949D01*
X14812550Y-14333949D02*
X14803026Y-14314901D01*
X14803026Y-14314901D02*
X14793502Y-14276806D01*
X14793502Y-14276806D02*
X14793502Y-14229187D01*
X14793502Y-14229187D02*
X14803026Y-14191092D01*
X14803026Y-14191092D02*
X14812550Y-14172044D01*
X14812550Y-14172044D02*
X14822074Y-14162520D01*
X14822074Y-14162520D02*
X14841121Y-14152996D01*
X14993502Y-14333949D02*
X15003026Y-14343473D01*
X15003026Y-14343473D02*
X14993502Y-14352996D01*
X14993502Y-14352996D02*
X14983979Y-14343473D01*
X14983979Y-14343473D02*
X14993502Y-14333949D01*
X14993502Y-14333949D02*
X14993502Y-14352996D01*
X15126836Y-14152996D02*
X15145883Y-14152996D01*
X15145883Y-14152996D02*
X15164931Y-14162520D01*
X15164931Y-14162520D02*
X15174455Y-14172044D01*
X15174455Y-14172044D02*
X15183979Y-14191092D01*
X15183979Y-14191092D02*
X15193502Y-14229187D01*
X15193502Y-14229187D02*
X15193502Y-14276806D01*
X15193502Y-14276806D02*
X15183979Y-14314901D01*
X15183979Y-14314901D02*
X15174455Y-14333949D01*
X15174455Y-14333949D02*
X15164931Y-14343473D01*
X15164931Y-14343473D02*
X15145883Y-14352996D01*
X15145883Y-14352996D02*
X15126836Y-14352996D01*
X15126836Y-14352996D02*
X15107788Y-14343473D01*
X15107788Y-14343473D02*
X15098264Y-14333949D01*
X15098264Y-14333949D02*
X15088741Y-14314901D01*
X15088741Y-14314901D02*
X15079217Y-14276806D01*
X15079217Y-14276806D02*
X15079217Y-14229187D01*
X15079217Y-14229187D02*
X15088741Y-14191092D01*
X15088741Y-14191092D02*
X15098264Y-14172044D01*
X15098264Y-14172044D02*
X15107788Y-14162520D01*
X15107788Y-14162520D02*
X15126836Y-14152996D01*
X15383979Y-14352996D02*
X15269693Y-14352996D01*
X15326836Y-14352996D02*
X15326836Y-14152996D01*
X15326836Y-14152996D02*
X15307788Y-14181568D01*
X15307788Y-14181568D02*
X15288741Y-14200615D01*
X15288741Y-14200615D02*
X15269693Y-14210139D01*
X15507788Y-14152996D02*
X15526836Y-14152996D01*
X15526836Y-14152996D02*
X15545883Y-14162520D01*
X15545883Y-14162520D02*
X15555407Y-14172044D01*
X15555407Y-14172044D02*
X15564931Y-14191092D01*
X15564931Y-14191092D02*
X15574455Y-14229187D01*
X15574455Y-14229187D02*
X15574455Y-14276806D01*
X15574455Y-14276806D02*
X15564931Y-14314901D01*
X15564931Y-14314901D02*
X15555407Y-14333949D01*
X15555407Y-14333949D02*
X15545883Y-14343473D01*
X15545883Y-14343473D02*
X15526836Y-14352996D01*
X15526836Y-14352996D02*
X15507788Y-14352996D01*
X15507788Y-14352996D02*
X15488741Y-14343473D01*
X15488741Y-14343473D02*
X15479217Y-14333949D01*
X15479217Y-14333949D02*
X15469693Y-14314901D01*
X15469693Y-14314901D02*
X15460169Y-14276806D01*
X15460169Y-14276806D02*
X15460169Y-14229187D01*
X15460169Y-14229187D02*
X15469693Y-14191092D01*
X15469693Y-14191092D02*
X15479217Y-14172044D01*
X15479217Y-14172044D02*
X15488741Y-14162520D01*
X15488741Y-14162520D02*
X15507788Y-14152996D01*
X15698264Y-14152996D02*
X15717312Y-14152996D01*
X15717312Y-14152996D02*
X15736360Y-14162520D01*
X15736360Y-14162520D02*
X15745883Y-14172044D01*
X15745883Y-14172044D02*
X15755407Y-14191092D01*
X15755407Y-14191092D02*
X15764931Y-14229187D01*
X15764931Y-14229187D02*
X15764931Y-14276806D01*
X15764931Y-14276806D02*
X15755407Y-14314901D01*
X15755407Y-14314901D02*
X15745883Y-14333949D01*
X15745883Y-14333949D02*
X15736360Y-14343473D01*
X15736360Y-14343473D02*
X15717312Y-14352996D01*
X15717312Y-14352996D02*
X15698264Y-14352996D01*
X15698264Y-14352996D02*
X15679217Y-14343473D01*
X15679217Y-14343473D02*
X15669693Y-14333949D01*
X15669693Y-14333949D02*
X15660169Y-14314901D01*
X15660169Y-14314901D02*
X15650645Y-14276806D01*
X15650645Y-14276806D02*
X15650645Y-14229187D01*
X15650645Y-14229187D02*
X15660169Y-14191092D01*
X15660169Y-14191092D02*
X15669693Y-14172044D01*
X15669693Y-14172044D02*
X15679217Y-14162520D01*
X15679217Y-14162520D02*
X15698264Y-14152996D01*
X15841122Y-14152996D02*
X15841122Y-14191092D01*
X15917312Y-14152996D02*
X15917312Y-14191092D01*
X16212550Y-14429187D02*
X16203026Y-14419663D01*
X16203026Y-14419663D02*
X16183979Y-14391092D01*
X16183979Y-14391092D02*
X16174455Y-14372044D01*
X16174455Y-14372044D02*
X16164931Y-14343473D01*
X16164931Y-14343473D02*
X16155407Y-14295853D01*
X16155407Y-14295853D02*
X16155407Y-14257758D01*
X16155407Y-14257758D02*
X16164931Y-14210139D01*
X16164931Y-14210139D02*
X16174455Y-14181568D01*
X16174455Y-14181568D02*
X16183979Y-14162520D01*
X16183979Y-14162520D02*
X16203026Y-14133949D01*
X16203026Y-14133949D02*
X16212550Y-14124425D01*
X16279217Y-14172044D02*
X16288741Y-14162520D01*
X16288741Y-14162520D02*
X16307788Y-14152996D01*
X16307788Y-14152996D02*
X16355407Y-14152996D01*
X16355407Y-14152996D02*
X16374455Y-14162520D01*
X16374455Y-14162520D02*
X16383979Y-14172044D01*
X16383979Y-14172044D02*
X16393503Y-14191092D01*
X16393503Y-14191092D02*
X16393503Y-14210139D01*
X16393503Y-14210139D02*
X16383979Y-14238711D01*
X16383979Y-14238711D02*
X16269693Y-14352996D01*
X16269693Y-14352996D02*
X16393503Y-14352996D01*
X16631598Y-14352996D02*
X16631598Y-14152996D01*
X16717312Y-14352996D02*
X16717312Y-14248234D01*
X16717312Y-14248234D02*
X16707788Y-14229187D01*
X16707788Y-14229187D02*
X16688741Y-14219663D01*
X16688741Y-14219663D02*
X16660169Y-14219663D01*
X16660169Y-14219663D02*
X16641122Y-14229187D01*
X16641122Y-14229187D02*
X16631598Y-14238711D01*
X16841122Y-14352996D02*
X16822074Y-14343473D01*
X16822074Y-14343473D02*
X16812550Y-14333949D01*
X16812550Y-14333949D02*
X16803027Y-14314901D01*
X16803027Y-14314901D02*
X16803027Y-14257758D01*
X16803027Y-14257758D02*
X16812550Y-14238711D01*
X16812550Y-14238711D02*
X16822074Y-14229187D01*
X16822074Y-14229187D02*
X16841122Y-14219663D01*
X16841122Y-14219663D02*
X16869693Y-14219663D01*
X16869693Y-14219663D02*
X16888741Y-14229187D01*
X16888741Y-14229187D02*
X16898265Y-14238711D01*
X16898265Y-14238711D02*
X16907788Y-14257758D01*
X16907788Y-14257758D02*
X16907788Y-14314901D01*
X16907788Y-14314901D02*
X16898265Y-14333949D01*
X16898265Y-14333949D02*
X16888741Y-14343473D01*
X16888741Y-14343473D02*
X16869693Y-14352996D01*
X16869693Y-14352996D02*
X16841122Y-14352996D01*
X17022074Y-14352996D02*
X17003027Y-14343473D01*
X17003027Y-14343473D02*
X16993503Y-14324425D01*
X16993503Y-14324425D02*
X16993503Y-14152996D01*
X17174455Y-14343473D02*
X17155408Y-14352996D01*
X17155408Y-14352996D02*
X17117312Y-14352996D01*
X17117312Y-14352996D02*
X17098265Y-14343473D01*
X17098265Y-14343473D02*
X17088741Y-14324425D01*
X17088741Y-14324425D02*
X17088741Y-14248234D01*
X17088741Y-14248234D02*
X17098265Y-14229187D01*
X17098265Y-14229187D02*
X17117312Y-14219663D01*
X17117312Y-14219663D02*
X17155408Y-14219663D01*
X17155408Y-14219663D02*
X17174455Y-14229187D01*
X17174455Y-14229187D02*
X17183979Y-14248234D01*
X17183979Y-14248234D02*
X17183979Y-14267282D01*
X17183979Y-14267282D02*
X17088741Y-14286330D01*
X17260169Y-14343473D02*
X17279217Y-14352996D01*
X17279217Y-14352996D02*
X17317312Y-14352996D01*
X17317312Y-14352996D02*
X17336360Y-14343473D01*
X17336360Y-14343473D02*
X17345884Y-14324425D01*
X17345884Y-14324425D02*
X17345884Y-14314901D01*
X17345884Y-14314901D02*
X17336360Y-14295853D01*
X17336360Y-14295853D02*
X17317312Y-14286330D01*
X17317312Y-14286330D02*
X17288741Y-14286330D01*
X17288741Y-14286330D02*
X17269693Y-14276806D01*
X17269693Y-14276806D02*
X17260169Y-14257758D01*
X17260169Y-14257758D02*
X17260169Y-14248234D01*
X17260169Y-14248234D02*
X17269693Y-14229187D01*
X17269693Y-14229187D02*
X17288741Y-14219663D01*
X17288741Y-14219663D02*
X17317312Y-14219663D01*
X17317312Y-14219663D02*
X17336360Y-14229187D01*
X17412550Y-14429187D02*
X17422074Y-14419663D01*
X17422074Y-14419663D02*
X17441122Y-14391092D01*
X17441122Y-14391092D02*
X17450646Y-14372044D01*
X17450646Y-14372044D02*
X17460169Y-14343473D01*
X17460169Y-14343473D02*
X17469693Y-14295853D01*
X17469693Y-14295853D02*
X17469693Y-14257758D01*
X17469693Y-14257758D02*
X17460169Y-14210139D01*
X17460169Y-14210139D02*
X17450646Y-14181568D01*
X17450646Y-14181568D02*
X17441122Y-14162520D01*
X17441122Y-14162520D02*
X17422074Y-14133949D01*
X17422074Y-14133949D02*
X17412550Y-14124425D01*
D14*
X12622487Y-14510513D02*
X12622487Y-14540513D01*
X12607487Y-14525513D02*
X12637487Y-14525513D01*
D11*
X12936359Y-14416996D02*
X12955407Y-14416996D01*
X12955407Y-14416996D02*
X12974455Y-14426520D01*
X12974455Y-14426520D02*
X12983978Y-14436044D01*
X12983978Y-14436044D02*
X12993502Y-14455092D01*
X12993502Y-14455092D02*
X13003026Y-14493187D01*
X13003026Y-14493187D02*
X13003026Y-14540806D01*
X13003026Y-14540806D02*
X12993502Y-14578901D01*
X12993502Y-14578901D02*
X12983978Y-14597949D01*
X12983978Y-14597949D02*
X12974455Y-14607473D01*
X12974455Y-14607473D02*
X12955407Y-14616996D01*
X12955407Y-14616996D02*
X12936359Y-14616996D01*
X12936359Y-14616996D02*
X12917312Y-14607473D01*
X12917312Y-14607473D02*
X12907788Y-14597949D01*
X12907788Y-14597949D02*
X12898264Y-14578901D01*
X12898264Y-14578901D02*
X12888740Y-14540806D01*
X12888740Y-14540806D02*
X12888740Y-14493187D01*
X12888740Y-14493187D02*
X12898264Y-14455092D01*
X12898264Y-14455092D02*
X12907788Y-14436044D01*
X12907788Y-14436044D02*
X12917312Y-14426520D01*
X12917312Y-14426520D02*
X12936359Y-14416996D01*
X13088740Y-14597949D02*
X13098264Y-14607473D01*
X13098264Y-14607473D02*
X13088740Y-14616996D01*
X13088740Y-14616996D02*
X13079217Y-14607473D01*
X13079217Y-14607473D02*
X13088740Y-14597949D01*
X13088740Y-14597949D02*
X13088740Y-14616996D01*
X13164931Y-14416996D02*
X13288740Y-14416996D01*
X13288740Y-14416996D02*
X13222074Y-14493187D01*
X13222074Y-14493187D02*
X13250645Y-14493187D01*
X13250645Y-14493187D02*
X13269693Y-14502711D01*
X13269693Y-14502711D02*
X13279217Y-14512234D01*
X13279217Y-14512234D02*
X13288740Y-14531282D01*
X13288740Y-14531282D02*
X13288740Y-14578901D01*
X13288740Y-14578901D02*
X13279217Y-14597949D01*
X13279217Y-14597949D02*
X13269693Y-14607473D01*
X13269693Y-14607473D02*
X13250645Y-14616996D01*
X13250645Y-14616996D02*
X13193502Y-14616996D01*
X13193502Y-14616996D02*
X13174455Y-14607473D01*
X13174455Y-14607473D02*
X13164931Y-14597949D01*
X13412550Y-14416996D02*
X13431598Y-14416996D01*
X13431598Y-14416996D02*
X13450645Y-14426520D01*
X13450645Y-14426520D02*
X13460169Y-14436044D01*
X13460169Y-14436044D02*
X13469693Y-14455092D01*
X13469693Y-14455092D02*
X13479217Y-14493187D01*
X13479217Y-14493187D02*
X13479217Y-14540806D01*
X13479217Y-14540806D02*
X13469693Y-14578901D01*
X13469693Y-14578901D02*
X13460169Y-14597949D01*
X13460169Y-14597949D02*
X13450645Y-14607473D01*
X13450645Y-14607473D02*
X13431598Y-14616996D01*
X13431598Y-14616996D02*
X13412550Y-14616996D01*
X13412550Y-14616996D02*
X13393502Y-14607473D01*
X13393502Y-14607473D02*
X13383978Y-14597949D01*
X13383978Y-14597949D02*
X13374455Y-14578901D01*
X13374455Y-14578901D02*
X13364931Y-14540806D01*
X13364931Y-14540806D02*
X13364931Y-14493187D01*
X13364931Y-14493187D02*
X13374455Y-14455092D01*
X13374455Y-14455092D02*
X13383978Y-14436044D01*
X13383978Y-14436044D02*
X13393502Y-14426520D01*
X13393502Y-14426520D02*
X13412550Y-14416996D01*
X13603026Y-14416996D02*
X13622074Y-14416996D01*
X13622074Y-14416996D02*
X13641121Y-14426520D01*
X13641121Y-14426520D02*
X13650645Y-14436044D01*
X13650645Y-14436044D02*
X13660169Y-14455092D01*
X13660169Y-14455092D02*
X13669693Y-14493187D01*
X13669693Y-14493187D02*
X13669693Y-14540806D01*
X13669693Y-14540806D02*
X13660169Y-14578901D01*
X13660169Y-14578901D02*
X13650645Y-14597949D01*
X13650645Y-14597949D02*
X13641121Y-14607473D01*
X13641121Y-14607473D02*
X13622074Y-14616996D01*
X13622074Y-14616996D02*
X13603026Y-14616996D01*
X13603026Y-14616996D02*
X13583978Y-14607473D01*
X13583978Y-14607473D02*
X13574455Y-14597949D01*
X13574455Y-14597949D02*
X13564931Y-14578901D01*
X13564931Y-14578901D02*
X13555407Y-14540806D01*
X13555407Y-14540806D02*
X13555407Y-14493187D01*
X13555407Y-14493187D02*
X13564931Y-14455092D01*
X13564931Y-14455092D02*
X13574455Y-14436044D01*
X13574455Y-14436044D02*
X13583978Y-14426520D01*
X13583978Y-14426520D02*
X13603026Y-14416996D01*
X13755407Y-14616996D02*
X13755407Y-14483663D01*
X13755407Y-14502711D02*
X13764931Y-14493187D01*
X13764931Y-14493187D02*
X13783978Y-14483663D01*
X13783978Y-14483663D02*
X13812550Y-14483663D01*
X13812550Y-14483663D02*
X13831598Y-14493187D01*
X13831598Y-14493187D02*
X13841121Y-14512234D01*
X13841121Y-14512234D02*
X13841121Y-14616996D01*
X13841121Y-14512234D02*
X13850645Y-14493187D01*
X13850645Y-14493187D02*
X13869693Y-14483663D01*
X13869693Y-14483663D02*
X13898264Y-14483663D01*
X13898264Y-14483663D02*
X13917312Y-14493187D01*
X13917312Y-14493187D02*
X13926836Y-14512234D01*
X13926836Y-14512234D02*
X13926836Y-14616996D01*
X14022074Y-14616996D02*
X14022074Y-14483663D01*
X14022074Y-14502711D02*
X14031598Y-14493187D01*
X14031598Y-14493187D02*
X14050645Y-14483663D01*
X14050645Y-14483663D02*
X14079217Y-14483663D01*
X14079217Y-14483663D02*
X14098264Y-14493187D01*
X14098264Y-14493187D02*
X14107788Y-14512234D01*
X14107788Y-14512234D02*
X14107788Y-14616996D01*
X14107788Y-14512234D02*
X14117312Y-14493187D01*
X14117312Y-14493187D02*
X14136359Y-14483663D01*
X14136359Y-14483663D02*
X14164931Y-14483663D01*
X14164931Y-14483663D02*
X14183979Y-14493187D01*
X14183979Y-14493187D02*
X14193502Y-14512234D01*
X14193502Y-14512234D02*
X14193502Y-14616996D01*
X14583979Y-14407473D02*
X14412550Y-14664615D01*
X14841121Y-14416996D02*
X14860169Y-14416996D01*
X14860169Y-14416996D02*
X14879217Y-14426520D01*
X14879217Y-14426520D02*
X14888741Y-14436044D01*
X14888741Y-14436044D02*
X14898264Y-14455092D01*
X14898264Y-14455092D02*
X14907788Y-14493187D01*
X14907788Y-14493187D02*
X14907788Y-14540806D01*
X14907788Y-14540806D02*
X14898264Y-14578901D01*
X14898264Y-14578901D02*
X14888741Y-14597949D01*
X14888741Y-14597949D02*
X14879217Y-14607473D01*
X14879217Y-14607473D02*
X14860169Y-14616996D01*
X14860169Y-14616996D02*
X14841121Y-14616996D01*
X14841121Y-14616996D02*
X14822074Y-14607473D01*
X14822074Y-14607473D02*
X14812550Y-14597949D01*
X14812550Y-14597949D02*
X14803026Y-14578901D01*
X14803026Y-14578901D02*
X14793502Y-14540806D01*
X14793502Y-14540806D02*
X14793502Y-14493187D01*
X14793502Y-14493187D02*
X14803026Y-14455092D01*
X14803026Y-14455092D02*
X14812550Y-14436044D01*
X14812550Y-14436044D02*
X14822074Y-14426520D01*
X14822074Y-14426520D02*
X14841121Y-14416996D01*
X14993502Y-14597949D02*
X15003026Y-14607473D01*
X15003026Y-14607473D02*
X14993502Y-14616996D01*
X14993502Y-14616996D02*
X14983979Y-14607473D01*
X14983979Y-14607473D02*
X14993502Y-14597949D01*
X14993502Y-14597949D02*
X14993502Y-14616996D01*
X15126836Y-14416996D02*
X15145883Y-14416996D01*
X15145883Y-14416996D02*
X15164931Y-14426520D01*
X15164931Y-14426520D02*
X15174455Y-14436044D01*
X15174455Y-14436044D02*
X15183979Y-14455092D01*
X15183979Y-14455092D02*
X15193502Y-14493187D01*
X15193502Y-14493187D02*
X15193502Y-14540806D01*
X15193502Y-14540806D02*
X15183979Y-14578901D01*
X15183979Y-14578901D02*
X15174455Y-14597949D01*
X15174455Y-14597949D02*
X15164931Y-14607473D01*
X15164931Y-14607473D02*
X15145883Y-14616996D01*
X15145883Y-14616996D02*
X15126836Y-14616996D01*
X15126836Y-14616996D02*
X15107788Y-14607473D01*
X15107788Y-14607473D02*
X15098264Y-14597949D01*
X15098264Y-14597949D02*
X15088741Y-14578901D01*
X15088741Y-14578901D02*
X15079217Y-14540806D01*
X15079217Y-14540806D02*
X15079217Y-14493187D01*
X15079217Y-14493187D02*
X15088741Y-14455092D01*
X15088741Y-14455092D02*
X15098264Y-14436044D01*
X15098264Y-14436044D02*
X15107788Y-14426520D01*
X15107788Y-14426520D02*
X15126836Y-14416996D01*
X15383979Y-14616996D02*
X15269693Y-14616996D01*
X15326836Y-14616996D02*
X15326836Y-14416996D01*
X15326836Y-14416996D02*
X15307788Y-14445568D01*
X15307788Y-14445568D02*
X15288741Y-14464615D01*
X15288741Y-14464615D02*
X15269693Y-14474139D01*
X15574455Y-14616996D02*
X15460169Y-14616996D01*
X15517312Y-14616996D02*
X15517312Y-14416996D01*
X15517312Y-14416996D02*
X15498264Y-14445568D01*
X15498264Y-14445568D02*
X15479217Y-14464615D01*
X15479217Y-14464615D02*
X15460169Y-14474139D01*
X15688741Y-14502711D02*
X15669693Y-14493187D01*
X15669693Y-14493187D02*
X15660169Y-14483663D01*
X15660169Y-14483663D02*
X15650645Y-14464615D01*
X15650645Y-14464615D02*
X15650645Y-14455092D01*
X15650645Y-14455092D02*
X15660169Y-14436044D01*
X15660169Y-14436044D02*
X15669693Y-14426520D01*
X15669693Y-14426520D02*
X15688741Y-14416996D01*
X15688741Y-14416996D02*
X15726836Y-14416996D01*
X15726836Y-14416996D02*
X15745883Y-14426520D01*
X15745883Y-14426520D02*
X15755407Y-14436044D01*
X15755407Y-14436044D02*
X15764931Y-14455092D01*
X15764931Y-14455092D02*
X15764931Y-14464615D01*
X15764931Y-14464615D02*
X15755407Y-14483663D01*
X15755407Y-14483663D02*
X15745883Y-14493187D01*
X15745883Y-14493187D02*
X15726836Y-14502711D01*
X15726836Y-14502711D02*
X15688741Y-14502711D01*
X15688741Y-14502711D02*
X15669693Y-14512234D01*
X15669693Y-14512234D02*
X15660169Y-14521758D01*
X15660169Y-14521758D02*
X15650645Y-14540806D01*
X15650645Y-14540806D02*
X15650645Y-14578901D01*
X15650645Y-14578901D02*
X15660169Y-14597949D01*
X15660169Y-14597949D02*
X15669693Y-14607473D01*
X15669693Y-14607473D02*
X15688741Y-14616996D01*
X15688741Y-14616996D02*
X15726836Y-14616996D01*
X15726836Y-14616996D02*
X15745883Y-14607473D01*
X15745883Y-14607473D02*
X15755407Y-14597949D01*
X15755407Y-14597949D02*
X15764931Y-14578901D01*
X15764931Y-14578901D02*
X15764931Y-14540806D01*
X15764931Y-14540806D02*
X15755407Y-14521758D01*
X15755407Y-14521758D02*
X15745883Y-14512234D01*
X15745883Y-14512234D02*
X15726836Y-14502711D01*
X15841122Y-14416996D02*
X15841122Y-14455092D01*
X15917312Y-14416996D02*
X15917312Y-14455092D01*
X16212550Y-14693187D02*
X16203026Y-14683663D01*
X16203026Y-14683663D02*
X16183979Y-14655092D01*
X16183979Y-14655092D02*
X16174455Y-14636044D01*
X16174455Y-14636044D02*
X16164931Y-14607473D01*
X16164931Y-14607473D02*
X16155407Y-14559853D01*
X16155407Y-14559853D02*
X16155407Y-14521758D01*
X16155407Y-14521758D02*
X16164931Y-14474139D01*
X16164931Y-14474139D02*
X16174455Y-14445568D01*
X16174455Y-14445568D02*
X16183979Y-14426520D01*
X16183979Y-14426520D02*
X16203026Y-14397949D01*
X16203026Y-14397949D02*
X16212550Y-14388425D01*
X16393503Y-14616996D02*
X16279217Y-14616996D01*
X16336360Y-14616996D02*
X16336360Y-14416996D01*
X16336360Y-14416996D02*
X16317312Y-14445568D01*
X16317312Y-14445568D02*
X16298264Y-14464615D01*
X16298264Y-14464615D02*
X16279217Y-14474139D01*
X16460169Y-14416996D02*
X16583979Y-14416996D01*
X16583979Y-14416996D02*
X16517312Y-14493187D01*
X16517312Y-14493187D02*
X16545884Y-14493187D01*
X16545884Y-14493187D02*
X16564931Y-14502711D01*
X16564931Y-14502711D02*
X16574455Y-14512234D01*
X16574455Y-14512234D02*
X16583979Y-14531282D01*
X16583979Y-14531282D02*
X16583979Y-14578901D01*
X16583979Y-14578901D02*
X16574455Y-14597949D01*
X16574455Y-14597949D02*
X16564931Y-14607473D01*
X16564931Y-14607473D02*
X16545884Y-14616996D01*
X16545884Y-14616996D02*
X16488741Y-14616996D01*
X16488741Y-14616996D02*
X16469693Y-14607473D01*
X16469693Y-14607473D02*
X16460169Y-14597949D01*
X16660169Y-14436044D02*
X16669693Y-14426520D01*
X16669693Y-14426520D02*
X16688741Y-14416996D01*
X16688741Y-14416996D02*
X16736360Y-14416996D01*
X16736360Y-14416996D02*
X16755407Y-14426520D01*
X16755407Y-14426520D02*
X16764931Y-14436044D01*
X16764931Y-14436044D02*
X16774455Y-14455092D01*
X16774455Y-14455092D02*
X16774455Y-14474139D01*
X16774455Y-14474139D02*
X16764931Y-14502711D01*
X16764931Y-14502711D02*
X16650645Y-14616996D01*
X16650645Y-14616996D02*
X16774455Y-14616996D01*
X17012550Y-14616996D02*
X17012550Y-14416996D01*
X17098265Y-14616996D02*
X17098265Y-14512234D01*
X17098265Y-14512234D02*
X17088741Y-14493187D01*
X17088741Y-14493187D02*
X17069693Y-14483663D01*
X17069693Y-14483663D02*
X17041122Y-14483663D01*
X17041122Y-14483663D02*
X17022074Y-14493187D01*
X17022074Y-14493187D02*
X17012550Y-14502711D01*
X17222074Y-14616996D02*
X17203027Y-14607473D01*
X17203027Y-14607473D02*
X17193503Y-14597949D01*
X17193503Y-14597949D02*
X17183979Y-14578901D01*
X17183979Y-14578901D02*
X17183979Y-14521758D01*
X17183979Y-14521758D02*
X17193503Y-14502711D01*
X17193503Y-14502711D02*
X17203027Y-14493187D01*
X17203027Y-14493187D02*
X17222074Y-14483663D01*
X17222074Y-14483663D02*
X17250646Y-14483663D01*
X17250646Y-14483663D02*
X17269693Y-14493187D01*
X17269693Y-14493187D02*
X17279217Y-14502711D01*
X17279217Y-14502711D02*
X17288741Y-14521758D01*
X17288741Y-14521758D02*
X17288741Y-14578901D01*
X17288741Y-14578901D02*
X17279217Y-14597949D01*
X17279217Y-14597949D02*
X17269693Y-14607473D01*
X17269693Y-14607473D02*
X17250646Y-14616996D01*
X17250646Y-14616996D02*
X17222074Y-14616996D01*
X17403027Y-14616996D02*
X17383979Y-14607473D01*
X17383979Y-14607473D02*
X17374455Y-14588425D01*
X17374455Y-14588425D02*
X17374455Y-14416996D01*
X17555408Y-14607473D02*
X17536360Y-14616996D01*
X17536360Y-14616996D02*
X17498265Y-14616996D01*
X17498265Y-14616996D02*
X17479217Y-14607473D01*
X17479217Y-14607473D02*
X17469693Y-14588425D01*
X17469693Y-14588425D02*
X17469693Y-14512234D01*
X17469693Y-14512234D02*
X17479217Y-14493187D01*
X17479217Y-14493187D02*
X17498265Y-14483663D01*
X17498265Y-14483663D02*
X17536360Y-14483663D01*
X17536360Y-14483663D02*
X17555408Y-14493187D01*
X17555408Y-14493187D02*
X17564931Y-14512234D01*
X17564931Y-14512234D02*
X17564931Y-14531282D01*
X17564931Y-14531282D02*
X17469693Y-14550330D01*
X17641122Y-14607473D02*
X17660169Y-14616996D01*
X17660169Y-14616996D02*
X17698265Y-14616996D01*
X17698265Y-14616996D02*
X17717312Y-14607473D01*
X17717312Y-14607473D02*
X17726836Y-14588425D01*
X17726836Y-14588425D02*
X17726836Y-14578901D01*
X17726836Y-14578901D02*
X17717312Y-14559853D01*
X17717312Y-14559853D02*
X17698265Y-14550330D01*
X17698265Y-14550330D02*
X17669693Y-14550330D01*
X17669693Y-14550330D02*
X17650646Y-14540806D01*
X17650646Y-14540806D02*
X17641122Y-14521758D01*
X17641122Y-14521758D02*
X17641122Y-14512234D01*
X17641122Y-14512234D02*
X17650646Y-14493187D01*
X17650646Y-14493187D02*
X17669693Y-14483663D01*
X17669693Y-14483663D02*
X17698265Y-14483663D01*
X17698265Y-14483663D02*
X17717312Y-14493187D01*
X17793503Y-14693187D02*
X17803027Y-14683663D01*
X17803027Y-14683663D02*
X17822074Y-14655092D01*
X17822074Y-14655092D02*
X17831598Y-14636044D01*
X17831598Y-14636044D02*
X17841122Y-14607473D01*
X17841122Y-14607473D02*
X17850646Y-14559853D01*
X17850646Y-14559853D02*
X17850646Y-14521758D01*
X17850646Y-14521758D02*
X17841122Y-14474139D01*
X17841122Y-14474139D02*
X17831598Y-14445568D01*
X17831598Y-14445568D02*
X17822074Y-14426520D01*
X17822074Y-14426520D02*
X17803027Y-14397949D01*
X17803027Y-14397949D02*
X17793503Y-14388425D01*
D15*
X12628701Y-14810726D02*
X12628701Y-14768299D01*
X12586274Y-14768299D01*
X12586274Y-14810726D01*
X12628701Y-14810726D01*
D11*
X12936359Y-14680996D02*
X12955407Y-14680996D01*
X12955407Y-14680996D02*
X12974455Y-14690520D01*
X12974455Y-14690520D02*
X12983978Y-14700044D01*
X12983978Y-14700044D02*
X12993502Y-14719092D01*
X12993502Y-14719092D02*
X13003026Y-14757187D01*
X13003026Y-14757187D02*
X13003026Y-14804806D01*
X13003026Y-14804806D02*
X12993502Y-14842901D01*
X12993502Y-14842901D02*
X12983978Y-14861949D01*
X12983978Y-14861949D02*
X12974455Y-14871473D01*
X12974455Y-14871473D02*
X12955407Y-14880996D01*
X12955407Y-14880996D02*
X12936359Y-14880996D01*
X12936359Y-14880996D02*
X12917312Y-14871473D01*
X12917312Y-14871473D02*
X12907788Y-14861949D01*
X12907788Y-14861949D02*
X12898264Y-14842901D01*
X12898264Y-14842901D02*
X12888740Y-14804806D01*
X12888740Y-14804806D02*
X12888740Y-14757187D01*
X12888740Y-14757187D02*
X12898264Y-14719092D01*
X12898264Y-14719092D02*
X12907788Y-14700044D01*
X12907788Y-14700044D02*
X12917312Y-14690520D01*
X12917312Y-14690520D02*
X12936359Y-14680996D01*
X13088740Y-14861949D02*
X13098264Y-14871473D01*
X13098264Y-14871473D02*
X13088740Y-14880996D01*
X13088740Y-14880996D02*
X13079217Y-14871473D01*
X13079217Y-14871473D02*
X13088740Y-14861949D01*
X13088740Y-14861949D02*
X13088740Y-14880996D01*
X13269693Y-14680996D02*
X13231597Y-14680996D01*
X13231597Y-14680996D02*
X13212550Y-14690520D01*
X13212550Y-14690520D02*
X13203026Y-14700044D01*
X13203026Y-14700044D02*
X13183978Y-14728615D01*
X13183978Y-14728615D02*
X13174455Y-14766711D01*
X13174455Y-14766711D02*
X13174455Y-14842901D01*
X13174455Y-14842901D02*
X13183978Y-14861949D01*
X13183978Y-14861949D02*
X13193502Y-14871473D01*
X13193502Y-14871473D02*
X13212550Y-14880996D01*
X13212550Y-14880996D02*
X13250645Y-14880996D01*
X13250645Y-14880996D02*
X13269693Y-14871473D01*
X13269693Y-14871473D02*
X13279217Y-14861949D01*
X13279217Y-14861949D02*
X13288740Y-14842901D01*
X13288740Y-14842901D02*
X13288740Y-14795282D01*
X13288740Y-14795282D02*
X13279217Y-14776234D01*
X13279217Y-14776234D02*
X13269693Y-14766711D01*
X13269693Y-14766711D02*
X13250645Y-14757187D01*
X13250645Y-14757187D02*
X13212550Y-14757187D01*
X13212550Y-14757187D02*
X13193502Y-14766711D01*
X13193502Y-14766711D02*
X13183978Y-14776234D01*
X13183978Y-14776234D02*
X13174455Y-14795282D01*
X13412550Y-14680996D02*
X13431598Y-14680996D01*
X13431598Y-14680996D02*
X13450645Y-14690520D01*
X13450645Y-14690520D02*
X13460169Y-14700044D01*
X13460169Y-14700044D02*
X13469693Y-14719092D01*
X13469693Y-14719092D02*
X13479217Y-14757187D01*
X13479217Y-14757187D02*
X13479217Y-14804806D01*
X13479217Y-14804806D02*
X13469693Y-14842901D01*
X13469693Y-14842901D02*
X13460169Y-14861949D01*
X13460169Y-14861949D02*
X13450645Y-14871473D01*
X13450645Y-14871473D02*
X13431598Y-14880996D01*
X13431598Y-14880996D02*
X13412550Y-14880996D01*
X13412550Y-14880996D02*
X13393502Y-14871473D01*
X13393502Y-14871473D02*
X13383978Y-14861949D01*
X13383978Y-14861949D02*
X13374455Y-14842901D01*
X13374455Y-14842901D02*
X13364931Y-14804806D01*
X13364931Y-14804806D02*
X13364931Y-14757187D01*
X13364931Y-14757187D02*
X13374455Y-14719092D01*
X13374455Y-14719092D02*
X13383978Y-14700044D01*
X13383978Y-14700044D02*
X13393502Y-14690520D01*
X13393502Y-14690520D02*
X13412550Y-14680996D01*
X13603026Y-14680996D02*
X13622074Y-14680996D01*
X13622074Y-14680996D02*
X13641121Y-14690520D01*
X13641121Y-14690520D02*
X13650645Y-14700044D01*
X13650645Y-14700044D02*
X13660169Y-14719092D01*
X13660169Y-14719092D02*
X13669693Y-14757187D01*
X13669693Y-14757187D02*
X13669693Y-14804806D01*
X13669693Y-14804806D02*
X13660169Y-14842901D01*
X13660169Y-14842901D02*
X13650645Y-14861949D01*
X13650645Y-14861949D02*
X13641121Y-14871473D01*
X13641121Y-14871473D02*
X13622074Y-14880996D01*
X13622074Y-14880996D02*
X13603026Y-14880996D01*
X13603026Y-14880996D02*
X13583978Y-14871473D01*
X13583978Y-14871473D02*
X13574455Y-14861949D01*
X13574455Y-14861949D02*
X13564931Y-14842901D01*
X13564931Y-14842901D02*
X13555407Y-14804806D01*
X13555407Y-14804806D02*
X13555407Y-14757187D01*
X13555407Y-14757187D02*
X13564931Y-14719092D01*
X13564931Y-14719092D02*
X13574455Y-14700044D01*
X13574455Y-14700044D02*
X13583978Y-14690520D01*
X13583978Y-14690520D02*
X13603026Y-14680996D01*
X13755407Y-14880996D02*
X13755407Y-14747663D01*
X13755407Y-14766711D02*
X13764931Y-14757187D01*
X13764931Y-14757187D02*
X13783978Y-14747663D01*
X13783978Y-14747663D02*
X13812550Y-14747663D01*
X13812550Y-14747663D02*
X13831598Y-14757187D01*
X13831598Y-14757187D02*
X13841121Y-14776234D01*
X13841121Y-14776234D02*
X13841121Y-14880996D01*
X13841121Y-14776234D02*
X13850645Y-14757187D01*
X13850645Y-14757187D02*
X13869693Y-14747663D01*
X13869693Y-14747663D02*
X13898264Y-14747663D01*
X13898264Y-14747663D02*
X13917312Y-14757187D01*
X13917312Y-14757187D02*
X13926836Y-14776234D01*
X13926836Y-14776234D02*
X13926836Y-14880996D01*
X14022074Y-14880996D02*
X14022074Y-14747663D01*
X14022074Y-14766711D02*
X14031598Y-14757187D01*
X14031598Y-14757187D02*
X14050645Y-14747663D01*
X14050645Y-14747663D02*
X14079217Y-14747663D01*
X14079217Y-14747663D02*
X14098264Y-14757187D01*
X14098264Y-14757187D02*
X14107788Y-14776234D01*
X14107788Y-14776234D02*
X14107788Y-14880996D01*
X14107788Y-14776234D02*
X14117312Y-14757187D01*
X14117312Y-14757187D02*
X14136359Y-14747663D01*
X14136359Y-14747663D02*
X14164931Y-14747663D01*
X14164931Y-14747663D02*
X14183979Y-14757187D01*
X14183979Y-14757187D02*
X14193502Y-14776234D01*
X14193502Y-14776234D02*
X14193502Y-14880996D01*
X14583979Y-14671473D02*
X14412550Y-14928615D01*
X14841121Y-14680996D02*
X14860169Y-14680996D01*
X14860169Y-14680996D02*
X14879217Y-14690520D01*
X14879217Y-14690520D02*
X14888741Y-14700044D01*
X14888741Y-14700044D02*
X14898264Y-14719092D01*
X14898264Y-14719092D02*
X14907788Y-14757187D01*
X14907788Y-14757187D02*
X14907788Y-14804806D01*
X14907788Y-14804806D02*
X14898264Y-14842901D01*
X14898264Y-14842901D02*
X14888741Y-14861949D01*
X14888741Y-14861949D02*
X14879217Y-14871473D01*
X14879217Y-14871473D02*
X14860169Y-14880996D01*
X14860169Y-14880996D02*
X14841121Y-14880996D01*
X14841121Y-14880996D02*
X14822074Y-14871473D01*
X14822074Y-14871473D02*
X14812550Y-14861949D01*
X14812550Y-14861949D02*
X14803026Y-14842901D01*
X14803026Y-14842901D02*
X14793502Y-14804806D01*
X14793502Y-14804806D02*
X14793502Y-14757187D01*
X14793502Y-14757187D02*
X14803026Y-14719092D01*
X14803026Y-14719092D02*
X14812550Y-14700044D01*
X14812550Y-14700044D02*
X14822074Y-14690520D01*
X14822074Y-14690520D02*
X14841121Y-14680996D01*
X14993502Y-14861949D02*
X15003026Y-14871473D01*
X15003026Y-14871473D02*
X14993502Y-14880996D01*
X14993502Y-14880996D02*
X14983979Y-14871473D01*
X14983979Y-14871473D02*
X14993502Y-14861949D01*
X14993502Y-14861949D02*
X14993502Y-14880996D01*
X15126836Y-14680996D02*
X15145883Y-14680996D01*
X15145883Y-14680996D02*
X15164931Y-14690520D01*
X15164931Y-14690520D02*
X15174455Y-14700044D01*
X15174455Y-14700044D02*
X15183979Y-14719092D01*
X15183979Y-14719092D02*
X15193502Y-14757187D01*
X15193502Y-14757187D02*
X15193502Y-14804806D01*
X15193502Y-14804806D02*
X15183979Y-14842901D01*
X15183979Y-14842901D02*
X15174455Y-14861949D01*
X15174455Y-14861949D02*
X15164931Y-14871473D01*
X15164931Y-14871473D02*
X15145883Y-14880996D01*
X15145883Y-14880996D02*
X15126836Y-14880996D01*
X15126836Y-14880996D02*
X15107788Y-14871473D01*
X15107788Y-14871473D02*
X15098264Y-14861949D01*
X15098264Y-14861949D02*
X15088741Y-14842901D01*
X15088741Y-14842901D02*
X15079217Y-14804806D01*
X15079217Y-14804806D02*
X15079217Y-14757187D01*
X15079217Y-14757187D02*
X15088741Y-14719092D01*
X15088741Y-14719092D02*
X15098264Y-14700044D01*
X15098264Y-14700044D02*
X15107788Y-14690520D01*
X15107788Y-14690520D02*
X15126836Y-14680996D01*
X15269693Y-14700044D02*
X15279217Y-14690520D01*
X15279217Y-14690520D02*
X15298264Y-14680996D01*
X15298264Y-14680996D02*
X15345883Y-14680996D01*
X15345883Y-14680996D02*
X15364931Y-14690520D01*
X15364931Y-14690520D02*
X15374455Y-14700044D01*
X15374455Y-14700044D02*
X15383979Y-14719092D01*
X15383979Y-14719092D02*
X15383979Y-14738139D01*
X15383979Y-14738139D02*
X15374455Y-14766711D01*
X15374455Y-14766711D02*
X15260169Y-14880996D01*
X15260169Y-14880996D02*
X15383979Y-14880996D01*
X15450645Y-14680996D02*
X15574455Y-14680996D01*
X15574455Y-14680996D02*
X15507788Y-14757187D01*
X15507788Y-14757187D02*
X15536360Y-14757187D01*
X15536360Y-14757187D02*
X15555407Y-14766711D01*
X15555407Y-14766711D02*
X15564931Y-14776234D01*
X15564931Y-14776234D02*
X15574455Y-14795282D01*
X15574455Y-14795282D02*
X15574455Y-14842901D01*
X15574455Y-14842901D02*
X15564931Y-14861949D01*
X15564931Y-14861949D02*
X15555407Y-14871473D01*
X15555407Y-14871473D02*
X15536360Y-14880996D01*
X15536360Y-14880996D02*
X15479217Y-14880996D01*
X15479217Y-14880996D02*
X15460169Y-14871473D01*
X15460169Y-14871473D02*
X15450645Y-14861949D01*
X15745883Y-14680996D02*
X15707788Y-14680996D01*
X15707788Y-14680996D02*
X15688741Y-14690520D01*
X15688741Y-14690520D02*
X15679217Y-14700044D01*
X15679217Y-14700044D02*
X15660169Y-14728615D01*
X15660169Y-14728615D02*
X15650645Y-14766711D01*
X15650645Y-14766711D02*
X15650645Y-14842901D01*
X15650645Y-14842901D02*
X15660169Y-14861949D01*
X15660169Y-14861949D02*
X15669693Y-14871473D01*
X15669693Y-14871473D02*
X15688741Y-14880996D01*
X15688741Y-14880996D02*
X15726836Y-14880996D01*
X15726836Y-14880996D02*
X15745883Y-14871473D01*
X15745883Y-14871473D02*
X15755407Y-14861949D01*
X15755407Y-14861949D02*
X15764931Y-14842901D01*
X15764931Y-14842901D02*
X15764931Y-14795282D01*
X15764931Y-14795282D02*
X15755407Y-14776234D01*
X15755407Y-14776234D02*
X15745883Y-14766711D01*
X15745883Y-14766711D02*
X15726836Y-14757187D01*
X15726836Y-14757187D02*
X15688741Y-14757187D01*
X15688741Y-14757187D02*
X15669693Y-14766711D01*
X15669693Y-14766711D02*
X15660169Y-14776234D01*
X15660169Y-14776234D02*
X15650645Y-14795282D01*
X15841122Y-14680996D02*
X15841122Y-14719092D01*
X15917312Y-14680996D02*
X15917312Y-14719092D01*
X16212550Y-14957187D02*
X16203026Y-14947663D01*
X16203026Y-14947663D02*
X16183979Y-14919092D01*
X16183979Y-14919092D02*
X16174455Y-14900044D01*
X16174455Y-14900044D02*
X16164931Y-14871473D01*
X16164931Y-14871473D02*
X16155407Y-14823853D01*
X16155407Y-14823853D02*
X16155407Y-14785758D01*
X16155407Y-14785758D02*
X16164931Y-14738139D01*
X16164931Y-14738139D02*
X16174455Y-14709568D01*
X16174455Y-14709568D02*
X16183979Y-14690520D01*
X16183979Y-14690520D02*
X16203026Y-14661949D01*
X16203026Y-14661949D02*
X16212550Y-14652425D01*
X16326836Y-14680996D02*
X16345884Y-14680996D01*
X16345884Y-14680996D02*
X16364931Y-14690520D01*
X16364931Y-14690520D02*
X16374455Y-14700044D01*
X16374455Y-14700044D02*
X16383979Y-14719092D01*
X16383979Y-14719092D02*
X16393503Y-14757187D01*
X16393503Y-14757187D02*
X16393503Y-14804806D01*
X16393503Y-14804806D02*
X16383979Y-14842901D01*
X16383979Y-14842901D02*
X16374455Y-14861949D01*
X16374455Y-14861949D02*
X16364931Y-14871473D01*
X16364931Y-14871473D02*
X16345884Y-14880996D01*
X16345884Y-14880996D02*
X16326836Y-14880996D01*
X16326836Y-14880996D02*
X16307788Y-14871473D01*
X16307788Y-14871473D02*
X16298264Y-14861949D01*
X16298264Y-14861949D02*
X16288741Y-14842901D01*
X16288741Y-14842901D02*
X16279217Y-14804806D01*
X16279217Y-14804806D02*
X16279217Y-14757187D01*
X16279217Y-14757187D02*
X16288741Y-14719092D01*
X16288741Y-14719092D02*
X16298264Y-14700044D01*
X16298264Y-14700044D02*
X16307788Y-14690520D01*
X16307788Y-14690520D02*
X16326836Y-14680996D01*
X16631598Y-14880996D02*
X16631598Y-14680996D01*
X16717312Y-14880996D02*
X16717312Y-14776234D01*
X16717312Y-14776234D02*
X16707788Y-14757187D01*
X16707788Y-14757187D02*
X16688741Y-14747663D01*
X16688741Y-14747663D02*
X16660169Y-14747663D01*
X16660169Y-14747663D02*
X16641122Y-14757187D01*
X16641122Y-14757187D02*
X16631598Y-14766711D01*
X16841122Y-14880996D02*
X16822074Y-14871473D01*
X16822074Y-14871473D02*
X16812550Y-14861949D01*
X16812550Y-14861949D02*
X16803027Y-14842901D01*
X16803027Y-14842901D02*
X16803027Y-14785758D01*
X16803027Y-14785758D02*
X16812550Y-14766711D01*
X16812550Y-14766711D02*
X16822074Y-14757187D01*
X16822074Y-14757187D02*
X16841122Y-14747663D01*
X16841122Y-14747663D02*
X16869693Y-14747663D01*
X16869693Y-14747663D02*
X16888741Y-14757187D01*
X16888741Y-14757187D02*
X16898265Y-14766711D01*
X16898265Y-14766711D02*
X16907788Y-14785758D01*
X16907788Y-14785758D02*
X16907788Y-14842901D01*
X16907788Y-14842901D02*
X16898265Y-14861949D01*
X16898265Y-14861949D02*
X16888741Y-14871473D01*
X16888741Y-14871473D02*
X16869693Y-14880996D01*
X16869693Y-14880996D02*
X16841122Y-14880996D01*
X17022074Y-14880996D02*
X17003027Y-14871473D01*
X17003027Y-14871473D02*
X16993503Y-14852425D01*
X16993503Y-14852425D02*
X16993503Y-14680996D01*
X17174455Y-14871473D02*
X17155408Y-14880996D01*
X17155408Y-14880996D02*
X17117312Y-14880996D01*
X17117312Y-14880996D02*
X17098265Y-14871473D01*
X17098265Y-14871473D02*
X17088741Y-14852425D01*
X17088741Y-14852425D02*
X17088741Y-14776234D01*
X17088741Y-14776234D02*
X17098265Y-14757187D01*
X17098265Y-14757187D02*
X17117312Y-14747663D01*
X17117312Y-14747663D02*
X17155408Y-14747663D01*
X17155408Y-14747663D02*
X17174455Y-14757187D01*
X17174455Y-14757187D02*
X17183979Y-14776234D01*
X17183979Y-14776234D02*
X17183979Y-14795282D01*
X17183979Y-14795282D02*
X17088741Y-14814330D01*
X17260169Y-14871473D02*
X17279217Y-14880996D01*
X17279217Y-14880996D02*
X17317312Y-14880996D01*
X17317312Y-14880996D02*
X17336360Y-14871473D01*
X17336360Y-14871473D02*
X17345884Y-14852425D01*
X17345884Y-14852425D02*
X17345884Y-14842901D01*
X17345884Y-14842901D02*
X17336360Y-14823853D01*
X17336360Y-14823853D02*
X17317312Y-14814330D01*
X17317312Y-14814330D02*
X17288741Y-14814330D01*
X17288741Y-14814330D02*
X17269693Y-14804806D01*
X17269693Y-14804806D02*
X17260169Y-14785758D01*
X17260169Y-14785758D02*
X17260169Y-14776234D01*
X17260169Y-14776234D02*
X17269693Y-14757187D01*
X17269693Y-14757187D02*
X17288741Y-14747663D01*
X17288741Y-14747663D02*
X17317312Y-14747663D01*
X17317312Y-14747663D02*
X17336360Y-14757187D01*
X17583979Y-14804806D02*
X17736360Y-14804806D01*
X17660170Y-14880996D02*
X17660170Y-14728615D01*
X18012550Y-14766711D02*
X17993503Y-14757187D01*
X17993503Y-14757187D02*
X17983979Y-14747663D01*
X17983979Y-14747663D02*
X17974455Y-14728615D01*
X17974455Y-14728615D02*
X17974455Y-14719092D01*
X17974455Y-14719092D02*
X17983979Y-14700044D01*
X17983979Y-14700044D02*
X17993503Y-14690520D01*
X17993503Y-14690520D02*
X18012550Y-14680996D01*
X18012550Y-14680996D02*
X18050646Y-14680996D01*
X18050646Y-14680996D02*
X18069693Y-14690520D01*
X18069693Y-14690520D02*
X18079217Y-14700044D01*
X18079217Y-14700044D02*
X18088741Y-14719092D01*
X18088741Y-14719092D02*
X18088741Y-14728615D01*
X18088741Y-14728615D02*
X18079217Y-14747663D01*
X18079217Y-14747663D02*
X18069693Y-14757187D01*
X18069693Y-14757187D02*
X18050646Y-14766711D01*
X18050646Y-14766711D02*
X18012550Y-14766711D01*
X18012550Y-14766711D02*
X17993503Y-14776234D01*
X17993503Y-14776234D02*
X17983979Y-14785758D01*
X17983979Y-14785758D02*
X17974455Y-14804806D01*
X17974455Y-14804806D02*
X17974455Y-14842901D01*
X17974455Y-14842901D02*
X17983979Y-14861949D01*
X17983979Y-14861949D02*
X17993503Y-14871473D01*
X17993503Y-14871473D02*
X18012550Y-14880996D01*
X18012550Y-14880996D02*
X18050646Y-14880996D01*
X18050646Y-14880996D02*
X18069693Y-14871473D01*
X18069693Y-14871473D02*
X18079217Y-14861949D01*
X18079217Y-14861949D02*
X18088741Y-14842901D01*
X18088741Y-14842901D02*
X18088741Y-14804806D01*
X18088741Y-14804806D02*
X18079217Y-14785758D01*
X18079217Y-14785758D02*
X18069693Y-14776234D01*
X18069693Y-14776234D02*
X18050646Y-14766711D01*
X18317312Y-14871473D02*
X18336360Y-14880996D01*
X18336360Y-14880996D02*
X18374455Y-14880996D01*
X18374455Y-14880996D02*
X18393503Y-14871473D01*
X18393503Y-14871473D02*
X18403027Y-14852425D01*
X18403027Y-14852425D02*
X18403027Y-14842901D01*
X18403027Y-14842901D02*
X18393503Y-14823853D01*
X18393503Y-14823853D02*
X18374455Y-14814330D01*
X18374455Y-14814330D02*
X18345884Y-14814330D01*
X18345884Y-14814330D02*
X18326836Y-14804806D01*
X18326836Y-14804806D02*
X18317312Y-14785758D01*
X18317312Y-14785758D02*
X18317312Y-14776234D01*
X18317312Y-14776234D02*
X18326836Y-14757187D01*
X18326836Y-14757187D02*
X18345884Y-14747663D01*
X18345884Y-14747663D02*
X18374455Y-14747663D01*
X18374455Y-14747663D02*
X18393503Y-14757187D01*
X18517312Y-14880996D02*
X18498265Y-14871473D01*
X18498265Y-14871473D02*
X18488741Y-14852425D01*
X18488741Y-14852425D02*
X18488741Y-14680996D01*
X18622074Y-14880996D02*
X18603027Y-14871473D01*
X18603027Y-14871473D02*
X18593503Y-14861949D01*
X18593503Y-14861949D02*
X18583979Y-14842901D01*
X18583979Y-14842901D02*
X18583979Y-14785758D01*
X18583979Y-14785758D02*
X18593503Y-14766711D01*
X18593503Y-14766711D02*
X18603027Y-14757187D01*
X18603027Y-14757187D02*
X18622074Y-14747663D01*
X18622074Y-14747663D02*
X18650646Y-14747663D01*
X18650646Y-14747663D02*
X18669693Y-14757187D01*
X18669693Y-14757187D02*
X18679217Y-14766711D01*
X18679217Y-14766711D02*
X18688741Y-14785758D01*
X18688741Y-14785758D02*
X18688741Y-14842901D01*
X18688741Y-14842901D02*
X18679217Y-14861949D01*
X18679217Y-14861949D02*
X18669693Y-14871473D01*
X18669693Y-14871473D02*
X18650646Y-14880996D01*
X18650646Y-14880996D02*
X18622074Y-14880996D01*
X18745884Y-14747663D02*
X18822074Y-14747663D01*
X18774455Y-14680996D02*
X18774455Y-14852425D01*
X18774455Y-14852425D02*
X18783979Y-14871473D01*
X18783979Y-14871473D02*
X18803027Y-14880996D01*
X18803027Y-14880996D02*
X18822074Y-14880996D01*
X18879217Y-14871473D02*
X18898265Y-14880996D01*
X18898265Y-14880996D02*
X18936360Y-14880996D01*
X18936360Y-14880996D02*
X18955408Y-14871473D01*
X18955408Y-14871473D02*
X18964932Y-14852425D01*
X18964932Y-14852425D02*
X18964932Y-14842901D01*
X18964932Y-14842901D02*
X18955408Y-14823853D01*
X18955408Y-14823853D02*
X18936360Y-14814330D01*
X18936360Y-14814330D02*
X18907789Y-14814330D01*
X18907789Y-14814330D02*
X18888741Y-14804806D01*
X18888741Y-14804806D02*
X18879217Y-14785758D01*
X18879217Y-14785758D02*
X18879217Y-14776234D01*
X18879217Y-14776234D02*
X18888741Y-14757187D01*
X18888741Y-14757187D02*
X18907789Y-14747663D01*
X18907789Y-14747663D02*
X18936360Y-14747663D01*
X18936360Y-14747663D02*
X18955408Y-14757187D01*
X19031598Y-14957187D02*
X19041122Y-14947663D01*
X19041122Y-14947663D02*
X19060170Y-14919092D01*
X19060170Y-14919092D02*
X19069693Y-14900044D01*
X19069693Y-14900044D02*
X19079217Y-14871473D01*
X19079217Y-14871473D02*
X19088741Y-14823853D01*
X19088741Y-14823853D02*
X19088741Y-14785758D01*
X19088741Y-14785758D02*
X19079217Y-14738139D01*
X19079217Y-14738139D02*
X19069693Y-14709568D01*
X19069693Y-14709568D02*
X19060170Y-14690520D01*
X19060170Y-14690520D02*
X19041122Y-14661949D01*
X19041122Y-14661949D02*
X19031598Y-14652425D01*
D16*
X12604467Y-15086533D02*
X12637487Y-15053513D01*
X12604467Y-15020493D01*
X12571447Y-15053513D01*
X12604467Y-15086533D01*
D11*
X12936359Y-14944996D02*
X12955407Y-14944996D01*
X12955407Y-14944996D02*
X12974455Y-14954520D01*
X12974455Y-14954520D02*
X12983978Y-14964044D01*
X12983978Y-14964044D02*
X12993502Y-14983092D01*
X12993502Y-14983092D02*
X13003026Y-15021187D01*
X13003026Y-15021187D02*
X13003026Y-15068806D01*
X13003026Y-15068806D02*
X12993502Y-15106901D01*
X12993502Y-15106901D02*
X12983978Y-15125949D01*
X12983978Y-15125949D02*
X12974455Y-15135473D01*
X12974455Y-15135473D02*
X12955407Y-15144996D01*
X12955407Y-15144996D02*
X12936359Y-15144996D01*
X12936359Y-15144996D02*
X12917312Y-15135473D01*
X12917312Y-15135473D02*
X12907788Y-15125949D01*
X12907788Y-15125949D02*
X12898264Y-15106901D01*
X12898264Y-15106901D02*
X12888740Y-15068806D01*
X12888740Y-15068806D02*
X12888740Y-15021187D01*
X12888740Y-15021187D02*
X12898264Y-14983092D01*
X12898264Y-14983092D02*
X12907788Y-14964044D01*
X12907788Y-14964044D02*
X12917312Y-14954520D01*
X12917312Y-14954520D02*
X12936359Y-14944996D01*
X13088740Y-15125949D02*
X13098264Y-15135473D01*
X13098264Y-15135473D02*
X13088740Y-15144996D01*
X13088740Y-15144996D02*
X13079217Y-15135473D01*
X13079217Y-15135473D02*
X13088740Y-15125949D01*
X13088740Y-15125949D02*
X13088740Y-15144996D01*
X13269693Y-14944996D02*
X13231597Y-14944996D01*
X13231597Y-14944996D02*
X13212550Y-14954520D01*
X13212550Y-14954520D02*
X13203026Y-14964044D01*
X13203026Y-14964044D02*
X13183978Y-14992615D01*
X13183978Y-14992615D02*
X13174455Y-15030711D01*
X13174455Y-15030711D02*
X13174455Y-15106901D01*
X13174455Y-15106901D02*
X13183978Y-15125949D01*
X13183978Y-15125949D02*
X13193502Y-15135473D01*
X13193502Y-15135473D02*
X13212550Y-15144996D01*
X13212550Y-15144996D02*
X13250645Y-15144996D01*
X13250645Y-15144996D02*
X13269693Y-15135473D01*
X13269693Y-15135473D02*
X13279217Y-15125949D01*
X13279217Y-15125949D02*
X13288740Y-15106901D01*
X13288740Y-15106901D02*
X13288740Y-15059282D01*
X13288740Y-15059282D02*
X13279217Y-15040234D01*
X13279217Y-15040234D02*
X13269693Y-15030711D01*
X13269693Y-15030711D02*
X13250645Y-15021187D01*
X13250645Y-15021187D02*
X13212550Y-15021187D01*
X13212550Y-15021187D02*
X13193502Y-15030711D01*
X13193502Y-15030711D02*
X13183978Y-15040234D01*
X13183978Y-15040234D02*
X13174455Y-15059282D01*
X13460169Y-14944996D02*
X13422074Y-14944996D01*
X13422074Y-14944996D02*
X13403026Y-14954520D01*
X13403026Y-14954520D02*
X13393502Y-14964044D01*
X13393502Y-14964044D02*
X13374455Y-14992615D01*
X13374455Y-14992615D02*
X13364931Y-15030711D01*
X13364931Y-15030711D02*
X13364931Y-15106901D01*
X13364931Y-15106901D02*
X13374455Y-15125949D01*
X13374455Y-15125949D02*
X13383978Y-15135473D01*
X13383978Y-15135473D02*
X13403026Y-15144996D01*
X13403026Y-15144996D02*
X13441121Y-15144996D01*
X13441121Y-15144996D02*
X13460169Y-15135473D01*
X13460169Y-15135473D02*
X13469693Y-15125949D01*
X13469693Y-15125949D02*
X13479217Y-15106901D01*
X13479217Y-15106901D02*
X13479217Y-15059282D01*
X13479217Y-15059282D02*
X13469693Y-15040234D01*
X13469693Y-15040234D02*
X13460169Y-15030711D01*
X13460169Y-15030711D02*
X13441121Y-15021187D01*
X13441121Y-15021187D02*
X13403026Y-15021187D01*
X13403026Y-15021187D02*
X13383978Y-15030711D01*
X13383978Y-15030711D02*
X13374455Y-15040234D01*
X13374455Y-15040234D02*
X13364931Y-15059282D01*
X13603026Y-14944996D02*
X13622074Y-14944996D01*
X13622074Y-14944996D02*
X13641121Y-14954520D01*
X13641121Y-14954520D02*
X13650645Y-14964044D01*
X13650645Y-14964044D02*
X13660169Y-14983092D01*
X13660169Y-14983092D02*
X13669693Y-15021187D01*
X13669693Y-15021187D02*
X13669693Y-15068806D01*
X13669693Y-15068806D02*
X13660169Y-15106901D01*
X13660169Y-15106901D02*
X13650645Y-15125949D01*
X13650645Y-15125949D02*
X13641121Y-15135473D01*
X13641121Y-15135473D02*
X13622074Y-15144996D01*
X13622074Y-15144996D02*
X13603026Y-15144996D01*
X13603026Y-15144996D02*
X13583978Y-15135473D01*
X13583978Y-15135473D02*
X13574455Y-15125949D01*
X13574455Y-15125949D02*
X13564931Y-15106901D01*
X13564931Y-15106901D02*
X13555407Y-15068806D01*
X13555407Y-15068806D02*
X13555407Y-15021187D01*
X13555407Y-15021187D02*
X13564931Y-14983092D01*
X13564931Y-14983092D02*
X13574455Y-14964044D01*
X13574455Y-14964044D02*
X13583978Y-14954520D01*
X13583978Y-14954520D02*
X13603026Y-14944996D01*
X13755407Y-15144996D02*
X13755407Y-15011663D01*
X13755407Y-15030711D02*
X13764931Y-15021187D01*
X13764931Y-15021187D02*
X13783978Y-15011663D01*
X13783978Y-15011663D02*
X13812550Y-15011663D01*
X13812550Y-15011663D02*
X13831598Y-15021187D01*
X13831598Y-15021187D02*
X13841121Y-15040234D01*
X13841121Y-15040234D02*
X13841121Y-15144996D01*
X13841121Y-15040234D02*
X13850645Y-15021187D01*
X13850645Y-15021187D02*
X13869693Y-15011663D01*
X13869693Y-15011663D02*
X13898264Y-15011663D01*
X13898264Y-15011663D02*
X13917312Y-15021187D01*
X13917312Y-15021187D02*
X13926836Y-15040234D01*
X13926836Y-15040234D02*
X13926836Y-15144996D01*
X14022074Y-15144996D02*
X14022074Y-15011663D01*
X14022074Y-15030711D02*
X14031598Y-15021187D01*
X14031598Y-15021187D02*
X14050645Y-15011663D01*
X14050645Y-15011663D02*
X14079217Y-15011663D01*
X14079217Y-15011663D02*
X14098264Y-15021187D01*
X14098264Y-15021187D02*
X14107788Y-15040234D01*
X14107788Y-15040234D02*
X14107788Y-15144996D01*
X14107788Y-15040234D02*
X14117312Y-15021187D01*
X14117312Y-15021187D02*
X14136359Y-15011663D01*
X14136359Y-15011663D02*
X14164931Y-15011663D01*
X14164931Y-15011663D02*
X14183979Y-15021187D01*
X14183979Y-15021187D02*
X14193502Y-15040234D01*
X14193502Y-15040234D02*
X14193502Y-15144996D01*
X14583979Y-14935473D02*
X14412550Y-15192615D01*
X14841121Y-14944996D02*
X14860169Y-14944996D01*
X14860169Y-14944996D02*
X14879217Y-14954520D01*
X14879217Y-14954520D02*
X14888741Y-14964044D01*
X14888741Y-14964044D02*
X14898264Y-14983092D01*
X14898264Y-14983092D02*
X14907788Y-15021187D01*
X14907788Y-15021187D02*
X14907788Y-15068806D01*
X14907788Y-15068806D02*
X14898264Y-15106901D01*
X14898264Y-15106901D02*
X14888741Y-15125949D01*
X14888741Y-15125949D02*
X14879217Y-15135473D01*
X14879217Y-15135473D02*
X14860169Y-15144996D01*
X14860169Y-15144996D02*
X14841121Y-15144996D01*
X14841121Y-15144996D02*
X14822074Y-15135473D01*
X14822074Y-15135473D02*
X14812550Y-15125949D01*
X14812550Y-15125949D02*
X14803026Y-15106901D01*
X14803026Y-15106901D02*
X14793502Y-15068806D01*
X14793502Y-15068806D02*
X14793502Y-15021187D01*
X14793502Y-15021187D02*
X14803026Y-14983092D01*
X14803026Y-14983092D02*
X14812550Y-14964044D01*
X14812550Y-14964044D02*
X14822074Y-14954520D01*
X14822074Y-14954520D02*
X14841121Y-14944996D01*
X14993502Y-15125949D02*
X15003026Y-15135473D01*
X15003026Y-15135473D02*
X14993502Y-15144996D01*
X14993502Y-15144996D02*
X14983979Y-15135473D01*
X14983979Y-15135473D02*
X14993502Y-15125949D01*
X14993502Y-15125949D02*
X14993502Y-15144996D01*
X15126836Y-14944996D02*
X15145883Y-14944996D01*
X15145883Y-14944996D02*
X15164931Y-14954520D01*
X15164931Y-14954520D02*
X15174455Y-14964044D01*
X15174455Y-14964044D02*
X15183979Y-14983092D01*
X15183979Y-14983092D02*
X15193502Y-15021187D01*
X15193502Y-15021187D02*
X15193502Y-15068806D01*
X15193502Y-15068806D02*
X15183979Y-15106901D01*
X15183979Y-15106901D02*
X15174455Y-15125949D01*
X15174455Y-15125949D02*
X15164931Y-15135473D01*
X15164931Y-15135473D02*
X15145883Y-15144996D01*
X15145883Y-15144996D02*
X15126836Y-15144996D01*
X15126836Y-15144996D02*
X15107788Y-15135473D01*
X15107788Y-15135473D02*
X15098264Y-15125949D01*
X15098264Y-15125949D02*
X15088741Y-15106901D01*
X15088741Y-15106901D02*
X15079217Y-15068806D01*
X15079217Y-15068806D02*
X15079217Y-15021187D01*
X15079217Y-15021187D02*
X15088741Y-14983092D01*
X15088741Y-14983092D02*
X15098264Y-14964044D01*
X15098264Y-14964044D02*
X15107788Y-14954520D01*
X15107788Y-14954520D02*
X15126836Y-14944996D01*
X15269693Y-14964044D02*
X15279217Y-14954520D01*
X15279217Y-14954520D02*
X15298264Y-14944996D01*
X15298264Y-14944996D02*
X15345883Y-14944996D01*
X15345883Y-14944996D02*
X15364931Y-14954520D01*
X15364931Y-14954520D02*
X15374455Y-14964044D01*
X15374455Y-14964044D02*
X15383979Y-14983092D01*
X15383979Y-14983092D02*
X15383979Y-15002139D01*
X15383979Y-15002139D02*
X15374455Y-15030711D01*
X15374455Y-15030711D02*
X15260169Y-15144996D01*
X15260169Y-15144996D02*
X15383979Y-15144996D01*
X15555407Y-14944996D02*
X15517312Y-14944996D01*
X15517312Y-14944996D02*
X15498264Y-14954520D01*
X15498264Y-14954520D02*
X15488741Y-14964044D01*
X15488741Y-14964044D02*
X15469693Y-14992615D01*
X15469693Y-14992615D02*
X15460169Y-15030711D01*
X15460169Y-15030711D02*
X15460169Y-15106901D01*
X15460169Y-15106901D02*
X15469693Y-15125949D01*
X15469693Y-15125949D02*
X15479217Y-15135473D01*
X15479217Y-15135473D02*
X15498264Y-15144996D01*
X15498264Y-15144996D02*
X15536360Y-15144996D01*
X15536360Y-15144996D02*
X15555407Y-15135473D01*
X15555407Y-15135473D02*
X15564931Y-15125949D01*
X15564931Y-15125949D02*
X15574455Y-15106901D01*
X15574455Y-15106901D02*
X15574455Y-15059282D01*
X15574455Y-15059282D02*
X15564931Y-15040234D01*
X15564931Y-15040234D02*
X15555407Y-15030711D01*
X15555407Y-15030711D02*
X15536360Y-15021187D01*
X15536360Y-15021187D02*
X15498264Y-15021187D01*
X15498264Y-15021187D02*
X15479217Y-15030711D01*
X15479217Y-15030711D02*
X15469693Y-15040234D01*
X15469693Y-15040234D02*
X15460169Y-15059282D01*
X15698264Y-14944996D02*
X15717312Y-14944996D01*
X15717312Y-14944996D02*
X15736360Y-14954520D01*
X15736360Y-14954520D02*
X15745883Y-14964044D01*
X15745883Y-14964044D02*
X15755407Y-14983092D01*
X15755407Y-14983092D02*
X15764931Y-15021187D01*
X15764931Y-15021187D02*
X15764931Y-15068806D01*
X15764931Y-15068806D02*
X15755407Y-15106901D01*
X15755407Y-15106901D02*
X15745883Y-15125949D01*
X15745883Y-15125949D02*
X15736360Y-15135473D01*
X15736360Y-15135473D02*
X15717312Y-15144996D01*
X15717312Y-15144996D02*
X15698264Y-15144996D01*
X15698264Y-15144996D02*
X15679217Y-15135473D01*
X15679217Y-15135473D02*
X15669693Y-15125949D01*
X15669693Y-15125949D02*
X15660169Y-15106901D01*
X15660169Y-15106901D02*
X15650645Y-15068806D01*
X15650645Y-15068806D02*
X15650645Y-15021187D01*
X15650645Y-15021187D02*
X15660169Y-14983092D01*
X15660169Y-14983092D02*
X15669693Y-14964044D01*
X15669693Y-14964044D02*
X15679217Y-14954520D01*
X15679217Y-14954520D02*
X15698264Y-14944996D01*
X15841122Y-14944996D02*
X15841122Y-14983092D01*
X15917312Y-14944996D02*
X15917312Y-14983092D01*
X16212550Y-15221187D02*
X16203026Y-15211663D01*
X16203026Y-15211663D02*
X16183979Y-15183092D01*
X16183979Y-15183092D02*
X16174455Y-15164044D01*
X16174455Y-15164044D02*
X16164931Y-15135473D01*
X16164931Y-15135473D02*
X16155407Y-15087853D01*
X16155407Y-15087853D02*
X16155407Y-15049758D01*
X16155407Y-15049758D02*
X16164931Y-15002139D01*
X16164931Y-15002139D02*
X16174455Y-14973568D01*
X16174455Y-14973568D02*
X16183979Y-14954520D01*
X16183979Y-14954520D02*
X16203026Y-14925949D01*
X16203026Y-14925949D02*
X16212550Y-14916425D01*
X16279217Y-14964044D02*
X16288741Y-14954520D01*
X16288741Y-14954520D02*
X16307788Y-14944996D01*
X16307788Y-14944996D02*
X16355407Y-14944996D01*
X16355407Y-14944996D02*
X16374455Y-14954520D01*
X16374455Y-14954520D02*
X16383979Y-14964044D01*
X16383979Y-14964044D02*
X16393503Y-14983092D01*
X16393503Y-14983092D02*
X16393503Y-15002139D01*
X16393503Y-15002139D02*
X16383979Y-15030711D01*
X16383979Y-15030711D02*
X16269693Y-15144996D01*
X16269693Y-15144996D02*
X16393503Y-15144996D01*
X16631598Y-15144996D02*
X16631598Y-14944996D01*
X16717312Y-15144996D02*
X16717312Y-15040234D01*
X16717312Y-15040234D02*
X16707788Y-15021187D01*
X16707788Y-15021187D02*
X16688741Y-15011663D01*
X16688741Y-15011663D02*
X16660169Y-15011663D01*
X16660169Y-15011663D02*
X16641122Y-15021187D01*
X16641122Y-15021187D02*
X16631598Y-15030711D01*
X16841122Y-15144996D02*
X16822074Y-15135473D01*
X16822074Y-15135473D02*
X16812550Y-15125949D01*
X16812550Y-15125949D02*
X16803027Y-15106901D01*
X16803027Y-15106901D02*
X16803027Y-15049758D01*
X16803027Y-15049758D02*
X16812550Y-15030711D01*
X16812550Y-15030711D02*
X16822074Y-15021187D01*
X16822074Y-15021187D02*
X16841122Y-15011663D01*
X16841122Y-15011663D02*
X16869693Y-15011663D01*
X16869693Y-15011663D02*
X16888741Y-15021187D01*
X16888741Y-15021187D02*
X16898265Y-15030711D01*
X16898265Y-15030711D02*
X16907788Y-15049758D01*
X16907788Y-15049758D02*
X16907788Y-15106901D01*
X16907788Y-15106901D02*
X16898265Y-15125949D01*
X16898265Y-15125949D02*
X16888741Y-15135473D01*
X16888741Y-15135473D02*
X16869693Y-15144996D01*
X16869693Y-15144996D02*
X16841122Y-15144996D01*
X17022074Y-15144996D02*
X17003027Y-15135473D01*
X17003027Y-15135473D02*
X16993503Y-15116425D01*
X16993503Y-15116425D02*
X16993503Y-14944996D01*
X17174455Y-15135473D02*
X17155408Y-15144996D01*
X17155408Y-15144996D02*
X17117312Y-15144996D01*
X17117312Y-15144996D02*
X17098265Y-15135473D01*
X17098265Y-15135473D02*
X17088741Y-15116425D01*
X17088741Y-15116425D02*
X17088741Y-15040234D01*
X17088741Y-15040234D02*
X17098265Y-15021187D01*
X17098265Y-15021187D02*
X17117312Y-15011663D01*
X17117312Y-15011663D02*
X17155408Y-15011663D01*
X17155408Y-15011663D02*
X17174455Y-15021187D01*
X17174455Y-15021187D02*
X17183979Y-15040234D01*
X17183979Y-15040234D02*
X17183979Y-15059282D01*
X17183979Y-15059282D02*
X17088741Y-15078330D01*
X17260169Y-15135473D02*
X17279217Y-15144996D01*
X17279217Y-15144996D02*
X17317312Y-15144996D01*
X17317312Y-15144996D02*
X17336360Y-15135473D01*
X17336360Y-15135473D02*
X17345884Y-15116425D01*
X17345884Y-15116425D02*
X17345884Y-15106901D01*
X17345884Y-15106901D02*
X17336360Y-15087853D01*
X17336360Y-15087853D02*
X17317312Y-15078330D01*
X17317312Y-15078330D02*
X17288741Y-15078330D01*
X17288741Y-15078330D02*
X17269693Y-15068806D01*
X17269693Y-15068806D02*
X17260169Y-15049758D01*
X17260169Y-15049758D02*
X17260169Y-15040234D01*
X17260169Y-15040234D02*
X17269693Y-15021187D01*
X17269693Y-15021187D02*
X17288741Y-15011663D01*
X17288741Y-15011663D02*
X17317312Y-15011663D01*
X17317312Y-15011663D02*
X17336360Y-15021187D01*
X17412550Y-15221187D02*
X17422074Y-15211663D01*
X17422074Y-15211663D02*
X17441122Y-15183092D01*
X17441122Y-15183092D02*
X17450646Y-15164044D01*
X17450646Y-15164044D02*
X17460169Y-15135473D01*
X17460169Y-15135473D02*
X17469693Y-15087853D01*
X17469693Y-15087853D02*
X17469693Y-15049758D01*
X17469693Y-15049758D02*
X17460169Y-15002139D01*
X17460169Y-15002139D02*
X17450646Y-14973568D01*
X17450646Y-14973568D02*
X17441122Y-14954520D01*
X17441122Y-14954520D02*
X17422074Y-14925949D01*
X17422074Y-14925949D02*
X17412550Y-14916425D01*
D10*
X12537487Y-15267513D02*
X12637487Y-15367513D01*
X12637487Y-15267513D02*
X12537487Y-15367513D01*
X12637487Y-15317513D02*
G75*
G03*
X12637487Y-15317513I-50000J0D01*
G01*
D11*
X13003026Y-15408996D02*
X12888740Y-15408996D01*
X12945883Y-15408996D02*
X12945883Y-15208996D01*
X12945883Y-15208996D02*
X12926836Y-15237568D01*
X12926836Y-15237568D02*
X12907788Y-15256615D01*
X12907788Y-15256615D02*
X12888740Y-15266139D01*
X13088740Y-15389949D02*
X13098264Y-15399473D01*
X13098264Y-15399473D02*
X13088740Y-15408996D01*
X13088740Y-15408996D02*
X13079217Y-15399473D01*
X13079217Y-15399473D02*
X13088740Y-15389949D01*
X13088740Y-15389949D02*
X13088740Y-15408996D01*
X13222074Y-15208996D02*
X13241121Y-15208996D01*
X13241121Y-15208996D02*
X13260169Y-15218520D01*
X13260169Y-15218520D02*
X13269693Y-15228044D01*
X13269693Y-15228044D02*
X13279217Y-15247092D01*
X13279217Y-15247092D02*
X13288740Y-15285187D01*
X13288740Y-15285187D02*
X13288740Y-15332806D01*
X13288740Y-15332806D02*
X13279217Y-15370901D01*
X13279217Y-15370901D02*
X13269693Y-15389949D01*
X13269693Y-15389949D02*
X13260169Y-15399473D01*
X13260169Y-15399473D02*
X13241121Y-15408996D01*
X13241121Y-15408996D02*
X13222074Y-15408996D01*
X13222074Y-15408996D02*
X13203026Y-15399473D01*
X13203026Y-15399473D02*
X13193502Y-15389949D01*
X13193502Y-15389949D02*
X13183978Y-15370901D01*
X13183978Y-15370901D02*
X13174455Y-15332806D01*
X13174455Y-15332806D02*
X13174455Y-15285187D01*
X13174455Y-15285187D02*
X13183978Y-15247092D01*
X13183978Y-15247092D02*
X13193502Y-15228044D01*
X13193502Y-15228044D02*
X13203026Y-15218520D01*
X13203026Y-15218520D02*
X13222074Y-15208996D01*
X13412550Y-15208996D02*
X13431598Y-15208996D01*
X13431598Y-15208996D02*
X13450645Y-15218520D01*
X13450645Y-15218520D02*
X13460169Y-15228044D01*
X13460169Y-15228044D02*
X13469693Y-15247092D01*
X13469693Y-15247092D02*
X13479217Y-15285187D01*
X13479217Y-15285187D02*
X13479217Y-15332806D01*
X13479217Y-15332806D02*
X13469693Y-15370901D01*
X13469693Y-15370901D02*
X13460169Y-15389949D01*
X13460169Y-15389949D02*
X13450645Y-15399473D01*
X13450645Y-15399473D02*
X13431598Y-15408996D01*
X13431598Y-15408996D02*
X13412550Y-15408996D01*
X13412550Y-15408996D02*
X13393502Y-15399473D01*
X13393502Y-15399473D02*
X13383978Y-15389949D01*
X13383978Y-15389949D02*
X13374455Y-15370901D01*
X13374455Y-15370901D02*
X13364931Y-15332806D01*
X13364931Y-15332806D02*
X13364931Y-15285187D01*
X13364931Y-15285187D02*
X13374455Y-15247092D01*
X13374455Y-15247092D02*
X13383978Y-15228044D01*
X13383978Y-15228044D02*
X13393502Y-15218520D01*
X13393502Y-15218520D02*
X13412550Y-15208996D01*
X13603026Y-15208996D02*
X13622074Y-15208996D01*
X13622074Y-15208996D02*
X13641121Y-15218520D01*
X13641121Y-15218520D02*
X13650645Y-15228044D01*
X13650645Y-15228044D02*
X13660169Y-15247092D01*
X13660169Y-15247092D02*
X13669693Y-15285187D01*
X13669693Y-15285187D02*
X13669693Y-15332806D01*
X13669693Y-15332806D02*
X13660169Y-15370901D01*
X13660169Y-15370901D02*
X13650645Y-15389949D01*
X13650645Y-15389949D02*
X13641121Y-15399473D01*
X13641121Y-15399473D02*
X13622074Y-15408996D01*
X13622074Y-15408996D02*
X13603026Y-15408996D01*
X13603026Y-15408996D02*
X13583978Y-15399473D01*
X13583978Y-15399473D02*
X13574455Y-15389949D01*
X13574455Y-15389949D02*
X13564931Y-15370901D01*
X13564931Y-15370901D02*
X13555407Y-15332806D01*
X13555407Y-15332806D02*
X13555407Y-15285187D01*
X13555407Y-15285187D02*
X13564931Y-15247092D01*
X13564931Y-15247092D02*
X13574455Y-15228044D01*
X13574455Y-15228044D02*
X13583978Y-15218520D01*
X13583978Y-15218520D02*
X13603026Y-15208996D01*
X13755407Y-15408996D02*
X13755407Y-15275663D01*
X13755407Y-15294711D02*
X13764931Y-15285187D01*
X13764931Y-15285187D02*
X13783978Y-15275663D01*
X13783978Y-15275663D02*
X13812550Y-15275663D01*
X13812550Y-15275663D02*
X13831598Y-15285187D01*
X13831598Y-15285187D02*
X13841121Y-15304234D01*
X13841121Y-15304234D02*
X13841121Y-15408996D01*
X13841121Y-15304234D02*
X13850645Y-15285187D01*
X13850645Y-15285187D02*
X13869693Y-15275663D01*
X13869693Y-15275663D02*
X13898264Y-15275663D01*
X13898264Y-15275663D02*
X13917312Y-15285187D01*
X13917312Y-15285187D02*
X13926836Y-15304234D01*
X13926836Y-15304234D02*
X13926836Y-15408996D01*
X14022074Y-15408996D02*
X14022074Y-15275663D01*
X14022074Y-15294711D02*
X14031598Y-15285187D01*
X14031598Y-15285187D02*
X14050645Y-15275663D01*
X14050645Y-15275663D02*
X14079217Y-15275663D01*
X14079217Y-15275663D02*
X14098264Y-15285187D01*
X14098264Y-15285187D02*
X14107788Y-15304234D01*
X14107788Y-15304234D02*
X14107788Y-15408996D01*
X14107788Y-15304234D02*
X14117312Y-15285187D01*
X14117312Y-15285187D02*
X14136359Y-15275663D01*
X14136359Y-15275663D02*
X14164931Y-15275663D01*
X14164931Y-15275663D02*
X14183979Y-15285187D01*
X14183979Y-15285187D02*
X14193502Y-15304234D01*
X14193502Y-15304234D02*
X14193502Y-15408996D01*
X14583979Y-15199473D02*
X14412550Y-15456615D01*
X14841121Y-15208996D02*
X14860169Y-15208996D01*
X14860169Y-15208996D02*
X14879217Y-15218520D01*
X14879217Y-15218520D02*
X14888741Y-15228044D01*
X14888741Y-15228044D02*
X14898264Y-15247092D01*
X14898264Y-15247092D02*
X14907788Y-15285187D01*
X14907788Y-15285187D02*
X14907788Y-15332806D01*
X14907788Y-15332806D02*
X14898264Y-15370901D01*
X14898264Y-15370901D02*
X14888741Y-15389949D01*
X14888741Y-15389949D02*
X14879217Y-15399473D01*
X14879217Y-15399473D02*
X14860169Y-15408996D01*
X14860169Y-15408996D02*
X14841121Y-15408996D01*
X14841121Y-15408996D02*
X14822074Y-15399473D01*
X14822074Y-15399473D02*
X14812550Y-15389949D01*
X14812550Y-15389949D02*
X14803026Y-15370901D01*
X14803026Y-15370901D02*
X14793502Y-15332806D01*
X14793502Y-15332806D02*
X14793502Y-15285187D01*
X14793502Y-15285187D02*
X14803026Y-15247092D01*
X14803026Y-15247092D02*
X14812550Y-15228044D01*
X14812550Y-15228044D02*
X14822074Y-15218520D01*
X14822074Y-15218520D02*
X14841121Y-15208996D01*
X14993502Y-15389949D02*
X15003026Y-15399473D01*
X15003026Y-15399473D02*
X14993502Y-15408996D01*
X14993502Y-15408996D02*
X14983979Y-15399473D01*
X14983979Y-15399473D02*
X14993502Y-15389949D01*
X14993502Y-15389949D02*
X14993502Y-15408996D01*
X15126836Y-15208996D02*
X15145883Y-15208996D01*
X15145883Y-15208996D02*
X15164931Y-15218520D01*
X15164931Y-15218520D02*
X15174455Y-15228044D01*
X15174455Y-15228044D02*
X15183979Y-15247092D01*
X15183979Y-15247092D02*
X15193502Y-15285187D01*
X15193502Y-15285187D02*
X15193502Y-15332806D01*
X15193502Y-15332806D02*
X15183979Y-15370901D01*
X15183979Y-15370901D02*
X15174455Y-15389949D01*
X15174455Y-15389949D02*
X15164931Y-15399473D01*
X15164931Y-15399473D02*
X15145883Y-15408996D01*
X15145883Y-15408996D02*
X15126836Y-15408996D01*
X15126836Y-15408996D02*
X15107788Y-15399473D01*
X15107788Y-15399473D02*
X15098264Y-15389949D01*
X15098264Y-15389949D02*
X15088741Y-15370901D01*
X15088741Y-15370901D02*
X15079217Y-15332806D01*
X15079217Y-15332806D02*
X15079217Y-15285187D01*
X15079217Y-15285187D02*
X15088741Y-15247092D01*
X15088741Y-15247092D02*
X15098264Y-15228044D01*
X15098264Y-15228044D02*
X15107788Y-15218520D01*
X15107788Y-15218520D02*
X15126836Y-15208996D01*
X15260169Y-15208996D02*
X15383979Y-15208996D01*
X15383979Y-15208996D02*
X15317312Y-15285187D01*
X15317312Y-15285187D02*
X15345883Y-15285187D01*
X15345883Y-15285187D02*
X15364931Y-15294711D01*
X15364931Y-15294711D02*
X15374455Y-15304234D01*
X15374455Y-15304234D02*
X15383979Y-15323282D01*
X15383979Y-15323282D02*
X15383979Y-15370901D01*
X15383979Y-15370901D02*
X15374455Y-15389949D01*
X15374455Y-15389949D02*
X15364931Y-15399473D01*
X15364931Y-15399473D02*
X15345883Y-15408996D01*
X15345883Y-15408996D02*
X15288741Y-15408996D01*
X15288741Y-15408996D02*
X15269693Y-15399473D01*
X15269693Y-15399473D02*
X15260169Y-15389949D01*
X15479217Y-15408996D02*
X15517312Y-15408996D01*
X15517312Y-15408996D02*
X15536360Y-15399473D01*
X15536360Y-15399473D02*
X15545883Y-15389949D01*
X15545883Y-15389949D02*
X15564931Y-15361377D01*
X15564931Y-15361377D02*
X15574455Y-15323282D01*
X15574455Y-15323282D02*
X15574455Y-15247092D01*
X15574455Y-15247092D02*
X15564931Y-15228044D01*
X15564931Y-15228044D02*
X15555407Y-15218520D01*
X15555407Y-15218520D02*
X15536360Y-15208996D01*
X15536360Y-15208996D02*
X15498264Y-15208996D01*
X15498264Y-15208996D02*
X15479217Y-15218520D01*
X15479217Y-15218520D02*
X15469693Y-15228044D01*
X15469693Y-15228044D02*
X15460169Y-15247092D01*
X15460169Y-15247092D02*
X15460169Y-15294711D01*
X15460169Y-15294711D02*
X15469693Y-15313758D01*
X15469693Y-15313758D02*
X15479217Y-15323282D01*
X15479217Y-15323282D02*
X15498264Y-15332806D01*
X15498264Y-15332806D02*
X15536360Y-15332806D01*
X15536360Y-15332806D02*
X15555407Y-15323282D01*
X15555407Y-15323282D02*
X15564931Y-15313758D01*
X15564931Y-15313758D02*
X15574455Y-15294711D01*
X15745883Y-15275663D02*
X15745883Y-15408996D01*
X15698264Y-15199473D02*
X15650645Y-15342330D01*
X15650645Y-15342330D02*
X15774455Y-15342330D01*
X15841122Y-15208996D02*
X15841122Y-15247092D01*
X15917312Y-15208996D02*
X15917312Y-15247092D01*
X16212550Y-15485187D02*
X16203026Y-15475663D01*
X16203026Y-15475663D02*
X16183979Y-15447092D01*
X16183979Y-15447092D02*
X16174455Y-15428044D01*
X16174455Y-15428044D02*
X16164931Y-15399473D01*
X16164931Y-15399473D02*
X16155407Y-15351853D01*
X16155407Y-15351853D02*
X16155407Y-15313758D01*
X16155407Y-15313758D02*
X16164931Y-15266139D01*
X16164931Y-15266139D02*
X16174455Y-15237568D01*
X16174455Y-15237568D02*
X16183979Y-15218520D01*
X16183979Y-15218520D02*
X16203026Y-15189949D01*
X16203026Y-15189949D02*
X16212550Y-15180425D01*
X16393503Y-15408996D02*
X16279217Y-15408996D01*
X16336360Y-15408996D02*
X16336360Y-15208996D01*
X16336360Y-15208996D02*
X16317312Y-15237568D01*
X16317312Y-15237568D02*
X16298264Y-15256615D01*
X16298264Y-15256615D02*
X16279217Y-15266139D01*
X16469693Y-15228044D02*
X16479217Y-15218520D01*
X16479217Y-15218520D02*
X16498264Y-15208996D01*
X16498264Y-15208996D02*
X16545884Y-15208996D01*
X16545884Y-15208996D02*
X16564931Y-15218520D01*
X16564931Y-15218520D02*
X16574455Y-15228044D01*
X16574455Y-15228044D02*
X16583979Y-15247092D01*
X16583979Y-15247092D02*
X16583979Y-15266139D01*
X16583979Y-15266139D02*
X16574455Y-15294711D01*
X16574455Y-15294711D02*
X16460169Y-15408996D01*
X16460169Y-15408996D02*
X16583979Y-15408996D01*
X16822074Y-15408996D02*
X16822074Y-15208996D01*
X16907788Y-15408996D02*
X16907788Y-15304234D01*
X16907788Y-15304234D02*
X16898265Y-15285187D01*
X16898265Y-15285187D02*
X16879217Y-15275663D01*
X16879217Y-15275663D02*
X16850646Y-15275663D01*
X16850646Y-15275663D02*
X16831598Y-15285187D01*
X16831598Y-15285187D02*
X16822074Y-15294711D01*
X17031598Y-15408996D02*
X17012550Y-15399473D01*
X17012550Y-15399473D02*
X17003027Y-15389949D01*
X17003027Y-15389949D02*
X16993503Y-15370901D01*
X16993503Y-15370901D02*
X16993503Y-15313758D01*
X16993503Y-15313758D02*
X17003027Y-15294711D01*
X17003027Y-15294711D02*
X17012550Y-15285187D01*
X17012550Y-15285187D02*
X17031598Y-15275663D01*
X17031598Y-15275663D02*
X17060169Y-15275663D01*
X17060169Y-15275663D02*
X17079217Y-15285187D01*
X17079217Y-15285187D02*
X17088741Y-15294711D01*
X17088741Y-15294711D02*
X17098265Y-15313758D01*
X17098265Y-15313758D02*
X17098265Y-15370901D01*
X17098265Y-15370901D02*
X17088741Y-15389949D01*
X17088741Y-15389949D02*
X17079217Y-15399473D01*
X17079217Y-15399473D02*
X17060169Y-15408996D01*
X17060169Y-15408996D02*
X17031598Y-15408996D01*
X17212550Y-15408996D02*
X17193503Y-15399473D01*
X17193503Y-15399473D02*
X17183979Y-15380425D01*
X17183979Y-15380425D02*
X17183979Y-15208996D01*
X17364931Y-15399473D02*
X17345884Y-15408996D01*
X17345884Y-15408996D02*
X17307788Y-15408996D01*
X17307788Y-15408996D02*
X17288741Y-15399473D01*
X17288741Y-15399473D02*
X17279217Y-15380425D01*
X17279217Y-15380425D02*
X17279217Y-15304234D01*
X17279217Y-15304234D02*
X17288741Y-15285187D01*
X17288741Y-15285187D02*
X17307788Y-15275663D01*
X17307788Y-15275663D02*
X17345884Y-15275663D01*
X17345884Y-15275663D02*
X17364931Y-15285187D01*
X17364931Y-15285187D02*
X17374455Y-15304234D01*
X17374455Y-15304234D02*
X17374455Y-15323282D01*
X17374455Y-15323282D02*
X17279217Y-15342330D01*
X17450646Y-15399473D02*
X17469693Y-15408996D01*
X17469693Y-15408996D02*
X17507788Y-15408996D01*
X17507788Y-15408996D02*
X17526836Y-15399473D01*
X17526836Y-15399473D02*
X17536360Y-15380425D01*
X17536360Y-15380425D02*
X17536360Y-15370901D01*
X17536360Y-15370901D02*
X17526836Y-15351853D01*
X17526836Y-15351853D02*
X17507788Y-15342330D01*
X17507788Y-15342330D02*
X17479217Y-15342330D01*
X17479217Y-15342330D02*
X17460169Y-15332806D01*
X17460169Y-15332806D02*
X17450646Y-15313758D01*
X17450646Y-15313758D02*
X17450646Y-15304234D01*
X17450646Y-15304234D02*
X17460169Y-15285187D01*
X17460169Y-15285187D02*
X17479217Y-15275663D01*
X17479217Y-15275663D02*
X17507788Y-15275663D01*
X17507788Y-15275663D02*
X17526836Y-15285187D01*
X17603027Y-15485187D02*
X17612550Y-15475663D01*
X17612550Y-15475663D02*
X17631598Y-15447092D01*
X17631598Y-15447092D02*
X17641122Y-15428044D01*
X17641122Y-15428044D02*
X17650646Y-15399473D01*
X17650646Y-15399473D02*
X17660169Y-15351853D01*
X17660169Y-15351853D02*
X17660169Y-15313758D01*
X17660169Y-15313758D02*
X17650646Y-15266139D01*
X17650646Y-15266139D02*
X17641122Y-15237568D01*
X17641122Y-15237568D02*
X17631598Y-15218520D01*
X17631598Y-15218520D02*
X17612550Y-15189949D01*
X17612550Y-15189949D02*
X17603027Y-15180425D01*
M02*
