%TF.GenerationSoftware,KiCad,Pcbnew,7.0.5*%
%TF.CreationDate,2023-07-07T08:41:41+03:00*%
%TF.ProjectId,carrier_board_v1,63617272-6965-4725-9f62-6f6172645f76,v01*%
%TF.SameCoordinates,Original*%
%TF.FileFunction,Soldermask,Bot*%
%TF.FilePolarity,Negative*%
%FSLAX46Y46*%
G04 Gerber Fmt 4.6, Leading zero omitted, Abs format (unit mm)*
G04 Created by KiCad (PCBNEW 7.0.5) date 2023-07-07 08:41:41*
%MOMM*%
%LPD*%
G01*
G04 APERTURE LIST*
G04 Aperture macros list*
%AMRoundRect*
0 Rectangle with rounded corners*
0 $1 Rounding radius*
0 $2 $3 $4 $5 $6 $7 $8 $9 X,Y pos of 4 corners*
0 Add a 4 corners polygon primitive as box body*
4,1,4,$2,$3,$4,$5,$6,$7,$8,$9,$2,$3,0*
0 Add four circle primitives for the rounded corners*
1,1,$1+$1,$2,$3*
1,1,$1+$1,$4,$5*
1,1,$1+$1,$6,$7*
1,1,$1+$1,$8,$9*
0 Add four rect primitives between the rounded corners*
20,1,$1+$1,$2,$3,$4,$5,0*
20,1,$1+$1,$4,$5,$6,$7,0*
20,1,$1+$1,$6,$7,$8,$9,0*
20,1,$1+$1,$8,$9,$2,$3,0*%
%AMOutline4P*
0 Free polygon, 4 corners , with rotation*
0 The origin of the aperture is its center*
0 number of corners: always 4*
0 $1 to $8 corner X, Y*
0 $9 Rotation angle, in degrees counterclockwise*
0 create outline with 4 corners*
4,1,4,$1,$2,$3,$4,$5,$6,$7,$8,$1,$2,$9*%
%AMFreePoly0*
4,1,17,1.395000,0.765000,0.855000,0.765000,0.855000,0.535000,1.395000,0.535000,1.395000,0.115000,0.855000,0.115000,0.855000,-0.115000,1.395000,-0.115000,1.395000,-0.535000,0.855000,-0.535000,0.855000,-0.765000,1.395000,-0.765000,1.395000,-1.185000,-0.855000,-1.185000,-0.855000,1.185000,1.395000,1.185000,1.395000,0.765000,1.395000,0.765000,$1*%
G04 Aperture macros list end*
%ADD10R,1.700000X1.700000*%
%ADD11O,1.700000X1.700000*%
%ADD12C,6.100000*%
%ADD13RoundRect,0.100000X0.100000X-0.130000X0.100000X0.130000X-0.100000X0.130000X-0.100000X-0.130000X0*%
%ADD14RoundRect,0.150000X-0.587500X-0.150000X0.587500X-0.150000X0.587500X0.150000X-0.587500X0.150000X0*%
%ADD15C,0.499999*%
%ADD16R,1.679999X1.679999*%
%ADD17R,0.240000X0.599999*%
%ADD18R,0.599999X0.240000*%
%ADD19C,1.168400*%
%ADD20RoundRect,0.100000X-0.130000X-0.100000X0.130000X-0.100000X0.130000X0.100000X-0.130000X0.100000X0*%
%ADD21RoundRect,0.100000X0.130000X0.100000X-0.130000X0.100000X-0.130000X-0.100000X0.130000X-0.100000X0*%
%ADD22C,0.650000*%
%ADD23R,0.600000X1.150000*%
%ADD24R,0.300000X1.150000*%
%ADD25O,1.050000X2.100000*%
%ADD26O,1.000000X2.000000*%
%ADD27R,0.300000X0.300000*%
%ADD28R,2.209800X2.260600*%
%ADD29Outline4P,-0.800000X-1.500000X0.800000X-1.500000X0.800000X1.500000X-0.800000X1.500000X180.000000*%
%ADD30Outline4P,-0.500000X-2.750000X0.500000X-2.750000X0.500000X2.750000X-0.500000X2.750000X180.000000*%
%ADD31R,1.000000X0.300000*%
%ADD32R,1.300000X1.650000*%
%ADD33RoundRect,0.100000X-0.100000X0.130000X-0.100000X-0.130000X0.100000X-0.130000X0.100000X0.130000X0*%
%ADD34RoundRect,0.250000X0.650000X-1.000000X0.650000X1.000000X-0.650000X1.000000X-0.650000X-1.000000X0*%
%ADD35R,0.700000X0.420000*%
%ADD36FreePoly0,0.000000*%
G04 APERTURE END LIST*
D10*
%TO.C,J7*%
X136075000Y-117200000D03*
D11*
X138615000Y-117200000D03*
X141155000Y-117200000D03*
X143695000Y-117200000D03*
X146235000Y-117200000D03*
X148775000Y-117200000D03*
X151315000Y-117200000D03*
X153855000Y-117200000D03*
X156395000Y-117200000D03*
X158935000Y-117200000D03*
X161475000Y-117200000D03*
X164015000Y-117200000D03*
%TD*%
D12*
%TO.C,V1*%
X163000000Y-130000000D03*
X163000000Y-82000000D03*
X130000000Y-130000000D03*
X130000000Y-82000000D03*
%TD*%
D13*
%TO.C,L1*%
X147130000Y-105280000D03*
X147130000Y-104640000D03*
%TD*%
%TO.C,R6*%
X136800000Y-88040000D03*
X136800000Y-87400000D03*
%TD*%
%TO.C,R2*%
X158525000Y-88175000D03*
X158525000Y-87535000D03*
%TD*%
D14*
%TO.C,U5*%
X147155000Y-110010000D03*
X147155000Y-108110000D03*
X149030000Y-109060000D03*
%TD*%
D13*
%TO.C,R1*%
X158550000Y-91625000D03*
X158550000Y-90985000D03*
%TD*%
%TO.C,R5*%
X141150000Y-101575000D03*
X141150000Y-100935000D03*
%TD*%
D15*
%TO.C,U1*%
X147964999Y-90314998D03*
X147964999Y-89135001D03*
D16*
X147375003Y-89725000D03*
D15*
X147375000Y-89725000D03*
X146785001Y-90314998D03*
X146785001Y-89135001D03*
D17*
X146625002Y-91124999D03*
X147125000Y-91124999D03*
X147625002Y-91124999D03*
X148125001Y-91124999D03*
D18*
X148775000Y-90475001D03*
X148775000Y-89975002D03*
X148775000Y-89475000D03*
X148775000Y-88975001D03*
D17*
X148125001Y-88325000D03*
X147625002Y-88325000D03*
X147125000Y-88325000D03*
X146625002Y-88325000D03*
D18*
X145975000Y-88975001D03*
X145975000Y-89475000D03*
X145975000Y-89975002D03*
X145975000Y-90475001D03*
%TD*%
D19*
%TO.C,C7*%
X162080000Y-89475000D03*
X164620000Y-89475000D03*
%TD*%
D20*
%TO.C,C6*%
X153960000Y-91125000D03*
X154600000Y-91125000D03*
%TD*%
D21*
%TO.C,C3*%
X141300000Y-95625000D03*
X140660000Y-95625000D03*
%TD*%
D22*
%TO.C,J4*%
X141377500Y-128125000D03*
X135597500Y-128125000D03*
D23*
X141687500Y-127050000D03*
X140887500Y-127050000D03*
D24*
X139737500Y-127050000D03*
X138737500Y-127050000D03*
X138237500Y-127050000D03*
X137237500Y-127050000D03*
D23*
X135287500Y-127050000D03*
X136087500Y-127050000D03*
D24*
X136737500Y-127050000D03*
X137737500Y-127050000D03*
X139237500Y-127050000D03*
X140237500Y-127050000D03*
D25*
X142807500Y-127625000D03*
D26*
X142807500Y-131805000D03*
X134167500Y-131805000D03*
D25*
X134167500Y-127625000D03*
%TD*%
D27*
%TO.C,U3*%
X137600000Y-124300000D03*
X138300000Y-124300000D03*
X137950000Y-125150000D03*
%TD*%
D21*
%TO.C,R3*%
X141190000Y-124600000D03*
X140550000Y-124600000D03*
%TD*%
%TO.C,C1*%
X147190000Y-114525000D03*
X146550000Y-114525000D03*
%TD*%
%TO.C,C8*%
X145620000Y-103185000D03*
X144980000Y-103185000D03*
%TD*%
D22*
%TO.C,J6*%
X135160000Y-84930000D03*
X140940000Y-84930000D03*
D23*
X134850000Y-86005000D03*
X135650000Y-86005000D03*
D24*
X136800000Y-86005000D03*
X137800000Y-86005000D03*
X138300000Y-86005000D03*
X139300000Y-86005000D03*
D23*
X141250000Y-86005000D03*
X140450000Y-86005000D03*
D24*
X139800000Y-86005000D03*
X138800000Y-86005000D03*
X137300000Y-86005000D03*
X136300000Y-86005000D03*
D25*
X133730000Y-85430000D03*
D26*
X133730000Y-81250000D03*
X142370000Y-81250000D03*
D25*
X142370000Y-85430000D03*
%TD*%
D28*
%TO.C,CR1*%
X132239400Y-89575000D03*
X128150000Y-89575000D03*
%TD*%
D20*
%TO.C,L2*%
X150667500Y-93510000D03*
X151307500Y-93510000D03*
%TD*%
D13*
%TO.C,R9*%
X138525000Y-88050000D03*
X138525000Y-87410000D03*
%TD*%
D21*
%TO.C,C5*%
X143275000Y-91150000D03*
X142635000Y-91150000D03*
%TD*%
D29*
%TO.C,J1*%
X158200000Y-81300000D03*
X151200000Y-81300000D03*
D30*
X155800000Y-83550000D03*
X153800000Y-83550000D03*
%TD*%
D31*
%TO.C,J3*%
X132252800Y-108102250D03*
X132252800Y-107602250D03*
X132252800Y-107102250D03*
X132252800Y-106602250D03*
X132252800Y-106102250D03*
X132252800Y-105602250D03*
X132252800Y-105102250D03*
X132252800Y-104602250D03*
X132252800Y-104102250D03*
X132252800Y-103602250D03*
X132252800Y-103102250D03*
X132252800Y-102602250D03*
X132252800Y-102102250D03*
X132252800Y-101602250D03*
X132252800Y-101102250D03*
X132252800Y-100602250D03*
X132252800Y-100102250D03*
X132252800Y-99602250D03*
X132252800Y-99102250D03*
X132252800Y-98602250D03*
X132252800Y-98102250D03*
X132252800Y-97602250D03*
D32*
X130352800Y-110377250D03*
X130352800Y-95327250D03*
%TD*%
D20*
%TO.C,C4*%
X149817500Y-95435000D03*
X150457500Y-95435000D03*
%TD*%
D33*
%TO.C,C2*%
X145050000Y-99000000D03*
X145050000Y-99640000D03*
%TD*%
D20*
%TO.C,R4*%
X136160000Y-124625000D03*
X136800000Y-124625000D03*
%TD*%
D34*
%TO.C,D2*%
X143605000Y-112785000D03*
X143605000Y-108785000D03*
%TD*%
D35*
%TO.C,Q1*%
X149805000Y-101510000D03*
X149805000Y-100860000D03*
X149805000Y-100210000D03*
X149805000Y-99560000D03*
D36*
X151760000Y-100535000D03*
%TD*%
D34*
%TO.C,D1*%
X138175000Y-99600000D03*
X138175000Y-95600000D03*
%TD*%
D20*
%TO.C,R10*%
X142610000Y-89975000D03*
X143250000Y-89975000D03*
%TD*%
M02*
