%TF.GenerationSoftware,KiCad,Pcbnew,7.0.5*%
%TF.CreationDate,2023-07-07T08:41:41+03:00*%
%TF.ProjectId,carrier_board_v1,63617272-6965-4725-9f62-6f6172645f76,v01*%
%TF.SameCoordinates,Original*%
%TF.FileFunction,Paste,Bot*%
%TF.FilePolarity,Positive*%
%FSLAX46Y46*%
G04 Gerber Fmt 4.6, Leading zero omitted, Abs format (unit mm)*
G04 Created by KiCad (PCBNEW 7.0.5) date 2023-07-07 08:41:41*
%MOMM*%
%LPD*%
G01*
G04 APERTURE LIST*
G04 Aperture macros list*
%AMRoundRect*
0 Rectangle with rounded corners*
0 $1 Rounding radius*
0 $2 $3 $4 $5 $6 $7 $8 $9 X,Y pos of 4 corners*
0 Add a 4 corners polygon primitive as box body*
4,1,4,$2,$3,$4,$5,$6,$7,$8,$9,$2,$3,0*
0 Add four circle primitives for the rounded corners*
1,1,$1+$1,$2,$3*
1,1,$1+$1,$4,$5*
1,1,$1+$1,$6,$7*
1,1,$1+$1,$8,$9*
0 Add four rect primitives between the rounded corners*
20,1,$1+$1,$2,$3,$4,$5,0*
20,1,$1+$1,$4,$5,$6,$7,0*
20,1,$1+$1,$6,$7,$8,$9,0*
20,1,$1+$1,$8,$9,$2,$3,0*%
%AMOutline4P*
0 Free polygon, 4 corners , with rotation*
0 The origin of the aperture is its center*
0 number of corners: always 4*
0 $1 to $8 corner X, Y*
0 $9 Rotation angle, in degrees counterclockwise*
0 create outline with 4 corners*
4,1,4,$1,$2,$3,$4,$5,$6,$7,$8,$1,$2,$9*%
G04 Aperture macros list end*
%ADD10RoundRect,0.079500X0.100500X-0.079500X0.100500X0.079500X-0.100500X0.079500X-0.100500X-0.079500X0*%
%ADD11RoundRect,0.150000X-0.587500X-0.150000X0.587500X-0.150000X0.587500X0.150000X-0.587500X0.150000X0*%
%ADD12R,0.240000X0.599999*%
%ADD13R,0.599999X0.240000*%
%ADD14RoundRect,0.079500X-0.079500X-0.100500X0.079500X-0.100500X0.079500X0.100500X-0.079500X0.100500X0*%
%ADD15RoundRect,0.079500X0.079500X0.100500X-0.079500X0.100500X-0.079500X-0.100500X0.079500X-0.100500X0*%
%ADD16R,0.600000X1.150000*%
%ADD17R,0.300000X1.150000*%
%ADD18R,0.300000X0.300000*%
%ADD19R,2.209800X2.260600*%
%ADD20Outline4P,-0.800000X-1.500000X0.800000X-1.500000X0.800000X1.500000X-0.800000X1.500000X180.000000*%
%ADD21Outline4P,-0.500000X-2.750000X0.500000X-2.750000X0.500000X2.750000X-0.500000X2.750000X180.000000*%
%ADD22R,1.000000X0.300000*%
%ADD23R,1.300000X1.650000*%
%ADD24RoundRect,0.079500X-0.100500X0.079500X-0.100500X-0.079500X0.100500X-0.079500X0.100500X0.079500X0*%
%ADD25RoundRect,0.250000X0.650000X-1.000000X0.650000X1.000000X-0.650000X1.000000X-0.650000X-1.000000X0*%
%ADD26R,0.600000X1.000000*%
%ADD27R,0.700000X0.420000*%
G04 APERTURE END LIST*
%TO.C,U1*%
G36*
X148112570Y-88950894D02*
G01*
X148121295Y-88953541D01*
X148129334Y-88957836D01*
X148136380Y-88963619D01*
X148142164Y-88970665D01*
X148146459Y-88978704D01*
X148149106Y-88987429D01*
X148150000Y-88996500D01*
X148150000Y-90453499D01*
X148149106Y-90462570D01*
X148146459Y-90471295D01*
X148142164Y-90479334D01*
X148136380Y-90486380D01*
X148129334Y-90492163D01*
X148121295Y-90496458D01*
X148112570Y-90499105D01*
X148103500Y-90499999D01*
X146646500Y-90499999D01*
X146637430Y-90499105D01*
X146628705Y-90496458D01*
X146620666Y-90492163D01*
X146613620Y-90486380D01*
X146607836Y-90479334D01*
X146603541Y-90471295D01*
X146600894Y-90462570D01*
X146600000Y-90453499D01*
X146600000Y-88996500D01*
X146600894Y-88987429D01*
X146603541Y-88978704D01*
X146607836Y-88970665D01*
X146613620Y-88963619D01*
X146620666Y-88957836D01*
X146628705Y-88953541D01*
X146637430Y-88950894D01*
X146646500Y-88950000D01*
X148103500Y-88950000D01*
X148112570Y-88950894D01*
G37*
%TD*%
D10*
%TO.C,L1*%
X147130000Y-105305000D03*
X147130000Y-104615000D03*
%TD*%
%TO.C,R6*%
X136800000Y-88065000D03*
X136800000Y-87375000D03*
%TD*%
%TO.C,R2*%
X158525000Y-88200000D03*
X158525000Y-87510000D03*
%TD*%
D11*
%TO.C,U5*%
X147155000Y-110010000D03*
X147155000Y-108110000D03*
X149030000Y-109060000D03*
%TD*%
D10*
%TO.C,R1*%
X158550000Y-91650000D03*
X158550000Y-90960000D03*
%TD*%
%TO.C,R5*%
X141150000Y-101600000D03*
X141150000Y-100910000D03*
%TD*%
D12*
%TO.C,U1*%
X146625002Y-91124999D03*
X147125000Y-91124999D03*
X147625002Y-91124999D03*
X148125001Y-91124999D03*
D13*
X148775000Y-90475001D03*
X148775000Y-89975002D03*
X148775000Y-89475000D03*
X148775000Y-88975001D03*
D12*
X148125001Y-88325000D03*
X147625002Y-88325000D03*
X147125000Y-88325000D03*
X146625002Y-88325000D03*
D13*
X145975000Y-88975001D03*
X145975000Y-89475000D03*
X145975000Y-89975002D03*
X145975000Y-90475001D03*
%TD*%
D14*
%TO.C,C6*%
X153935000Y-91125000D03*
X154625000Y-91125000D03*
%TD*%
D15*
%TO.C,C3*%
X141325000Y-95625000D03*
X140635000Y-95625000D03*
%TD*%
D16*
%TO.C,J4*%
X141687500Y-127050000D03*
X140887500Y-127050000D03*
D17*
X139737500Y-127050000D03*
X138737500Y-127050000D03*
X138237500Y-127050000D03*
X137237500Y-127050000D03*
D16*
X135287500Y-127050000D03*
X136087500Y-127050000D03*
D17*
X136737500Y-127050000D03*
X137737500Y-127050000D03*
X139237500Y-127050000D03*
X140237500Y-127050000D03*
%TD*%
D18*
%TO.C,U3*%
X137600000Y-124300000D03*
X138300000Y-124300000D03*
X137950000Y-125150000D03*
%TD*%
D15*
%TO.C,R3*%
X141215000Y-124600000D03*
X140525000Y-124600000D03*
%TD*%
%TO.C,C1*%
X147215000Y-114525000D03*
X146525000Y-114525000D03*
%TD*%
%TO.C,C8*%
X145645000Y-103185000D03*
X144955000Y-103185000D03*
%TD*%
D16*
%TO.C,J6*%
X134850000Y-86005000D03*
X135650000Y-86005000D03*
D17*
X136800000Y-86005000D03*
X137800000Y-86005000D03*
X138300000Y-86005000D03*
X139300000Y-86005000D03*
D16*
X141250000Y-86005000D03*
X140450000Y-86005000D03*
D17*
X139800000Y-86005000D03*
X138800000Y-86005000D03*
X137300000Y-86005000D03*
X136300000Y-86005000D03*
%TD*%
D19*
%TO.C,CR1*%
X132239400Y-89575000D03*
X128150000Y-89575000D03*
%TD*%
D14*
%TO.C,L2*%
X150642500Y-93510000D03*
X151332500Y-93510000D03*
%TD*%
D10*
%TO.C,R9*%
X138525000Y-88075000D03*
X138525000Y-87385000D03*
%TD*%
D15*
%TO.C,C5*%
X143300000Y-91150000D03*
X142610000Y-91150000D03*
%TD*%
D20*
%TO.C,J1*%
X158200000Y-81300000D03*
X151200000Y-81300000D03*
D21*
X155800000Y-83550000D03*
X153800000Y-83550000D03*
%TD*%
D22*
%TO.C,J3*%
X132252800Y-108102250D03*
X132252800Y-107602250D03*
X132252800Y-107102250D03*
X132252800Y-106602250D03*
X132252800Y-106102250D03*
X132252800Y-105602250D03*
X132252800Y-105102250D03*
X132252800Y-104602250D03*
X132252800Y-104102250D03*
X132252800Y-103602250D03*
X132252800Y-103102250D03*
X132252800Y-102602250D03*
X132252800Y-102102250D03*
X132252800Y-101602250D03*
X132252800Y-101102250D03*
X132252800Y-100602250D03*
X132252800Y-100102250D03*
X132252800Y-99602250D03*
X132252800Y-99102250D03*
X132252800Y-98602250D03*
X132252800Y-98102250D03*
X132252800Y-97602250D03*
D23*
X130352800Y-110377250D03*
X130352800Y-95327250D03*
%TD*%
D14*
%TO.C,C4*%
X149792500Y-95435000D03*
X150482500Y-95435000D03*
%TD*%
D24*
%TO.C,C2*%
X145050000Y-98975000D03*
X145050000Y-99665000D03*
%TD*%
D14*
%TO.C,R4*%
X136135000Y-124625000D03*
X136825000Y-124625000D03*
%TD*%
D25*
%TO.C,D2*%
X143605000Y-112785000D03*
X143605000Y-108785000D03*
%TD*%
D26*
%TO.C,Q1*%
X151325000Y-99970000D03*
X151325000Y-101100000D03*
X152035000Y-99970000D03*
X152035000Y-101100000D03*
D27*
X152805000Y-99560000D03*
X152805000Y-100210000D03*
X152805000Y-100860000D03*
X152805000Y-101510000D03*
X149805000Y-101510000D03*
X149805000Y-100860000D03*
X149805000Y-100210000D03*
X149805000Y-99560000D03*
%TD*%
D25*
%TO.C,D1*%
X138175000Y-99600000D03*
X138175000Y-95600000D03*
%TD*%
D14*
%TO.C,R10*%
X142585000Y-89975000D03*
X143275000Y-89975000D03*
%TD*%
M02*
